<svg width="117" height="30" fill="none" xmlns="http://www.w3.org/2000/svg"><path d="M46.202 5.965H32.437l.999-2.745h13.748l-.982 2.745zm-.49 1.364H31.947l-.993 2.74h13.748l1.01-2.74zm-1.49 4.091H30.465l-.999 2.74h13.736l1.022-2.74zm34.722 9.588h2.465a2.12 2.12 0 001.893-.743 2.33 2.33 0 00.479-1.567 2.21 2.21 0 00-.855-1.875 2.465 2.465 0 00-1.558-.395h-2.453v4.574l.03.006zm-3.25 2.756V7.328h10.638l-.941 2.757h-6.447v3.639h2.626c2.124 0 3.22.51 3.983 1.16a4.888 4.888 0 011.616 3.906 4.753 4.753 0 01-1.922 4.063c-1.028.714-2.095.917-4.271.917l-5.281-.006zm-9.424 0v-13.68h-4.733V7.329h13.13l-.94 2.757h-4.185v13.697h-3.278l.006-.018zm-13.101-9.866h1.864c.387.032.776.003 1.154-.087a1.81 1.81 0 001.241-1.875 1.667 1.667 0 00-.273-1.152 1.65 1.65 0 00-.968-.676 4.446 4.446 0 00-1.24-.116h-1.732v3.906h-.046zm0 2.844v4.312h2.268a2.42 2.42 0 001.731-.482 2.14 2.14 0 00.699-1.683c.012-.505-.14-1-.433-1.41-.48-.627-1.085-.743-2.095-.743h-2.165l-.005.006zM58.409 15v.058a5.76 5.76 0 011.535.928 3.886 3.886 0 011.385 3.221c0 2.252-1.183 3.877-3.133 4.353a8.205 8.205 0 01-2.384.232h-5.887V7.328h5.24a9.542 9.542 0 012.482.232c1.893.511 3.134 1.828 3.134 3.906a3.653 3.653 0 01-1.039 2.67c-.366.374-.804.67-1.287.87h-.046v-.005z" fill="#F5F5F5"/></svg>