<svg width="124" height="34" fill="none" xmlns="http://www.w3.org/2000/svg"><path d="M12.258.927c-2.37 0-4.688.717-6.659 2.06a12.175 12.175 0 00-4.415 5.486 12.452 12.452 0 00-.682 7.064 12.303 12.303 0 003.28 6.26 11.916 11.916 0 006.138 3.345 11.77 11.77 0 006.925-.696 12.04 12.04 0 005.38-4.502 12.399 12.399 0 002.02-6.792 12.43 12.43 0 00-.91-4.68 12.237 12.237 0 00-2.599-3.967 11.965 11.965 0 00-3.89-2.65 11.774 11.774 0 00-4.588-.928zm-1.732 17.41l-.866 2.65a8.263 8.263 0 01-4.016-3.082 8.525 8.525 0 01-1.515-4.887 8.522 8.522 0 011.547-4.876 8.26 8.26 0 014.036-3.055l.866 2.65a5.371 5.371 0 00-2.657 2.015 5.543 5.543 0 00-.99 3.223 5.378 5.378 0 00.905 3.313 5.206 5.206 0 002.707 2.049h-.017zm4.088 2.765l-.866-2.703a5.445 5.445 0 002.715-2.004 5.622 5.622 0 001.049-3.246 5.623 5.623 0 00-1.017-3.257A5.449 5.449 0 0013.8 7.86l.866-2.703a8.233 8.233 0 014.087 3.075 8.498 8.498 0 011.535 4.938 8.494 8.494 0 01-1.605 4.916 8.226 8.226 0 01-4.13 3.015h.06zm18.143 12.454h-1.88v-5.635h3.257v.565h-2.598v1.767h1.212c1.109 0 1.828.45 1.828 1.58v.054c0 1.104-.72 1.669-1.819 1.669zm0-.503c.866 0 1.16-.398 1.16-1.07v-.052c0-.68-.39-1.07-1.212-1.07h-1.17v2.2l1.222-.008zm2.434-.619c0-.954.995-1.298 2.043-1.298h.607v-.283c0-.68-.226-.954-.866-.954-.641 0-.866.23-.936.733h-.667a1.478 1.478 0 01.533-.994 1.416 1.416 0 011.07-.304 1.293 1.293 0 011.094.364 1.348 1.348 0 01.395 1.102v2.703h-.719v-.512a1.436 1.436 0 01-.556.48 1.4 1.4 0 01-.717.138c-.675 0-1.325-.336-1.325-1.184l.044.01zm2.65-.282v-.504h-.555c-.866 0-1.377.23-1.377.786 0 .557.226.68.771.68.546 0 1.16-.353 1.16-.971v.009zm4.33-.398h-1.992v1.855h-.702v-4.116h.667v1.766h1.992v-1.766h.667v4.116h-.667l.035-1.855zm2.434-.283v2.085h-.667V29.44h.666v1.917l1.655-1.917h.77l-1.732 1.917 1.88 2.199h-.771l-1.801-2.085zm77.372-16.12l1.325 1.634a6.058 6.058 0 01-2.048 1.407 5.963 5.963 0 01-2.429.457 6.877 6.877 0 01-3.092-.618 5.102 5.102 0 01-2.033-2.058 5.244 5.244 0 01-.608-2.854c0-3.32 2.208-5.803 5.473-5.803 3.646 0 5.413 2.765 5.136 6.369h-8.288a2.843 2.843 0 001.273 2.2 3.992 3.992 0 002.269.564 4.065 4.065 0 001.643-.33 4.133 4.133 0 001.379-.968zm-6.461-3.436h5.855a2.823 2.823 0 00-.975-1.782 2.72 2.72 0 00-1.9-.638 2.89 2.89 0 00-1.929.648 2.999 2.999 0 00-1.051 1.772zM59.83 18.566h2.979l-4.694-5.582 4.642-5.238H59.83l-3.534 4.169H55.24v-4.17h-2.26v10.76h2.26v-4.276h1.047l3.543 4.337zm9.777-8.833a3.12 3.12 0 00-1.27.256c-.401.173-.764.43-1.065.752-.3.322-.532.704-.682 1.122a3.3 3.3 0 00-.187 1.306 3.3 3.3 0 00.187 1.307c.15.418.382.8.682 1.122.3.322.664.578 1.066.751.4.174.833.26 1.27.256a3.06 3.06 0 001.266-.25c.4-.173.76-.43 1.058-.754a3.19 3.19 0 00.827-2.432 3.198 3.198 0 00-.821-2.444 3.103 3.103 0 00-1.06-.758 3.058 3.058 0 00-1.27-.251v.017zm.39-2.2c2.98 0 5.196 2.368 5.196 5.636 0 3.268-2.156 5.689-5.196 5.689a4.453 4.453 0 01-1.88-.322 4.527 4.527 0 01-1.584-1.083v5.636h-2.287V7.746h2.27v1.298a4.201 4.201 0 011.562-1.167 4.12 4.12 0 011.91-.326l.009-.017zm30.052.23h-9.475v2.138h3.594v8.603h2.321V9.936h3.612v-2.19l-.052.017zm-48.672 0h-9.449v2.138h3.612v8.603h2.32V9.936h3.569v-2.19l-.052.017zm-12.272 5.389c0-.898-.35-1.758-.971-2.393a3.284 3.284 0 00-2.346-.99c-.88 0-1.723.356-2.345.99a3.418 3.418 0 00-.972 2.393c0 .897.35 1.757.972 2.392.622.634 1.465.99 2.345.99.88 0 1.724-.356 2.346-.99a3.418 3.418 0 00.971-2.392zm-8.946 0a5.888 5.888 0 01.904-3.255 5.722 5.722 0 012.53-2.188 5.587 5.587 0 013.295-.378 5.653 5.653 0 012.943 1.561 5.837 5.837 0 011.589 2.97 5.912 5.912 0 01-.305 3.368 5.782 5.782 0 01-2.094 2.623 5.612 5.612 0 01-3.172.987 5.378 5.378 0 01-2.186-.369A5.461 5.461 0 0131.8 17.25a5.593 5.593 0 01-1.236-1.876 5.68 5.68 0 01-.405-2.221zm81.105-5.406v10.758h-2.269V11.58l-5.525 6.934h-1.828V7.746h2.269v6.987l5.526-6.934h1.827v-.053zM89.05 18.566h-2.269V7.746h2.269v10.82zm-5.915-3.718a1.586 1.586 0 00-.427-1.161 1.518 1.518 0 00-1.123-.474h-2.27v3.322h2.322a1.53 1.53 0 00.606-.14 1.55 1.55 0 00.82-.919c.069-.202.096-.416.08-.628h-.008zm2.32 0a3.66 3.66 0 01-.267 1.455c-.187.46-.466.877-.82 1.221a3.51 3.51 0 01-1.233.781c-.46.17-.95.242-1.438.208h-4.694V7.746h2.313v3.533h2.598a3.297 3.297 0 012.555.977c.335.337.596.741.768 1.188.171.446.25.924.228 1.404h-.01z" fill="#F5F5F5"/></svg>