<svg width="180" height="174" fill="none" xmlns="http://www.w3.org/2000/svg"><g fill="#8A694F"><path d="M151.824 142.092c0-20.557-7.135-27.699-27.675-27.699 20.54 0 27.675-7.141 27.675-27.7 0 20.559 7.136 27.7 27.676 27.7-20.54 0-27.676 7.142-27.676 27.699zM19.052 50.986c0-13.773-4.79-18.543-18.552-18.543 13.761 0 18.552-4.795 18.552-18.568 0 13.773 4.791 18.568 18.527 18.568-13.761 0-18.527 4.795-18.527 18.543zm41.59-36.55c-3.975 0-7.212-3.239-7.212-7.218S56.667 0 60.642 0c3.976 0 7.212 3.24 7.212 7.218 0 3.979-3.236 7.218-7.212 7.218zm0-11.91a4.668 4.668 0 000 9.334 4.668 4.668 0 000-9.335zm61.697 146.784c-3.975 0-7.212-3.239-7.212-7.218s3.237-7.218 7.212-7.218c3.976 0 7.212 3.239 7.212 7.218s-3.236 7.218-7.212 7.218zm0-11.911a4.668 4.668 0 000 9.335 4.668 4.668 0 000-9.335z"/><path d="M121.447 96.437c-6.371 1.556-5.963 6.147-6.498 10.713 3.721-1.658 5.887-4.183 7.263-7.55.713-1.76.382-2.857-.765-3.188m-71.1 10.789c-.637-4.796-.484-9.387-6.473-10.942-.28.484-1.3 1.428-1.147 2.117.892 4.004 3.364 6.835 7.645 8.825m15.673-31.704c1.835.332 3.364.357 4.715.893 1.223.484 2.217 1.53 3.313 2.32-1.3.281-2.6.74-3.925.817-2.752.178-6.397-.944-8.104.433-6.167 4.974-12.92 10.203-9.302 19.971.332.919.383 1.964.561 2.934 3.084 15.482 11.901 25.786 27.293 30.02 1.275.357 2.804.331 4.078 0 12.41-3.367 21.152-10.968 25.28-23.21 1.606-4.77 2.141-9.897 3.058-14.896.637-3.443-.51-5.917-3.032-8.646-4.715-5.101-9.506-8.52-16.794-6.351-.536.153-1.377-.74-2.065-1.148.459-.561.841-1.428 1.427-1.632 2.04-.663 4.154-1.072 6.524-1.658-4.536-4.974-8.92-9.947-13.506-14.742-1.759-1.837-4.562-1.556-6.422.433-4.333 4.668-8.563 9.437-13.125 14.462m25.892 58.714c-6.218 3.316-12.36 3.392-18.323.153-.305.383-.51.51-.51.689-.611 9.233-5.759 14.717-14.321 17.446-4.74 1.505-9.404 3.29-14.119 4.846-7.033 2.321-11.493 7.294-14.576 13.773-.255.535-.357 1.25-.765 1.607-.663.561-1.555.867-2.345 1.275-.28-.918-1.044-2.04-.764-2.729 2.548-6.351 6.142-12.013 12.487-15.099 4.46-2.168 9.25-3.648 13.889-5.408 3.058-1.173 6.218-2.168 9.2-3.545 5.122-2.372 8.333-8.238 7.62-13.773-.103-.791-.944-1.658-1.657-2.168-6.957-4.719-12.36-10.661-15.392-18.619-.28-.765-1.224-1.556-2.014-1.786-6.141-1.811-9.684-5.993-11.29-12.038-.203-.714-.356-1.684-.866-2.066-3.567-2.576-3.083-6.122-2.675-9.769.305-2.704.637-5.51.356-8.187-1.12-10.458.179-20.558 4.23-30.225 5.964-14.283 16.616-23.082 31.728-26.475 8.716 1.097 17.61-1.555 26.198 1.097 6.983 2.168 12.997 6.096 18.094 11.325 8.257 8.442 12.028 18.976 13.149 30.454.51 5.407-.305 10.916-.382 16.374-.025 1.658.357 3.341.663 4.974.713 3.928 1.325 7.78-2.676 10.534-.433.306-.484 1.224-.663 1.862-1.58 6.044-5.096 10.253-11.238 12.089-.867.255-1.86 1.174-2.166 2.015-2.982 7.754-8.206 13.646-15.036 18.109-1.707 1.123-2.115 2.321-1.937 4.183.587 6.096 3.211 10.636 9.2 12.779 5.53 1.964 11.06 3.979 16.616 5.891 8.18 2.806 13.557 8.494 16.998 16.248.586 1.326 1.656 3.009-.383 3.749-.611.229-2.344-1.148-2.777-2.117-3.262-7.346-8.487-12.421-16.208-14.895-4.944-1.582-9.786-3.393-14.679-5.102-7.34-2.55-11.417-7.702-12.283-15.405-.077-.561-.204-1.122-.383-2.091"/><path d="M73.92 112.047c6.014 0 11.314-.026 16.615.051.714 0 1.427.663 2.14.994-.483.536-.942 1.505-1.477 1.556-3.67.383-7.365.714-11.06.791-1.963.051-3.976-.306-5.887-.74-.663-.153-1.172-1.071-1.758-1.658a54.047 54.047 0 001.427-1.045m33.944-21.731c-2.421 1.097-4.561 2.525-6.88 2.958-2.498.46-5.174.077-7.773-.178-.459-.051-.764-1.3-1.147-2.015.663-.204 1.35-.485 2.039-.612 2.854-.561 5.76-.944 8.588-1.607 2.039-.485 3.976-1.199 5.173 1.454zm-50.585-.077c1.044-2.244 2.777-1.938 4.536-1.632 3.338.587 6.677 1.122 10.015 1.76.484.102 1.325.714 1.274.867-.204.663-.51 1.556-1.07 1.862-3.262 1.683-6.524 1.02-9.684-.434-1.58-.74-3.16-1.505-5.072-2.423zm25.331 16.018c-1.555-.816-3.007-1.403-4.23-2.321-.408-.281-.51-1.582-.23-2.041.28-.433 1.554-.765 1.962-.484 1.708 1.147 3.211 1.173 4.919 0 .407-.281 1.682.025 1.962.459.306.459.204 1.734-.178 2.04-1.224.893-2.676 1.505-4.23 2.321m.127 16.043c-.918-.255-1.886-.28-2.574-.765-.535-.357-1.122-1.683-.969-1.836.612-.587 1.657-1.403 2.268-1.199 1.58.459 3.772-1.581 4.69 1.046.178.51-.383 1.53-.892 1.913-.663.484-1.657.586-2.523.841z"/></g></svg>