<svg width="182" height="44" fill="none" xmlns="http://www.w3.org/2000/svg"><g fill="#F5F5F5"><path fill-rule="evenodd" clip-rule="evenodd" d="M15.632 20.735h4.925V2.585h-4.925v18.15zm-2.69 2.587h10.304V0H12.941v23.322zM0 28.44h43.803v-2.577H0v2.577zm2.68 10.067h12.662v-4.92H2.681v4.92zM0 44h2.68v-2.92h15.344V31.012H0V44zM33.496 2.584v20.738h2.69V7.757l4.924-5.17v20.735h2.69V0h-3.78l-3.836 4.017V0h-3.778L25.88 6.779v16.543h2.692V7.758l4.925-5.174zM23.327 38.507h7.47v-4.92h-7.47v4.92zm10.267 0h7.527v-4.92h-7.527v4.92zm-12.95 2.573h10.153V44h2.797v-2.92h10.208V31.012H20.645V41.08zM2.692 7.758l4.923-5.172v18.149H2.692V7.758zm7.614 15.564V0H6.528L0 6.779v16.543h10.306z"/><path d="M60.941 7v-.873h-3.132V4.201h2.664v-.864h-2.664V1.465h3.132V.592h-4.104V7h4.104zm4.466-5.535h1.782v4.662h-2.412c.477-.9.63-2.007.63-3.231V1.465zM64.47.592v1.89c0 1.521-.225 2.781-.783 3.645h-.558V8.44h.945V7h3.888v1.44h.954V6.127h-.756V.592h-3.69zM76.287 7V.592h-.891l-2.862 4.644V.592h-.972V7h.882l2.87-4.653V7h.973zm7.718 0V.592h-.981v2.745h-2.592V.592h-.972V7h.972V4.201h2.592V7h.981zm7.876 0L89.54.592h-.783L86.408 7h1.027l.45-1.287h2.529L90.864 7h1.017zm-1.728-2.115h-1.99l1.009-2.844.98 2.844zm6.099-.405h1.269V7h.98V.592h-2.438c-1.215 0-2.043.756-2.043 1.944 0 .864.477 1.503 1.233 1.764L93.858 7h1.152l1.242-2.52zm1.269-.873h-1.395c-.702 0-1.134-.423-1.134-1.08 0-.666.432-1.071 1.134-1.071h1.395v2.151zM61.562 19v-6.408h-.891l-2.862 4.644v-4.644h-.972V19h.882l2.871-4.653V19h.972zm7.718 0v-6.408h-.98v2.745h-2.593v-2.745h-.972V19h.972v-2.799H68.3V19h.981zm6.4-5.22c1.278.045 1.674.666 1.674 1.818 0 1.134-.423 1.773-1.674 1.827V13.78zm-.972 3.645c-1.25-.054-1.674-.693-1.674-1.827 0-1.152.396-1.773 1.674-1.818v3.645zm.972 1.62v-.801c1.881-.081 2.646-1.017 2.646-2.691 0-1.656-.837-2.52-2.646-2.61v-.621h-.972v.621c-1.809.09-2.646.954-2.646 2.61 0 1.674.765 2.61 2.646 2.691v.801h.972zm9.806-3.249c0-1.341-.018-1.98-.648-2.61-.414-.414-.954-.648-1.656-.648s-1.242.234-1.656.648c-.63.63-.648 1.269-.648 2.61s.018 1.98.648 2.61c.414.414.954.648 1.656.648s1.242-.234 1.656-.648c.63-.63.648-1.269.648-2.61zm-.972 0c0 1.269-.054 1.656-.378 1.989a1.296 1.296 0 01-.954.405c-.387 0-.71-.153-.954-.405-.315-.342-.378-.72-.378-1.989 0-1.269.063-1.656.378-1.998.243-.252.567-.396.954-.396s.711.144.954.396c.324.333.378.729.378 1.998zm8.399-1.26c0-1.116-.801-1.944-2.052-1.944h-2.43V19h.972v-2.529h1.458c1.25 0 2.052-.819 2.052-1.935zm-.972 0c0 .675-.45 1.071-1.134 1.071h-1.404v-2.142h1.404c.684 0 1.134.387 1.134 1.071zM101.199 19v-6.408h-.972l-1.845 3.987-1.872-3.987h-.963V19h.972v-4.284l1.503 3.123h.72l1.476-3.123V19h.981zm7.876 0l-2.34-6.408h-.783L103.603 19h1.026l.45-1.287h2.529l.45 1.287h1.017zm-1.728-2.115h-1.989l1.008-2.844.981 2.844zm9.394 3.555v-2.313h-.756v-5.535h-.972v5.535h-2.592v-5.535h-.972V19h4.347v1.44h.945zm7.367-1.44v-6.408h-.891l-2.862 4.644v-4.644h-.972V19h.882l2.871-4.653V19h.972zm7.547-3.204c0-1.341-.018-1.98-.648-2.61-.414-.414-.954-.648-1.656-.648s-1.242.234-1.656.648c-.63.63-.648 1.269-.648 2.61s.018 1.98.648 2.61c.414.414.954.648 1.656.648s1.242-.234 1.656-.648c.63-.63.648-1.269.648-2.61zm-.972 0c0 1.269-.054 1.656-.378 1.989a1.296 1.296 0 01-.954.405c-.387 0-.711-.153-.954-.405-.315-.342-.378-.72-.378-1.989 0-1.269.063-1.656.378-1.998.243-.252.567-.396.954-.396s.711.144.954.396c.324.333.378.729.378 1.998zM139.145 19v-6.408h-.981v2.745h-2.592v-2.745h-.972V19h.972v-2.799h2.592V19h.981zm7.714 0v-6.408h-.981v2.745h-2.592v-2.745h-.972V19h.972v-2.799h2.592V19h.981zm7.875 0l-2.34-6.408h-.783L149.262 19h1.026l.45-1.287h2.529l.45 1.287h1.017zm-1.728-2.115h-1.989l1.008-2.844.981 2.844zm6.099-.405h1.269V19h.981v-6.408h-2.439c-1.215 0-2.043.756-2.043 1.944 0 .864.477 1.503 1.233 1.764l-1.395 2.7h1.152l1.242-2.52zm1.269-.873h-1.395c-.702 0-1.134-.423-1.134-1.08 0-.666.432-1.071 1.134-1.071h1.395v2.151zM61.193 29.083h-.972c-.153.657-.603 1.107-1.314 1.107-.387 0-.711-.144-.945-.396-.324-.342-.387-.729-.387-1.998 0-1.269.063-1.656.387-1.998.234-.252.558-.396.945-.396.711 0 1.152.45 1.296 1.107h.99c-.225-1.269-1.107-1.971-2.286-1.971-.702 0-1.242.234-1.656.648-.621.63-.648 1.269-.648 2.61s.027 1.98.648 2.61c.414.414.954.648 1.656.648 1.17 0 2.061-.702 2.286-1.971zM68.713 31v-6.408h-.89l-2.863 4.644v-4.644h-.972V31h.882l2.871-4.653V31h.972zm7.53-1.917h-.972c-.153.657-.603 1.107-1.314 1.107-.387 0-.711-.144-.945-.396-.324-.342-.387-.729-.387-1.998 0-1.269.063-1.656.387-1.998.234-.252.558-.396.945-.396.71 0 1.152.45 1.296 1.107h.99c-.225-1.269-1.107-1.971-2.286-1.971-.702 0-1.242.234-1.656.648-.621.63-.648 1.269-.648 2.61s.027 1.98.648 2.61c.414.414.954.648 1.656.648 1.17 0 2.06-.702 2.286-1.971zm6.552-3.618v-.873h-4.5v.873h1.764V31h.972v-5.535h1.764zM89.502 31v-.873h-3.131v-1.926h2.663v-.864h-2.663v-1.872h3.132v-.873h-4.105V31h4.105zm8.471 0v-6.408h-.972l-1.845 3.987-1.872-3.987h-.963V31h.972v-4.284l1.503 3.123h.72l1.476-3.123V31h.981zm7.877 0l-2.34-6.408h-.783L100.378 31h1.026l.45-1.287h2.529l.45 1.287h1.017zm-1.728-2.115h-1.989l1.008-2.844.981 2.844zM119.427 31l-2.61-3.384 2.376-3.024h-1.179l-2.268 3.051L118.212 31h1.215zm-7.146 0l2.466-3.357-2.277-3.051h-1.188l2.394 3.024L111.057 31h1.224zm3.456 0v-6.408h-.981V31h.981zm10.715 0v-6.408h-.891l-2.862 4.644v-4.644h-.972V31h.882l2.871-4.653V31h.972zm7.619 0v-6.408h-3.762v2.763c0 2.322-.513 2.772-1.224 2.772h-.171V31h.405c1.287 0 1.935-.819 1.935-3.51v-2.025h1.845V31h.972zm7.905 0v-6.408h-.891l-2.862 4.644v-4.644h-.972V31h.882l2.871-4.653V31h.972zm11.184 1.44v-2.313h-.748v-5.535h-.98v5.535h-2.161v-5.535h-.981v5.535h-2.169v-5.535h-.972V31h7.056v1.44h.955zm7.175-1.44v-6.408h-.981v2.745h-2.592v-2.745h-.972V31h.972v-2.799h2.592V31h.981zm7.543-3.204c0-1.341-.018-1.98-.648-2.61-.414-.414-.954-.648-1.656-.648s-1.242.234-1.656.648c-.63.63-.648 1.269-.648 2.61s.018 1.98.648 2.61c.414.414.954.648 1.656.648s1.242-.234 1.656-.648c.63-.63.648-1.269.648-2.61zm-.972 0c0 1.269-.054 1.656-.378 1.989a1.296 1.296 0 01-.954.405c-.387 0-.711-.153-.954-.405-.315-.342-.378-.72-.378-1.989 0-1.269.063-1.656.378-1.998.243-.252.567-.396.954-.396s.711.144.954.396c.324.333.378.729.378 1.998zm7.903-2.331v-.873h-3.942V31h.972v-5.535h2.97zm6.976 2.331c0-1.341-.018-1.98-.648-2.61-.414-.414-.954-.648-1.656-.648s-1.242.234-1.656.648c-.63.63-.648 1.269-.648 2.61s.018 1.98.648 2.61c.414.414.954.648 1.656.648s1.242-.234 1.656-.648c.63-.63.648-1.269.648-2.61zm-.972 0c0 1.269-.054 1.656-.378 1.989a1.296 1.296 0 01-.954.405c-.387 0-.711-.153-.954-.405-.315-.342-.378-.72-.378-1.989 0-1.269.063-1.656.378-1.998.243-.252.567-.396.954-.396s.711.144.954.396c.324.333.378.729.378 1.998zM61.193 41.083h-.972c-.153.657-.603 1.107-1.314 1.107-.387 0-.711-.144-.945-.396-.324-.342-.387-.729-.387-1.998 0-1.269.063-1.656.387-1.998.234-.252.558-.396.945-.396.711 0 1.152.45 1.296 1.107h.99c-.225-1.269-1.107-1.971-2.286-1.971-.702 0-1.242.234-1.656.648-.621.63-.648 1.269-.648 2.61s.027 1.98.648 2.61c.414.414.954.648 1.656.648 1.17 0 2.061-.702 2.286-1.971zm6.553-3.618v-.873h-4.5v.873h1.764V43h.972v-5.535h1.764zm7.085 1.071c0-1.116-.801-1.944-2.052-1.944h-2.43V43h.972v-2.529h1.458c1.25 0 2.052-.819 2.052-1.935zm-.972 0c0 .675-.45 1.071-1.134 1.071H71.32v-2.142h1.404c.684 0 1.134.387 1.134 1.071zm8.024 1.26c0-1.341-.018-1.98-.648-2.61-.414-.414-.954-.648-1.656-.648s-1.242.234-1.656.648c-.63.63-.648 1.269-.648 2.61s.018 1.98.648 2.61c.414.414.954.648 1.656.648s1.242-.234 1.656-.648c.63-.63.648-1.269.648-2.61zm-.972 0c0 1.269-.054 1.656-.378 1.989a1.296 1.296 0 01-.954.405c-.387 0-.711-.153-.954-.405-.315-.342-.378-.72-.378-1.989 0-1.269.063-1.656.378-1.998.243-.252.567-.396.954-.396s.71.144.954.396c.324.333.378.729.378 1.998zM89.552 43v-6.408h-.89l-2.863 4.644v-4.644h-.972V43h.882l2.871-4.653V43h.972zm7.107-5.535v-.873h-4.5v.873h1.764V43h.972v-5.535h1.764zM103.366 43v-.873h-3.132v-1.926h2.664v-.864h-2.664v-1.872h3.132v-.873h-4.104V43h4.104zm7.265 0v-6.408h-3.762v2.763c0 2.322-.513 2.772-1.224 2.772h-.171V43h.405c1.287 0 1.935-.819 1.935-3.51v-2.025h1.845V43h.972zm7.671-1.944c0-1.152-.81-1.944-2.034-1.944h-1.485v-2.52h-.972V43h2.457c1.215 0 2.034-.792 2.034-1.944zm-.981 0c0 .666-.423 1.071-1.134 1.071h-1.404v-2.142h1.404c.711 0 1.134.414 1.134 1.071zm8.006.027h-.972c-.153.657-.603 1.107-1.314 1.107-.387 0-.711-.144-.945-.396-.324-.342-.387-.729-.387-1.998 0-1.269.063-1.656.387-1.998.234-.252.558-.396.945-.396.711 0 1.152.45 1.296 1.107h.99c-.225-1.269-1.107-1.971-2.286-1.971-.702 0-1.242.234-1.656.648-.621.63-.648 1.269-.648 2.61s.027 1.98.648 2.61c.414.414.954.648 1.656.648 1.17 0 2.061-.702 2.286-1.971zm6.552-3.618v-.873h-4.5v.873h1.764V43h.972v-5.535h1.764zm7.13 3.735c0-.729-.333-1.188-.963-1.485.567-.279.864-.747.864-1.395 0-1.044-.765-1.728-1.935-1.728h-2.493V43h2.592c1.197 0 1.935-.693 1.935-1.8zm-1.071-2.817c0 .576-.396.918-1.043.918h-1.441v-1.836h1.441c.647 0 1.043.342 1.043.918zm.091 2.763c0 .603-.406.981-1.054.981h-1.521v-1.953h1.521c.648 0 1.054.378 1.054.972zm8.54 1.854l-2.34-6.408h-.783L141.097 43h1.026l.45-1.287h2.529l.45 1.287h1.017zm-1.728-2.115h-1.989l1.008-2.844.981 2.844z"/></g></svg>