<svg width="263" height="73" fill="none" xmlns="http://www.w3.org/2000/svg"><path d="M103.82 66.874c.744-.333 1.31-.815 1.698-1.444.388-.628.589-1.382.589-2.259 0-.675-.108-1.28-.325-1.816a3.641 3.641 0 00-.962-1.367c-.426-.372-.946-.652-1.566-.846-.621-.194-1.342-.287-2.149-.287h-8.941v13.927h2.124v-5.31h4.452l5.025 5.31h2.699l-5.111-5.41c.97-.016 1.792-.18 2.467-.498zm-9.54-1.071v-5.271h6.476c.528 0 1.001.054 1.404.17.403.117.745.28 1.016.497.271.218.473.497.605.823.132.334.201.715.201 1.157 0 .442-.069.8-.209 1.126a2.102 2.102 0 01-.628.823 2.715 2.715 0 01-1.016.504c-.396.117-.853.171-1.373.171h-6.475zm26.352-2.561c-.581-.482-1.287-.847-2.117-1.103-.83-.256-1.768-.388-2.815-.388-.861 0-1.652.085-2.373.256a6.842 6.842 0 00-1.908.745 5.139 5.139 0 00-1.388 1.173c-.38.458-.667.978-.861 1.552a5.789 5.789 0 00-.295 1.864c0 .667.101 1.327.295 1.91a4.87 4.87 0 00.877 1.568c.387.465.853.854 1.403 1.172a7.013 7.013 0 001.931.737c.737.171 1.544.257 2.412.257 1.287 0 2.373-.124 3.257-.365.884-.249 1.606-.614 2.149-1.103a4.181 4.181 0 001.171-1.832l-1.947-.341a2.68 2.68 0 01-.814 1.156c-.388.319-.884.56-1.513.715-.62.163-1.388.24-2.303.24a8.434 8.434 0 01-1.791-.178 4.545 4.545 0 01-1.389-.536 3.534 3.534 0 01-.984-.854 3.543 3.543 0 01-.59-1.157 4.933 4.933 0 01-.178-.815h11.509c.023-.116.046-.248.046-.38s.008-.264.008-.396c0-.808-.155-1.545-.458-2.197a4.705 4.705 0 00-1.334-1.7zm-9.717 3.183a3.52 3.52 0 01.116-.474c.117-.427.311-.8.574-1.133a3.58 3.58 0 01.977-.847 4.52 4.52 0 011.365-.528 8.188 8.188 0 011.776-.178c.753 0 1.42.085 2.001.256.574.17 1.07.411 1.474.722.403.31.713.683.923 1.126a3.3 3.3 0 01.317 1.056h-9.523zm24.204.59c-.674-.241-1.574-.404-2.706-.497l-2.583-.14a10.574 10.574 0 01-1.776-.28c-.442-.116-.76-.279-.946-.489-.186-.21-.279-.473-.279-.807 0-.334.147-.613.434-.846.295-.233.722-.412 1.296-.528.566-.117 1.279-.179 2.124-.179.846 0 1.629.078 2.226.225.597.148 1.063.389 1.388.7.334.31.535.713.613 1.202l1.885-.279c-.148-.769-.466-1.397-.962-1.886-.496-.49-1.171-.862-2.024-1.103-.853-.24-1.9-.365-3.133-.365s-2.28.132-3.141.388c-.861.257-1.52.63-1.97 1.103-.45.473-.675 1.056-.675 1.731 0 .613.163 1.126.481 1.545.318.42.814.745 1.497.986.682.24 1.574.404 2.675.497l2.622.163c.729.054 1.303.147 1.721.28.419.131.722.302.908.52.186.217.279.496.279.853 0 .264-.085.505-.248.707-.163.202-.419.38-.768.528-.341.147-.776.256-1.303.341-.527.086-1.148.117-1.877.117-1.341 0-2.381-.194-3.117-.575-.745-.388-1.179-.978-1.311-1.77l-1.931.295c.171.808.512 1.475 1.016 2.003s1.202.909 2.086 1.165c.884.248 1.985.38 3.296.38 1.311 0 2.482-.132 3.389-.396.907-.264 1.59-.652 2.055-1.164.466-.513.698-1.126.698-1.84 0-.637-.155-1.165-.465-1.584-.31-.42-.807-.745-1.481-.986l.007-.015zm7.252-8.727h-2.164v2.01h2.164v-2.01zm-.078 3.68h-2.008V72.79h2.008V61.968zm15.022 2.182a4.22 4.22 0 00-.737-.792c-.566-.505-1.256-.9-2.055-1.188-.799-.287-1.698-.427-2.691-.427-.752 0-1.458.093-2.11.272a6.216 6.216 0 00-1.721.753 5.121 5.121 0 00-1.272 1.18 5.301 5.301 0 00-.799 1.56 6.017 6.017 0 00-.271 1.864c0 .667.093 1.296.271 1.87.178.575.442 1.087.783 1.553a4.63 4.63 0 001.272 1.18 5.959 5.959 0 001.722.746c.644.17 1.349.256 2.117.256.993 0 1.892-.132 2.691-.412.799-.271 1.489-.66 2.055-1.164a5.33 5.33 0 00.799-.877l.14 2.25h1.807v-14.92h-2.009v6.288l.008.008zm-.597 5.341c-.396.606-.962 1.071-1.691 1.413-.729.342-1.598.505-2.606.505a6.939 6.939 0 01-1.667-.187 4.46 4.46 0 01-1.311-.535 3.673 3.673 0 01-.946-.847 3.285 3.285 0 01-.574-1.125 4.687 4.687 0 01-.186-1.344c0-.48.062-.923.186-1.343a3.431 3.431 0 011.52-1.972 4.46 4.46 0 011.311-.535 6.975 6.975 0 011.667-.187c.752 0 1.435.101 2.04.295a4.533 4.533 0 011.543.839c.427.357.752.784.977 1.281.225.497.342 1.048.342 1.638 0 .8-.202 1.498-.598 2.096l-.007.008zm17.728-6.249c-.582-.482-1.288-.847-2.117-1.103-.83-.256-1.769-.388-2.816-.388-.86 0-1.651.085-2.373.256a6.823 6.823 0 00-1.907.745 5.144 5.144 0 00-1.389 1.173 4.99 4.99 0 00-.868 1.552 5.578 5.578 0 00-.295 1.864c0 .667.101 1.327.295 1.91.201.582.488 1.11.876 1.568a5.17 5.17 0 001.404 1.172 7.001 7.001 0 001.931.737 10.68 10.68 0 002.412.257c1.287 0 2.373-.124 3.257-.365.884-.249 1.605-.614 2.148-1.103a4.166 4.166 0 001.171-1.832l-1.946-.341c-.163.45-.435.838-.815 1.156-.387.319-.884.56-1.512.715-.62.163-1.388.24-2.303.24a8.444 8.444 0 01-1.792-.178 4.55 4.55 0 01-1.388-.536 3.538 3.538 0 01-.985-.854 3.542 3.542 0 01-.589-1.157 4.831 4.831 0 01-.179-.815h11.509c.023-.116.047-.248.047-.38s.007-.264.007-.396c0-.808-.155-1.545-.457-2.197a4.705 4.705 0 00-1.334-1.7h.008zm-9.717 3.183c.023-.156.069-.319.116-.474.116-.427.31-.8.574-1.133.263-.334.589-.614.969-.847.38-.233.838-.411 1.365-.528a8.188 8.188 0 011.776-.178c.752 0 1.419.085 2.001.256.574.17 1.07.411 1.473.722.404.31.714.683.923 1.126.163.318.264.667.318 1.056h-9.515zm24.894-4.1c-.752-.388-1.667-.574-2.745-.574-.783 0-1.52.109-2.226.318a6.08 6.08 0 00-1.869.909 5.237 5.237 0 00-1.349 1.42l-.14-2.43h-1.791v10.823h2.009v-5.21c0-.62.116-1.188.349-1.7a3.75 3.75 0 01.992-1.312 4.638 4.638 0 011.528-.846 5.859 5.859 0 011.915-.295c.792 0 1.458.14 2.001.427a2.94 2.94 0 011.226 1.196c.279.512.418 1.11.418 1.8v5.947h2.009v-6.342c0-.955-.202-1.786-.597-2.485a3.96 3.96 0 00-1.73-1.63v-.016zm16.061 7.911c-.388.396-.892.691-1.512.885-.62.194-1.357.288-2.203.288-.62 0-1.186-.063-1.698-.179a4.744 4.744 0 01-1.342-.52 3.128 3.128 0 01-.953-.839 3.594 3.594 0 01-.574-1.125 4.503 4.503 0 01-.202-1.367c0-.52.07-.986.202-1.405.132-.42.325-.792.574-1.126a3.32 3.32 0 01.946-.846c.38-.233.822-.411 1.334-.528a7.755 7.755 0 011.721-.178c.838 0 1.567.1 2.187.31.621.21 1.125.505 1.497.893.38.388.628.885.744 1.483l1.986-.38a4.174 4.174 0 00-1.101-2.12c-.567-.575-1.296-1.017-2.187-1.312-.892-.295-1.939-.45-3.134-.45-.876 0-1.667.085-2.388.256-.714.17-1.35.42-1.9.738a4.863 4.863 0 00-1.388 1.172 5.09 5.09 0 00-.869 1.568c-.202.582-.295 1.219-.295 1.91 0 .69.101 1.32.295 1.902.202.574.489 1.094.869 1.545.38.45.837.838 1.388 1.164.55.326 1.186.567 1.9.738.713.163 1.512.248 2.388.248 1.179 0 2.218-.147 3.118-.434.9-.296 1.636-.73 2.203-1.305.566-.574.953-1.28 1.155-2.12l-1.985-.38c-.132.598-.388 1.095-.776 1.491v.023zm16.65-6.994c-.581-.482-1.287-.847-2.117-1.103-.83-.256-1.768-.388-2.815-.388-.861 0-1.652.085-2.373.256a6.842 6.842 0 00-1.908.745 5.139 5.139 0 00-1.388 1.173 4.99 4.99 0 00-.868 1.552 5.578 5.578 0 00-.295 1.864c0 .667.101 1.327.295 1.91.201.582.488 1.11.876 1.568a5.17 5.17 0 001.404 1.172c.55.318 1.194.567 1.931.737a10.67 10.67 0 002.411.257c1.288 0 2.374-.124 3.258-.365.884-.249 1.605-.614 2.148-1.103.543-.489.93-1.102 1.171-1.832l-1.947-.341a2.68 2.68 0 01-.814 1.156c-.388.319-.884.56-1.512.715-.621.163-1.388.24-2.304.24a8.434 8.434 0 01-1.791-.178 4.54 4.54 0 01-1.388-.536 3.524 3.524 0 01-.985-.854 3.522 3.522 0 01-.589-1.157 4.831 4.831 0 01-.179-.815h11.509c.023-.116.046-.248.046-.38s.008-.264.008-.396c0-.808-.155-1.545-.457-2.197a4.705 4.705 0 00-1.334-1.7h.007zm-9.717 3.183a3.38 3.38 0 01.117-.474c.116-.427.31-.8.573-1.133.264-.334.59-.614.97-.847.38-.233.837-.411 1.365-.528a8.175 8.175 0 011.776-.178c.752 0 1.419.085 2.001.256.573.17 1.07.411 1.473.722.403.31.713.683.923 1.126.163.318.264.667.318 1.056h-9.516zm-47.446-22.81c-2.156 0-7.716-1.669-7.716-7.849V8.96c0-6.18 5.553-7.849 7.716-7.849V.738H137.4v.372c2.164 0 7.716 1.67 7.716 7.85v26.806c0 6.18-5.552 7.85-7.716 7.85v.372h27.771v-.373zm30.811.373l9.136-21.621c3.761-8.96 14.254-21.249 20.427-21.249V.745H200.86v.373c6.173 0 7.655 12.297 3.886 21.249l-2.575 6.102-10.322-19.502c-2.901-5.435 2.776-7.849 4.94-7.849V.745H167.66v.373c2.156 0 6.484 2.407 9.384 7.849l18.574 35.029h.372l-.008-.008z" fill="#8A694F"/><path d="M240.024 0c-12.222 0-22.218 10.007-22.218 22.242 0 12.236 9.996 22.243 22.218 22.243s22.219-9.945 22.219-22.243C262.243 9.945 252.309 0 240.024 0zm10.741 40.836c-4.195 2.407-12.4-4.014-18.325-14.207-5.863-10.194-7.344-20.573-3.149-22.98 4.196-2.407 12.401 4.014 18.326 14.207 5.863 10.193 7.344 20.573 3.148 22.98zM114.747.699H85.316v.372c4.133 0 7.716 3.641 7.716 7.85V22.32c15.224-.031 21.707-7.826 21.715-21.621zM93.032 22.32v13.4c0 4.2-3.575 7.849-7.716 7.849v.372h29.431c-.008-13.795-6.491-21.582-21.715-21.62zm44.608 0c-15.294 0-22.871 7.794-22.886 21.621h1.605c12.277 0 22.219-9.696 22.219-21.621 0-11.925-10.004-21.621-22.219-21.621h-1.605c.015 13.826 7.592 21.621 22.886 21.621zM27.593 0l.318 13.85c.124.846.287 1.661.473 2.461L28.756 0h-1.163zm26.741 10.512a28.15 28.15 0 00-.86-.815l-18.11 18.81 18.978-17.995h-.008zM50.96 35.48c-1.07.123-2.094.294-3.094.504l17.426.396c0-.412-.008-.815-.024-1.22l-14.3.327-.008-.008zm3.15 27.218c.302-.287.597-.582.884-.885L35.055 42.901l19.047 19.797h.008zm-26.586-7.267l-.403 17.561h1.248l-.333-14.424a32.637 32.637 0 00-.52-3.137h.008zM.357 63.59L20.56 42.606.357 61.766v1.824zm0-27.855l5.6-.124c.86-.124 1.698-.287 2.505-.473L.357 34.95v.784zm0-28.833v1.855l20.505 19.448L.357 6.902zm48.261-.971a26.91 26.91 0 00-1-.629L33.79 27.172l14.828-21.24zm-6.545 27.056L64.5 28.95a19.99 19.99 0 00-.272-1.18l-22.443 5.1c.093.047.194.086.294.125l-.007-.008zm-5.67 8.353l.047.032 22.56 15.511c.24-.341.465-.69.682-1.04L36.458 41.364l-.055-.031v.008zm-5.847 8.315l4.172 22.817c.411-.07.822-.147 1.233-.225L30.689 49.36a3.388 3.388 0 00-.124.295h-.008zm-8.507-5.598L1.862 72.984h1.915l18.28-28.919-.008-.008zm-8.515-5.884L.357 40.548v.831l13.502-3.074c-.108-.047-.217-.086-.325-.132zM.357 16.59v1.243l19.163 11.94L.357 16.591zm24.981 4.736L21.445 0h-1.218l4.987 21.645c.046-.11.085-.218.124-.319zm-1.544 3.176L14.61 0h-1.38l10.524 24.58s.03-.055.046-.078h-.007zm8.716 1.141L42.98 2.935a45.515 45.515 0 00-1.086-.45l-9.407 23.127s.016.023.024.031zm6.452 5.822l23.623-8.726c-.148-.373-.31-.745-.473-1.11L38.9 31.419s.047.023.07.046h-.008zm-.906 8.657L62.22 51.1c.17-.373.333-.753.48-1.142l-24.614-9.86s-.024.016-.031.024zm-5.949 6.443l9.074 24.207c.395-.14.783-.295 1.17-.45L32.147 46.495s-.031.047-.047.078l.008-.008zm-8.778-.916L10.727 72.984h1.535L23.36 45.688s-.016-.024-.031-.04zM.357 46.713l16.465-6.948-.086-.047L.357 45.774v.947-.008zm17.535-15.706L.357 23.034v.978l17.504 7.01s.023-.015.039-.022l-.008.007zm12.967-7.988l5.18-22.25c-.38-.086-.768-.155-1.155-.225l-4.118 22.304c.03.062.062.117.093.179v-.008zm5.963 7.01l22.273-13.812a21.91 21.91 0 00-.69-.986l-21.591 14.79h.008v.008zm3.932 8.431l23.77 5.45c.085-.404.162-.807.225-1.211l-23.809-4.34a1.01 1.01 0 01-.186.093v.008zm-7.188 5.963l14.471 23.003c.357-.218.706-.45 1.055-.683L33.566 44.415s-.008 0-.008.008h.008zm-8.556 3.928l-5.73 24.641h1.318l4.514-24.447c-.04-.062-.062-.124-.101-.194zm-6.071-7.173L.357 52.698v1.227l18.597-12.732-.015-.015zM15.24 32.66L.357 29.246v.83l14.704 2.679c.055-.031.117-.062.179-.093zm7.103-6L5.561 0H3.793l18.543 26.675s.007-.008.007-.015zM24.01 0l2.288 18.47c.086-.319.171-.637.249-.963L25.182 0h-1.18.009zm27.617 8.105c-.31-.248-.62-.49-.93-.73L34.62 27.801 51.627 8.097v.008zm-5.893 26.07l19.357-1.483a20.352 20.352 0 00-.148-1.203l-20.086 2.453c.287.085.59.163.885.233h-.008zm10.941 25.782c.272-.318.536-.636.792-.97L35.76 42.163l20.916 17.794zm-27.314-6.66l1.52 19.618c.42-.023.83-.054 1.249-.1l-2.528-20.396c-.086.288-.17.583-.24.878zM.357 67.558v2.368l20.947-26.63L.357 67.559zm0-29.082l10.307-1.258a32.33 32.33 0 00-.977-.248l-9.33.714v.792zm0-26.381v1.49l19.8 15.357-19.8-16.847zm32.712 14.277L45.5 4.114a26.754 26.754 0 00-1.054-.528l-11.393 22.77s.008.008.008.016h.008zm7.018 5.706l23.467-6.669a28.378 28.378 0 00-.388-1.148l-23.21 7.747c.046.024.084.047.13.07zm-2.784 8.602L60.95 53.7c.202-.365.395-.73.574-1.102L37.319 40.673s-.016 0-.016.015v-.007zm-5.816 6.995l6.918 23.974c.403-.117.806-.233 1.201-.357l-8.05-23.756c-.023.046-.046.085-.07.132v.007zm-8.725-2.771L7.073 72.984h1.668l14.037-28.057s0-.015-.016-.023zm-7.173-5.807L.357 43.429v.885l15.379-5.14c-.046-.023-.093-.054-.147-.077zm3.047-8.657L.357 20.38v1.071l18.272 9.006.015-.016h-.008zm5.786-7.088L17.682 0H16.38l7.965 23.492a.884.884 0 00.077-.147v.008zm-1.365 2.314L10.377 0H8.842l14.184 25.697s.016-.023.023-.03h.008zm8.686-1.149l7.864-22.825c-.373-.116-.745-.232-1.125-.333l-6.786 23.088s.024.047.047.078v-.008zm6.072 6.219l23.22-11.304c-.187-.357-.388-.706-.582-1.048L37.784 30.712s.016.016.031.024zm1.389 8.617l24.343 8.268c.132-.388.248-.784.357-1.188L39.297 39.3l-.086.054h-.007zm-6.352 6.056l11.804 23.888c.372-.179.752-.373 1.116-.567L32.883 45.37s-.015.023-.023.03l-.008.009zm-8.74 1.389l-9.02 26.186h1.405l7.677-26.1s-.03-.063-.054-.086h-.008zm-6.189-6.335L.357 49.011v1.056l17.613-9.58s-.024-.024-.04-.024h-.007zM17 31.959L1 27v.794L16.924 32l.076-.041zM32.502.217A29.434 29.434 0 0031.34.11l-1.684 20.33c.055.148.117.287.179.435L32.502.217zm24.414 13.089c-.256-.31-.512-.605-.784-.908L36.054 29.307l20.854-16h.008zM42.987 37.443l22.103 2.81c.046-.403.077-.814.108-1.226l-21.738-1.77a29.41 29.41 0 00-.473.186zm8.143 27.832c.334-.256.66-.512.978-.784L34.255 43.6l16.876 21.675zm-27.98 7.709h1.272l1.814-21.931c-.054-.163-.124-.319-.186-.474l-2.892 22.413-.008-.008zM.357 56.76v1.466l19.435-16.365-.008-.008L.357 56.76zm12.719-23.082L.357 32.063v.8l12.27 1.001c.146-.054.302-.116.449-.178v-.008zM.357.132V2.57L21.67 27.514.357.132z" fill="#8A694F"/></svg>