<svg width="953" height="388" fill="none" xmlns="http://www.w3.org/2000/svg"><mask id="a" style="mask-type:luminance" maskUnits="userSpaceOnUse" x="-10" y="0" width="963" height="388"><path d="M655.702 379.347c-2.42.875-6.353 2.512-7.475 5.189-1.379 3.294 2.574 2.934 4.808 2.306 2.482-.69 4.685-1.452 7.269-1.895.999-.175 3.346-.329 4.077-1.05 2.111-2.09-.988-3.613-2.615-4.242l1.565 1.339c-2.224-1.122-3.614-2.09-5.405-2.09-.659 0-1.38.134-2.224.432m116.702-3.418c-2.687 2.348 1.019 3.768 3.305 4.19 2.533.464 4.849.752 7.362 1.493.978.289 3.15 1.174 4.128.845 2.811-.948.7-3.676-.484-4.963l.824 1.894c-2.07-2.707-2.831-4.478-6.136-4.839a30.944 30.944 0 00-3.141-.185c-2.141 0-4.437.33-5.848 1.565m-163.733-6.97c-1.05.782-2.769 2.203-3.428 4.128-.813 2.379.824 1.833 1.781 1.236 1.06-.669 2.018-1.349 3.099-1.853.422-.196 1.39-.474 1.74-1.03 1.019-1.596-.134-2.419-.752-2.728l.536.803c-.741-.546-1.205-1.05-1.833-1.05-.319 0-.69.144-1.153.484m227.227-1.226c.885.886 1.771 1.658 2.502 2.605.278.371.782 1.246 1.39 1.462 1.781.628 2.327-.669 2.491-1.338l-.659.71c.556-1.277 1.174-1.946-.123-3.027-.999-.844-2.78-2.203-4.798-2.409a4.811 4.811 0 00-.525-.031c-1.833 0-1.009 1.308-.278 2.049m-536.943-7.948c-2.688 2.347 1.019 3.768 3.305 4.19 2.532.463 4.849.752 7.361 1.493.978.288 3.15 1.174 4.129.844 2.81-.947.689-3.675-.484-4.962l.823 1.894c-2.069-2.708-2.831-4.479-6.136-4.839-.896-.093-1.997-.196-3.14-.196-2.142 0-4.438.33-5.848 1.565m63.494-8.195c.885.885 1.771 1.658 2.502 2.605.288.37.782 1.246 1.389 1.462 1.782.628 2.327-.68 2.492-1.339l-.669.7c.556-1.276 1.174-1.945-.113-3.037-.999-.844-2.78-2.203-4.798-2.409a4.971 4.971 0 00-.525-.031c-1.843 0-1.02 1.308-.278 2.049zm289.022-3.109c-2.358.864-.896 1.791.164 2.162 1.184.401 2.317.71 3.388 1.235.412.206 1.246.772 1.894.7 1.874-.216 1.792-1.626 1.647-2.296l-.288.927c-.072-1.39.196-2.255-1.441-2.667-.772-.195-1.884-.432-3.058-.432-.762 0-1.565.103-2.306.381m50.027-1.359c-2.358.865-.896 1.802.164 2.162 1.184.402 2.317.71 3.388 1.235.412.206 1.246.773 1.894.701 1.874-.217 1.792-1.627 1.648-2.296l-.289.926c-.072-1.39.196-2.255-1.441-2.677-.772-.195-1.884-.432-3.058-.432-.762 0-1.565.103-2.306.381zm88.873-.144c.885.885 1.77 1.657 2.501 2.605.289.37.783 1.245 1.39 1.462 1.781.628 2.327-.67 2.492-1.339l-.669.7c.545-1.276 1.173-1.935-.124-3.037-.999-.844-2.78-2.203-4.798-2.409a4.942 4.942 0 00-.525-.031c-1.832 0-1.009 1.307-.278 2.049m-674.433-.628c.639 1.04 1.318 1.997 1.771 2.996.175.391.412 1.215.989 1.678 1.657 1.328 2.646.741 3.037.391l-.927.124c.989-.567 1.854-.68.855-2.059-.772-1.071-2.193-2.883-4.242-4.047-.772-.442-1.266-.617-1.565-.617-.669 0-.329.885.072 1.534m627.793-1.792c-1.287.247-3.459.762-4.9 2.204-1.771 1.781-.062 2.007 1.06 1.894 1.246-.134 2.399-.329 3.593-.299.464.011 1.452.175 2.008-.164 1.616-.989.937-2.224.525-2.78l.123.957c-.556-1.07-.72-1.884-1.832-1.884-.175 0-.371.021-.597.062m79.956-13.374c-2.615.823-7.69 2.265-3.871 5.343 4.407 3.552 11.984 1.534 15.135-2.635l-.731-.567c-1.441-1.122-3.439-3.305-5.344-3.5a4.872 4.872 0 00-.401-.021c-1.596 0-3.295.906-4.788 1.38zm-506.766-.361c.885.886 1.771 1.658 2.502 2.605.278.371.782 1.246 1.39 1.462 1.781.628 2.326-.669 2.491-1.338l-.669.71c.556-1.276 1.174-1.946-.113-3.027-.999-.844-2.78-2.203-4.798-2.409a4.797 4.797 0 00-.515-.031c-1.843 0-1.019 1.308-.278 2.049m-46.64-2.419c-1.287.247-3.459.772-4.9 2.203-1.771 1.781-.062 2.007 1.06 1.894 1.246-.134 2.399-.329 3.593-.298.464.01 1.452.175 2.008-.165 1.616-.988.937-2.224.525-2.78l.124.958c-.556-1.071-.721-1.885-1.833-1.885-.175 0-.371.021-.597.062m353.751-6.342c-3.161.762-5.179 6.507-3.974 9.379 1.503 3.563 6.569 6.219 10.121 6.61l-.083-1.297c2.101-2.378 5.21-4.839 6.59-7.639-.536-1.226-3.244-1.936-4.314-2.657-1.926-1.307-4.778-4.489-7.547-4.489-.268 0-.535.031-.803.093m-419.727 1.081c.639 1.04 1.318 2.008 1.771 2.996.175.391.412 1.225.989 1.678 1.657 1.329 2.646.752 3.037.392l-.927.123c.989-.566 1.853-.679.855-2.059-.772-1.071-2.193-2.883-4.242-4.057-.772-.442-1.266-.617-1.565-.617-.669 0-.329.885.072 1.534m-157.38-3.954c-3.573.175-.145 3.017 2.1 4.458 2.502 1.606 4.828 2.986 7.217 4.757.927.69 2.914 2.389 4.036 2.677 3.243.824 1.915-2.07 1.102-3.521l.247 1.668c-1.277-2.852-1.514-4.407-4.84-6.332-2.511-1.452-6.702-3.707-9.595-3.707h-.257m631.777-.875c-1.616.597-2.831 2.327-4.067 3.501-1.987 1.884-5.909 5.405-1.122 6.496 5.519 1.256 11.449-3.881 12.437-9.019l-.906-.185c-1.39-.288-3.346-1.009-5.003-1.009-.474 0-.927.062-1.339.206m-234.279-.927c-2.688 2.348 1.029 3.768 3.305 4.191 2.532.463 4.849.751 7.361 1.492.978.289 3.151 1.174 4.129.845 2.81-.948.7-3.676-.484-4.953l.823 1.895c-2.069-2.708-2.831-4.479-6.126-4.839-.895-.093-1.997-.196-3.15-.196-2.131 0-4.427.33-5.848 1.565m-335.188.103c3.449 4.602 12.035 7.166 16.669 6.023l-.577-.741c-1.143-1.483-2.522-3.943-4.448-5.055-1.729-.989-3.994-1.267-5.868-1.771-1.514-.402-3.738-1.03-5.179-1.03-1.441 0-2.07.597-.587 2.574m241.003-2.461c-2.626.824-7.691 2.266-3.871 5.344 4.406 3.552 11.984 1.534 15.134-2.636l-.731-.566c-1.441-1.122-3.438-3.305-5.343-3.501a5.409 5.409 0 00-.402-.02c-1.596 0-3.294.906-4.787 1.379zm-227.958-2.831c.638 1.04 1.318 1.998 1.771 2.996.175.391.411 1.215.988 1.678 1.658 1.329 2.646.742 3.037.392l-.926.123c.988-.566 1.853-.679.854-2.059-.772-1.071-2.193-2.883-4.242-4.046-.772-.443-1.266-.618-1.565-.618-.669 0-.329.886.072 1.534m556.31-.401c-2.687 2.347 1.02 3.768 3.305 4.19 2.533.463 4.849.752 7.362 1.493.978.288 3.15 1.174 4.128.844 2.811-.947.69-3.675-.484-4.952l.824 1.894c-2.07-2.708-2.831-4.478-6.126-4.839-.896-.092-1.997-.195-3.14-.195-2.142 0-4.438.329-5.848 1.565m91.848 4.056c-.216 3.861 3.171 8.474 6.188 10.389l.504-1.205c2.924-1.215 6.806-2.059 9.277-3.964.051-1.338-2.07-3.161-2.708-4.283-1.266-2.224-2.543-6.95-5.57-7.619a3.392 3.392 0 00-.721-.072c-3.068 0-6.805 3.871-6.97 6.764m-695.354-6.568c.639 1.04 1.318 1.997 1.771 2.996.175.391.412 1.215.989 1.678 1.657 1.328 2.646.741 3.037.391l-.927.124c.989-.566 1.853-.68.855-2.059-.772-1.071-2.193-2.883-4.242-4.047-.772-.442-1.266-.617-1.565-.617-.67 0-.33.885.072 1.534m432.843-.093c.886.886 1.771 1.658 2.502 2.605.278.371.783 1.246 1.39 1.462 1.781.628 2.327-.669 2.492-1.339l-.659.701c.556-1.277 1.173-1.946-.113-3.027-.999-.845-2.78-2.204-4.798-2.41a5.23 5.23 0 00-.525-.03c-1.833 0-1.02 1.307-.278 2.048m234.156-5.59c.885.885 1.771 1.657 2.502 2.605.288.37.782 1.245 1.389 1.462 1.782.628 2.327-.68 2.492-1.339l-.669.7c.556-1.276 1.174-1.946-.124-3.027-.998-.844-2.78-2.203-4.798-2.409a5.221 5.221 0 00-.525-.031c-1.843 0-1.009 1.308-.278 2.049m96.049-1.4c-2.687 2.347 1.03 3.768 3.305 4.19 2.533.474 4.849.752 7.362 1.493.978.288 3.15 1.174 4.128.844 2.811-.947.69-3.675-.484-4.952l.824 1.895c-2.059-2.708-2.831-4.479-6.126-4.839-.896-.093-1.997-.196-3.14-.196-2.142 0-4.438.329-5.848 1.565m-702.839-6.208c-3.572.175-.144 3.016 2.101 4.458 2.501 1.606 4.828 2.985 7.217 4.756.926.69 2.914 2.389 4.036 2.677 3.253.824 1.915-2.069 1.101-3.521l.248 1.668c-1.277-2.842-1.504-4.407-4.839-6.332-2.513-1.452-6.703-3.706-9.596-3.706h-.258m161.685 3.706c-.216 3.861 3.171 8.484 6.188 10.388l.504-1.204c2.924-1.215 6.805-2.059 9.276-3.964.062-1.328-2.069-3.161-2.707-4.283-1.267-2.214-2.543-6.95-5.57-7.619a3.392 3.392 0 00-.721-.072c-3.068 0-6.805 3.871-6.97 6.764m604.648-5.704c.885.886 1.771 1.658 2.502 2.605.278.371.782 1.246 1.39 1.462 1.781.628 2.327-.669 2.491-1.338l-.669.7c.556-1.277 1.174-1.946-.113-3.027-.999-.844-2.78-2.203-4.798-2.409a4.971 4.971 0 00-.525-.031c-1.843 0-1.019 1.307-.278 2.049m-704.023.288c3.449 4.602 12.036 7.166 16.669 6.023l-.576-.741c-1.143-1.473-2.523-3.944-4.448-5.055-1.73-.989-3.995-1.267-5.869-1.771-1.513-.402-3.737-1.03-5.179-1.03-1.441 0-2.069.597-.586 2.574m264.796-5.858c.885.885 1.771 1.657 2.502 2.605.288.37.782 1.245 1.39 1.462 1.781.628 2.326-.68 2.491-1.349l-.659.71c.556-1.276 1.174-1.946-.113-3.027-.999-.844-2.78-2.203-4.798-2.409a4.971 4.971 0 00-.525-.031c-1.843 0-1.019 1.308-.278 2.049m-46.64-2.419c-1.287.247-3.459.761-4.9 2.203-1.771 1.781-.062 2.008 1.06 1.894 1.246-.134 2.399-.329 3.593-.298.464.01 1.452.175 2.018-.165 1.617-.988.937-2.224.525-2.78l.124.958c-.556-1.071-.731-1.885-1.833-1.885-.175 0-.37.021-.597.062m-362.492-.957c-3.573.175-.155 3.016 2.1 4.458 2.502 1.606 4.829 2.986 7.217 4.756.927.69 2.914 2.389 4.036 2.677 3.243.824 1.915-2.069 1.102-3.521l.247 1.668c-1.277-2.852-1.514-4.406-4.84-6.332-2.511-1.451-6.702-3.717-9.595-3.717h-.247m110.185 1.04c.639 1.04 1.318 1.998 1.771 2.996.175.392.412 1.215.988 1.679 1.658 1.328 2.646.741 3.038.391l-.927.123c.989-.566 1.853-.679.855-2.059-.773-1.07-2.193-2.883-4.242-4.046-.772-.443-1.267-.618-1.565-.618-.669 0-.33.886.072 1.534m-142.164-3.366c-2.43.267-.71 1.297.494 1.791 1.339.556 2.626 1.019 3.851 1.647.484.247 1.462.865 2.162.927 2.008.175 1.71-.988 1.452-1.565l-.175.7c-.278-1.143-.113-1.802-1.946-2.45-1.256-.443-3.305-1.092-5.117-1.092-.247 0-.484.011-.72.042zm675.267.123c.885.886 1.771 1.658 2.502 2.605.278.371.782 1.246 1.39 1.462 1.781.628 2.327-.669 2.491-1.338l-.669.71c.556-1.287 1.174-1.946-.113-3.027-.999-.844-2.78-2.203-4.798-2.409a4.956 4.956 0 00-.525-.031c-1.833 0-1.019 1.307-.278 2.049m-580.978.515c3.459 4.602 12.035 7.165 16.669 6.023l-.577-.742c-1.143-1.482-2.522-3.943-4.448-5.055-1.729-.988-3.995-1.266-5.868-1.771-1.514-.401-3.748-1.029-5.189-1.029-1.442 0-2.07.597-.587 2.574zm534.338-2.935c-1.287.247-3.459.772-4.9 2.204-1.771 1.781-.062 2.007 1.06 1.894 1.246-.134 2.409-.33 3.593-.299.464.011 1.452.175 2.018-.164 1.617-.989.937-2.234.525-2.78l.124.957c-.556-1.07-.721-1.884-1.833-1.884-.175 0-.37.021-.597.062m-585.59-1.905c-1.473 2.44.566 7.218 3.109 10.028l.916-.535c3.449.7 7.773 2.131 10.975 2.141.494-.854-1.132-3.15-1.441-4.211-.597-2.11-.402-5.889-3.357-7.886-1.348-.916-3.233-1.318-5.024-1.318-2.327 0-4.5.669-5.179 1.781zm17.1-3.366c.639 1.039 1.318 1.997 1.771 2.996.175.391.412 1.214.989 1.678 1.657 1.328 2.646.741 3.037.391l-.927.124c.989-.567 1.854-.68.855-2.06-.772-1.07-2.193-2.882-4.242-4.046-.772-.442-1.266-.618-1.565-.618-.67 0-.33.886.072 1.535m414.29-2.513c-2.615.824-7.69 2.265-3.871 5.344 4.407 3.552 11.985 1.534 15.135-2.636l-.731-.566c-1.441-1.112-3.429-3.305-5.343-3.501a5.409 5.409 0 00-.402-.02c-1.596 0-3.295.906-4.788 1.379zm360.393.598c.885.885 1.77 1.657 2.501 2.604.278.371.783 1.246 1.39 1.462 1.782.628 2.327-.679 2.492-1.338l-.669.7c.556-1.277 1.173-1.936-.114-3.027-.998-.844-2.779-2.203-4.797-2.409a4.797 4.797 0 00-.515-.031c-1.843 0-1.019 1.308-.278 2.049m-46.64-2.42c-1.287.247-3.459.762-4.89 2.204-1.771 1.781-.062 2.007 1.06 1.894 1.246-.134 2.409-.329 3.593-.299.464.011 1.452.176 2.018-.164 1.617-.989.937-2.224.525-2.78l.124.957c-.556-1.07-.721-1.884-1.833-1.884-.175 0-.37.021-.597.062m-79.586-3.778c-2.615.823-7.691 2.265-3.871 5.343 4.406 3.552 11.984 1.534 15.135-2.636l-.731-.566c-1.442-1.122-3.439-3.305-5.344-3.501a5.409 5.409 0 00-.401-.02c-1.596 0-3.295.906-4.798 1.369m-620.216-7.526c-2.429.268-.71 1.297.495 1.791 1.348.556 2.615 1.02 3.85 1.648.484.247 1.462.865 2.152.926 2.008.175 1.709-.988 1.452-1.565l-.175.701c-.278-1.143-.114-1.802-1.946-2.451-1.256-.443-3.305-1.091-5.117-1.091-.247 0-.484.01-.711.041zm779.759-2.069c-2.616.823-7.691 2.265-3.872 5.343 4.407 3.552 11.985 1.534 15.135-2.636l-.731-.566c-1.441-1.112-3.439-3.305-5.343-3.5a4.92 4.92 0 00-.402-.021c-1.596 0-3.294.906-4.787 1.38zm-519.163-.742c-2.687 2.358 1.029 3.769 3.305 4.191 2.533.473 4.849.751 7.361 1.493.978.288 3.151 1.173 4.129.844 2.811-.947.7-3.676-.484-4.952l.824 1.894c-2.07-2.708-2.832-4.479-6.137-4.839a30.618 30.618 0 00-3.14-.185c-2.141 0-4.437.329-5.848 1.565m-217.569-1.401c-1.473 2.44.566 7.218 3.109 10.028l.916-.535c3.449.7 7.784 2.131 10.975 2.131.495-.854-1.132-3.15-1.441-4.211-.597-2.11-.401-5.889-3.356-7.886-1.349-.906-3.233-1.308-5.025-1.308-2.327 0-4.499.669-5.168 1.781m289.773 1.998c-.216 3.861 3.172 8.483 6.188 10.388l.494-1.204c2.924-1.215 6.806-2.06 9.277-3.964.062-1.328-2.07-3.161-2.708-4.283-1.266-2.224-2.543-6.95-5.57-7.619a3.322 3.322 0 00-.721-.072c-3.078 0-6.805 3.871-6.97 6.764m-414.836-8.731c-2.43.268-.71 1.297.494 1.792 1.35.556 2.615 1.019 3.851 1.647.484.247 1.462.865 2.152.927 2.008.175 1.709-.989 1.452-1.565l-.176.7c-.278-1.153-.113-1.802-1.945-2.451-1.257-.442-3.305-1.091-5.117-1.091-.247 0-.484.01-.721.041m406.126-.062c.885.886 1.771 1.658 2.502 2.605.278.371.782 1.246 1.4 1.462 1.781.628 2.327-.679 2.491-1.338l-.659.7c.556-1.277 1.174-1.936-.123-3.027-.999-.844-2.78-2.203-4.798-2.409a4.971 4.971 0 00-.525-.031c-1.843 0-1.019 1.307-.278 2.049m-211.752 6.661l.906.185c1.791.371 4.53 1.473 6.331.814 1.617-.587 2.832-2.317 4.078-3.49 1.997-1.885 5.93-5.395 1.142-6.497a7.693 7.693 0 00-1.74-.196c-4.962 0-9.811 4.592-10.717 9.184zm454.618-3.459c-.216 3.861 3.171 8.473 6.188 10.388l.494-1.204c2.924-1.215 6.806-2.06 9.277-3.964.061-1.339-2.07-3.161-2.708-4.283-1.267-2.214-2.543-6.95-5.57-7.619a3.328 3.328 0 00-.721-.072c-3.068 0-6.805 3.871-6.97 6.764m-605.966-7.341c-1.472 2.44.566 7.217 3.11 10.028l.916-.535c3.448.7 7.783 2.131 10.975 2.141.494-.854-1.133-3.15-1.442-4.211-.597-2.11-.401-5.889-3.356-7.886-1.349-.916-3.233-1.318-5.024-1.318-2.327 0-4.5.669-5.18 1.781zm207.222-6.527c-2.1 2.368-5.22 4.828-6.61 7.619.525 1.225 3.243 1.945 4.304 2.666 2.111 1.442 5.323 5.138 8.34 4.417 3.16-.762 5.199-6.497 3.994-9.369-1.493-3.562-6.558-6.239-10.11-6.641l.082 1.297v.011zm558.276 4.272c-.216 3.861 3.171 8.484 6.188 10.389l.494-1.205c2.924-1.215 6.806-2.059 9.277-3.964.051-1.328-2.07-3.16-2.708-4.283-1.266-2.213-2.543-6.949-5.57-7.619a3.392 3.392 0 00-.721-.072c-3.078 0-6.805 3.872-6.97 6.765m46.691-6.868c-2.687 2.358 1.02 3.769 3.305 4.191 2.533.473 4.85.751 7.362 1.493.978.288 3.15 1.173 4.128.844 2.811-.947.7-3.676-.484-4.963l.824 1.895c-2.069-2.708-2.831-4.479-6.136-4.839-.896-.093-1.998-.196-3.14-.196-2.142 0-4.428.33-5.848 1.565m-340.316-8.72c-1.359-.299-2.131-.793-2.955.679-.648 1.143-1.647 3.14-1.472 5.169.216 2.502 1.493 1.338 2.131.411.7-1.039 1.298-2.048 2.09-2.944.309-.35 1.081-.999 1.174-1.637.288-1.864-1.091-2.162-1.781-2.193l.813.525v-.01zm-154.312 1.215c.885.885 1.771 1.657 2.501 2.604.289.371.783 1.246 1.401 1.462 1.781.628 2.327-.669 2.491-1.338l-.659.7c.556-1.277 1.174-1.946-.123-3.037-.999-.844-2.78-2.204-4.798-2.409a4.971 4.971 0 00-.525-.031c-1.833 0-1.019 1.307-.278 2.049m-46.64-2.42c-1.287.247-3.459.762-4.901 2.203-1.77 1.781-.061 2.008 1.061 1.895 1.246-.134 2.399-.33 3.593-.299.463.01 1.452.175 2.018-.165 1.617-.988.937-2.223.525-2.779l.124.957c-.556-1.071-.721-1.884-1.833-1.884-.175 0-.371.021-.597.062m604.772 1.719c.885.886 1.771 1.658 2.502 2.605.288.371.782 1.246 1.389 1.462 1.782.628 2.327-.669 2.492-1.338l-.669.71c.556-1.287 1.174-1.946-.113-3.037-.999-.845-2.78-2.204-4.798-2.41a5.23 5.23 0 00-.525-.03c-1.833 0-1.009 1.307-.278 2.048m-745.288-3.85c-1.874.216-1.792 1.616-1.648 2.296l.289-.927c.061 1.39-.206 2.255 1.431 2.677 1.266.319 3.459.762 5.374.062 2.358-.865.906-1.792-.165-2.162-1.184-.412-2.316-.721-3.387-1.246-.391-.196-1.143-.71-1.781-.71h-.113m50.027-1.236c-1.874.216-1.792 1.627-1.648 2.296l.289-.927c.061 1.39-.206 2.255 1.431 2.677 1.266.319 3.459.772 5.374.072 2.358-.864.906-1.791-.165-2.162-1.184-.412-2.316-.71-3.387-1.246-.391-.195-1.143-.71-1.771-.71h-.113m341.407-6.301l1.977.597c-3.398-.175-5.251-.731-7.65 1.555-1.864 1.771-4.808 4.859-4.757 7.753.062 3.572 3.542 1.647 5.333.175 1.998-1.637 3.707-3.213 5.889-4.654.855-.556 2.935-1.647 3.316-2.605.978-2.461-1.668-2.842-3.48-2.842-.216 0-.433 0-.618.011m-170.961-3.707c-2.615.824-7.691 2.265-3.871 5.344 4.407 3.552 11.984 1.544 15.135-2.636l-.731-.566c-1.442-1.122-3.429-3.305-5.344-3.501-.134-.01-.267-.02-.401-.02-1.596 0-3.295.906-4.788 1.379zm215.243-2.893c-1.359-.298-2.121-.793-2.955.68-.649 1.143-1.647 3.14-1.472 5.168.216 2.502 1.493 1.339 2.131.412.7-1.04 1.297-2.049 2.09-2.945.309-.35 1.081-.998 1.174-1.637.288-1.863-1.092-2.162-1.781-2.193l.813.525v-.01zm264.045-2.769c.885.885 1.77 1.657 2.501 2.604.289.371.783 1.246 1.401 1.462 1.781.628 2.327-.679 2.491-1.338l-.669.7c.556-1.277 1.174-1.946-.124-3.027-.998-.844-2.779-2.203-4.797-2.409a4.971 4.971 0 00-.525-.031c-1.833 0-1.009 1.308-.278 2.049m-46.64-2.42c-1.287.248-3.459.762-4.901 2.214-1.771 1.781-.062 2.008 1.061 1.894 1.245-.133 2.398-.329 3.593-.298.463.01 1.452.185 2.007-.165 1.617-.988.948-2.224.526-2.78l.123.958c-.556-1.071-.721-1.884-1.833-1.884-.175 0-.37.02-.597.061m-553.138-3.531c-1.061.659-2.018 1.349-3.099 1.843-.423.196-1.39.474-1.74 1.03-1.02 1.595.123 2.419.741 2.728l-.536-.803c1.123.823 1.627 1.585 2.976.576 1.05-.782 2.78-2.203 3.439-4.128.463-1.339.144-1.75-.402-1.75-.412 0-.968.247-1.39.514m385.699-2.141l1.977.597c-3.397-.175-5.251-.731-7.65 1.555-1.863 1.77-4.808 4.859-4.756 7.752.062 3.573 3.542 1.648 5.333.186 1.997-1.637 3.706-3.213 5.889-4.654.855-.556 2.934-1.647 3.315-2.605.978-2.461-1.657-2.842-3.48-2.842-.226 0-.432 0-.617.011m-318.458-1.565c-.216 3.861 3.171 8.484 6.188 10.388l.494-1.204c2.924-1.215 6.805-2.06 9.276-3.964.062-1.339-2.069-3.161-2.707-4.283-1.267-2.214-2.543-6.95-5.57-7.619a3.328 3.328 0 00-.721-.072c-3.078 0-6.805 3.871-6.97 6.764m565.854-6.136c-2.615.824-7.691 2.265-3.872 5.343 4.407 3.552 11.985 1.534 15.135-2.635l-.731-.567c-1.441-1.112-3.439-3.305-5.343-3.5-.134-.01-.268-.021-.402-.021-1.596 0-3.294.906-4.787 1.37m-358.663-1.37c-1.297.216-3.48.7-4.942 2.111-1.801 1.74-.103 2.008 1.02 1.915 1.245-.103 2.409-.278 3.603-.227.463.021 1.452.206 2.018-.123 1.627-.958.988-2.214.577-2.77l.113.958c-.546-1.092-.69-1.926-1.843-1.926-.165 0-.35.021-.556.052m-320.403-1.431c-2.482.69-4.685 1.441-7.269 1.874-1.009.164-3.346.319-4.077 1.04-2.121 2.079.988 3.613 2.604 4.241l-1.565-1.338c3.038 1.534 4.51 2.79 7.63 1.668 2.419-.875 6.362-2.502 7.485-5.169.895-2.121-.433-2.728-2.08-2.728-.916 0-1.925.185-2.728.402m279.714-9.596c-2.584 1.977-2.131 8.041.134 10.182 2.811 2.657 8.525 3.058 11.933 1.977l-.597-1.163c.968-3.017 2.821-6.528 2.965-9.647-.978-.906-3.748-.464-5.014-.7-1.75-.33-4.448-1.442-6.754-1.442-.999 0-1.915.206-2.656.772m134.925-6.435c-1.297.217-3.48.701-4.942 2.111-1.801 1.74-.103 2.008 1.019 1.915 1.246-.103 2.41-.278 3.604-.226.463.02 1.452.206 2.018-.124 1.637-.957.988-2.203.587-2.77l.113.958c-.546-1.091-.69-1.915-1.843-1.915-.165 0-.35.021-.556.051zm211.166 3.511c-.216 3.861 3.171 8.484 6.188 10.389l.494-1.205c2.924-1.215 6.805-2.059 9.276-3.964.062-1.328-2.069-3.161-2.708-4.283-1.266-2.213-2.543-6.949-5.57-7.619a3.376 3.376 0 00-.72-.072c-3.068 0-6.806 3.872-6.97 6.765M620.707 167.8c-1.297.216-3.48.7-4.942 2.111-1.802 1.74-.103 2.007 1.019 1.915 1.246-.103 2.409-.278 3.604-.227.463.021 1.451.206 2.018-.123 1.637-.958.988-2.214.586-2.77l.114.958c-.546-1.092-.69-1.916-1.843-1.916-.165 0-.35.021-.556.052zm8.288-7.135c-2.584 1.977-2.131 8.041.144 10.183 2.811 2.656 8.525 3.057 11.933 1.987l-.597-1.154c.967-3.016 2.821-6.527 2.965-9.636-.978-.906-3.748-.464-5.014-.7-1.751-.33-4.448-1.442-6.754-1.442-.999 0-1.915.206-2.667.772m-207.665-3.418c-3.367 1.04-7.845 1.864-10.656 3.387-.021.979 2.512 2.214 3.284 3.007 1.545 1.565 3.182 4.973 6.734 5.312 3.716.35 8.617-3.006 8.72-5.302.124-2.842-3.964-6.064-7.536-7.31l-.546.906zm168.109-6.352c-1.781.381-4.746.484-6.126 1.822-1.236 1.194-1.658 3.264-2.317 4.839-1.06 2.533-3.243 7.331 1.586 6.404 5.56-1.071 8.916-8.165 7.753-13.261l-.906.196h.01zm125.505-.556c-1.287.216-3.48.7-4.942 2.11-1.802 1.74-.103 2.008 1.019 1.915 1.246-.103 2.409-.278 3.604-.226.463.02 1.451.206 2.018-.124 1.626-.957.988-2.213.587-2.769l.113.957c-.546-1.091-.69-1.925-1.843-1.925-.165 0-.35.02-.556.051m-361.175 3.388l.865.381c1.72.741 4.108 2.254 6.332 2.296 1.998.041 4.118-.803 5.992-1.267 3.017-.741 8.875-2.059 4.324-4.128-1.647-.752-3.634-1.081-5.693-1.081-4.52 0-9.4 1.575-11.82 3.788m-162.25-8.308c-2.924 1.225-6.795 2.09-9.256 4.015-.052 1.339 2.08 3.151 2.728 4.263 1.277 2.213 2.574 6.939 5.612 7.587 3.181.68 7.495-3.613 7.649-6.723.196-3.861-3.212-8.463-6.249-10.357l-.494 1.204.01.011zm206.162-5.272l.751-.556c-.597.968-1.297 1.483.237 2.224 1.194.567 3.305 1.473 5.663 1.524 2.913.062 1.822-.978.865-1.524-1.061-.607-2.111-1.122-2.996-1.781-.34-.257-.948-.875-1.668-.999a4.564 4.564 0 00-.855-.082c-1.41 0-1.853.772-1.997 1.194zm66.17-2.172c-1.441.165-2.779.371-4.169.401h-.392c-.597 0-1.431 0-1.945.217-1.843.803-1.02 1.688-.526 2.069l-.185-.7c.793.875.968 1.524 2.883 1.215 1.493-.247 4.005-.741 5.621-1.874 1.576-1.102.67-1.39-.422-1.39-.288 0-.597.021-.875.052m219.825-4.561c-1.782.381-4.747.484-6.127 1.822-1.235 1.194-1.657 3.264-2.316 4.839-1.06 2.533-3.243 7.331 1.586 6.404 5.559-1.071 8.916-8.154 7.763-13.251l-.906.196v-.01zm-550.03 3.438l.731.556c1.452 1.112 3.449 3.285 5.364 3.47 1.709.165 3.563-.865 5.189-1.38 2.615-.834 7.681-2.306 3.841-5.364-1.576-1.256-3.542-1.801-5.56-1.801-3.676 0-7.547 1.812-9.555 4.519m364.912-9.379c-3.366 1.04-7.845 1.863-10.656 3.387-.02.989 2.512 2.214 3.285 3.007 1.544 1.565 3.181 4.972 6.733 5.312 3.717.35 8.618-3.006 8.721-5.302.123-2.842-3.964-6.064-7.537-7.31l-.546.916v-.01zm-154.508-.237l.752-.556c-.597.968-1.297 1.483.237 2.224 1.194.566 3.305 1.472 5.662 1.524 2.914.062 1.812-.978.865-1.524-1.06-.607-2.121-1.122-2.996-1.781-.34-.257-.947-.875-1.668-.999a4.464 4.464 0 00-.854-.082c-1.401 0-1.843.772-1.988 1.194m-115.425-5.632c-1.246.134-2.399.34-3.593.32-.464 0-1.462-.175-2.008.175-1.606.998-.927 2.234-.515 2.779l-.134-.957c.649 1.235.783 2.131 2.441 1.802 1.287-.247 3.459-.783 4.89-2.234 1.513-1.535.463-1.915-.566-1.915-.175 0-.34.01-.505.03m202.384 2.358l.865.381c1.709.741 4.097 2.255 6.331 2.296 1.998.041 4.119-.803 5.992-1.266 3.017-.742 8.875-2.06 4.325-4.129-1.648-.752-3.635-1.071-5.694-1.081-4.52 0-9.4 1.575-11.819 3.799zm-259.247-3.099l.659-.71c-.546 1.287-1.164 1.946.134 3.027 1.009.844 2.79 2.193 4.818 2.378 2.502.237 1.586-1.225.793-2.018-.886-.885-1.781-1.647-2.512-2.584-.289-.371-.783-1.236-1.401-1.452a2.695 2.695 0 00-.864-.165c-1.112 0-1.493.968-1.617 1.514m710.767-3.717c-2.688 2.347 1.019 3.768 3.305 4.19 2.532.464 4.849.752 7.361 1.493.978.289 3.15 1.174 4.129.845 2.81-.948.689-3.676-.484-4.963l.823 1.894c-2.069-2.707-2.831-4.478-6.136-4.839-.896-.092-1.997-.195-3.14-.195-2.142 0-4.427.329-5.848 1.565m-474.788-1.555c-3.243.834-.69 2.739.731 3.614l-1.009-1.349c2.491 1.884 3.439 3.14 7.289 3.233 2.986.072 7.949.041 10.419-1.472 3.048-1.864-1.317-2.718-3.984-2.904-2.965-.216-5.663-.298-8.607-.71-.906-.124-2.708-.494-3.974-.494-.33 0-.618.02-.845.082m67.18-5.199l.752-.556c-.597.968-1.298 1.482.237 2.224 1.194.566 3.304 1.472 5.662 1.523 2.914.062 1.823-.978.865-1.523-1.06-.608-2.111-1.123-2.996-1.782-.34-.257-.947-.875-1.668-.998a5.463 5.463 0 00-.854-.083c-1.411 0-1.854.773-1.998 1.195zm66.171-2.173c-1.442.155-2.79.371-4.17.402h-.381c-.597 0-1.441 0-1.946.216-1.843.803-1.019 1.689-.525 2.07l-.185-.701c.793.876.968 1.524 2.883 1.215 1.493-.247 4.005-.741 5.621-1.873 1.575-1.102.669-1.39-.422-1.39-.288 0-.597.02-.875.051m404.931.721c.886.885 1.771 1.657 2.502 2.605.288.37.783 1.245 1.39 1.462 1.781.628 2.327-.67 2.492-1.339l-.67.7c.546-1.276 1.174-1.946-.113-3.037-.998-.844-2.78-2.203-4.798-2.409a4.942 4.942 0 00-.525-.031c-1.832 0-1.009 1.307-.278 2.049zm-819.891-8.607l.659-.71c-.545 1.286-1.163 1.945.134 3.026 1.009.844 2.79 2.193 4.819 2.389 2.501.236 1.585-1.226.792-2.018-.895-.886-1.781-1.648-2.512-2.585-.288-.37-.782-1.235-1.4-1.451a2.696 2.696 0 00-.865-.165c-1.112 0-1.493.968-1.616 1.514m295.158-2.852l.752-.556c-.598.967-1.298 1.482.236 2.224 1.195.566 3.305 1.472 5.663 1.523 2.914.052 1.812-.978.865-1.523-1.061-.608-2.111-1.123-2.996-1.782-.34-.257-.947-.875-1.668-.998a5.54 5.54 0 00-.855-.083c-1.4 0-1.853.773-1.997 1.195zm401.925-1.792l.762-.597c-.731 1.184-1.441 1.75-.33 3.017.865.978 2.43 2.584 4.397 3.088 2.43.618 1.76-.978 1.081-1.873-.752-1.01-1.514-1.895-2.09-2.945-.227-.402-.587-1.338-1.164-1.647-.422-.227-.782-.31-1.091-.31-.916 0-1.369.804-1.565 1.277M487.83 94.453c-3.367 1.04-7.845 1.864-10.656 3.387-.021.989 2.502 2.214 3.284 3.007 1.545 1.565 3.182 4.973 6.734 5.312 3.716.35 8.627-3.006 8.72-5.302.124-2.842-3.964-6.064-7.536-7.31l-.536.906h-.01zm-306.587-6.445c-2.81.958-.679 3.686.515 4.952l-.834-1.884c2.08 2.698 2.852 4.469 6.157 4.808 2.564.268 6.816.494 8.988-1.42 2.677-2.369-1.04-3.758-3.325-4.17-2.533-.453-4.85-.721-7.372-1.452-.824-.237-2.512-.896-3.593-.896-.196 0-.381.02-.525.072m239.036 2.924l.865.37c1.719.752 4.097 2.256 6.332 2.297 1.997.041 4.118-.803 5.992-1.266 3.016-.742 8.875-2.06 4.324-4.13-1.647-.75-3.634-1.08-5.694-1.08-4.519 0-9.4 1.575-11.819 3.789m480.306-2.79c.886.885 1.771 1.657 2.502 2.604.278.371.783 1.246 1.39 1.462 1.781.628 2.327-.669 2.492-1.338l-.659.7c.546-1.277 1.174-1.946-.124-3.027-.998-.844-2.78-2.203-4.798-2.41-.195-.02-.37-.03-.525-.03-1.832 0-1.009 1.308-.278 2.049m-415.525-2.358c-3.244.834-.69 2.739.731 3.614l-1.02-1.349c2.492 1.884 3.439 3.14 7.29 3.233 2.986.072 7.938.041 10.419-1.472 3.058-1.864-1.318-2.718-3.984-2.904-2.966-.216-5.663-.298-8.608-.71-.916-.124-2.718-.494-3.974-.494-.329 0-.618.02-.844.082m368.886-.062c-1.287.247-3.459.762-4.901 2.204-1.771 1.78-.061 2.007 1.061 1.894 1.245-.134 2.409-.33 3.593-.298.463.01 1.452.174 2.018-.165 1.616-.989.937-2.224.525-2.78l.124.957c-.556-1.07-.731-1.884-1.833-1.884-.175 0-.371.02-.597.062m-389.756-8.37l.752-.556c-.597.967-1.297 1.492.237 2.224 1.194.566 3.305 1.472 5.662 1.523 2.914.062 1.812-.978.865-1.523-1.06-.608-2.111-1.123-2.996-1.782-.34-.257-.947-.875-1.668-.998a4.484 4.484 0 00-.854-.083c-1.411 0-1.854.772-1.998 1.195zm66.171-2.173c-1.442.155-2.79.37-4.17.412h-.381c-.597 0-1.441 0-1.956.216-1.843.803-1.019 1.689-.525 2.07l-.185-.7c.792.875.957 1.523 2.882 1.215 1.493-.248 4.005-.742 5.622-1.874 1.575-1.102.669-1.39-.422-1.39-.289 0-.597.02-.875.051m249.105 2.698c-1.266 2.213-4.684 5.734-3.706 8.679 1.019 3.089 6.908 4.643 9.667 3.202 3.429-1.781 5.673-7.053 5.776-10.625l-1.287.185c-2.532-1.894-5.24-4.798-8.144-5.95-1.173.627-1.668 3.386-2.296 4.509m154.426-5.53c-2.615.825-7.691 2.266-3.871 5.344 4.407 3.552 11.984 1.534 15.135-2.635l-.731-.567c-1.442-1.112-3.429-3.305-5.344-3.5a5.226 5.226 0 00-.401-.02c-1.596 0-3.295.905-4.798 1.379M55.388 66.964c-2.913 1.225-6.795 2.09-9.256 4.015-.051 1.338 2.08 3.15 2.729 4.262 1.276 2.214 2.574 6.94 5.61 7.588 3.182.69 7.496-3.603 7.65-6.723.196-3.86-3.212-8.463-6.239-10.357l-.494 1.204v.01zM410.55 64.44l.752-.556c-.597.968-1.298 1.483.236 2.224 1.195.566 3.305 1.472 5.663 1.524 2.914.051 1.812-.978.865-1.524-1.06-.608-2.111-1.122-2.996-1.781-.34-.258-.947-.875-1.668-.999a5.407 5.407 0 00-.855-.082c-1.41 0-1.853.772-1.997 1.194zM-2.494 58.418l.73.556c1.452 1.112 3.45 3.284 5.365 3.47 1.709.164 3.562-.865 5.178-1.38 2.616-.834 7.681-2.296 3.84-5.364-1.564-1.256-3.541-1.802-5.559-1.802-3.676 0-7.547 1.812-9.554 4.52zm476.723-5.632c-3.243.834-.69 2.739.731 3.614l-1.019-1.349c2.492 1.884 3.439 3.14 7.289 3.233 2.986.072 7.938.041 10.42-1.472 3.057-1.864-1.318-2.718-3.985-2.904-2.965-.216-5.662-.298-8.607-.72-.916-.124-2.718-.494-3.974-.494-.33 0-.618.02-.844.082m406.403 4.231c-.216 3.861 3.171 8.474 6.188 10.389l.505-1.205c2.924-1.215 6.805-2.059 9.276-3.964.062-1.328-2.069-3.16-2.708-4.283-1.266-2.213-2.543-6.95-5.57-7.618a3.357 3.357 0 00-.72-.083c-3.079 0-6.806 3.871-6.971 6.764zm-79.555-7.176l.947.217c-1.379.175-2.265-.021-2.543 1.647-.216 1.297-.473 3.51.381 5.354 1.061 2.275 1.864.751 2.142-.34.309-1.215.525-2.368.957-3.48.175-.432.669-1.308.546-1.946-.257-1.277-.988-1.575-1.647-1.575a2.77 2.77 0 00-.783.123zM92.494 43.16c-1.246.134-2.399.34-3.593.319-.463 0-1.452-.175-2.008.175-1.606.999-.926 2.234-.515 2.78l-.133-.958c.658 1.236.782 2.132 2.44 1.812 1.287-.247 3.459-.782 4.88-2.234 1.513-1.534.463-1.915-.566-1.915-.175 0-.34.01-.505.031m-56.863-.741l.659-.71c-.546 1.286-1.164 1.945.133 3.037 1.01.844 2.79 2.193 4.809 2.388 2.502.237 1.585-1.225.792-2.018-.895-.875-1.78-1.647-2.512-2.584-.288-.36-.782-1.236-1.4-1.452a2.695 2.695 0 00-.865-.164c-1.112 0-1.493.967-1.616 1.513m794.501 1.853l1.205-1.668c-1.277 3.161-2.409 4.726-1.03 7.743 1.071 2.337 3.017 6.126 5.776 7.032 3.398 1.112 2.718-2.8 1.915-4.983-.895-2.42-1.832-4.551-2.471-7.094-.247-.989-.597-3.305-1.379-3.985-.494-.422-.937-.597-1.339-.597-1.431 0-2.285 2.245-2.677 3.552zm-62.227-18.295c-.227 1.812-1.091 4.643-.278 6.383.721 1.555 2.543 2.636 3.82 3.768 2.049 1.833 5.868 5.457 6.568.597.814-5.6-4.797-11.098-9.997-11.665l-.113.917zM-10 21.92l.659-.71c-.546 1.286-1.164 1.945.134 3.026 1.009.844 2.79 2.193 4.818 2.389 2.502.237 1.586-1.225.793-2.018-.896-.875-1.781-1.648-2.512-2.584-.288-.371-.783-1.236-1.4-1.452a2.692 2.692 0 00-.865-.165c-1.112 0-1.493.968-1.617 1.514M45.03 9.637c-2.81.957-.679 3.686.515 4.952l-.833-1.884c2.08 2.697 2.851 4.468 6.156 4.808 2.564.268 6.816.494 8.989-1.42 2.676-2.369-1.04-3.759-3.326-4.17-2.533-.454-4.85-.732-7.372-1.452-.823-.237-2.512-.896-3.593-.896-.196 0-.38.02-.535.072M795.724.124l.947.216c-1.379.175-2.265-.02-2.543 1.647-.216 1.297-.473 3.51.381 5.354 1.061 2.275 1.864.751 2.142-.34.309-1.215.525-2.368.957-3.48.175-.432.669-1.307.546-1.946C797.907.3 797.165 0 796.507 0c-.299 0-.577.062-.783.124z" fill="#fff"/></mask><g mask="url(#a)"><path d="M62.577-255.364l-175.984 613.727 993.392 284.85L1055.97 29.487 62.576-255.364z" fill="url(#paint0_radial_403_1101)"/></g><defs><radialGradient id="paint0_radial_403_1101" cx="0" cy="0" r="1" gradientUnits="userSpaceOnUse" gradientTransform="rotate(-164 337.18 92.944) scale(392.762)"><stop stop-color="#836942"/><stop offset=".27" stop-color="#6B5636"/><stop offset="1" stop-color="#C7B07E"/></radialGradient></defs></svg>