<svg width="124" height="34" viewBox="0 0 124 34" fill="none" xmlns="http://www.w3.org/2000/svg">
<g id="Group 4390">
<path id="Vector" d="M12.2581 0.926761C9.88746 0.926761 7.57009 1.64375 5.59897 2.98708C3.62784 4.33033 2.09156 6.2396 1.18437 8.47348C0.277187 10.7073 0.0398015 13.1654 0.502271 15.5368C0.964741 17.9082 2.10637 20.0864 3.7826 21.7962C5.45893 23.5058 7.5946 24.6702 9.91968 25.1419C12.2448 25.6136 14.6548 25.3714 16.8449 24.4462C19.0352 23.5209 20.9071 21.954 22.2241 19.9436C23.5412 17.9332 24.2442 15.5696 24.2442 13.1517C24.2453 11.546 23.9361 9.95585 23.3342 8.47207C22.7322 6.98838 21.8493 5.64018 20.7361 4.50478C19.6229 3.36937 18.301 2.46893 16.8463 1.85497C15.3915 1.24102 13.8325 0.925604 12.2581 0.926761ZM10.526 18.3368L9.65995 20.9867C8.03958 20.4107 6.6358 19.3334 5.64426 17.905C4.65272 16.4765 4.12296 14.7682 4.12868 13.018C4.13439 11.2679 4.67533 9.56313 5.67622 8.14154C6.67702 6.71985 8.08782 5.65211 9.71192 5.08714L10.578 7.73707C9.50606 8.10611 8.57609 8.81153 7.92119 9.75234C7.26628 10.6932 6.91995 11.8213 6.9319 12.9751C6.864 14.151 7.18219 15.3166 7.83623 16.2875C8.49018 17.2584 9.44275 17.9796 10.5433 18.3368H10.526ZM14.6137 21.1015L13.7477 18.3986C14.837 18.039 15.7873 17.338 16.4632 16.3953C17.139 15.4528 17.5059 14.3166 17.5117 13.1488C17.5174 11.9811 17.1618 10.8413 16.4952 9.89172C15.8287 8.94226 14.8853 8.23146 13.7997 7.86073L14.6657 5.15781C16.3123 5.71712 17.743 6.79361 18.7529 8.23314C19.7628 9.67266 20.3 11.4013 20.2875 13.1714C20.275 14.9414 19.7135 16.662 18.6834 18.0865C17.6532 19.5111 16.2075 20.5665 14.5531 21.1015H14.6137Z" fill="#F5F5F5"/>
<path id="Vector_2" d="M32.757 33.556H30.8777V27.9205H34.134V28.4858H31.5359V30.2525H32.7483C33.8569 30.2525 34.5757 30.7029 34.5757 31.8336V31.8866C34.5757 32.9907 33.8569 33.556 32.757 33.556ZM32.757 33.0525C33.623 33.0525 33.9175 32.655 33.9175 31.9837V31.9307C33.9175 31.2506 33.5278 30.8619 32.705 30.8619H31.5359V33.0614L32.757 33.0525ZM35.1906 32.4342C35.1906 31.4802 36.1865 31.1358 37.2345 31.1358H37.8407V30.8531C37.8407 30.173 37.6155 29.8991 36.9746 29.8991C36.3338 29.8991 36.1086 30.1288 36.0393 30.6323H35.3724C35.3917 30.4387 35.4487 30.2511 35.5402 30.0805C35.6317 29.9098 35.7558 29.7595 35.9051 29.6385C36.0544 29.5175 36.2259 29.4281 36.4096 29.3759C36.5933 29.3236 36.7854 29.3093 36.9746 29.3338C37.1721 29.306 37.3732 29.3243 37.5628 29.3873C37.7523 29.4504 37.9253 29.5565 38.0688 29.6977C38.2122 29.839 38.3224 30.0116 38.3909 30.2025C38.4594 30.3935 38.4844 30.5978 38.4642 30.8001V33.503H37.7454V32.9907C37.6037 33.1972 37.412 33.3628 37.1888 33.4711C36.9657 33.5795 36.7188 33.627 36.4723 33.609C35.7968 33.609 35.1473 33.2734 35.1473 32.4254L35.1906 32.4342ZM37.8407 32.1516V31.6481H37.2864C36.4204 31.6481 35.9094 31.8777 35.9094 32.4342C35.9094 32.9907 36.1346 33.1144 36.6802 33.1144C37.2258 33.1144 37.8407 32.761 37.8407 32.1427V32.1516ZM42.1709 31.7541H40.179V33.609H39.4775V29.4928H40.1444V31.2594H42.1363V29.4928H42.8031V33.609H42.1363L42.1709 31.7541ZM44.6045 31.4714V33.556H43.9377V29.4398H44.6045V31.3566L46.2587 29.4398H47.0295L45.2974 31.3566L47.1767 33.556H46.4059L44.6045 31.4714ZM121.977 15.351L123.302 16.9852C122.721 17.5925 122.024 18.0715 121.254 18.3921C120.483 18.7127 119.656 18.8683 118.825 18.8489C117.761 18.8852 116.704 18.6738 115.733 18.2306C114.875 17.7593 114.169 17.0448 113.7 16.1734C113.232 15.3019 113.021 14.3107 113.092 13.3194C113.092 9.99819 115.3 7.51609 118.565 7.51609C122.211 7.51609 123.978 10.2808 123.701 13.8847H115.413C115.44 14.3275 115.57 14.7574 115.792 15.1395C116.013 15.5216 116.319 15.8452 116.686 16.0842C117.372 16.4956 118.161 16.6923 118.955 16.6495C119.518 16.655 120.078 16.5426 120.598 16.3193C121.117 16.096 121.587 15.7665 121.977 15.351ZM115.516 11.915H121.371C121.277 11.2173 120.928 10.5814 120.396 10.1332C119.863 9.68497 119.185 9.45708 118.496 9.4947C117.798 9.46927 117.113 9.69919 116.567 10.1431C116.021 10.5869 115.648 11.2154 115.516 11.915ZM59.8296 18.5663H62.8088L58.1149 12.9838L62.7568 7.74575H59.8296L56.2962 11.915H55.2396V7.74575H52.9792V18.5044H55.2396V14.2292H56.2875L59.8296 18.5663ZM69.6072 9.7332C69.1708 9.72878 68.7386 9.81587 68.3376 9.98918C67.9358 10.1625 67.5729 10.4183 67.2724 10.7406C66.9719 11.0629 66.7398 11.4449 66.5899 11.8627C66.4401 12.2805 66.3769 12.7252 66.4029 13.1693C66.3769 13.6133 66.4401 14.0581 66.5899 14.4759C66.7398 14.8937 66.9719 15.2756 67.2724 15.5979C67.5729 15.9202 67.9358 16.176 68.3376 16.3493C68.7386 16.5227 69.1708 16.6098 69.6072 16.6053C70.042 16.613 70.4733 16.5277 70.8743 16.3547C71.2744 16.1819 71.6347 15.9252 71.9317 15.6014C72.2288 15.2775 72.4557 14.8938 72.5986 14.4749C72.7415 14.0559 72.796 13.6112 72.7597 13.1693C72.7986 12.7259 72.7458 12.2792 72.6046 11.8582C72.4626 11.4371 72.2357 11.0512 71.9386 10.7253C71.6416 10.3996 71.2805 10.1413 70.8786 9.96736C70.4768 9.79335 70.0437 9.70758 69.6072 9.71553V9.7332ZM69.997 7.53376C72.9762 7.53376 75.1933 9.90103 75.1933 13.1693C75.1933 16.4375 73.0368 18.8578 69.997 18.8578C69.3552 18.8877 68.7143 18.778 68.1168 18.5359C67.5192 18.2937 66.9797 17.9246 66.5328 17.4533V23.0888H64.2464V7.74575H66.5155V9.04422C66.9398 8.53614 67.475 8.13653 68.0778 7.87728C68.6814 7.61803 69.3353 7.50647 69.9883 7.55143L69.997 7.53376ZM100.049 7.76342H90.5743V9.90103H94.1684V18.5044H96.4894V9.93636H100.101V7.74575L100.049 7.76342ZM51.377 7.76342H41.9284V9.90103H45.5399V18.5044H47.8609V9.93636H51.429V7.74575L51.377 7.76342ZM39.1051 13.1516C39.1051 12.2543 38.7556 11.3938 38.1336 10.7594C37.5115 10.1249 36.6678 9.76853 35.7881 9.76853C34.9084 9.76853 34.0647 10.1249 33.4426 10.7594C32.8206 11.3938 32.4712 12.2543 32.4712 13.1516C32.4712 14.0489 32.8206 14.9093 33.4426 15.5438C34.0647 16.1783 34.9084 16.5347 35.7881 16.5347C36.6678 16.5347 37.5115 16.1783 38.1336 15.5438C38.7556 14.9093 39.1051 14.0489 39.1051 13.1516ZM30.1588 13.1516C30.1364 11.9991 30.451 10.866 31.0625 9.89679C31.674 8.92744 32.5546 8.16577 33.5921 7.70883C34.6296 7.2519 35.7771 7.12046 36.8881 7.33131C37.9992 7.54206 39.0235 8.08556 39.8306 8.89238C40.6377 9.69928 41.1909 10.7329 41.4197 11.8617C41.6485 12.9905 41.5426 14.1632 41.1155 15.2303C40.6883 16.2974 39.9593 17.2106 39.0213 17.8535C38.0833 18.4964 36.9789 18.8398 35.8488 18.8401C35.1031 18.8703 34.3593 18.7448 33.663 18.4711C32.9667 18.1974 32.3326 17.7815 31.7997 17.2486C31.2669 16.7159 30.8464 16.0776 30.5641 15.373C30.282 14.6685 30.144 13.9125 30.1588 13.1516ZM111.264 7.74575V18.5044H108.995V11.5793L103.47 18.5133H101.642V7.74575H103.911V14.7327L109.437 7.79875H111.264V7.74575ZM89.05 18.5663H86.781V7.74575H89.05V18.5663ZM83.1349 14.8476C83.1453 14.6346 83.1133 14.4216 83.0397 14.2219C82.9669 14.0222 82.8535 13.8401 82.708 13.6868C82.5625 13.5335 82.3884 13.4124 82.1944 13.3309C82.0013 13.2495 81.7934 13.2095 81.5847 13.2134H79.3156V16.5347H81.6367C81.8462 16.5304 82.0524 16.4827 82.2429 16.3945C82.4334 16.3063 82.6049 16.1794 82.7461 16.0216C82.8864 15.8636 82.9946 15.6781 83.063 15.4763C83.1315 15.2745 83.1592 15.0605 83.1436 14.8476H83.1349ZM85.4559 14.8476C85.4663 15.3464 85.3754 15.8419 85.1883 16.3028C85.0012 16.7636 84.7215 17.1798 84.3682 17.5245C84.0148 17.8694 83.5948 18.1353 83.1349 18.3055C82.675 18.4757 82.1857 18.5465 81.6973 18.5133H77.0033V7.74575H79.3156V11.279H81.9138C82.3832 11.25 82.8535 11.322 83.2934 11.4904C83.7334 11.6587 84.1343 11.9197 84.4686 12.2562C84.8038 12.5927 85.0653 12.9974 85.2368 13.4438C85.4083 13.8903 85.4862 14.3685 85.4646 14.8476H85.4559Z" fill="#F5F5F5"/>
</g>
</svg>
