<svg width="117" height="30" viewBox="0 0 117 30" fill="none" xmlns="http://www.w3.org/2000/svg">
<path d="M46.2024 5.96489H32.4374L33.4359 3.21973H47.1836L46.2024 5.96489ZM45.7118 7.32877H31.9468L30.9541 10.0681H44.7018L45.7118 7.32877ZM44.2228 11.4204H30.4636L29.4651 14.1598H43.2012L44.2228 11.4204Z" fill="#F5F5F5"/>
<path d="M78.9441 21.0075H81.4086C81.7606 21.0521 82.1185 21.0075 82.4492 20.8777C82.7793 20.748 83.0725 20.5373 83.3016 20.2646C83.6456 19.8182 83.8158 19.2611 83.7806 18.6976C83.8014 18.3388 83.7345 17.9802 83.5856 17.6534C83.4367 17.3266 83.2104 17.0415 82.9265 16.823C82.4653 16.5209 81.917 16.382 81.3682 16.4283H78.9153V21.0017L78.9441 21.0075ZM75.6948 23.7643V7.32807H86.3316L85.3909 10.0849H78.9441V13.7238H81.5702C83.6941 13.7238 84.7907 14.2345 85.5525 14.8845C86.0967 15.3715 86.5244 15.9755 86.8043 16.6518C87.0842 17.3281 87.2089 18.0591 87.1685 18.7905C87.2083 19.5748 87.0537 20.3567 86.7178 21.0659C86.3824 21.7751 85.8768 22.3892 85.2466 22.8531C84.2193 23.5669 83.1516 23.7701 80.9757 23.7701L75.6948 23.7643ZM66.2699 23.7643V10.0849H61.5373V7.32807H74.6675L73.7267 10.0849H69.5424V23.7817H66.2642L66.2699 23.7643ZM53.1686 13.8979H55.0328C55.4197 13.9303 55.8094 13.901 56.1871 13.8109C56.574 13.6851 56.9073 13.4315 57.1326 13.0911C57.3579 12.7507 57.462 12.3437 57.428 11.9362C57.481 11.5314 57.3838 11.1211 57.1548 10.7838C56.9259 10.4465 56.5814 10.206 56.1871 10.1081C55.7809 10.0113 55.3632 9.97226 54.9463 9.99199H53.2148V13.8979H53.1686ZM53.1686 16.7417V21.0539H55.4368C56.054 21.1217 56.6735 20.9493 57.1683 20.5722C57.4007 20.3607 57.5838 20.1001 57.7045 19.8091C57.8252 19.5182 57.8806 19.204 57.8666 18.8891C57.8787 18.3842 57.7268 17.889 57.4338 17.4788C56.9547 16.852 56.3487 16.7359 55.3387 16.7359H53.1744L53.1686 16.7417ZM58.4092 15.0006V15.0587C58.9661 15.2859 59.4838 15.5993 59.9444 15.9873C60.4119 16.3762 60.7807 16.8708 61.0213 17.4306C61.262 17.9904 61.3676 18.5996 61.3295 19.2083C61.3295 21.4602 60.1464 23.0852 58.1956 23.5611C57.4165 23.7547 56.6135 23.8329 55.812 23.7933H49.925V7.32807H55.1656C55.9993 7.29662 56.8336 7.37462 57.6473 7.56022C59.5404 8.07095 60.7812 9.3884 60.7812 11.4661C60.7974 11.9587 60.7131 12.4494 60.5348 12.9084C60.3559 13.3674 60.0863 13.785 59.7424 14.1359C59.3759 14.5101 58.9384 14.8062 58.4553 15.0064H58.4092V15.0006Z" fill="#F5F5F5"/>
</svg>
