<svg width="166" height="43" viewBox="0 0 166 43" fill="none" xmlns="http://www.w3.org/2000/svg">
<path d="M75.1588 16.8996L78.2954 14.5884H67.8951V28.2904H78.2954V25.9793H70.8666V22.5125H77.1398V20.2013H70.8666V16.8996H75.1588ZM62.1997 16.8996L65.3363 14.5884H53.4502V28.2904H59.6409C63.1076 28.2904 65.0886 26.7221 65.0886 23.9982C65.0886 21.3569 63.2727 19.9537 59.971 19.9537H56.3392V16.8996H62.1997ZM59.5583 22.1823C61.4568 22.1823 62.2822 22.8427 62.2822 24.0808C62.2822 25.3189 61.3742 25.9793 59.5583 25.9793H56.4217V22.1823H59.5583ZM86.6321 14.5884H81.0192V28.2904H83.9908V24.411H86.7146C90.3465 24.411 92.5751 22.5125 92.5751 19.4584C92.5751 16.4044 90.264 14.5884 86.6321 14.5884ZM86.6321 22.0998H83.9908V16.8171H86.6321C88.5306 16.8171 89.6036 17.725 89.6036 19.4584C89.5211 21.1918 88.5306 22.0998 86.6321 22.0998ZM48.4151 25.3189C47.5897 25.7316 46.7643 25.9793 45.8563 25.9793C43.215 25.9793 41.234 24.0808 41.234 21.4394C41.234 18.7981 43.1324 16.8996 45.8563 16.8996C46.8468 16.8996 47.7548 17.2298 48.5802 17.725L50.7263 16.1567L50.5612 15.9917C49.3231 14.9186 47.6723 14.3408 45.7738 14.3408C43.7102 14.3408 41.8943 15.0012 40.4911 16.3218C39.1704 17.6425 38.345 19.4584 38.4275 21.3569C38.4275 23.2554 39.1704 25.0713 40.4911 26.4745C41.8943 27.7952 43.7928 28.5381 45.6912 28.4555C47.8373 28.4555 49.6533 27.7126 50.9739 26.392L49.0755 24.9887L48.4151 25.3189ZM137.478 20.2013H131.122V14.5884H128.151V28.2904H131.122V22.6776H137.478V28.2904H140.45V14.5884H137.478V20.2013ZM117.42 14.5884L111.477 28.2904H114.449L115.604 25.5665H121.878L123.033 28.2904H126.17L120.392 14.5884H117.42ZM116.595 23.2554L118.906 17.725L121.052 23.2554H116.595ZM151.18 21.1918L156.545 14.5884H153.161L148.704 20.4489H147.053V14.5884H144.081V28.2904H147.053V22.7601H148.951L153.491 28.2904H157.288L151.18 21.1918ZM105.287 19.9537H101.655V16.8996H109.414V14.5884H98.6832V28.2904H104.874C108.341 28.2904 110.322 26.7221 110.322 23.9982C110.404 21.3569 108.588 19.9537 105.287 19.9537ZM104.791 26.0618H101.655V22.2649H104.791C106.69 22.2649 107.515 22.9252 107.515 24.1633C107.598 25.4015 106.607 26.0618 104.791 26.0618Z" fill="#F5F5F5"/>
<path d="M28.9194 14.3252C29.4553 15.0273 29.909 15.7901 30.2712 16.5983L19.9956 24.2749L15.7012 21.5467V18.2645L19.9956 20.9927L28.9194 14.3252Z" fill="#F5F5F5"/>
<path d="M11.3185 21.3154C11.3185 21.1681 11.322 21.0218 11.3291 20.8763L8.72658 20.7471C8.71772 20.9356 8.71241 21.1259 8.71241 21.318C8.7113 22.8189 9.0026 24.3052 9.5696 25.6917C10.1366 27.0783 10.9681 28.3377 12.0165 29.3977L13.8626 27.5277C13.0556 26.7132 12.4154 25.745 11.9788 24.6789C11.5422 23.6127 11.3178 22.4696 11.3185 21.3154Z" fill="#F5F5F5"/>
<path d="M19.9935 12.5241C20.1387 12.5241 20.2831 12.5295 20.4266 12.5367L20.5568 9.89824C20.3702 9.88926 20.1824 9.88477 19.9935 9.88477C18.5118 9.88294 17.0444 10.1777 15.6755 10.7522C14.3066 11.3267 13.0632 12.1696 12.0166 13.2325L13.8627 15.1034C14.6664 14.2852 15.6219 13.6362 16.674 13.1935C17.7262 12.7509 18.8542 12.5234 19.9935 12.5241Z" fill="#F5F5F5"/>
<path d="M19.9934 30.1076C19.8482 30.1076 19.7038 30.1076 19.5594 30.0959L19.4292 32.7335C19.6164 32.7431 19.8045 32.7479 19.9934 32.7479C21.4745 32.7494 22.9412 32.4544 24.3093 31.8798C25.6775 31.3051 26.9201 30.4621 27.9659 29.3993L26.1234 27.5293C25.3195 28.347 24.3641 28.9957 23.3122 29.4382C22.2603 29.8806 21.1324 30.1082 19.9934 30.1076Z" fill="#F5F5F5"/>
<path d="M24.8831 14.0583L27.0764 12.4199C25.0717 10.7748 22.5693 9.87922 19.9897 9.88381V12.5241C21.7365 12.5219 23.4427 13.0569 24.8831 14.0583Z" fill="#F5F5F5"/>
<path d="M31.2734 21.3162C31.2748 20.6294 31.2156 19.9437 31.0962 19.2676L28.6682 21.081C28.6682 21.1592 28.6682 21.2372 28.6682 21.3162C28.6689 22.5446 28.4148 23.7594 27.9225 24.8819C27.4302 26.0043 26.7107 27.0095 25.8105 27.832L27.5618 29.7937C28.7321 28.723 29.6672 27.4151 30.3066 25.9547C30.946 24.4943 31.2754 22.914 31.2734 21.3162Z" fill="#F5F5F5"/>
<path d="M19.9933 30.108C18.7811 30.1085 17.5824 29.8509 16.4747 29.352C15.367 28.8531 14.375 28.124 13.5631 27.2119L11.6284 28.9859C12.6847 30.172 13.9752 31.1199 15.4163 31.7681C16.8573 32.4162 18.4166 32.7502 19.9933 32.7483V30.108Z" fill="#F5F5F5"/>
<path d="M14.1762 14.7995L12.4258 12.8379C11.2552 13.9083 10.3198 15.2162 9.68004 16.6766C9.04033 18.137 8.71066 19.7174 8.71241 21.3153H11.3185C11.318 20.087 11.5721 18.8722 12.0644 17.7497C12.5566 16.6273 13.2761 15.6221 14.1762 14.7995Z" fill="#F5F5F5"/>
</svg>
