<svg width="208" height="98" viewBox="0 0 208 98" fill="none" xmlns="http://www.w3.org/2000/svg">
<path d="M1.16302 21.4518V0.849196H4.2534V21.4518H1.16302ZM4.3651 10.9365L18.2718 0.830566H22.7211L8.85172 10.7318L23.2238 21.4518H18.6069L4.38371 10.9365H4.3651Z" fill="url(#paint0_linear_7_636)"/>
<path d="M35.3247 21.7496C34.0029 21.7496 32.8301 21.6193 31.7689 21.3774C30.7078 21.1354 29.7583 20.7818 28.9392 20.2979C28.12 19.814 27.4126 19.2557 26.8541 18.5671C26.277 17.897 25.8488 17.1154 25.5509 16.2593C25.2531 15.4032 25.1041 14.4539 25.1041 13.4303C25.1041 12.4067 25.2531 11.4948 25.5509 10.6386C25.8488 9.78252 26.277 9.00084 26.8541 8.31222C27.4312 7.62361 28.12 7.04667 28.9392 6.58139C29.7583 6.11611 30.7077 5.74391 31.7875 5.50196C32.8487 5.2414 34.0401 5.11108 35.3433 5.11108C36.6465 5.11108 37.8193 5.2414 38.8991 5.50196C39.9789 5.76252 40.9283 6.11611 41.7474 6.58139C42.5666 7.04667 43.2554 7.62361 43.8325 8.31222C44.4096 9.00084 44.8378 9.78252 45.1357 10.6386C45.4335 11.4948 45.5825 12.4253 45.5825 13.4303C45.5825 14.4353 45.4335 15.3845 45.1357 16.2593C44.8378 17.134 44.4096 17.897 43.8511 18.5671C43.2926 19.2371 42.6038 19.814 41.7661 20.2979C40.9283 20.7818 39.9975 21.1354 38.9177 21.3774C37.8379 21.6193 36.6465 21.7496 35.3619 21.7496H35.3247ZM35.3247 19.4232C36.2928 19.4232 37.1491 19.3301 37.8938 19.1626C38.6571 18.9765 39.3087 18.7346 39.8858 18.3996C40.4629 18.0646 40.9283 17.6551 41.3379 17.1712C41.7288 16.6873 42.0267 16.129 42.2129 15.5148C42.399 14.9006 42.4921 14.212 42.4921 13.4676C42.4921 12.7231 42.399 12.0345 42.2129 11.4017C42.0267 10.7689 41.7288 10.2106 41.3379 9.74533C40.9469 9.26144 40.4629 8.85198 39.8858 8.51698C39.3087 8.18198 38.6571 7.92139 37.8938 7.73528C37.1305 7.54917 36.2741 7.47475 35.3247 7.47475C34.3752 7.47475 33.5189 7.56778 32.7556 7.73528C31.9923 7.90278 31.3221 8.16336 30.745 8.51698C30.1679 8.85198 29.6838 9.28001 29.2929 9.7639C28.9019 10.2478 28.6227 10.8062 28.4365 11.4203C28.2503 12.0345 28.1573 12.7231 28.1573 13.4676C28.1573 14.212 28.2503 14.9006 28.4551 15.5148C28.6413 16.129 28.9392 16.6873 29.3115 17.1712C29.6838 17.6551 30.1679 18.0832 30.745 18.3996C31.3221 18.7346 31.9923 18.9951 32.7556 19.1626C33.5189 19.3301 34.3752 19.4232 35.3247 19.4232Z" fill="url(#paint1_linear_7_636)"/>
<path d="M47.8909 19.3303C48.4122 19.2744 48.8962 19.1628 49.3058 19.0139C49.7154 18.865 50.0691 18.623 50.3669 18.3066C50.7579 17.8786 51.0558 17.283 51.2419 16.5386C51.4467 15.7941 51.577 14.8077 51.6887 13.5608C51.8004 12.3138 51.8563 10.7877 51.9307 8.94516L51.9866 5.44629H67.4198V21.4706H64.4412V7.8471H54.7791L54.7419 9.28021C54.686 11.3833 54.5743 13.1327 54.4254 14.5472C54.2765 15.9616 54.0344 17.0969 53.6993 17.9716C53.3829 18.8464 52.9733 19.5536 52.4706 20.0747C51.968 20.6144 51.3536 21.0239 50.6648 21.2472C49.976 21.4892 49.0824 21.6195 48.0212 21.6567L47.8723 19.3303H47.8909Z" fill="url(#paint2_linear_7_636)"/>
<path d="M71.1432 19.3303C71.6645 19.2744 72.1485 19.1628 72.5581 19.0139C72.9676 18.865 73.3213 18.623 73.6192 18.3066C74.0102 17.8786 74.308 17.283 74.4942 16.5386C74.699 15.7941 74.8293 14.8077 74.941 13.5608C75.0527 12.3138 75.1085 10.7877 75.183 8.94516L75.2389 5.44629H90.6721V21.4706H87.6934V7.8471H78.0314L77.9941 9.28021C77.9383 11.3833 77.8266 13.1327 77.6776 14.5472C77.5287 15.9616 77.2867 17.0969 76.9516 17.9716C76.6351 18.8464 76.2255 19.5536 75.7229 20.0747C75.2202 20.6144 74.6059 21.0239 73.9171 21.2472C73.2283 21.4892 72.3347 21.6195 71.2735 21.6567L71.1246 19.3303H71.1432Z" fill="url(#paint3_linear_7_636)"/>
<path d="M105.919 21.7496C104.616 21.7496 103.425 21.6193 102.345 21.3587C101.246 21.0982 100.297 20.7446 99.4964 20.2607C98.6773 19.7954 97.9885 19.2185 97.4113 18.5299C96.8342 17.8412 96.406 17.0596 96.1082 16.2034C95.8103 15.3473 95.6614 14.3981 95.6614 13.3745C95.6614 12.3509 95.8103 11.4762 96.1082 10.6201C96.406 9.76394 96.8342 9.00086 97.3927 8.33085C97.9512 7.66085 98.64 7.08391 99.4592 6.60002C100.278 6.11613 101.209 5.74391 102.289 5.50196C103.35 5.2414 104.523 5.11108 105.807 5.11108C107.353 5.11108 108.749 5.29719 109.978 5.68803C111.206 6.07887 112.249 6.6186 113.124 7.32583C113.98 8.03306 114.65 8.87058 115.097 9.83836C115.544 10.8061 115.767 11.9042 115.767 13.0953C115.767 13.3001 115.767 13.4862 115.767 13.6909C115.767 13.8956 115.73 14.0817 115.693 14.2492H98.64C98.6959 14.6773 98.789 15.0867 98.9007 15.4589C99.0868 16.1103 99.3847 16.6687 99.7757 17.1712C100.167 17.6551 100.651 18.0831 101.228 18.4368C101.805 18.7904 102.512 19.0509 103.294 19.237C104.076 19.4231 104.97 19.4976 105.938 19.4976C107.297 19.4976 108.432 19.3859 109.363 19.144C110.294 18.9021 111.039 18.5484 111.597 18.0831C112.174 17.6179 112.565 17.0409 112.807 16.3709L115.693 16.8734C115.339 17.9529 114.762 18.8648 113.962 19.5907C113.161 20.3165 112.1 20.8562 110.778 21.2285C109.456 21.6007 107.855 21.7682 105.956 21.7682L105.919 21.7496ZM98.6959 12.0345H112.807C112.733 11.4575 112.565 10.955 112.342 10.4711C112.025 9.81974 111.579 9.26144 110.964 8.81477C110.369 8.34948 109.643 7.99584 108.786 7.73528C107.93 7.47472 106.943 7.34446 105.826 7.34446C104.839 7.34446 103.964 7.43749 103.183 7.60499C102.401 7.77249 101.73 8.03307 101.172 8.38669C100.595 8.72169 100.129 9.14977 99.7198 9.63367C99.3102 10.1176 99.0496 10.6759 98.8634 11.3087C98.789 11.5506 98.7331 11.774 98.6773 12.0159L98.6959 12.0345Z" fill="url(#paint4_linear_7_636)"/>
<path d="M120.608 21.4518V5.42749H123.586V21.4518H120.608ZM123.791 13.1698L134.514 5.42749H138.629L127.887 13.0023L138.871 21.4518H134.626L123.791 13.1698Z" fill="url(#paint5_linear_7_636)"/>
<path d="M142.203 21.4518V5.42749H145.182V19.0882H157.171V5.42749H160.15V19.0882H162.775V26.1046H160.001V21.4518H142.203Z" fill="url(#paint6_linear_7_636)"/>
<path d="M166.74 21.4518V5.42749H169.663V17.9343L182.006 5.42749H184.947V21.4518H182.006V8.94499L169.663 21.4518H166.74Z" fill="url(#paint7_linear_7_636)"/>
<path d="M207.138 21.4518H204.197V15.4776H198.835L193.12 21.4518H189.527L195.447 15.3287C194.423 15.2543 193.529 15.0681 192.766 14.7703C191.779 14.3795 191.035 13.8212 190.532 13.0953C190.029 12.3695 189.769 11.4947 189.769 10.4525C189.769 9.41027 190.011 8.51696 190.513 7.7539C191.016 6.99084 191.742 6.4139 192.692 6.02306C193.641 5.61362 194.777 5.42749 196.061 5.42749H207.138V21.4704V21.4518ZM204.197 13.3187V7.54915H196.266C195.521 7.54915 194.87 7.66086 194.33 7.88419C193.771 8.10753 193.362 8.44253 193.082 8.87059C192.803 9.29865 192.654 9.81972 192.654 10.4525C192.654 11.0853 192.803 11.5878 193.101 12.0345C193.399 12.4625 193.809 12.7976 194.348 13.0023C194.888 13.207 195.54 13.3187 196.285 13.3187H204.215H204.197Z" fill="url(#paint8_linear_7_636)"/>
<path d="M0.604553 56.7946V40.7703H12.6868C13.8224 40.7703 14.7905 40.9192 15.5724 41.2355C16.3543 41.5519 16.9686 41.9986 17.3968 42.6128C17.825 43.2083 18.0484 43.9528 18.0484 44.8275C18.0484 45.4045 17.9553 45.907 17.7505 46.335C17.5457 46.7631 17.2851 47.154 16.9314 47.489C16.5777 47.824 16.1495 48.0845 15.6282 48.3079C15.4979 48.3637 15.3303 48.4195 15.1628 48.4567C15.6468 48.5498 16.1123 48.6987 16.5218 48.9034C17.2665 49.257 17.8436 49.7409 18.2532 50.3551C18.6627 50.9692 18.8489 51.6951 18.8489 52.5326C18.8489 53.4632 18.6255 54.2262 18.1787 54.859C17.7319 55.4918 17.0617 55.9757 16.2053 56.2921C15.349 56.6271 14.3064 56.7946 13.0777 56.7946H0.604553ZM3.49014 42.892V47.582H11.9793C12.6123 47.582 13.1522 47.489 13.6362 47.3028C14.1016 47.1167 14.474 46.8376 14.7346 46.4839C14.9952 46.1303 15.1256 45.665 15.1256 45.1439C15.1256 44.4181 14.8463 43.8597 14.3064 43.4875C13.7479 43.0967 12.9846 42.9105 12.0166 42.9105H3.49014V42.892ZM3.49014 49.6106V54.6729H12.3889C13.1336 54.6729 13.7665 54.5798 14.2692 54.3937C14.7718 54.2076 15.1628 53.9284 15.4234 53.5748C15.6841 53.2212 15.8144 52.7559 15.8144 52.1976C15.8144 51.6393 15.6841 51.1553 15.4048 50.7645C15.1256 50.3737 14.7346 50.0759 14.2133 49.8898C13.6921 49.7037 13.0591 49.6106 12.2772 49.6106H3.49014Z" fill="url(#paint9_linear_7_636)"/>
<path d="M23.652 56.7946V40.7703H26.5749V53.277L38.9177 40.7703H41.8592V56.7946H38.9177V44.2878L26.5749 56.7946H23.652Z" fill="url(#paint10_linear_7_636)"/>
<path d="M64.739 61.4474V56.7946H48.0957V61.4474H45.3218V54.4682H47.2394C47.6117 54.0774 47.9282 53.6493 48.2074 53.2026C48.5611 52.607 48.8404 51.8812 49.0452 51.0065C49.25 50.1317 49.4175 49.0151 49.5292 47.6565C49.6409 46.2978 49.734 44.6414 49.7898 42.65L49.8457 40.7703H64.888V54.4682H67.5129V61.4474H64.7204H64.739ZM50.2739 54.4682H62.0582V42.985H52.601C52.5451 44.5297 52.4706 45.8697 52.3962 46.9864C52.3217 48.1403 52.21 49.1454 52.0797 49.9829C51.9494 50.8204 51.7632 51.5834 51.5212 52.2906C51.2606 53.0351 50.9068 53.6865 50.46 54.2634C50.4042 54.3193 50.3483 54.3937 50.2925 54.4682H50.2739Z" fill="url(#paint11_linear_7_636)"/>
<path d="M80.4701 57.0739C79.1484 57.0739 77.9755 56.9436 76.9143 56.7016C75.8532 56.4597 74.9037 56.1061 74.0846 55.6222C73.2655 55.1383 72.558 54.58 71.9995 53.8913C71.4224 53.2213 70.9942 52.4396 70.6964 51.5835C70.3985 50.7274 70.2496 49.7782 70.2496 48.7546C70.2496 47.731 70.3985 46.819 70.6964 45.9629C70.9942 45.1068 71.4224 44.3251 71.9995 43.6365C72.5767 42.9479 73.2655 42.371 74.0846 41.9057C74.9037 41.4404 75.8532 41.0682 76.933 40.8076C77.9941 40.5471 79.1856 40.4167 80.4887 40.4167C81.7919 40.4167 82.9648 40.5471 84.0445 40.8076C85.1243 41.0682 86.0738 41.4218 86.8929 41.9057C87.712 42.371 88.4008 42.9479 88.978 43.6365C89.5551 44.3251 89.9833 45.1068 90.2811 45.9629C90.579 46.819 90.7279 47.7682 90.7279 48.7546C90.7279 49.741 90.579 50.7088 90.2811 51.5835C89.9833 52.4582 89.5551 53.2213 88.9966 53.8913C88.4381 54.5614 87.7493 55.1383 86.9115 55.6222C86.0738 56.1061 85.1429 56.4597 84.0632 56.7016C82.9834 56.9436 81.7919 57.0739 80.5074 57.0739H80.4701ZM80.4701 54.7474C81.4382 54.7474 82.2946 54.6544 83.0392 54.4869C83.8025 54.3194 84.4541 54.0588 85.0312 53.7238C85.6083 53.3888 86.0738 52.9794 86.4833 52.4955C86.8743 52.0116 87.1721 51.4532 87.3583 50.8391C87.5445 50.2249 87.6376 49.5363 87.6376 48.7918C87.6376 48.0474 87.5445 47.3588 87.3583 46.726C87.1721 46.0932 86.8743 45.5535 86.4833 45.0696C86.0924 44.5857 85.6083 44.1762 85.0312 43.8412C84.4541 43.5062 83.8025 43.2457 83.0392 43.0596C82.276 42.8921 81.4196 42.799 80.4701 42.799C79.5207 42.799 78.6643 42.8921 77.901 43.0596C77.1377 43.2457 76.4676 43.5062 75.8904 43.8412C75.3133 44.1762 74.8293 44.6043 74.4383 45.0882C74.0474 45.5721 73.7681 46.1304 73.582 46.7446C73.3958 47.3587 73.3027 48.0474 73.3027 48.7918C73.3027 49.5363 73.3958 50.2249 73.6006 50.8391C73.7867 51.4532 74.0846 52.0116 74.4569 52.4955C74.8293 52.9794 75.3133 53.4074 75.8904 53.7238C76.4676 54.0588 77.1377 54.3194 77.901 54.4869C78.6643 54.6544 79.5207 54.7474 80.4701 54.7474Z" fill="url(#paint12_linear_7_636)"/>
<path d="M95.6614 56.7946V40.7703H107.744C108.879 40.7703 109.847 40.9192 110.629 41.2355C111.411 41.5519 112.025 41.9986 112.454 42.6128C112.882 43.2083 113.105 43.9528 113.105 44.8275C113.105 45.4045 113.012 45.907 112.807 46.335C112.603 46.7631 112.342 47.154 111.988 47.489C111.634 47.824 111.206 48.0845 110.685 48.3079C110.555 48.3637 110.387 48.4195 110.22 48.4567C110.704 48.5498 111.169 48.6987 111.579 48.9034C112.323 49.257 112.9 49.7409 113.31 50.3551C113.72 50.9692 113.906 51.6951 113.906 52.5326C113.906 53.4632 113.682 54.2262 113.236 54.859C112.789 55.4918 112.119 55.9757 111.262 56.2921C110.406 56.6271 109.363 56.7946 108.135 56.7946H95.68H95.6614ZM98.547 42.892V47.582H107.036C107.669 47.582 108.209 47.489 108.693 47.3028C109.158 47.1167 109.531 46.8376 109.791 46.4839C110.052 46.1303 110.182 45.665 110.182 45.1439C110.182 44.4181 109.903 43.8597 109.363 43.4875C108.805 43.0967 108.041 42.9105 107.073 42.9105H98.5842L98.547 42.892ZM98.547 49.6106V54.6729H107.446C108.19 54.6729 108.823 54.5798 109.326 54.3937C109.829 54.2076 110.22 53.9284 110.48 53.5748C110.741 53.2212 110.871 52.7559 110.871 52.1976C110.871 51.6393 110.741 51.1553 110.462 50.7645C110.182 50.3737 109.791 50.0759 109.27 49.8898C108.749 49.7037 108.116 49.6106 107.334 49.6106H98.5656H98.547Z" fill="url(#paint13_linear_7_636)"/>
<path d="M118.727 56.7946V40.7703H121.706V45.9442H129.842C131.182 45.9442 132.318 46.1675 133.248 46.5956C134.198 47.0237 134.905 47.6564 135.408 48.4567C135.911 49.2756 136.153 50.2434 136.153 51.3787C136.153 52.2162 136.004 52.9793 135.724 53.6493C135.445 54.3193 135.036 54.8776 134.496 55.3429C133.956 55.8082 133.286 56.1618 132.504 56.4037C131.722 56.6457 130.828 56.776 129.823 56.776H118.727V56.7946ZM121.706 48.1031V54.6357H129.395C130.195 54.6357 130.884 54.5054 131.48 54.2634C132.057 54.0215 132.504 53.6493 132.82 53.1654C133.137 52.6815 133.286 52.0859 133.286 51.3787C133.286 50.6715 133.137 50.0573 132.82 49.5734C132.504 49.0895 132.057 48.7173 131.48 48.4754C130.903 48.2148 130.214 48.0845 129.395 48.0845H121.706V48.1031ZM139.02 56.7946V40.7703H141.961V56.7946H139.02Z" fill="url(#paint14_linear_7_636)"/>
<path d="M161.62 56.7946L155.44 50.4109L149.222 56.7946H145.684L153.541 48.6056L145.964 40.7703H149.668L155.477 46.7445L161.434 40.7703H164.915L157.283 48.5126L165.269 56.7946H161.62Z" fill="url(#paint15_linear_7_636)"/>
<path d="M0.604553 92.1188V76.0945H3.58322V92.1188H0.604553ZM3.78801 83.8368L14.5112 76.0945H18.6255L7.88368 83.6693L18.8675 92.1188H14.6229L3.78801 83.8368Z" fill="url(#paint16_linear_7_636)"/>
<path d="M22.1813 92.1188V76.0945H34.2635C35.3991 76.0945 36.3672 76.2434 37.1491 76.5598C37.931 76.8762 38.5453 77.3228 38.9735 77.937C39.4017 78.5512 39.6251 79.277 39.6251 80.1517C39.6251 80.7287 39.532 81.2312 39.3272 81.6592C39.1225 82.0873 38.8618 82.4781 38.5081 82.8131C38.1544 83.1295 37.7262 83.4087 37.2049 83.6135C37.0746 83.6693 36.9071 83.7251 36.7395 83.7623C37.2236 83.8554 37.689 84.0042 38.0985 84.209C38.8432 84.5626 39.4203 85.0465 39.8299 85.6606C40.2395 86.2748 40.4256 87.0007 40.4256 87.8382C40.4256 88.7688 40.2022 89.5318 39.7554 90.1646C39.3086 90.7974 38.6384 91.2813 37.7821 91.5976C36.9257 91.9326 35.8832 92.1002 34.6545 92.1002H22.1999L22.1813 92.1188ZM25.0669 78.2161V82.9062H33.5561C34.189 82.9062 34.7289 82.8131 35.213 82.627C35.697 82.4409 36.0507 82.1618 36.3113 81.8082C36.572 81.4359 36.7023 80.9893 36.7023 80.4681C36.7023 79.7423 36.423 79.1839 35.8832 78.8117C35.3247 78.4209 34.5614 78.2348 33.5933 78.2348H25.1041L25.0669 78.2161ZM25.0669 84.9348V89.9971H33.9656C34.7103 89.9971 35.3433 89.9041 35.8459 89.7179C36.3486 89.5318 36.7395 89.2527 37.0002 88.899C37.2608 88.5454 37.3911 88.0801 37.3911 87.5218C37.3911 86.9634 37.2608 86.4795 36.9815 86.0701C36.7023 85.6793 36.3113 85.3815 35.7901 85.1954C35.2688 85.0093 34.6358 84.9162 33.8539 84.9162H25.0855L25.0669 84.9348Z" fill="url(#paint17_linear_7_636)"/>
<path d="M43.9256 80.8032C44.1304 79.9657 44.4468 79.2212 44.9309 78.5884C45.3963 77.9556 46.0106 77.4345 46.7553 77.0251C47.5 76.6156 48.3936 76.2992 49.3989 76.0759C50.4042 75.8525 51.577 75.7595 52.843 75.7595C54.3323 75.7595 55.6355 75.8898 56.7339 76.1317C57.8322 76.3737 58.7258 76.7459 59.4333 77.267C60.1221 77.7695 60.6434 78.4209 60.9785 79.184C61.3136 79.9471 61.4811 80.8776 61.4811 81.957V88.6757C61.4811 88.9921 61.5183 89.2526 61.6114 89.4946C61.7045 89.7179 61.8348 89.8854 62.0396 90.0157C62.2444 90.1274 62.505 90.2018 62.8401 90.2018C62.9332 90.2018 63.0449 90.2018 63.1566 90.2018C63.2683 90.2018 63.38 90.1832 63.4545 90.1646L63.3614 92.2305C63.1194 92.2863 62.8774 92.3421 62.6167 92.3607C62.3561 92.398 62.1141 92.3979 61.8721 92.3979C61.146 92.3979 60.5503 92.2863 60.0849 92.0444C59.6194 91.8024 59.2657 91.4488 59.0609 90.9649C58.8375 90.481 58.7445 89.9041 58.7445 89.2154V88.8991C58.4838 89.2155 58.2232 89.5132 57.9253 89.7738C57.2924 90.3508 56.5663 90.8346 55.7658 91.2255C54.9466 91.6349 54.0531 91.9327 53.085 92.1374C52.1169 92.3421 51.093 92.4538 50.0132 92.4538C48.5797 92.4538 47.351 92.2677 46.3457 91.9141C45.3404 91.5605 44.5585 91.0207 44.0373 90.3321C43.516 89.6435 43.2368 88.7874 43.2368 87.8196C43.2368 86.8518 43.4788 86.0329 43.9628 85.3443C44.4468 84.6557 45.1729 84.116 46.1782 83.7251C47.1649 83.3343 48.4494 83.0737 49.9946 82.9621L58.7072 82.441V82.2362C58.7072 81.5104 58.5955 80.8962 58.3721 80.3751C58.1487 79.854 57.795 79.4259 57.3296 79.0909C56.8642 78.7559 56.2498 78.514 55.5238 78.3465C54.7977 78.179 53.9041 78.1045 52.8616 78.1045C51.6887 78.1045 50.6648 78.2162 49.7898 78.4581C48.9335 78.7001 48.2446 79.0537 47.7792 79.519C47.2952 79.9843 46.9973 80.5985 46.8856 81.3429L43.9628 80.8776L43.9256 80.8032ZM58.7445 84.3951L50.1435 84.9907C49.2499 85.0465 48.4867 85.1954 47.9095 85.4001C47.3138 85.6235 46.8856 85.9027 46.5878 86.2749C46.2899 86.6471 46.141 87.0938 46.141 87.6149C46.141 88.136 46.2899 88.6199 46.6064 88.9921C46.9229 89.3643 47.3883 89.6435 48.0399 89.8482C48.6728 90.0529 49.4733 90.146 50.4042 90.146C51.2792 90.146 52.1355 90.0715 52.9733 89.904C53.811 89.7365 54.5557 89.5132 55.2631 89.2154C55.952 88.9177 56.5663 88.5641 57.0876 88.136C57.6088 87.7079 58.0184 87.2426 58.3163 86.7215C58.6141 86.2004 58.7631 85.6421 58.7631 85.0652V84.4138L58.7445 84.3951Z" fill="url(#paint18_linear_7_636)"/>
<path d="M70.1937 76.0945L70.3799 79.4818C70.715 78.9979 71.1246 78.5512 71.59 78.1603C72.4277 77.4159 73.4517 76.8389 74.6431 76.4109C75.8346 75.9828 77.1564 75.7781 78.6085 75.7781C79.7441 75.7781 80.7866 75.9084 81.7361 76.169C82.6855 76.4295 83.5419 76.8017 84.2866 77.2856C85.0312 77.7695 85.6642 78.3464 86.1669 79.035C86.6695 79.7237 87.0605 80.4868 87.3211 81.3429C87.5817 82.199 87.712 83.1109 87.712 84.0973C87.712 85.0837 87.5817 86.0143 87.3211 86.8704C87.0605 87.7079 86.6695 88.4896 86.1669 89.1596C85.6642 89.8482 85.0312 90.4252 84.3052 90.909C83.5791 91.3929 82.7228 91.7652 81.7547 92.0071C80.7866 92.2491 79.7441 92.3979 78.6085 92.3979C77.1564 92.3979 75.8346 92.1932 74.6431 91.8024C73.4517 91.393 72.4464 90.8346 71.59 90.0715C71.1804 89.7179 70.8081 89.3271 70.4916 88.8991V97.9999H67.5129V76.0945H70.1937ZM77.6963 90.0715C78.6271 90.0715 79.4462 89.9785 80.1909 89.7924C80.9356 89.6062 81.5685 89.3457 82.127 88.9921C82.6855 88.6571 83.151 88.229 83.5233 87.7451C83.8956 87.2612 84.1749 86.7029 84.3797 86.0887C84.5844 85.4746 84.6775 84.8045 84.6775 84.0973C84.6775 83.3901 84.5844 82.7387 84.3797 82.1245C84.1749 81.5104 83.8956 80.9707 83.5233 80.4682C83.151 79.9656 82.6855 79.5375 82.127 79.2025C81.5685 78.8675 80.9169 78.5884 80.1909 78.4023C79.4462 78.2162 78.6271 78.1231 77.6963 78.1231C76.2255 78.1231 74.941 78.3837 73.8612 78.8862C72.7815 79.3887 71.9437 80.0959 71.3666 80.9893C70.7895 81.8826 70.4916 82.9248 70.4916 84.1346C70.4916 84.9907 70.6592 85.7909 70.9756 86.5354C71.2921 87.2798 71.7762 87.894 72.4277 88.4151C73.0607 88.9363 73.824 89.3457 74.7176 89.6435C75.6112 89.9413 76.6165 90.0901 77.7149 90.0901L77.6963 90.0715Z" fill="url(#paint19_linear_7_636)"/>
<path d="M98.0257 92.1188V78.4767H90.095V76.0945H108.879V78.4767H100.949V92.1188H98.0071H98.0257Z" fill="url(#paint20_linear_7_636)"/>
<path d="M112.603 92.1188V76.0945H115.525V88.6013L127.868 76.0945H130.81V92.1188H127.868V79.612L115.525 92.1188H112.603Z" fill="url(#paint21_linear_7_636)"/>
<path d="M139.783 76.0945L139.969 79.4818C140.304 78.9979 140.714 78.5512 141.179 78.1603C142.017 77.4159 143.041 76.8389 144.232 76.4109C145.424 75.9828 146.745 75.7781 148.198 75.7781C149.333 75.7781 150.376 75.9084 151.325 76.169C152.275 76.4295 153.131 76.8017 153.876 77.2856C154.62 77.7695 155.253 78.3464 155.756 79.035C156.259 79.7237 156.65 80.4868 156.91 81.3429C157.171 82.199 157.301 83.1109 157.301 84.0973C157.301 85.0837 157.171 86.0143 156.91 86.8704C156.65 87.7079 156.259 88.4896 155.756 89.1596C155.253 89.8482 154.62 90.4252 153.894 90.909C153.168 91.3929 152.312 91.7652 151.344 92.0071C150.376 92.2491 149.333 92.3979 148.198 92.3979C146.745 92.3979 145.424 92.1932 144.232 91.8024C143.041 91.393 142.035 90.8346 141.179 90.0715C140.77 89.7179 140.397 89.3271 140.081 88.8991V97.9999H137.102V76.0945H139.783ZM147.285 90.0715C148.216 90.0715 149.035 89.9785 149.78 89.7924C150.525 89.6062 151.158 89.3457 151.716 88.9921C152.275 88.6571 152.74 88.229 153.112 87.7451C153.485 87.2612 153.764 86.7029 153.969 86.0887C154.174 85.4746 154.267 84.8045 154.267 84.0973C154.267 83.3901 154.174 82.7387 153.969 82.1245C153.764 81.5104 153.485 80.9707 153.112 80.4682C152.74 79.9656 152.275 79.5375 151.716 79.2025C151.158 78.8675 150.506 78.5884 149.78 78.4023C149.035 78.2162 148.216 78.1231 147.285 78.1231C145.815 78.1231 144.53 78.3837 143.45 78.8862C142.371 79.3887 141.533 80.0959 140.956 80.9893C140.379 81.8826 140.081 82.9248 140.081 84.1346C140.081 84.9907 140.248 85.7909 140.565 86.5354C140.881 87.2798 141.365 87.894 142.017 88.4151C142.65 88.9363 143.413 89.3457 144.307 89.6435C145.2 89.9413 146.206 90.0901 147.304 90.0901L147.285 90.0715Z" fill="url(#paint22_linear_7_636)"/>
<defs>
<linearGradient id="paint0_linear_7_636" x1="12.1934" y1="0.830566" x2="12.1934" y2="21.4518" gradientUnits="userSpaceOnUse">
<stop stop-color="#672A10"/>
<stop offset="0.286458" stop-color="#C1AFA7"/>
<stop offset="0.65625" stop-color="#724B3A"/>
<stop offset="1" stop-color="#986955"/>
</linearGradient>
<linearGradient id="paint1_linear_7_636" x1="35.3433" y1="5.11108" x2="35.3433" y2="21.7496" gradientUnits="userSpaceOnUse">
<stop stop-color="#672A10"/>
<stop offset="0.286458" stop-color="#C1AFA7"/>
<stop offset="0.65625" stop-color="#724B3A"/>
<stop offset="1" stop-color="#986955"/>
</linearGradient>
<linearGradient id="paint2_linear_7_636" x1="57.6461" y1="5.44629" x2="57.6461" y2="21.6567" gradientUnits="userSpaceOnUse">
<stop stop-color="#672A10"/>
<stop offset="0.286458" stop-color="#C1AFA7"/>
<stop offset="0.65625" stop-color="#724B3A"/>
<stop offset="1" stop-color="#986955"/>
</linearGradient>
<linearGradient id="paint3_linear_7_636" x1="80.8983" y1="5.44629" x2="80.8983" y2="21.6567" gradientUnits="userSpaceOnUse">
<stop stop-color="#672A10"/>
<stop offset="0.286458" stop-color="#C1AFA7"/>
<stop offset="0.65625" stop-color="#724B3A"/>
<stop offset="1" stop-color="#986955"/>
</linearGradient>
<linearGradient id="paint4_linear_7_636" x1="105.714" y1="5.11108" x2="105.714" y2="21.7682" gradientUnits="userSpaceOnUse">
<stop stop-color="#672A10"/>
<stop offset="0.286458" stop-color="#C1AFA7"/>
<stop offset="0.65625" stop-color="#724B3A"/>
<stop offset="1" stop-color="#986955"/>
</linearGradient>
<linearGradient id="paint5_linear_7_636" x1="129.739" y1="5.42749" x2="129.739" y2="21.4518" gradientUnits="userSpaceOnUse">
<stop stop-color="#672A10"/>
<stop offset="0.286458" stop-color="#C1AFA7"/>
<stop offset="0.65625" stop-color="#724B3A"/>
<stop offset="1" stop-color="#986955"/>
</linearGradient>
<linearGradient id="paint6_linear_7_636" x1="152.489" y1="5.42749" x2="152.489" y2="26.1046" gradientUnits="userSpaceOnUse">
<stop stop-color="#672A10"/>
<stop offset="0.286458" stop-color="#C1AFA7"/>
<stop offset="0.65625" stop-color="#724B3A"/>
<stop offset="1" stop-color="#986955"/>
</linearGradient>
<linearGradient id="paint7_linear_7_636" x1="175.843" y1="5.42749" x2="175.843" y2="21.4518" gradientUnits="userSpaceOnUse">
<stop stop-color="#672A10"/>
<stop offset="0.286458" stop-color="#C1AFA7"/>
<stop offset="0.65625" stop-color="#724B3A"/>
<stop offset="1" stop-color="#986955"/>
</linearGradient>
<linearGradient id="paint8_linear_7_636" x1="198.332" y1="5.42749" x2="198.332" y2="21.4704" gradientUnits="userSpaceOnUse">
<stop stop-color="#672A10"/>
<stop offset="0.286458" stop-color="#C1AFA7"/>
<stop offset="0.65625" stop-color="#724B3A"/>
<stop offset="1" stop-color="#986955"/>
</linearGradient>
<linearGradient id="paint9_linear_7_636" x1="9.72673" y1="40.7703" x2="9.72673" y2="56.7946" gradientUnits="userSpaceOnUse">
<stop stop-color="#672A10"/>
<stop offset="0.286458" stop-color="#C1AFA7"/>
<stop offset="0.65625" stop-color="#724B3A"/>
<stop offset="1" stop-color="#986955"/>
</linearGradient>
<linearGradient id="paint10_linear_7_636" x1="32.7556" y1="40.7703" x2="32.7556" y2="56.7946" gradientUnits="userSpaceOnUse">
<stop stop-color="#672A10"/>
<stop offset="0.286458" stop-color="#C1AFA7"/>
<stop offset="0.65625" stop-color="#724B3A"/>
<stop offset="1" stop-color="#986955"/>
</linearGradient>
<linearGradient id="paint11_linear_7_636" x1="56.4174" y1="40.7703" x2="56.4174" y2="61.4474" gradientUnits="userSpaceOnUse">
<stop stop-color="#672A10"/>
<stop offset="0.286458" stop-color="#C1AFA7"/>
<stop offset="0.65625" stop-color="#724B3A"/>
<stop offset="1" stop-color="#986955"/>
</linearGradient>
<linearGradient id="paint12_linear_7_636" x1="80.4887" y1="40.4167" x2="80.4887" y2="57.0739" gradientUnits="userSpaceOnUse">
<stop stop-color="#672A10"/>
<stop offset="0.286458" stop-color="#C1AFA7"/>
<stop offset="0.65625" stop-color="#724B3A"/>
<stop offset="1" stop-color="#986955"/>
</linearGradient>
<linearGradient id="paint13_linear_7_636" x1="104.784" y1="40.7703" x2="104.784" y2="56.7946" gradientUnits="userSpaceOnUse">
<stop stop-color="#672A10"/>
<stop offset="0.286458" stop-color="#C1AFA7"/>
<stop offset="0.65625" stop-color="#724B3A"/>
<stop offset="1" stop-color="#986955"/>
</linearGradient>
<linearGradient id="paint14_linear_7_636" x1="130.344" y1="40.7703" x2="130.344" y2="56.7946" gradientUnits="userSpaceOnUse">
<stop stop-color="#672A10"/>
<stop offset="0.286458" stop-color="#C1AFA7"/>
<stop offset="0.65625" stop-color="#724B3A"/>
<stop offset="1" stop-color="#986955"/>
</linearGradient>
<linearGradient id="paint15_linear_7_636" x1="155.477" y1="40.7703" x2="155.477" y2="56.7946" gradientUnits="userSpaceOnUse">
<stop stop-color="#672A10"/>
<stop offset="0.286458" stop-color="#C1AFA7"/>
<stop offset="0.65625" stop-color="#724B3A"/>
<stop offset="1" stop-color="#986955"/>
</linearGradient>
<linearGradient id="paint16_linear_7_636" x1="9.73604" y1="76.0945" x2="9.73604" y2="92.1188" gradientUnits="userSpaceOnUse">
<stop stop-color="#672A10"/>
<stop offset="0.286458" stop-color="#C1AFA7"/>
<stop offset="0.65625" stop-color="#724B3A"/>
<stop offset="1" stop-color="#986955"/>
</linearGradient>
<linearGradient id="paint17_linear_7_636" x1="31.3035" y1="76.0945" x2="31.3035" y2="92.1188" gradientUnits="userSpaceOnUse">
<stop stop-color="#672A10"/>
<stop offset="0.286458" stop-color="#C1AFA7"/>
<stop offset="0.65625" stop-color="#724B3A"/>
<stop offset="1" stop-color="#986955"/>
</linearGradient>
<linearGradient id="paint18_linear_7_636" x1="53.3456" y1="75.7595" x2="53.3456" y2="92.4538" gradientUnits="userSpaceOnUse">
<stop stop-color="#672A10"/>
<stop offset="0.286458" stop-color="#C1AFA7"/>
<stop offset="0.65625" stop-color="#724B3A"/>
<stop offset="1" stop-color="#986955"/>
</linearGradient>
<linearGradient id="paint19_linear_7_636" x1="77.6125" y1="75.7781" x2="77.6125" y2="97.9999" gradientUnits="userSpaceOnUse">
<stop stop-color="#672A10"/>
<stop offset="0.286458" stop-color="#C1AFA7"/>
<stop offset="0.65625" stop-color="#724B3A"/>
<stop offset="1" stop-color="#986955"/>
</linearGradient>
<linearGradient id="paint20_linear_7_636" x1="99.4871" y1="76.0945" x2="99.4871" y2="92.1188" gradientUnits="userSpaceOnUse">
<stop stop-color="#672A10"/>
<stop offset="0.286458" stop-color="#C1AFA7"/>
<stop offset="0.65625" stop-color="#724B3A"/>
<stop offset="1" stop-color="#986955"/>
</linearGradient>
<linearGradient id="paint21_linear_7_636" x1="121.706" y1="76.0945" x2="121.706" y2="92.1188" gradientUnits="userSpaceOnUse">
<stop stop-color="#672A10"/>
<stop offset="0.286458" stop-color="#C1AFA7"/>
<stop offset="0.65625" stop-color="#724B3A"/>
<stop offset="1" stop-color="#986955"/>
</linearGradient>
<linearGradient id="paint22_linear_7_636" x1="147.202" y1="75.7781" x2="147.202" y2="97.9999" gradientUnits="userSpaceOnUse">
<stop stop-color="#672A10"/>
<stop offset="0.286458" stop-color="#C1AFA7"/>
<stop offset="0.65625" stop-color="#724B3A"/>
<stop offset="1" stop-color="#986955"/>
</linearGradient>
</defs>
</svg>
