<svg width="162" height="114" viewBox="0 0 162 114" fill="none" xmlns="http://www.w3.org/2000/svg">
<g id="Vector">
<path d="M64.1684 19.0563C77.2344 -1.9062 100.1 -2.18706 112.12 4.65574C124.828 11.8815 131.463 28.5545 126.615 41.9592C117.734 41.2954 108.981 42.2401 100.712 45.8402C85.7579 52.3511 74.708 62.5897 70.4462 78.9052C68.0984 87.8672 69.7827 96.242 74.8866 104.03C69.0426 108.038 63.4283 109.34 56.7677 105.893C31.9882 93.0249 13.2058 74.7434 3.50836 48.0616C1.18608 41.6528 -0.217491 34.9887 0.879851 28.1204C4.37603 6.08558 26.1697 -5.42973 47.1468 3.58336C54.4709 6.74943 60.0597 11.8815 64.2194 19.0563" fill="#8A694F"/>
<path d="M78.8677 97.9272C75.5756 92.2844 75.2694 86.5651 76.5964 80.7436C79.2249 69.2793 86.4725 61.1854 96.2465 55.2108C113.727 44.487 138.762 46.1977 154.584 59.2705C157.136 61.3642 159.05 64.2494 161.5 67.058C159.994 67.9516 159.331 68.5134 158.591 68.7687C149.761 71.6284 144.121 77.9094 140.115 85.9268C136.491 93.1525 132.153 99.8421 126.002 105.23C113.243 116.387 95.8126 116.234 84.1502 104.898C83.7929 104.54 83.4612 104.132 82.8998 103.57C88.6417 94.659 95.3533 86.6672 103.8 80.2074C106.684 78.0116 109.797 76.0966 112.911 74.2072C114.927 72.9816 115.948 71.4241 114.723 69.3304C113.549 67.3388 111.711 67.5431 109.823 68.59C98.1604 74.9732 88.9479 84.0373 81.2155 94.7356C80.5009 95.7314 79.7864 96.7016 78.8677 97.9782" fill="#8A694F"/>
</g>
</svg>
