<svg width="180" height="174" viewBox="0 0 180 174" fill="none" xmlns="http://www.w3.org/2000/svg">
<g id="Vector">
<path d="M151.824 142.092C151.824 121.535 144.689 114.393 124.149 114.393C144.689 114.393 151.824 107.252 151.824 86.6939C151.824 107.252 158.96 114.393 179.5 114.393C158.96 114.393 151.824 121.535 151.824 142.092Z" fill="#8A694F"/>
<path d="M19.0524 50.9859C19.0524 37.2128 14.2614 32.4433 0.5 32.4433C14.2614 32.4433 19.0524 27.6482 19.0524 13.8751C19.0524 27.6482 23.8434 32.4433 37.5793 32.4433C23.8179 32.4433 19.0524 37.2383 19.0524 50.9859Z" fill="#8A694F"/>
<path d="M60.6424 14.4362C56.6669 14.4362 53.4304 11.197 53.4304 7.21812C53.4304 3.23923 56.6669 0 60.6424 0C64.6179 0 67.8544 3.23923 67.8544 7.21812C67.8544 11.197 64.6179 14.4362 60.6424 14.4362ZM60.6424 2.52507C58.0685 2.52507 55.9788 4.61653 55.9788 7.19261C55.9788 9.76869 58.0685 11.8602 60.6424 11.8602C63.2163 11.8602 65.306 9.76869 65.306 7.19261C65.306 4.61653 63.2163 2.52507 60.6424 2.52507Z" fill="#8A694F"/>
<path d="M122.339 149.31C118.364 149.31 115.127 146.071 115.127 142.092C115.127 138.113 118.364 134.874 122.339 134.874C126.315 134.874 129.551 138.113 129.551 142.092C129.551 146.071 126.315 149.31 122.339 149.31ZM122.339 137.399C119.765 137.399 117.676 139.491 117.676 142.067C117.676 144.643 119.765 146.734 122.339 146.734C124.913 146.734 127.003 144.643 127.003 142.067C127.003 139.491 124.913 137.399 122.339 137.399Z" fill="#8A694F"/>
<path d="M121.447 96.4371C115.076 97.993 115.484 102.584 114.949 107.15C118.67 105.492 120.836 102.967 122.212 99.5998C122.925 97.8399 122.594 96.7432 121.447 96.4116M50.3468 107.201C49.7097 102.405 49.8626 97.8144 43.8739 96.2586C43.5935 96.7432 42.5742 97.6869 42.7271 98.3755C43.619 102.38 46.091 105.211 50.3723 107.201M66.045 75.4969C67.8798 75.8285 69.4089 75.854 70.7595 76.3896C71.9828 76.8742 72.9767 77.92 74.0725 78.7106C72.7728 78.9912 71.4731 79.4503 70.1479 79.5268C67.3957 79.7054 63.7514 78.5831 62.044 79.9604C55.8769 84.934 49.1236 90.1627 52.7423 99.9314C53.0736 100.85 53.1246 101.895 53.303 102.865C56.3865 118.347 65.204 128.651 80.5964 132.885C81.8706 133.242 83.3996 133.216 84.6738 132.885C97.0846 129.518 105.826 121.917 109.954 109.675C111.56 104.905 112.095 99.7784 113.012 94.7792C113.649 91.336 112.502 88.8619 109.98 86.1328C105.265 81.0317 100.474 77.6139 93.1855 79.7819C92.6503 79.9349 91.8094 79.0422 91.1213 78.6341C91.58 78.073 91.9623 77.2058 92.5484 77.0018C94.5871 76.3386 96.7023 75.9305 99.0723 75.3439C94.5362 70.3703 90.1529 65.3967 85.5658 60.6016C83.8074 58.7652 81.0041 59.0457 79.1438 61.0352C74.8115 65.7027 70.5812 70.4723 66.0195 75.4969M91.9113 134.211C85.6932 137.527 79.5515 137.603 73.5883 134.364C73.2825 134.747 73.0786 134.874 73.0786 135.053C72.467 144.286 67.3192 149.77 58.7566 152.499C54.0165 154.004 49.3529 155.789 44.6384 157.345C37.6048 159.666 33.1451 164.639 30.0615 171.118C29.8067 171.653 29.7047 172.368 29.297 172.725C28.6344 173.286 27.7425 173.592 26.9525 174C26.6721 173.082 25.9076 171.96 26.1879 171.271C28.7363 164.92 32.3296 159.258 38.6751 156.172C43.1348 154.004 47.9258 152.524 52.5639 150.764C55.622 149.591 58.782 148.596 61.7637 147.219C66.886 144.847 70.097 138.981 69.3834 133.446C69.2815 132.655 68.4405 131.788 67.7269 131.278C60.7698 126.559 55.3672 120.617 52.3346 112.659C52.0542 111.894 51.1113 111.103 50.3213 110.873C44.1797 109.062 40.6374 104.88 39.0319 98.8347C38.828 98.1205 38.6751 97.1513 38.1654 96.7687C34.5977 94.1926 35.0819 90.6473 35.4896 87C35.7954 84.2964 36.1267 81.4908 35.8464 78.8127C34.7251 68.3553 36.0248 58.2551 40.0767 48.5884C46.04 34.3052 56.6923 25.5057 71.8044 22.1135C80.5199 23.2102 89.4139 20.5576 98.002 23.2102C104.985 25.3782 110.999 29.3061 116.096 34.5347C124.353 42.9771 128.124 53.511 129.245 64.9886C129.755 70.3958 128.94 75.905 128.863 81.3632C128.838 83.0211 129.22 84.7045 129.526 86.3368C130.239 90.2647 130.851 94.1161 126.85 96.8707C126.417 97.1768 126.366 98.095 126.187 98.7326C124.607 104.777 121.091 108.986 114.949 110.822C114.082 111.077 113.089 111.996 112.783 112.837C109.801 120.591 104.577 126.483 97.7472 130.946C96.0397 132.069 95.632 133.267 95.8104 135.129C96.3965 141.225 99.0214 145.765 105.01 147.908C110.54 149.872 116.07 151.887 121.626 153.799C129.806 156.605 135.183 162.293 138.624 170.047C139.21 171.373 140.28 173.056 138.241 173.796C137.63 174.025 135.897 172.648 135.464 171.679C132.202 164.333 126.977 159.258 119.256 156.784C114.312 155.202 109.47 153.391 104.577 151.682C97.2375 149.132 93.16 143.98 92.2936 136.277C92.2171 135.716 92.0897 135.155 91.9113 134.186" fill="#8A694F"/>
<path d="M73.9196 112.047C79.9338 112.047 85.2345 112.021 90.5352 112.098C91.2487 112.098 91.9623 112.761 92.6758 113.092C92.1916 113.628 91.7329 114.597 91.1978 114.648C87.5281 115.031 83.8329 115.362 80.1377 115.439C78.1754 115.49 76.1622 115.133 74.2509 114.699C73.5883 114.546 73.0786 113.628 72.4925 113.041C73.1296 112.582 73.7667 112.123 73.9196 111.996" fill="#8A694F"/>
<path d="M107.864 90.2647C105.443 91.3615 103.303 92.7898 100.984 93.2234C98.4862 93.6825 95.8104 93.2999 93.211 93.0449C92.7523 92.9939 92.4465 91.7441 92.0642 91.0299C92.7268 90.8259 93.4149 90.5453 94.1029 90.4178C96.9572 89.8566 99.8623 89.4741 102.691 88.8109C104.73 88.3263 106.667 87.6121 107.864 90.2647Z" fill="#8A694F"/>
<path d="M57.2785 90.1882C58.3233 87.9437 60.0562 88.2498 61.8146 88.5559C65.1531 89.1425 68.4915 89.6781 71.8299 90.3157C72.3141 90.4178 73.155 91.0299 73.1041 91.1829C72.9002 91.8461 72.5944 92.7388 72.0337 93.0449C68.7718 94.7282 65.5098 94.0651 62.3498 92.6113C60.7698 91.8716 59.1898 91.1064 57.2785 90.1882Z" fill="#8A694F"/>
<path d="M82.6096 106.206C81.0551 105.39 79.6025 104.803 78.3793 103.885C77.9715 103.604 77.8696 102.303 78.1499 101.844C78.4302 101.411 79.7044 101.079 80.1122 101.36C81.8196 102.507 83.3232 102.533 85.0306 101.36C85.4384 101.079 86.7126 101.385 86.9929 101.819C87.2987 102.278 87.1968 103.553 86.8145 103.859C85.5913 104.752 84.1387 105.364 82.5841 106.18" fill="#8A694F"/>
<path d="M82.7116 122.223C81.7941 121.968 80.8257 121.943 80.1377 121.458C79.6025 121.101 79.0164 119.775 79.1693 119.622C79.7809 119.035 80.8257 118.219 81.4374 118.423C83.0174 118.882 85.209 116.842 86.1264 119.469C86.3048 119.979 85.7442 120.999 85.2345 121.382C84.5719 121.866 83.578 121.968 82.7116 122.223Z" fill="#8A694F"/>
</g>
</svg>
