<svg width="180" height="160" viewBox="0 0 180 160" fill="none" xmlns="http://www.w3.org/2000/svg">
<g id="Vector">
<path d="M64.6179 120.92C60.5405 124.933 55.8004 127.668 50.5762 129.482C47.0084 130.735 43.3642 131.732 39.7709 132.958C37.6303 133.7 35.5661 134.62 33.0177 135.642H29.5773C29.8322 134.927 29.9595 134.339 30.2399 133.827C42.8799 111.31 58.1704 90.8626 77.207 73.3546C85.0306 66.147 93.4403 59.6549 102.411 53.9041C116.784 44.6773 130.52 34.5303 143.262 23.1054C143.542 22.8498 143.848 22.6454 144.23 22.3387C145.887 23.6166 146.524 25.278 146.192 27.6038C143.466 29.393 140.611 31.2843 137.732 33.1757C137.808 33.3546 137.91 33.508 137.987 33.6869C140.611 32.7412 143.262 31.7955 146.116 30.7732V35.3482C142.14 37.7252 137.706 39.3355 133.221 40.8434C137.171 40.8434 140.892 39.5911 145.046 38.5687C144.536 40.7923 143.669 42.3259 141.86 43.4249C137.222 46.1597 132.176 47.6933 126.875 48.4601C125.193 48.6901 123.512 48.9457 121.855 49.3035C128.022 50.0703 134.011 49.099 140.331 47.1821C139.261 52.2172 136.738 56.0511 133.629 59.5783C130.316 63.361 125.576 64.2556 121.243 66.1981L127.028 65.5335C127.079 65.6869 127.13 65.8147 127.181 65.968C124.76 67.0671 122.314 68.1917 119.893 69.2907C119.918 69.4185 119.944 69.5208 119.969 69.6486C121.549 69.5208 123.104 69.393 125.423 69.1885C123.537 70.8498 122.237 72.1534 120.759 73.2779C116.172 76.7284 110.973 79.0287 105.571 80.869C96.2691 84.0639 86.789 86.1597 76.8757 85.4185C73.9451 85.214 71.1163 85.853 68.415 87.131C69.256 87.0543 70.0715 86.8754 70.9125 86.901C74.3018 86.9521 77.7931 86.6198 81.0806 87.2588C87.63 88.5623 94.0775 88.23 100.601 87.4633C101.901 87.3099 103.175 87.1054 105.01 86.8498C103.94 88.6901 103.201 90.1725 102.283 91.5527C99.0978 96.2045 95.0968 99.885 89.6687 101.725C83.9348 103.668 78.2519 105.789 72.416 107.348C68.5424 108.396 64.414 108.575 60.413 109.265C67.6505 109.265 74.9644 110.466 82.1254 106.914C81.9216 107.502 81.9215 107.681 81.8451 107.732C73.6647 113.125 65.2295 118.006 56.0043 121.304C51.9268 122.76 47.5436 123.323 43.3387 124.319C41.5293 124.754 39.7455 125.291 37.9616 125.776C38.0126 125.981 38.038 126.16 38.089 126.364C38.5477 126.339 39.0319 126.313 39.4906 126.288C43.0583 125.981 46.6262 125.495 50.2194 125.367C53.2265 125.265 56.0042 124.473 58.7565 123.425C60.7443 122.658 62.7066 121.738 64.6688 120.895" fill="#8A694F"/>
<path d="M48.1042 72.7412C48.7413 76.8818 49.251 80.3323 49.8117 83.7827C49.8627 84.0895 50.2195 84.3706 50.8566 85.2141C50.7291 83.4505 50.7036 82.3259 50.5252 81.2268C49.9391 77.3163 50.3469 73.4569 51.2388 69.6486C52.2072 65.6358 53.8636 62.0064 56.6159 58.8115C62.2479 52.345 68.3641 46.4153 75.4487 41.5591C76.468 40.869 77.5129 40.23 78.94 39.3355C78.2519 43.1693 76.3916 46.492 76.9522 50.607C77.7167 48.1278 78.2773 46.0319 78.9909 43.9872C80.3925 39.8978 82.7116 36.6262 86.8145 34.7093C89.9745 33.2268 92.9562 31.3866 96.473 29.4441C95.2753 33.8403 93.4404 37.623 93.7207 41.9425C94.1539 41.0735 94.5617 40.1789 95.0459 39.3355C97.5688 35.0926 100.041 30.8498 102.666 26.6837C103.226 25.7891 104.22 24.9968 105.214 24.5367C113.955 20.2684 123.104 17.3035 132.762 16.1022C133.017 16.0767 133.297 16.2045 133.756 16.2811C131.998 19.3227 130.316 22.262 128.634 25.2013C128.736 25.3035 128.863 25.4057 128.965 25.5335C131.157 23.361 133.374 21.1629 135.973 18.5815C135.311 20.984 133.705 22.2875 132.839 24.639C135.82 22.722 138.394 21.0351 140.994 19.3482C141.121 19.5272 141.223 19.6805 141.35 19.8594C137.655 22.901 134.113 26.147 130.239 28.9329C126.009 31.9489 121.626 34.8626 117.064 37.2907C102.36 45.0863 88.5984 54.262 75.4741 64.4856C69.3069 69.2907 64.0572 75.0671 59.1643 81.1246C45.8107 97.7124 33.8332 115.246 23.5121 133.904C23.2828 134.313 23.0279 134.696 22.7221 135.208C22.085 135.233 21.4479 135.284 20.6834 135.31C20.4285 134.543 20.0208 133.853 19.9953 133.137C19.8934 130.3 19.7405 127.438 19.9698 124.601C20.2756 120.46 20.9637 116.345 22.4418 112.026C22.926 115.323 23.3592 118.236 23.7924 121.15C24.0218 121.15 24.2257 121.15 24.455 121.125C24.455 119.898 24.4041 118.671 24.455 117.47C24.506 116.243 24.608 115.016 24.8118 113.789C25.0412 112.511 25.3979 111.259 26.137 110.006V116.524C26.3409 116.549 26.5702 116.575 26.7741 116.601C27.1309 114.709 27.4622 112.818 27.8445 110.927C28.6599 106.837 29.399 102.722 30.3164 98.6581C31.4377 93.6486 33.8331 89.2268 37.0951 85.3163C40.5609 81.1757 44.1797 77.1885 48.0787 72.7668" fill="#8A694F"/>
<path d="M133.578 29.4696C131.029 31.3866 128.557 33.4313 125.933 35.2204C118.338 40.4089 110.744 45.5719 103.048 50.6326C87.1713 61.0863 73.206 73.6869 60.6678 87.9489C47.7219 102.696 36.7638 118.85 27.2838 136.026C26.3663 137.661 25.7292 139.476 24.8883 141.393C23.9199 141.01 23.0024 140.626 21.9575 140.217C22.5182 139.144 22.926 138.3 23.3847 137.508C31.667 122.76 40.6374 108.447 50.8565 94.9521C58.833 84.4217 67.2683 74.2747 77.4619 65.738C85.9736 58.607 94.9949 52.115 104.475 46.3131C113.522 40.7668 122.645 35.3482 131.743 29.8786C132.253 29.5719 132.813 29.3163 133.348 29.0351C133.425 29.1629 133.501 29.2907 133.578 29.4185" fill="#8A694F"/>
<path d="M19.1798 154.505C19.5875 153.073 19.3327 152.281 18.1859 152.383C17.0901 152.46 16.9117 153.278 17.4214 154.428C17.9311 154.428 18.5172 154.479 19.2053 154.505M17.982 146.019C19.7659 146.735 21.4224 147.374 23.2828 148.115C22.6711 150.696 22.0595 153.15 21.5499 155.323C19.2308 157.01 17.1156 158.543 15.1278 160C14.9749 157.444 14.8221 154.837 14.6182 151.617C15.5101 150.16 16.7078 148.141 17.982 146.019Z" fill="#8A694F"/>
<path d="M25.5508 143.796C25.0666 144.792 24.7098 145.534 24.2766 146.403C22.3398 145.61 20.5305 144.869 18.5682 144.077C18.8485 143.182 19.1033 142.415 19.4346 141.342C21.4734 142.16 23.3337 142.901 25.5508 143.796Z" fill="#8A694F"/>
<path d="M151.824 142.39C151.824 121.789 144.689 114.633 124.149 114.633C144.689 114.633 151.824 107.476 151.824 86.8754C151.824 107.476 158.96 114.633 179.5 114.633C158.96 114.633 151.824 121.789 151.824 142.39Z" fill="#8A694F"/>
<path d="M19.0524 51.0926C19.0524 37.2907 14.2614 32.5112 0.5 32.5112C14.2614 32.5112 19.0524 27.7061 19.0524 13.9042C19.0524 27.7061 23.8434 32.5112 37.5793 32.5112C23.8179 32.5112 19.0524 37.3163 19.0524 51.0926Z" fill="#8A694F"/>
<path d="M60.6424 14.4665C56.6669 14.4665 53.4304 11.2204 53.4304 7.23323C53.4304 3.24601 56.6669 0 60.6424 0C64.6179 0 67.8543 3.24601 67.8543 7.23323C67.8543 11.2204 64.6179 14.4665 60.6424 14.4665ZM60.6424 2.53035C58.0685 2.53035 55.9788 4.6262 55.9788 7.20767C55.9788 9.78914 58.0685 11.885 60.6424 11.885C63.2163 11.885 65.3059 9.78914 65.3059 7.20767C65.3059 4.6262 63.2163 2.53035 60.6424 2.53035Z" fill="#8A694F"/>
<path d="M122.339 149.623C118.364 149.623 115.127 146.377 115.127 142.39C115.127 138.403 118.364 135.157 122.339 135.157C126.315 135.157 129.551 138.403 129.551 142.39C129.551 146.377 126.315 149.623 122.339 149.623ZM122.339 137.687C119.765 137.687 117.676 139.783 117.676 142.364C117.676 144.946 119.765 147.042 122.339 147.042C124.913 147.042 127.003 144.946 127.003 142.364C127.003 139.783 124.913 137.687 122.339 137.687Z" fill="#8A694F"/>
</g>
</svg>
