<svg width="182" height="44" viewBox="0 0 182 44" fill="none" xmlns="http://www.w3.org/2000/svg">
<g id="nash_dom">
<path fill-rule="evenodd" clip-rule="evenodd" d="M15.632 20.7346H20.5572V2.58422H15.632V20.7346ZM12.9412 23.3218H23.2463V0H12.9412V23.3218Z" fill="#F5F5F5"/>
<path fill-rule="evenodd" clip-rule="evenodd" d="M0 28.44H43.8027V25.8633H0V28.44Z" fill="#F5F5F5"/>
<path fill-rule="evenodd" clip-rule="evenodd" d="M2.68094 38.5067H15.3421V33.5877H2.68094V38.5067ZM0 43.9998H2.68094V41.0804H18.0237V31.0117H0V43.9998Z" fill="#F5F5F5"/>
<path fill-rule="evenodd" clip-rule="evenodd" d="M33.4963 2.58421V23.3215H36.1854V7.75743L41.1096 2.58626V23.3215H43.8014V0H40.0217L36.1854 4.01693V0H32.4074L25.8789 6.77882V23.3215H28.5714V7.75845L33.4963 2.58421Z" fill="#F5F5F5"/>
<path fill-rule="evenodd" clip-rule="evenodd" d="M23.3268 38.5067H30.7971V33.5877H23.3268V38.5067ZM33.5942 38.5067H41.1213V33.5877H33.5942V38.5067ZM20.6445 41.0804H30.7974V43.9998H33.5942V41.0804H43.8019V31.0117H20.6445V41.0804Z" fill="#F5F5F5"/>
<path fill-rule="evenodd" clip-rule="evenodd" d="M2.69208 7.75845L7.61525 2.58626V20.7349H2.69208V7.75845ZM10.3064 23.3215V0H6.52802L0.000244141 6.77882V23.3215H10.3064Z" fill="#F5F5F5"/>
<path d="M60.941 7V6.127H57.809V4.201H60.473V3.337H57.809V1.465H60.941V0.592H56.837V7H60.941ZM65.4069 1.465H67.1889V6.127H64.7768C65.2538 5.227 65.4069 4.12 65.4069 2.896V1.465ZM64.4708 0.592V2.482C64.4708 4.003 64.2458 5.263 63.6879 6.127H63.1298V8.44H64.0749V7H67.9629V8.44H68.9169V6.127H68.1609V0.592H64.4708ZM76.2866 7V0.592H75.3956L72.5336 5.236V0.592H71.5616V7H72.4436L75.3146 2.347V7H76.2866ZM84.005 7V0.592H83.024V3.337H80.432V0.592H79.46V7H80.432V4.201H83.024V7H84.005ZM91.8809 7L89.5409 0.592H88.7579L86.4089 7H87.4349L87.8849 5.713H90.4139L90.8639 7H91.8809ZM90.1529 4.885H88.1639L89.1719 2.041L90.1529 4.885ZM96.2519 4.48H97.5209V7H98.5019V0.592H96.0629C94.8479 0.592 94.0199 1.348 94.0199 2.536C94.0199 3.4 94.4969 4.039 95.2529 4.3L93.8579 7H95.0099L96.2519 4.48ZM97.5209 3.607H96.1259C95.4239 3.607 94.9919 3.184 94.9919 2.527C94.9919 1.861 95.4239 1.456 96.1259 1.456H97.5209V3.607ZM61.562 19V12.592H60.671L57.809 17.236V12.592H56.837V19H57.719L60.59 14.347V19H61.562ZM69.2804 19V12.592H68.2994V15.337H65.7074V12.592H64.7354V19H65.7074V16.201H68.2994V19H69.2804ZM75.6803 13.78C76.9583 13.825 77.3543 14.446 77.3543 15.598C77.3543 16.732 76.9313 17.371 75.6803 17.425V13.78ZM74.7083 17.425C73.4573 17.371 73.0343 16.732 73.0343 15.598C73.0343 14.446 73.4303 13.825 74.7083 13.78V17.425ZM75.6803 19.045V18.244C77.5613 18.163 78.3263 17.227 78.3263 15.553C78.3263 13.897 77.4893 13.033 75.6803 12.943V12.322H74.7083V12.943C72.8993 13.033 72.0623 13.897 72.0623 15.553C72.0623 17.227 72.8273 18.163 74.7083 18.244V19.045H75.6803ZM85.4864 15.796C85.4864 14.455 85.4684 13.816 84.8384 13.186C84.4244 12.772 83.8844 12.538 83.1824 12.538C82.4804 12.538 81.9404 12.772 81.5264 13.186C80.8964 13.816 80.8784 14.455 80.8784 15.796C80.8784 17.137 80.8964 17.776 81.5264 18.406C81.9404 18.82 82.4804 19.054 83.1824 19.054C83.8844 19.054 84.4244 18.82 84.8384 18.406C85.4684 17.776 85.4864 17.137 85.4864 15.796ZM84.5144 15.796C84.5144 17.065 84.4604 17.452 84.1364 17.785C83.8934 18.037 83.5694 18.19 83.1824 18.19C82.7954 18.19 82.4714 18.037 82.2284 17.785C81.9134 17.443 81.8504 17.065 81.8504 15.796C81.8504 14.527 81.9134 14.14 82.2284 13.798C82.4714 13.546 82.7954 13.402 83.1824 13.402C83.5694 13.402 83.8934 13.546 84.1364 13.798C84.4604 14.131 84.5144 14.527 84.5144 15.796ZM92.9128 14.536C92.9128 13.42 92.1118 12.592 90.8608 12.592H88.4308V19H89.4028V16.471H90.8608C92.1118 16.471 92.9128 15.652 92.9128 14.536ZM91.9408 14.536C91.9408 15.211 91.4908 15.607 90.8068 15.607H89.4028V13.465H90.8068C91.4908 13.465 91.9408 13.852 91.9408 14.536ZM101.199 19V12.592H100.227L98.382 16.579L96.51 12.592H95.547V19H96.519V14.716L98.022 17.839H98.742L100.218 14.716V19H101.199ZM109.075 19L106.735 12.592H105.952L103.603 19H104.629L105.079 17.713H107.608L108.058 19H109.075ZM107.347 16.885H105.358L106.366 14.041L107.347 16.885ZM116.741 20.44V18.127H115.985V12.592H115.013V18.127H112.421V12.592H111.449V19H115.796V20.44H116.741ZM124.108 19V12.592H123.217L120.355 17.236V12.592H119.383V19H120.265L123.136 14.347V19H124.108ZM131.655 15.796C131.655 14.455 131.637 13.816 131.007 13.186C130.593 12.772 130.053 12.538 129.351 12.538C128.649 12.538 128.109 12.772 127.695 13.186C127.065 13.816 127.047 14.455 127.047 15.796C127.047 17.137 127.065 17.776 127.695 18.406C128.109 18.82 128.649 19.054 129.351 19.054C130.053 19.054 130.593 18.82 131.007 18.406C131.637 17.776 131.655 17.137 131.655 15.796ZM130.683 15.796C130.683 17.065 130.629 17.452 130.305 17.785C130.062 18.037 129.738 18.19 129.351 18.19C128.964 18.19 128.64 18.037 128.397 17.785C128.082 17.443 128.019 17.065 128.019 15.796C128.019 14.527 128.082 14.14 128.397 13.798C128.64 13.546 128.964 13.402 129.351 13.402C129.738 13.402 130.062 13.546 130.305 13.798C130.629 14.131 130.683 14.527 130.683 15.796ZM139.145 19V12.592H138.164V15.337H135.572V12.592H134.6V19H135.572V16.201H138.164V19H139.145ZM146.859 19V12.592H145.878V15.337H143.286V12.592H142.314V19H143.286V16.201H145.878V19H146.859ZM154.734 19L152.394 12.592H151.611L149.262 19H150.288L150.738 17.713H153.267L153.717 19H154.734ZM153.006 16.885H151.017L152.025 14.041L153.006 16.885ZM159.105 16.48H160.374V19H161.355V12.592H158.916C157.701 12.592 156.873 13.348 156.873 14.536C156.873 15.4 157.35 16.039 158.106 16.3L156.711 19H157.863L159.105 16.48ZM160.374 15.607H158.979C158.277 15.607 157.845 15.184 157.845 14.527C157.845 13.861 158.277 13.456 158.979 13.456H160.374V15.607ZM61.193 29.083H60.221C60.068 29.74 59.618 30.19 58.907 30.19C58.52 30.19 58.196 30.046 57.962 29.794C57.638 29.452 57.575 29.065 57.575 27.796C57.575 26.527 57.638 26.14 57.962 25.798C58.196 25.546 58.52 25.402 58.907 25.402C59.618 25.402 60.059 25.852 60.203 26.509H61.193C60.968 25.24 60.086 24.538 58.907 24.538C58.205 24.538 57.665 24.772 57.251 25.186C56.63 25.816 56.603 26.455 56.603 27.796C56.603 29.137 56.63 29.776 57.251 30.406C57.665 30.82 58.205 31.054 58.907 31.054C60.077 31.054 60.968 30.352 61.193 29.083ZM68.7134 31V24.592H67.8224L64.9604 29.236V24.592H63.9884V31H64.8704L67.7414 26.347V31H68.7134ZM76.2428 29.083H75.2708C75.1178 29.74 74.6678 30.19 73.9568 30.19C73.5698 30.19 73.2458 30.046 73.0118 29.794C72.6878 29.452 72.6248 29.065 72.6248 27.796C72.6248 26.527 72.6878 26.14 73.0118 25.798C73.2458 25.546 73.5698 25.402 73.9568 25.402C74.6678 25.402 75.1088 25.852 75.2528 26.509H76.2428C76.0178 25.24 75.1358 24.538 73.9568 24.538C73.2548 24.538 72.7148 24.772 72.3008 25.186C71.6798 25.816 71.6528 26.455 71.6528 27.796C71.6528 29.137 71.6798 29.776 72.3008 30.406C72.7148 30.82 73.2548 31.054 73.9568 31.054C75.1268 31.054 76.0178 30.352 76.2428 29.083ZM82.7954 25.465V24.592H78.2954V25.465H80.0594V31H81.0314V25.465H82.7954ZM89.5025 31V30.127H86.3705V28.201H89.0345V27.337H86.3705V25.465H89.5025V24.592H85.3985V31H89.5025ZM97.9734 31V24.592H97.0014L95.1564 28.579L93.2844 24.592H92.3214V31H93.2934V26.716L94.7964 29.839H95.5164L96.9924 26.716V31H97.9734ZM105.85 31L103.51 24.592H102.727L100.378 31H101.404L101.854 29.713H104.383L104.833 31H105.85ZM104.122 28.885H102.133L103.141 26.041L104.122 28.885ZM119.427 31L116.817 27.616L119.193 24.592H118.014L115.746 27.643L118.212 31H119.427ZM112.281 31L114.747 27.643L112.47 24.592H111.282L113.676 27.616L111.057 31H112.281ZM115.737 31V24.592H114.756V31H115.737ZM126.452 31V24.592H125.561L122.699 29.236V24.592H121.727V31H122.609L125.48 26.347V31H126.452ZM134.071 31V24.592H130.309V27.355C130.309 29.677 129.796 30.127 129.085 30.127H128.914V31H129.319C130.606 31 131.254 30.181 131.254 27.49V25.465H133.099V31H134.071ZM141.976 31V24.592H141.085L138.223 29.236V24.592H137.251V31H138.133L141.004 26.347V31H141.976ZM153.16 32.44V30.127H152.412V24.592H151.432V30.127H149.271V24.592H148.29V30.127H146.121V24.592H145.149V31H152.205V32.44H153.16ZM160.335 31V24.592H159.354V27.337H156.762V24.592H155.79V31H156.762V28.201H159.354V31H160.335ZM167.878 27.796C167.878 26.455 167.86 25.816 167.23 25.186C166.816 24.772 166.276 24.538 165.574 24.538C164.872 24.538 164.332 24.772 163.918 25.186C163.288 25.816 163.27 26.455 163.27 27.796C163.27 29.137 163.288 29.776 163.918 30.406C164.332 30.82 164.872 31.054 165.574 31.054C166.276 31.054 166.816 30.82 167.23 30.406C167.86 29.776 167.878 29.137 167.878 27.796ZM166.906 27.796C166.906 29.065 166.852 29.452 166.528 29.785C166.285 30.037 165.961 30.19 165.574 30.19C165.187 30.19 164.863 30.037 164.62 29.785C164.305 29.443 164.242 29.065 164.242 27.796C164.242 26.527 164.305 26.14 164.62 25.798C164.863 25.546 165.187 25.402 165.574 25.402C165.961 25.402 166.285 25.546 166.528 25.798C166.852 26.131 166.906 26.527 166.906 27.796ZM174.809 25.465V24.592H170.867V31H171.839V25.465H174.809ZM181.785 27.796C181.785 26.455 181.767 25.816 181.137 25.186C180.723 24.772 180.183 24.538 179.481 24.538C178.779 24.538 178.239 24.772 177.825 25.186C177.195 25.816 177.177 26.455 177.177 27.796C177.177 29.137 177.195 29.776 177.825 30.406C178.239 30.82 178.779 31.054 179.481 31.054C180.183 31.054 180.723 30.82 181.137 30.406C181.767 29.776 181.785 29.137 181.785 27.796ZM180.813 27.796C180.813 29.065 180.759 29.452 180.435 29.785C180.192 30.037 179.868 30.19 179.481 30.19C179.094 30.19 178.77 30.037 178.527 29.785C178.212 29.443 178.149 29.065 178.149 27.796C178.149 26.527 178.212 26.14 178.527 25.798C178.77 25.546 179.094 25.402 179.481 25.402C179.868 25.402 180.192 25.546 180.435 25.798C180.759 26.131 180.813 26.527 180.813 27.796ZM61.193 41.083H60.221C60.068 41.74 59.618 42.19 58.907 42.19C58.52 42.19 58.196 42.046 57.962 41.794C57.638 41.452 57.575 41.065 57.575 39.796C57.575 38.527 57.638 38.14 57.962 37.798C58.196 37.546 58.52 37.402 58.907 37.402C59.618 37.402 60.059 37.852 60.203 38.509H61.193C60.968 37.24 60.086 36.538 58.907 36.538C58.205 36.538 57.665 36.772 57.251 37.186C56.63 37.816 56.603 38.455 56.603 39.796C56.603 41.137 56.63 41.776 57.251 42.406C57.665 42.82 58.205 43.054 58.907 43.054C60.077 43.054 60.968 42.352 61.193 41.083ZM67.7456 37.465V36.592H63.2456V37.465H65.0096V43H65.9816V37.465H67.7456ZM74.8307 38.536C74.8307 37.42 74.0297 36.592 72.7787 36.592H70.3487V43H71.3207V40.471H72.7787C74.0297 40.471 74.8307 39.652 74.8307 38.536ZM73.8587 38.536C73.8587 39.211 73.4087 39.607 72.7247 39.607H71.3207V37.465H72.7247C73.4087 37.465 73.8587 37.852 73.8587 38.536ZM81.8829 39.796C81.8829 38.455 81.8649 37.816 81.2349 37.186C80.8209 36.772 80.2809 36.538 79.5789 36.538C78.8769 36.538 78.3369 36.772 77.9229 37.186C77.2929 37.816 77.2749 38.455 77.2749 39.796C77.2749 41.137 77.2929 41.776 77.9229 42.406C78.3369 42.82 78.8769 43.054 79.5789 43.054C80.2809 43.054 80.8209 42.82 81.2349 42.406C81.8649 41.776 81.8829 41.137 81.8829 39.796ZM80.9109 39.796C80.9109 41.065 80.8569 41.452 80.5329 41.785C80.2899 42.037 79.9659 42.19 79.5789 42.19C79.1919 42.19 78.8679 42.037 78.6249 41.785C78.3099 41.443 78.2469 41.065 78.2469 39.796C78.2469 38.527 78.3099 38.14 78.6249 37.798C78.8679 37.546 79.1919 37.402 79.5789 37.402C79.9659 37.402 80.2899 37.546 80.5329 37.798C80.8569 38.131 80.9109 38.527 80.9109 39.796ZM89.5522 43V36.592H88.6612L85.7992 41.236V36.592H84.8272V43H85.7092L88.5802 38.347V43H89.5522ZM96.6587 37.465V36.592H92.1587V37.465H93.9227V43H94.8947V37.465H96.6587ZM103.366 43V42.127H100.234V40.201H102.898V39.337H100.234V37.465H103.366V36.592H99.2618V43H103.366ZM110.631 43V36.592H106.869V39.355C106.869 41.677 106.356 42.127 105.645 42.127H105.474V43H105.879C107.166 43 107.814 42.181 107.814 39.49V37.465H109.659V43H110.631ZM118.302 41.056C118.302 39.904 117.492 39.112 116.268 39.112H114.783V36.592H113.811V43H116.268C117.483 43 118.302 42.208 118.302 41.056ZM117.321 41.056C117.321 41.722 116.898 42.127 116.187 42.127H114.783V39.985H116.187C116.898 39.985 117.321 40.399 117.321 41.056ZM125.327 41.083H124.355C124.202 41.74 123.752 42.19 123.041 42.19C122.654 42.19 122.33 42.046 122.096 41.794C121.772 41.452 121.709 41.065 121.709 39.796C121.709 38.527 121.772 38.14 122.096 37.798C122.33 37.546 122.654 37.402 123.041 37.402C123.752 37.402 124.193 37.852 124.337 38.509H125.327C125.102 37.24 124.22 36.538 123.041 36.538C122.339 36.538 121.799 36.772 121.385 37.186C120.764 37.816 120.737 38.455 120.737 39.796C120.737 41.137 120.764 41.776 121.385 42.406C121.799 42.82 122.339 43.054 123.041 43.054C124.211 43.054 125.102 42.352 125.327 41.083ZM131.879 37.465V36.592H127.379V37.465H129.143V43H130.115V37.465H131.879ZM139.009 41.2C139.009 40.471 138.676 40.012 138.046 39.715C138.613 39.436 138.91 38.968 138.91 38.32C138.91 37.276 138.145 36.592 136.975 36.592H134.482V43H137.074C138.271 43 139.009 42.307 139.009 41.2ZM137.938 38.383C137.938 38.959 137.542 39.301 136.895 39.301H135.454V37.465H136.895C137.542 37.465 137.938 37.807 137.938 38.383ZM138.029 41.146C138.029 41.749 137.623 42.127 136.975 42.127H135.454V40.174H136.975C137.623 40.174 138.029 40.552 138.029 41.146ZM146.569 43L144.229 36.592H143.446L141.097 43H142.123L142.573 41.713H145.102L145.552 43H146.569ZM144.841 40.885H142.852L143.86 38.041L144.841 40.885Z" fill="#F5F5F5"/>
</g>
</svg>
