<svg width="48" height="48" viewBox="0 0 48 48" fill="none" xmlns="http://www.w3.org/2000/svg">
<g id="ICON_download">
<circle id="Ellipse 7" cx="24" cy="24.0005" r="23" stroke="#8A694F" stroke-width="2"/>
<path id="Vector" d="M25.0457 21.9207L25.0455 30.7316C25.0457 31.3048 24.5823 31.7681 24.0091 31.768C23.436 31.768 22.9727 31.3047 22.9727 30.7316L22.9728 11.0369C22.9727 10.4637 23.436 10.0004 24.0092 10.0005C24.295 10.0004 24.5546 10.1163 24.7422 10.304C24.9298 10.4916 25.0457 10.751 25.0457 11.0369L25.0455 19.8477C25.0455 19.8477 25.0457 21.6349 25.0457 21.9207Z" fill="#8A694F"/>
<path id="Vector_2" d="M22.9722 36.9212L14.1614 36.921C13.5882 36.9212 13.1249 36.4578 13.125 35.8846C13.125 35.3115 13.5883 34.8481 14.1614 34.8481L33.8561 34.8483C34.4293 34.8481 34.8926 35.3115 34.8925 35.8847C34.8926 36.1705 34.7767 36.43 34.589 36.6177C34.4014 36.8053 34.142 36.9212 33.8561 36.9212L25.0453 36.921C25.0453 36.921 23.2581 36.9212 22.9722 36.9212Z" fill="#8A694F"/>
<path id="Vector_3" d="M32.0337 24.2929L24.7238 31.6027C24.3186 32.0081 23.6633 32.0081 23.2581 31.6027C22.8528 31.1974 22.8528 30.5422 23.2581 30.1369L30.568 22.8272C30.9733 22.4218 31.6285 22.4218 32.0337 22.8272C32.2359 23.0292 32.3374 23.2947 32.3374 23.5601C32.3374 23.8254 32.2359 24.0908 32.0337 24.2929Z" fill="#8A694F"/>
<path id="Vector_4" d="M17.3979 22.8271L24.7077 30.137C25.1131 30.5423 25.1131 31.1975 24.7077 31.6028C24.3024 32.008 23.6472 32.008 23.2419 31.6028L15.9322 24.2928C15.5267 23.8876 15.5267 23.2323 15.9322 22.8271C16.1341 22.6249 16.3997 22.5234 16.6651 22.5234C16.9304 22.5234 17.1958 22.6249 17.3979 22.8271Z" fill="#8A694F"/>
</g>
</svg>
