<svg width="296" height="680" viewBox="0 0 296 680" fill="none" xmlns="http://www.w3.org/2000/svg">
<path d="M133.469 229.347C133.469 181.702 106.587 154.827 58.9282 154.827C106.587 154.827 133.469 127.952 133.469 80.3076C133.469 127.952 160.352 154.827 208.011 154.827C160.352 154.827 133.469 181.702 133.469 229.347Z" fill="url(#paint0_linear_7_559)"/>
<path d="M48.5773 190.691L10.8972 206.697V202.528L46.4178 189.314H46.4364C47.1811 189.779 47.8699 190.226 48.5773 190.691Z" fill="url(#paint1_linear_7_559)"/>
<path d="M40.7583 186.001L10.8972 196.051V192.143L37.8727 184.419H37.8913C38.8594 184.922 39.8089 185.461 40.7583 186.001Z" fill="url(#paint2_linear_7_559)"/>
<path d="M103.552 248.405L81.7895 322.905H75.6088L102.007 245.762C102.547 246.636 103.05 247.511 103.552 248.386V248.405Z" fill="url(#paint3_linear_7_559)"/>
<path d="M92.9037 232.008L47.7396 322.905H40.4046L91.7122 230.407C92.1218 230.929 92.5127 231.45 92.885 231.989L92.9037 232.008Z" fill="url(#paint4_linear_7_559)"/>
<path d="M87.4118 224.973L25.9208 322.924H17.5247L86.332 223.652C86.7229 224.08 87.0953 224.526 87.4118 224.973Z" fill="url(#paint5_linear_7_559)"/>
<path d="M108.895 258.492C109.566 259.869 110.236 261.246 110.85 262.642L99.7918 322.924H94.002L108.895 258.492Z" fill="url(#paint6_linear_7_559)"/>
<path d="M97.3344 238.336L63.1914 322.905H56.4522L96.0313 236.438C96.4781 237.052 96.9063 237.703 97.3344 238.336Z" fill="url(#paint7_linear_7_559)"/>
<path d="M27.5219 179.245L10.8972 183.061V179.394L22.9608 177.198C24.4873 177.849 26.0139 178.538 27.5219 179.227V179.245Z" fill="url(#paint8_linear_7_559)"/>
<path d="M76.3907 212.857L10.8972 281.384V273.288L75.2737 211.778C75.646 212.113 76.0183 212.448 76.372 212.838L76.3907 212.857Z" fill="url(#paint9_linear_7_559)"/>
<path d="M70.3588 207.162L10.8972 257.617V251.159L69.186 206.138C69.5956 206.473 69.9865 206.827 70.3588 207.181V207.162Z" fill="url(#paint10_linear_7_559)"/>
<path d="M64.1223 201.876L10.8972 238.596V233.162L62.7819 200.76C63.2473 201.132 63.6941 201.467 64.1409 201.876H64.1223Z" fill="url(#paint11_linear_7_559)"/>
<path d="M56.8804 196.33L10.8972 221.53V216.84L55.2421 195.121C55.8006 195.511 56.3405 195.902 56.8804 196.33Z" fill="url(#paint12_linear_7_559)"/>
<path d="M81.8453 218.534L10.8972 309.394V298.916L80.7842 217.38C81.1565 217.77 81.5289 218.161 81.8453 218.534Z" fill="url(#paint13_linear_7_559)"/>
<path d="M119.693 285.497V285.553L116.64 322.906H111.055L116.901 277.271C117.906 279.969 118.837 282.687 119.693 285.478V285.497Z" fill="url(#paint14_linear_7_559)"/>
<path d="M10.8972 101.934L54.8698 122.053C54.274 122.481 53.6411 122.909 53.0453 123.3L10.8972 106.27V101.934Z" fill="url(#paint15_linear_7_559)"/>
<path d="M10.8972 0.614258L84.34 95.6062C84.0049 95.997 83.6884 96.3692 83.3347 96.7415L10.8972 11.3716V0.614258Z" fill="url(#paint16_linear_7_559)"/>
<path d="M121.853 24.2877C120.959 27.5075 119.991 30.6342 118.948 33.7422L114.797 0H119.972L121.853 24.2691V24.2877Z" fill="url(#paint17_linear_7_559)"/>
<path d="M10.8972 90.1716L60.6782 117.772C60.1941 118.163 59.7101 118.535 59.2075 118.889L10.8972 94.9175V90.1716Z" fill="url(#paint18_linear_7_559)"/>
<path d="M73.5237 0L100.76 73.1981C100.35 73.8867 99.9035 74.594 99.4381 75.2826L67.4547 0H73.5237Z" fill="url(#paint19_linear_7_559)"/>
<path d="M10.8972 129.404L33.7212 134.671C32.4553 135.322 31.1893 135.955 29.9048 136.569L10.8972 133.089V129.404Z" fill="url(#paint20_linear_7_559)"/>
<path d="M54.9256 0L95.0818 81.8896C94.6909 82.4107 94.3185 82.9504 93.9276 83.4715L48.1678 0H54.9256Z" fill="url(#paint21_linear_7_559)"/>
<path d="M10.8972 53.5073L73.3375 107.015C72.9652 107.387 72.5928 107.703 72.2391 108.02L10.8972 60.1329V53.5073Z" fill="url(#paint22_linear_7_559)"/>
<path d="M103.534 0L112.656 50.2504C112.042 51.7207 111.371 53.1724 110.701 54.6241L98.1908 0H103.534Z" fill="url(#paint23_linear_7_559)"/>
<path d="M10.8972 115.948L45.8965 127.915C45.0774 128.418 44.2769 128.902 43.4391 129.367L10.9158 119.875V115.948H10.8972Z" fill="url(#paint24_linear_7_559)"/>
<path d="M10.8972 73.4214L67.2685 112.468C66.8589 112.84 66.4493 113.156 66.0398 113.51L10.8972 78.9117V73.4214Z" fill="url(#paint25_linear_7_559)"/>
<path d="M33.7585 0L89.5713 89.2969C89.2176 89.7249 88.8825 90.1716 88.5287 90.5997L25.9953 0H33.7585Z" fill="url(#paint26_linear_7_559)"/>
<path d="M10.8972 30.5598L78.8108 101.618C78.4943 101.971 78.1592 102.306 77.8055 102.66L10.8972 38.7674V30.5598Z" fill="url(#paint27_linear_7_559)"/>
<path d="M87.0208 0L105.582 64.8231C105.098 65.7536 104.595 66.6842 104.055 67.5961L81.3055 0H87.0208Z" fill="url(#paint28_linear_7_559)"/>
<path d="M147.004 0.465332C148.716 0.595611 150.411 0.763112 152.123 0.949225L146.929 41.3729C145.998 38.8976 145.105 36.3851 144.286 33.8167L147.004 0.465332Z" fill="url(#paint29_linear_7_559)"/>
<path d="M209.239 18.2205L171.41 86.4122C171.019 85.9283 170.647 85.4258 170.312 84.9419L204.622 15.8755C206.168 16.6386 207.713 17.4016 209.258 18.2205H209.239Z" fill="url(#paint30_linear_7_559)"/>
<path d="M277.488 85.9841L206.521 120.769C206 120.396 205.479 120.024 204.976 119.67L274.938 81.3499C275.813 82.876 276.669 84.4207 277.488 86.0027V85.9841Z" fill="url(#paint31_linear_7_559)"/>
<path d="M288.602 112.412L222.978 131.21C222.085 130.726 221.21 130.242 220.353 129.721L286.908 107.331C287.504 109.006 288.062 110.719 288.621 112.431L288.602 112.412Z" fill="url(#paint32_linear_7_559)"/>
<path d="M222.904 26.2419L176.623 93.0191C176.269 92.6097 175.934 92.2002 175.618 91.7722L218.51 23.4502C220 24.3435 221.47 25.2741 222.904 26.2419Z" fill="url(#paint33_linear_7_559)"/>
<path d="M167.65 3.38728L154.73 59.2955C154.078 58.0114 153.445 56.7458 152.849 55.443L162.586 2.40088C164.299 2.69866 165.974 3.01505 167.631 3.38728H167.65Z" fill="url(#paint34_linear_7_559)"/>
<path d="M284.32 100.613L214.936 126.445H214.917C214.247 126.036 213.577 125.607 212.925 125.142L282.235 95.7178C282.98 97.3183 283.669 98.9747 284.32 100.613Z" fill="url(#paint35_linear_7_559)"/>
<path d="M259.411 58.8859L193.173 110.067C192.801 109.751 192.428 109.434 192.075 109.081L255.986 54.8845C257.159 56.2059 258.294 57.5273 259.411 58.8859Z" fill="url(#paint36_linear_7_559)"/>
<path d="M292.735 128.101L236.885 138.226H236.866C235.47 137.612 234.093 136.96 232.734 136.309L291.525 122.853C291.953 124.602 292.363 126.333 292.717 128.101H292.735Z" fill="url(#paint37_linear_7_559)"/>
<path d="M295.323 144.665L261.05 147.289H261.031C258.127 146.415 255.278 145.466 252.467 144.479L294.69 139.287C294.951 141.073 295.155 142.841 295.323 144.647V144.665Z" fill="url(#paint38_linear_7_559)"/>
<path d="M198.144 12.9721L167.203 80.5682C166.775 79.9726 166.365 79.3585 166.011 78.7629L193.359 10.9993C194.96 11.6134 196.58 12.2834 198.144 12.9721Z" fill="url(#paint39_linear_7_559)"/>
<path d="M236.159 35.8826L181.984 99.0865C181.612 98.7329 181.314 98.3793 180.998 98.0257L232.063 32.6443C233.46 33.6865 234.819 34.766 236.178 35.8826H236.159Z" fill="url(#paint40_linear_7_559)"/>
<path d="M183.343 7.48176L161.432 71.5604C160.91 70.7415 160.426 69.9412 159.98 69.1223L178.41 6.01147C180.067 6.45815 181.724 6.96065 183.343 7.48176Z" fill="url(#paint41_linear_7_559)"/>
<path d="M248.055 46.491L187.272 104.558C186.937 104.223 186.601 103.907 186.266 103.572L244.257 42.8804C245.542 44.0343 246.808 45.244 248.055 46.4723V46.491Z" fill="url(#paint42_linear_7_559)"/>
<path d="M268.98 71.7463L199.317 115.259C198.888 114.943 198.46 114.608 198.051 114.254L265.964 67.4099C267.007 68.843 268.012 70.276 268.98 71.7463Z" fill="url(#paint43_linear_7_559)"/>
<path d="M153.631 259.832L167.315 319.63C165.509 320.002 163.722 320.319 161.897 320.635L151.639 264.113C152.272 262.661 152.961 261.246 153.631 259.832Z" fill="url(#paint44_linear_7_559)"/>
<path d="M160.352 247.158L183.344 315.48C181.594 316.038 179.844 316.559 178.056 317.043L158.807 249.912C159.291 248.963 159.812 248.07 160.352 247.158Z" fill="url(#paint45_linear_7_559)"/>
<path d="M145.31 280.025L150.504 322.142C148.679 322.329 146.836 322.477 145.012 322.589L142.424 288.903C143.336 285.869 144.304 282.929 145.328 280.025H145.31Z" fill="url(#paint46_linear_7_559)"/>
<path d="M187.123 212.503L250.959 273.493C250.27 274.2 249.563 274.926 248.874 275.614C248.278 276.21 247.683 276.787 247.068 277.382L186.062 213.546C186.434 213.173 186.769 212.838 187.123 212.503Z" fill="url(#paint47_linear_7_559)"/>
<path d="M222.792 185.796L290.129 205.45C289.626 207.218 289.105 208.949 288.546 210.698L220.149 187.323C221.024 186.801 221.88 186.299 222.755 185.815H222.792V185.796Z" fill="url(#paint48_linear_7_559)"/>
<path d="M170.61 231.524L210.394 304.09C208.793 304.964 207.136 305.802 205.497 306.602L169.455 233.125C169.828 232.585 170.219 232.045 170.591 231.524H170.61Z" fill="url(#paint49_linear_7_559)"/>
<path d="M181.463 218.403L238.263 285.348C236.848 286.521 235.433 287.693 233.981 288.81L180.421 219.539C180.756 219.148 181.091 218.757 181.463 218.403Z" fill="url(#paint50_linear_7_559)"/>
<path d="M165.006 239.602L195.407 311.106C193.694 311.795 192 312.465 190.25 313.097L163.666 241.686C164.094 240.979 164.541 240.29 165.006 239.602Z" fill="url(#paint51_linear_7_559)"/>
<path d="M237.164 178.557L293.834 188.96C293.536 190.766 293.201 192.534 292.828 194.32L233.013 180.511C234.39 179.841 235.749 179.171 237.164 178.557Z" fill="url(#paint52_linear_7_559)"/>
<path d="M176.176 224.47L225.045 295.324C223.518 296.347 221.992 297.352 220.409 298.32L175.078 225.792C175.431 225.345 175.767 224.917 176.157 224.47H176.176Z" fill="url(#paint53_linear_7_559)"/>
<path d="M192.819 207.144L261.831 261.042C260.696 262.493 259.523 263.908 258.35 265.322L191.684 208.204C192.056 207.832 192.447 207.516 192.819 207.162V207.144Z" fill="url(#paint54_linear_7_559)"/>
<path d="M206.316 196.293L279.648 232.697C278.847 234.334 278.009 235.972 277.153 237.573L204.734 197.428C205.255 197.037 205.777 196.647 206.316 196.293Z" fill="url(#paint55_linear_7_559)"/>
<path d="M295.807 172.694C295.695 174.518 295.528 176.323 295.341 178.11L252.02 172.545C254.776 171.559 257.587 170.628 260.417 169.772L295.788 172.675L295.807 172.694Z" fill="url(#paint56_linear_7_559)"/>
<path d="M212.702 191.901L284.86 221.009C284.19 222.721 283.464 224.396 282.738 226.053L210.822 193.167C211.436 192.701 212.069 192.292 212.702 191.882H212.721L212.702 191.901Z" fill="url(#paint57_linear_7_559)"/>
<path d="M199.224 201.709L271.605 247.102C270.637 248.665 269.65 250.191 268.627 251.736L197.92 202.77C198.349 202.398 198.777 202.063 199.224 201.709Z" fill="url(#paint58_linear_7_559)"/>
<path d="M11.6046 517.003V496.4H24.8596C26.0511 496.4 27.1123 496.549 28.0431 496.828C28.9739 497.107 29.7372 497.535 30.3702 498.075C31.0031 498.633 31.4686 499.303 31.8037 500.085C32.1201 500.885 32.2877 501.779 32.2877 502.784C32.2877 504.086 31.9898 505.184 31.4127 506.134C30.8356 507.064 29.9978 507.771 28.8995 508.274C27.8942 508.739 26.6841 509 25.2506 509.018L32.8276 517.021H28.825L21.3783 509.167H14.788V517.021H11.6418L11.6046 517.003ZM14.7508 498.857V506.655H24.357C25.1203 506.655 25.8091 506.58 26.3862 506.413C26.9819 506.245 27.466 506.003 27.8942 505.668C28.3037 505.333 28.6202 504.924 28.825 504.44C29.0298 503.956 29.1415 503.398 29.1415 502.784C29.1415 502.169 29.0484 501.574 28.8436 501.071C28.6388 500.569 28.341 500.178 27.95 499.843C27.5404 499.527 27.0378 499.266 26.4421 499.099C25.8463 498.931 25.1575 498.857 24.357 498.857H14.7508Z" fill="url(#paint59_linear_7_559)"/>
<path d="M46.6225 517.282C45.3194 517.282 44.1279 517.151 43.0481 516.891C41.9498 516.63 41.0003 516.277 40.1998 515.793C39.3806 515.327 38.6918 514.75 38.1147 514.062C37.5376 513.373 37.1094 512.591 36.8115 511.735C36.5137 510.879 36.3647 509.93 36.3647 508.906C36.3647 507.883 36.5137 507.008 36.8115 506.152C37.1094 505.296 37.5376 504.533 38.0961 503.863C38.6546 503.193 39.3434 502.616 40.1625 502.132C40.9817 501.648 41.9125 501.276 42.9923 501.034C44.0534 500.773 45.2263 500.643 46.5108 500.643C48.056 500.643 49.4523 500.829 50.681 501.22C51.9097 501.611 52.9522 502.151 53.8272 502.858C54.6836 503.565 55.3538 504.403 55.8006 505.37C56.2474 506.338 56.4708 507.418 56.4708 508.627C56.4708 508.832 56.4708 509.018 56.4708 509.223C56.4708 509.428 56.4335 509.614 56.3963 509.781H39.3434C39.3993 510.209 39.4923 510.619 39.604 510.991C39.7902 511.642 40.0881 512.201 40.479 512.703C40.87 513.187 41.354 513.615 41.9311 513.969C42.5083 514.322 43.2157 514.583 43.9976 514.769C44.7795 514.937 45.6731 515.03 46.6412 515.03C48.0002 515.03 49.1358 514.918 50.0666 514.676C50.9975 514.434 51.7421 514.08 52.3006 513.615C52.8777 513.15 53.2687 512.573 53.5107 511.903L56.3963 512.405C56.0426 513.485 55.4655 514.397 54.6649 515.123C53.8644 515.848 52.8033 516.388 51.4815 516.76C50.1597 517.114 48.5587 517.3 46.6598 517.3L46.6225 517.282ZM39.3993 507.566H53.5107C53.4362 506.99 53.2687 506.468 53.0453 506.003C52.7288 505.352 52.282 504.793 51.6677 504.347C51.0719 503.881 50.3459 503.528 49.4895 503.267C48.6331 503.007 47.6465 502.876 46.5295 502.876C45.5428 502.876 44.6678 502.969 43.8859 503.137C43.104 503.304 42.4338 503.565 41.8753 503.919C41.2982 504.254 40.8328 504.682 40.4232 505.166C40.0136 505.649 39.753 506.208 39.5668 506.841C39.4923 507.083 39.4365 507.306 39.3806 507.548L39.3993 507.566Z" fill="url(#paint60_linear_7_559)"/>
<path d="M68.702 502.895C67.4546 502.895 66.3935 502.988 65.5557 503.156C64.718 503.323 64.0664 503.584 63.6382 503.937C63.21 504.272 62.9866 504.7 62.9866 505.184C62.9866 505.668 63.1169 506.078 63.3962 506.375C63.6754 506.673 64.1409 506.915 64.7924 507.101C65.444 507.269 66.3376 507.418 67.436 507.511L71.2711 507.715C72.9466 507.846 74.2683 508.106 75.2736 508.46C76.2789 508.813 77.005 509.297 77.4704 509.911C77.9358 510.526 78.1592 511.307 78.1592 512.256C78.1592 513.317 77.8241 514.229 77.1353 514.974C76.4465 515.737 75.4226 516.295 74.0822 516.705C72.7418 517.095 71.0663 517.3 69.0557 517.3C67.0451 517.3 65.4813 517.114 64.1595 516.742C62.8377 516.37 61.8138 515.793 61.0691 515.011C60.3244 514.229 59.8218 513.243 59.5612 512.052L62.4095 511.605C62.6143 512.778 63.2473 513.652 64.3456 514.229C65.444 514.806 66.9892 515.085 68.9626 515.085C70.0424 515.085 70.9732 515.03 71.7551 514.918C72.537 514.806 73.17 514.639 73.6912 514.415C74.1939 514.192 74.5848 513.932 74.8268 513.634C75.0689 513.336 75.1992 512.982 75.1992 512.592C75.1992 512.07 75.0689 511.642 74.7896 511.326C74.5104 511.01 74.0636 510.749 73.4492 510.563C72.8349 510.358 71.9785 510.228 70.8987 510.153L67.0078 509.911C65.3696 509.781 64.0664 509.521 63.0425 509.167C62.0372 508.813 61.2925 508.329 60.8271 507.715C60.3617 507.101 60.1197 506.338 60.1197 505.426C60.1197 504.421 60.4548 503.565 61.125 502.858C61.7952 502.151 62.7632 501.611 64.0478 501.22C65.3323 500.829 66.8775 500.643 68.702 500.643C70.5264 500.643 72.0716 500.829 73.3375 501.183C74.6034 501.555 75.6087 502.095 76.3348 502.821C77.0608 503.546 77.5449 504.477 77.7683 505.612L74.9758 506.022C74.8641 505.296 74.5476 504.7 74.0636 504.235C73.5795 503.77 72.8907 503.435 71.9971 503.211C71.1221 502.988 70.0051 502.876 68.702 502.876V502.895Z" fill="url(#paint61_linear_7_559)"/>
<path d="M82.8134 498.503V495.525H86.0154V498.503H82.8134ZM82.9251 517.003V500.978H85.9037V517.003H82.9251Z" fill="url(#paint62_linear_7_559)"/>
<path d="M108.169 494.911H111.148V517.002H108.467L108.262 513.671C107.927 514.136 107.536 514.583 107.09 514.974C106.252 515.718 105.228 516.295 104.036 516.705C102.845 517.114 101.523 517.3 100.052 517.3C98.9168 517.3 97.8743 517.17 96.9062 516.909C95.9567 516.649 95.1004 516.295 94.3557 515.811C93.611 515.327 92.9781 514.75 92.4754 514.062C91.9728 513.373 91.5818 512.61 91.3212 511.773C91.0606 510.935 90.9302 510.005 90.9302 509C90.9302 507.995 91.0606 507.101 91.3212 506.245C91.5818 505.389 91.9728 504.626 92.494 503.937C93.0153 503.249 93.6483 502.672 94.3743 502.188C95.119 501.704 95.9567 501.332 96.9248 501.071C97.8929 500.811 98.9354 500.68 100.052 500.68C101.523 500.68 102.864 500.885 104.036 501.313C105.228 501.741 106.233 502.318 107.09 503.063C107.499 503.416 107.871 503.807 108.188 504.235V494.929L108.169 494.911ZM100.927 514.955C102.417 514.955 103.701 514.713 104.781 514.211C105.861 513.708 106.699 513.02 107.276 512.126C107.853 511.233 108.151 510.191 108.151 509.018C108.151 508.143 107.983 507.325 107.648 506.58C107.313 505.836 106.829 505.203 106.196 504.682C105.563 504.161 104.8 503.733 103.906 503.453C103.012 503.174 102.007 503.007 100.89 503.007C99.9779 503.007 99.1588 503.1 98.4141 503.286C97.6695 503.472 97.0179 503.733 96.478 504.086C95.9195 504.421 95.4541 504.849 95.0818 505.333C94.7094 505.817 94.4116 506.375 94.2254 506.99C94.0392 507.604 93.9461 508.274 93.9461 508.981C93.9461 509.688 94.0392 510.358 94.2254 510.972C94.4116 511.587 94.6908 512.145 95.0818 512.629C95.4727 513.113 95.9381 513.541 96.478 513.876C97.0179 514.211 97.6695 514.49 98.4141 514.676C99.1588 514.862 99.9779 514.955 100.89 514.955H100.927Z" fill="url(#paint63_linear_7_559)"/>
<path d="M126.376 517.282C125.073 517.282 123.882 517.151 122.802 516.891C121.704 516.63 120.754 516.277 119.954 515.793C119.135 515.327 118.446 514.75 117.869 514.062C117.292 513.373 116.863 512.591 116.565 511.735C116.268 510.879 116.119 509.93 116.119 508.906C116.119 507.883 116.268 507.008 116.565 506.152C116.863 505.296 117.292 504.533 117.85 503.863C118.409 503.193 119.097 502.616 119.916 502.132C120.736 501.648 121.666 501.276 122.746 501.034C123.807 500.773 124.98 500.643 126.265 500.643C127.81 500.643 129.206 500.829 130.435 501.22C131.664 501.611 132.706 502.151 133.581 502.858C134.437 503.565 135.108 504.403 135.554 505.37C136.001 506.338 136.225 507.418 136.225 508.627C136.225 508.832 136.225 509.018 136.225 509.223C136.225 509.428 136.187 509.614 136.15 509.781H119.097C119.153 510.209 119.246 510.619 119.358 510.991C119.544 511.642 119.842 512.201 120.233 512.703C120.624 513.187 121.108 513.615 121.685 513.969C122.262 514.322 122.97 514.583 123.751 514.769C124.533 514.937 125.427 515.03 126.395 515.03C127.754 515.03 128.89 514.918 129.821 514.676C130.751 514.434 131.496 514.08 132.055 513.615C132.632 513.15 133.023 512.573 133.265 511.903L136.15 512.405C135.796 513.485 135.219 514.397 134.419 515.123C133.618 515.848 132.557 516.388 131.235 516.76C129.914 517.114 128.313 517.3 126.414 517.3L126.376 517.282ZM119.153 507.566H133.265C133.19 506.99 133.023 506.468 132.799 506.003C132.483 505.352 132.036 504.793 131.422 504.347C130.826 503.881 130.1 503.528 129.243 503.267C128.387 503.007 127.4 502.876 126.283 502.876C125.297 502.876 124.422 502.969 123.64 503.137C122.858 503.304 122.188 503.565 121.629 503.919C121.052 504.254 120.587 504.682 120.177 505.166C119.768 505.649 119.507 506.208 119.321 506.841C119.246 507.083 119.19 507.306 119.135 507.548L119.153 507.566Z" fill="url(#paint64_linear_7_559)"/>
<path d="M141.065 517.003V500.978H143.709L143.913 504.57C144.435 503.751 145.105 503.044 145.924 502.467C146.724 501.89 147.655 501.444 148.698 501.127C149.74 500.811 150.839 500.662 151.993 500.662C153.575 500.662 154.934 500.941 156.051 501.518C157.168 502.095 158.025 502.895 158.621 503.937C159.216 504.98 159.496 506.208 159.496 507.622V517.021H156.517V508.218C156.517 507.194 156.312 506.301 155.902 505.557C155.493 504.794 154.879 504.217 154.097 503.789C153.296 503.36 152.309 503.156 151.137 503.156C150.113 503.156 149.163 503.305 148.288 503.602C147.413 503.9 146.65 504.31 146.017 504.849C145.384 505.389 144.881 506.04 144.546 506.785C144.211 507.548 144.025 508.386 144.025 509.297V517.021H141.046L141.065 517.003Z" fill="url(#paint65_linear_7_559)"/>
<path d="M183.865 506.394L180.923 506.952C180.756 506.078 180.383 505.333 179.825 504.756C179.266 504.179 178.522 503.733 177.61 503.435C176.679 503.137 175.599 502.969 174.37 502.969C173.421 502.969 172.583 503.063 171.82 503.23C171.056 503.416 170.405 503.658 169.846 504.012C169.288 504.347 168.822 504.775 168.45 505.259C168.078 505.743 167.799 506.301 167.594 506.915C167.389 507.529 167.296 508.218 167.296 509C167.296 509.725 167.389 510.395 167.594 511.01C167.78 511.624 168.078 512.182 168.45 512.666C168.822 513.15 169.288 513.578 169.865 513.894C170.442 514.229 171.094 514.49 171.857 514.657C172.62 514.825 173.458 514.918 174.37 514.918C175.618 514.918 176.716 514.769 177.647 514.49C178.578 514.211 179.322 513.764 179.881 513.187C180.458 512.591 180.83 511.866 181.035 510.972L183.976 511.531C183.679 512.759 183.12 513.82 182.264 514.657C181.426 515.513 180.328 516.146 178.987 516.593C177.647 517.021 176.102 517.244 174.37 517.244C173.067 517.244 171.894 517.114 170.833 516.872C169.772 516.63 168.841 516.258 168.022 515.774C167.203 515.29 166.514 514.713 165.955 514.043C165.397 513.373 164.969 512.61 164.671 511.754C164.373 510.898 164.224 509.967 164.224 508.944C164.224 507.92 164.373 506.99 164.671 506.115C164.969 505.259 165.397 504.477 165.955 503.788C166.514 503.1 167.203 502.523 168.022 502.058C168.841 501.592 169.772 501.22 170.833 500.959C171.894 500.699 173.067 500.569 174.37 500.569C176.139 500.569 177.684 500.792 179.006 501.239C180.328 501.685 181.407 502.337 182.245 503.174C183.083 504.03 183.623 505.073 183.883 506.319L183.865 506.394Z" fill="url(#paint66_linear_7_559)"/>
<path d="M197.362 517.282C196.059 517.282 194.867 517.151 193.787 516.891C192.689 516.63 191.74 516.277 190.939 515.793C190.12 515.327 189.431 514.75 188.854 514.062C188.277 513.373 187.849 512.591 187.551 511.735C187.253 510.879 187.104 509.93 187.104 508.906C187.104 507.883 187.253 507.008 187.551 506.152C187.849 505.296 188.277 504.533 188.835 503.863C189.394 503.193 190.083 502.616 190.902 502.132C191.721 501.648 192.652 501.276 193.732 501.034C194.793 500.773 195.966 500.643 197.25 500.643C198.795 500.643 200.192 500.829 201.42 501.22C202.649 501.611 203.691 502.151 204.566 502.858C205.423 503.565 206.093 504.403 206.54 505.37C206.987 506.338 207.21 507.418 207.21 508.627C207.21 508.832 207.21 509.018 207.21 509.223C207.21 509.428 207.173 509.614 207.136 509.781H190.083C190.139 510.209 190.232 510.619 190.343 510.991C190.529 511.642 190.827 512.201 191.218 512.703C191.609 513.187 192.093 513.615 192.67 513.969C193.248 514.322 193.955 514.583 194.737 514.769C195.519 514.937 196.412 515.03 197.38 515.03C198.739 515.03 199.875 514.918 200.806 514.676C201.737 514.434 202.481 514.08 203.04 513.615C203.617 513.15 204.008 512.573 204.25 511.903L207.136 512.405C206.782 513.485 206.205 514.397 205.404 515.123C204.604 515.848 203.543 516.388 202.221 516.76C200.899 517.114 199.298 517.3 197.399 517.3L197.362 517.282ZM190.139 507.566H204.25C204.176 506.99 204.008 506.468 203.785 506.003C203.468 505.352 203.021 504.793 202.407 504.347C201.811 503.881 201.085 503.528 200.229 503.267C199.372 503.007 198.386 502.876 197.269 502.876C196.282 502.876 195.407 502.969 194.625 503.137C193.843 503.304 193.173 503.565 192.615 503.919C192.037 504.254 191.572 504.682 191.162 505.166C190.753 505.649 190.492 506.208 190.306 506.841C190.232 507.083 190.176 507.306 190.12 507.548L190.139 507.566Z" fill="url(#paint67_linear_7_559)"/>
<path d="M77.9916 389.497C81.1937 389.497 89.4223 391.972 89.4223 401.11V440.789C89.4223 449.928 81.1937 452.403 77.9916 452.403V452.943H119.153V452.403C115.951 452.403 107.722 449.928 107.722 440.789V401.11C107.722 391.972 115.951 389.497 119.153 389.497V388.957H77.9916V389.497Z" fill="url(#paint68_linear_7_559)"/>
<path d="M208.625 388.957H172.043V389.497C181.184 389.497 183.381 407.699 177.814 420.95L173.998 429.976L158.695 401.11C154.395 393.07 162.809 389.497 166.011 389.497V388.957H122.839V389.497C126.041 389.497 132.445 393.07 136.746 401.11L164.28 452.961H164.82L178.354 420.968C183.939 407.717 199.484 389.515 208.625 389.515V388.976V388.957Z" fill="url(#paint69_linear_7_559)"/>
<path d="M230.109 387.859C211.995 387.859 197.176 402.673 197.176 420.782C197.176 438.891 211.995 453.706 230.109 453.706C248.223 453.706 263.041 438.984 263.041 420.782C263.041 402.58 248.316 387.859 230.109 387.859ZM246.026 448.29C239.808 451.863 227.651 442.353 218.864 427.259C210.17 412.165 207.973 396.811 214.191 393.238C220.409 389.664 232.566 399.175 241.353 414.268C250.047 429.362 252.244 444.716 246.026 448.29Z" fill="url(#paint70_linear_7_559)"/>
<path d="M46.8087 388.882H0.806885V389.422C6.93177 389.422 12.2375 394.819 12.2375 401.036V440.715C12.2375 446.931 6.93177 452.328 0.806885 452.328V452.868H46.8087C65.0158 452.868 79.7416 438.519 79.7416 420.875C79.7416 403.232 64.9227 388.882 46.8087 388.882ZM44.4258 452.942C44.4258 432.451 34.7823 420.894 12.0886 420.894C34.7823 420.894 44.4258 409.336 44.4258 388.845C44.4258 409.336 55.6516 420.894 78.3454 420.894C55.6516 420.894 44.4258 432.451 44.4258 452.942Z" fill="url(#paint71_linear_7_559)"/>
<path d="M12.163 603.452V582.849H15.2534V603.452H12.163ZM15.3651 592.936L29.2718 582.831H33.7211L19.8517 592.732L34.2238 603.452H29.6069L15.3837 592.936H15.3651Z" fill="url(#paint72_linear_7_559)"/>
<path d="M46.3247 603.75C45.0029 603.75 43.8301 603.619 42.7689 603.377C41.7078 603.135 40.7583 602.782 39.9392 602.298C39.12 601.814 38.4126 601.256 37.8541 600.567C37.277 599.897 36.8488 599.115 36.5509 598.259C36.2531 597.403 36.1041 596.454 36.1041 595.43C36.1041 594.407 36.2531 593.495 36.5509 592.639C36.8488 591.783 37.277 591.001 37.8541 590.312C38.4312 589.624 39.12 589.047 39.9392 588.581C40.7583 588.116 41.7077 587.744 42.7875 587.502C43.8487 587.241 45.0401 587.111 46.3433 587.111C47.6465 587.111 48.8193 587.241 49.8991 587.502C50.9789 587.763 51.9283 588.116 52.7474 588.581C53.5666 589.047 54.2554 589.624 54.8325 590.312C55.4096 591.001 55.8378 591.783 56.1357 592.639C56.4335 593.495 56.5825 594.425 56.5825 595.43C56.5825 596.435 56.4335 597.385 56.1357 598.259C55.8378 599.134 55.4096 599.897 54.8511 600.567C54.2926 601.237 53.6038 601.814 52.7661 602.298C51.9283 602.782 50.9975 603.135 49.9177 603.377C48.8379 603.619 47.6465 603.75 46.3619 603.75H46.3247ZM46.3247 601.423C47.2928 601.423 48.1491 601.33 48.8938 601.163C49.6571 600.977 50.3087 600.735 50.8858 600.4C51.4629 600.065 51.9283 599.655 52.3379 599.171C52.7288 598.687 53.0267 598.129 53.2129 597.515C53.399 596.901 53.4921 596.212 53.4921 595.468C53.4921 594.723 53.399 594.034 53.2129 593.402C53.0267 592.769 52.7288 592.211 52.3379 591.745C51.9469 591.261 51.4629 590.852 50.8858 590.517C50.3087 590.182 49.6571 589.921 48.8938 589.735C48.1305 589.549 47.2741 589.475 46.3247 589.475C45.3752 589.475 44.5189 589.568 43.7556 589.735C42.9923 589.903 42.3221 590.163 41.745 590.517C41.1679 590.852 40.6838 591.28 40.2929 591.764C39.9019 592.248 39.6227 592.806 39.4365 593.42C39.2503 594.035 39.1573 594.723 39.1573 595.468C39.1573 596.212 39.2503 596.901 39.4551 597.515C39.6413 598.129 39.9392 598.687 40.3115 599.171C40.6838 599.655 41.1679 600.083 41.745 600.4C42.3221 600.735 42.9923 600.995 43.7556 601.163C44.5189 601.33 45.3752 601.423 46.3247 601.423Z" fill="url(#paint73_linear_7_559)"/>
<path d="M58.8909 601.33C59.4122 601.274 59.8962 601.163 60.3058 601.014C60.7154 600.865 61.0691 600.623 61.3669 600.307C61.7579 599.879 62.0558 599.283 62.2419 598.539C62.4467 597.794 62.577 596.808 62.6887 595.561C62.8004 594.314 62.8563 592.788 62.9307 590.945L62.9866 587.446H78.4198V603.471H75.4412V589.847H65.7791L65.7419 591.28C65.686 593.383 65.5743 595.133 65.4254 596.547C65.2765 597.962 65.0344 599.097 64.6993 599.972C64.3829 600.846 63.9733 601.554 63.4706 602.075C62.968 602.614 62.3536 603.024 61.6648 603.247C60.976 603.489 60.0824 603.619 59.0212 603.657L58.8723 601.33H58.8909Z" fill="url(#paint74_linear_7_559)"/>
<path d="M82.1432 601.33C82.6645 601.274 83.1485 601.163 83.5581 601.014C83.9676 600.865 84.3213 600.623 84.6192 600.307C85.0102 599.879 85.308 599.283 85.4942 598.539C85.699 597.794 85.8293 596.808 85.941 595.561C86.0527 594.314 86.1085 592.788 86.183 590.945L86.2389 587.446H101.672V603.471H98.6934V589.847H89.0314L88.9941 591.28C88.9383 593.383 88.8266 595.133 88.6776 596.547C88.5287 597.962 88.2867 599.097 87.9516 599.972C87.6351 600.846 87.2255 601.554 86.7229 602.075C86.2202 602.614 85.6059 603.024 84.9171 603.247C84.2283 603.489 83.3347 603.619 82.2735 603.657L82.1246 601.33H82.1432Z" fill="url(#paint75_linear_7_559)"/>
<path d="M116.919 603.75C115.616 603.75 114.425 603.619 113.345 603.359C112.246 603.098 111.297 602.745 110.496 602.261C109.677 601.795 108.988 601.218 108.411 600.53C107.834 599.841 107.406 599.06 107.108 598.203C106.81 597.347 106.661 596.398 106.661 595.374C106.661 594.351 106.81 593.476 107.108 592.62C107.406 591.764 107.834 591.001 108.393 590.331C108.951 589.661 109.64 589.084 110.459 588.6C111.278 588.116 112.209 587.744 113.289 587.502C114.35 587.241 115.523 587.111 116.807 587.111C118.353 587.111 119.749 587.297 120.978 587.688C122.206 588.079 123.249 588.619 124.124 589.326C124.98 590.033 125.65 590.871 126.097 591.838C126.544 592.806 126.767 593.904 126.767 595.095C126.767 595.3 126.767 595.486 126.767 595.691C126.767 595.896 126.73 596.082 126.693 596.249H109.64C109.696 596.677 109.789 597.087 109.901 597.459C110.087 598.11 110.385 598.669 110.776 599.171C111.167 599.655 111.651 600.083 112.228 600.437C112.805 600.79 113.512 601.051 114.294 601.237C115.076 601.423 115.97 601.498 116.938 601.498C118.297 601.498 119.432 601.386 120.363 601.144C121.294 600.902 122.039 600.548 122.597 600.083C123.174 599.618 123.565 599.041 123.807 598.371L126.693 598.873C126.339 599.953 125.762 600.865 124.962 601.591C124.161 602.316 123.1 602.856 121.778 603.228C120.456 603.601 118.855 603.768 116.956 603.768L116.919 603.75ZM109.696 594.034H123.807C123.733 593.458 123.565 592.955 123.342 592.471C123.025 591.82 122.579 591.261 121.964 590.815C121.369 590.349 120.643 589.996 119.786 589.735C118.93 589.475 117.943 589.344 116.826 589.344C115.839 589.344 114.964 589.437 114.183 589.605C113.401 589.772 112.73 590.033 112.172 590.387C111.595 590.722 111.129 591.15 110.72 591.634C110.31 592.118 110.05 592.676 109.863 593.309C109.789 593.551 109.733 593.774 109.677 594.016L109.696 594.034Z" fill="url(#paint76_linear_7_559)"/>
<path d="M131.608 603.452V587.427H134.586V603.452H131.608ZM134.791 595.17L145.514 587.427H149.629L138.887 595.002L149.871 603.452H145.626L134.791 595.17Z" fill="url(#paint77_linear_7_559)"/>
<path d="M153.203 603.452V587.427H156.182V601.088H168.171V587.427H171.15V601.088H173.775V608.105H171.001V603.452H153.203Z" fill="url(#paint78_linear_7_559)"/>
<path d="M177.74 603.452V587.427H180.663V599.934L193.006 587.427H195.947V603.452H193.006V590.945L180.663 603.452H177.74Z" fill="url(#paint79_linear_7_559)"/>
<path d="M218.138 603.452H215.197V597.478H209.835L204.12 603.452H200.527L206.447 597.329C205.423 597.254 204.529 597.068 203.766 596.77C202.779 596.379 202.035 595.821 201.532 595.095C201.029 594.369 200.769 593.495 200.769 592.452C200.769 591.41 201.011 590.517 201.513 589.754C202.016 588.991 202.742 588.414 203.692 588.023C204.641 587.614 205.777 587.427 207.061 587.427H218.138V603.47V603.452ZM215.197 595.319V589.549H207.266C206.521 589.549 205.87 589.661 205.33 589.884C204.771 590.108 204.362 590.443 204.082 590.871C203.803 591.299 203.654 591.82 203.654 592.452C203.654 593.085 203.803 593.588 204.101 594.034C204.399 594.463 204.809 594.798 205.348 595.002C205.888 595.207 206.54 595.319 207.285 595.319H215.215H215.197Z" fill="url(#paint80_linear_7_559)"/>
<path d="M11.6046 638.795V622.77H23.6868C24.8224 622.77 25.7905 622.919 26.5724 623.236C27.3543 623.552 27.9686 623.999 28.3968 624.613C28.825 625.208 29.0484 625.953 29.0484 626.828C29.0484 627.404 28.9553 627.907 28.7505 628.335C28.5457 628.763 28.2851 629.154 27.9314 629.489C27.5777 629.824 27.1495 630.085 26.6282 630.308C26.4979 630.364 26.3303 630.42 26.1628 630.457C26.6468 630.55 27.1123 630.699 27.5218 630.903C28.2665 631.257 28.8436 631.741 29.2532 632.355C29.6627 632.969 29.8489 633.695 29.8489 634.533C29.8489 635.463 29.6255 636.226 29.1787 636.859C28.7319 637.492 28.0617 637.976 27.2053 638.292C26.349 638.627 25.3064 638.795 24.0777 638.795H11.6046ZM14.4901 624.892V629.582H22.9793C23.6123 629.582 24.1522 629.489 24.6362 629.303C25.1016 629.117 25.474 628.838 25.7346 628.484C25.9952 628.13 26.1256 627.665 26.1256 627.144C26.1256 626.418 25.8463 625.86 25.3064 625.487C24.7479 625.097 23.9846 624.911 23.0166 624.911H14.4901V624.892ZM14.4901 631.611V636.673H23.3889C24.1336 636.673 24.7665 636.58 25.2692 636.394C25.7718 636.208 26.1628 635.928 26.4234 635.575C26.6841 635.221 26.8144 634.756 26.8144 634.198C26.8144 633.639 26.6841 633.155 26.4048 632.765C26.1256 632.374 25.7346 632.076 25.2133 631.89C24.6921 631.704 24.0591 631.611 23.2772 631.611H14.4901Z" fill="url(#paint81_linear_7_559)"/>
<path d="M34.652 638.795V622.77H37.5749V635.277L49.9177 622.77H52.8592V638.795H49.9177V626.288L37.5749 638.795H34.652Z" fill="url(#paint82_linear_7_559)"/>
<path d="M75.739 643.447V638.795H59.0957V643.447H56.3218V636.468H58.2394C58.6117 636.077 58.9282 635.649 59.2074 635.203C59.5611 634.607 59.8404 633.881 60.0452 633.006C60.25 632.132 60.4175 631.015 60.5292 629.656C60.6409 628.298 60.734 626.641 60.7898 624.65L60.8457 622.77H75.888V636.468H78.5129V643.447H75.7204H75.739ZM61.2739 636.468H73.0582V624.985H63.601C63.5451 626.53 63.4706 627.87 63.3962 628.986C63.3217 630.14 63.21 631.145 63.0797 631.983C62.9494 632.82 62.7632 633.583 62.5212 634.291C62.2606 635.035 61.9068 635.686 61.46 636.263C61.4042 636.319 61.3483 636.394 61.2925 636.468H61.2739Z" fill="url(#paint83_linear_7_559)"/>
<path d="M91.4701 639.074C90.1484 639.074 88.9755 638.944 87.9143 638.702C86.8532 638.46 85.9037 638.106 85.0846 637.622C84.2655 637.138 83.558 636.58 82.9995 635.891C82.4224 635.221 81.9942 634.44 81.6964 633.584C81.3985 632.727 81.2496 631.778 81.2496 630.755C81.2496 629.731 81.3985 628.819 81.6964 627.963C81.9942 627.107 82.4224 626.325 82.9995 625.637C83.5767 624.948 84.2655 624.371 85.0846 623.906C85.9037 623.44 86.8532 623.068 87.933 622.808C88.9941 622.547 90.1856 622.417 91.4887 622.417C92.7919 622.417 93.9648 622.547 95.0445 622.808C96.1243 623.068 97.0738 623.422 97.8929 623.906C98.712 624.371 99.4008 624.948 99.978 625.637C100.555 626.325 100.983 627.107 101.281 627.963C101.579 628.819 101.728 629.768 101.728 630.755C101.728 631.741 101.579 632.709 101.281 633.584C100.983 634.458 100.555 635.221 99.9966 635.891C99.4381 636.561 98.7493 637.138 97.9115 637.622C97.0738 638.106 96.1429 638.46 95.0632 638.702C93.9834 638.944 92.7919 639.074 91.5074 639.074H91.4701ZM91.4701 636.747C92.4382 636.747 93.2946 636.654 94.0392 636.487C94.8025 636.319 95.4541 636.059 96.0312 635.724C96.6083 635.389 97.0738 634.979 97.4833 634.496C97.8743 634.012 98.1721 633.453 98.3583 632.839C98.5445 632.225 98.6376 631.536 98.6376 630.792C98.6376 630.047 98.5445 629.359 98.3583 628.726C98.1721 628.093 97.8743 627.553 97.4833 627.07C97.0924 626.586 96.6083 626.176 96.0312 625.841C95.4541 625.506 94.8025 625.246 94.0392 625.06C93.276 624.892 92.4196 624.799 91.4701 624.799C90.5207 624.799 89.6643 624.892 88.901 625.06C88.1377 625.246 87.4676 625.506 86.8904 625.841C86.3133 626.176 85.8293 626.604 85.4383 627.088C85.0474 627.572 84.7681 628.13 84.582 628.745C84.3958 629.359 84.3027 630.047 84.3027 630.792C84.3027 631.536 84.3958 632.225 84.6006 632.839C84.7867 633.453 85.0846 634.012 85.4569 634.496C85.8293 634.979 86.3133 635.407 86.8904 635.724C87.4676 636.059 88.1377 636.319 88.901 636.487C89.6643 636.654 90.5207 636.747 91.4701 636.747Z" fill="url(#paint84_linear_7_559)"/>
<path d="M106.661 638.795V622.77H118.744C119.879 622.77 120.847 622.919 121.629 623.236C122.411 623.552 123.025 623.999 123.454 624.613C123.882 625.208 124.105 625.953 124.105 626.828C124.105 627.404 124.012 627.907 123.807 628.335C123.603 628.763 123.342 629.154 122.988 629.489C122.634 629.824 122.206 630.085 121.685 630.308C121.555 630.364 121.387 630.42 121.22 630.457C121.704 630.55 122.169 630.699 122.579 630.903C123.323 631.257 123.9 631.741 124.31 632.355C124.72 632.969 124.906 633.695 124.906 634.533C124.906 635.463 124.682 636.226 124.236 636.859C123.789 637.492 123.119 637.976 122.262 638.292C121.406 638.627 120.363 638.795 119.135 638.795H106.68H106.661ZM109.547 624.892V629.582H118.036C118.669 629.582 119.209 629.489 119.693 629.303C120.158 629.117 120.531 628.838 120.791 628.484C121.052 628.13 121.182 627.665 121.182 627.144C121.182 626.418 120.903 625.86 120.363 625.487C119.805 625.097 119.041 624.911 118.073 624.911H109.584L109.547 624.892ZM109.547 631.611V636.673H118.446C119.19 636.673 119.823 636.58 120.326 636.394C120.829 636.208 121.22 635.928 121.48 635.575C121.741 635.221 121.871 634.756 121.871 634.198C121.871 633.639 121.741 633.155 121.462 632.765C121.182 632.374 120.791 632.076 120.27 631.89C119.749 631.704 119.116 631.611 118.334 631.611H109.566H109.547Z" fill="url(#paint85_linear_7_559)"/>
<path d="M129.727 638.795V622.77H132.706V627.944H140.842C142.182 627.944 143.318 628.168 144.248 628.596C145.198 629.024 145.905 629.656 146.408 630.457C146.911 631.276 147.153 632.243 147.153 633.379C147.153 634.216 147.004 634.979 146.724 635.649C146.445 636.319 146.036 636.878 145.496 637.343C144.956 637.808 144.286 638.162 143.504 638.404C142.722 638.646 141.828 638.776 140.823 638.776H129.727V638.795ZM132.706 630.103V636.636H140.395C141.195 636.636 141.884 636.505 142.48 636.263C143.057 636.021 143.504 635.649 143.82 635.165C144.137 634.681 144.286 634.086 144.286 633.379C144.286 632.671 144.137 632.057 143.82 631.573C143.504 631.09 143.057 630.717 142.48 630.475C141.903 630.215 141.214 630.084 140.395 630.084H132.706V630.103ZM150.02 638.795V622.77H152.961V638.795H150.02Z" fill="url(#paint86_linear_7_559)"/>
<path d="M172.62 638.795L166.44 632.411L160.222 638.795H156.684L164.541 630.606L156.964 622.77H160.668L166.477 628.744L172.434 622.77H175.915L168.283 630.513L176.269 638.795H172.62Z" fill="url(#paint87_linear_7_559)"/>
<path d="M11.6046 674.119V658.094H14.5832V674.119H11.6046ZM14.788 665.837L25.5112 658.094H29.6255L18.8837 665.669L29.8675 674.119H25.6229L14.788 665.837Z" fill="url(#paint88_linear_7_559)"/>
<path d="M33.1813 674.119V658.094H45.2635C46.3991 658.094 47.3672 658.243 48.1491 658.56C48.931 658.876 49.5453 659.323 49.9735 659.937C50.4017 660.551 50.6251 661.277 50.6251 662.152C50.6251 662.729 50.532 663.231 50.3272 663.659C50.1225 664.087 49.8618 664.478 49.5081 664.813C49.1544 665.13 48.7262 665.409 48.2049 665.613C48.0746 665.669 47.9071 665.725 47.7395 665.762C48.2236 665.855 48.689 666.004 49.0985 666.209C49.8432 666.563 50.4203 667.046 50.8299 667.661C51.2395 668.275 51.4256 669.001 51.4256 669.838C51.4256 670.769 51.2022 671.532 50.7554 672.165C50.3086 672.797 49.6384 673.281 48.7821 673.598C47.9257 673.933 46.8832 674.1 45.6545 674.1H33.1999L33.1813 674.119ZM36.0669 660.216V664.906H44.5561C45.189 664.906 45.7289 664.813 46.213 664.627C46.697 664.441 47.0507 664.162 47.3113 663.808C47.572 663.436 47.7023 662.989 47.7023 662.468C47.7023 661.742 47.423 661.184 46.8832 660.812C46.3247 660.421 45.5614 660.235 44.5933 660.235H36.1041L36.0669 660.216ZM36.0669 666.935V671.997H44.9656C45.7103 671.997 46.3433 671.904 46.8459 671.718C47.3486 671.532 47.7395 671.253 48.0002 670.899C48.2608 670.545 48.3911 670.08 48.3911 669.522C48.3911 668.963 48.2608 668.48 47.9815 668.07C47.7023 667.679 47.3113 667.381 46.7901 667.195C46.2688 667.009 45.6358 666.916 44.8539 666.916H36.0855L36.0669 666.935Z" fill="url(#paint89_linear_7_559)"/>
<path d="M54.9256 662.803C55.1304 661.966 55.4468 661.221 55.9309 660.588C56.3963 659.956 57.0106 659.435 57.7553 659.025C58.5 658.616 59.3936 658.299 60.3989 658.076C61.4042 657.853 62.577 657.76 63.843 657.76C65.3323 657.76 66.6355 657.89 67.7339 658.132C68.8322 658.374 69.7258 658.746 70.4333 659.267C71.1221 659.77 71.6434 660.421 71.9785 661.184C72.3136 661.947 72.4811 662.878 72.4811 663.957V670.676C72.4811 670.992 72.5183 671.253 72.6114 671.495C72.7045 671.718 72.8348 671.885 73.0396 672.016C73.2444 672.127 73.505 672.202 73.8401 672.202C73.9332 672.202 74.0449 672.202 74.1566 672.202C74.2683 672.202 74.38 672.183 74.4545 672.165L74.3614 674.23C74.1194 674.286 73.8774 674.342 73.6167 674.361C73.3561 674.398 73.1141 674.398 72.8721 674.398C72.146 674.398 71.5503 674.286 71.0849 674.044C70.6194 673.802 70.2657 673.449 70.0609 672.965C69.8375 672.481 69.7445 671.904 69.7445 671.215V670.899C69.4838 671.215 69.2232 671.513 68.9253 671.774C68.2924 672.351 67.5663 672.835 66.7658 673.225C65.9466 673.635 65.0531 673.933 64.085 674.137C63.1169 674.342 62.093 674.454 61.0132 674.454C59.5797 674.454 58.351 674.268 57.3457 673.914C56.3404 673.56 55.5585 673.021 55.0373 672.332C54.516 671.644 54.2368 670.787 54.2368 669.82C54.2368 668.852 54.4788 668.033 54.9628 667.344C55.4468 666.656 56.1729 666.116 57.1782 665.725C58.1649 665.334 59.4494 665.074 60.9946 664.962L69.7072 664.441V664.236C69.7072 663.51 69.5955 662.896 69.3721 662.375C69.1487 661.854 68.795 661.426 68.3296 661.091C67.8642 660.756 67.2498 660.514 66.5238 660.346C65.7977 660.179 64.9041 660.105 63.8616 660.105C62.6887 660.105 61.6648 660.216 60.7898 660.458C59.9335 660.7 59.2446 661.054 58.7792 661.519C58.2952 661.984 57.9973 662.598 57.8856 663.343L54.9628 662.878L54.9256 662.803ZM69.7445 666.395L61.1435 666.991C60.2499 667.047 59.4867 667.195 58.9095 667.4C58.3138 667.623 57.8856 667.903 57.5878 668.275C57.2899 668.647 57.141 669.094 57.141 669.615C57.141 670.136 57.2899 670.62 57.6064 670.992C57.9229 671.364 58.3883 671.643 59.0399 671.848C59.6728 672.053 60.4733 672.146 61.4042 672.146C62.2792 672.146 63.1355 672.072 63.9733 671.904C64.811 671.737 65.5557 671.513 66.2631 671.215C66.952 670.918 67.5663 670.564 68.0876 670.136C68.6088 669.708 69.0184 669.243 69.3163 668.722C69.6141 668.2 69.7631 667.642 69.7631 667.065V666.414L69.7445 666.395Z" fill="url(#paint90_linear_7_559)"/>
<path d="M81.1937 658.094L81.3799 661.482C81.715 660.998 82.1246 660.551 82.59 660.16C83.4277 659.416 84.4517 658.839 85.6431 658.411C86.8346 657.983 88.1564 657.778 89.6085 657.778C90.7441 657.778 91.7866 657.908 92.7361 658.169C93.6855 658.43 94.5419 658.802 95.2866 659.286C96.0312 659.769 96.6642 660.346 97.1669 661.035C97.6695 661.724 98.0605 662.487 98.3211 663.343C98.5817 664.199 98.712 665.111 98.712 666.097C98.712 667.084 98.5817 668.014 98.3211 668.87C98.0605 669.708 97.6695 670.49 97.1669 671.16C96.6642 671.848 96.0312 672.425 95.3052 672.909C94.5791 673.393 93.7228 673.765 92.7547 674.007C91.7866 674.249 90.7441 674.398 89.6085 674.398C88.1564 674.398 86.8346 674.193 85.6431 673.802C84.4517 673.393 83.4464 672.835 82.59 672.072C82.1804 671.718 81.8081 671.327 81.4916 670.899V680H78.5129V658.094H81.1937ZM88.6963 672.072C89.6271 672.072 90.4462 671.978 91.1909 671.792C91.9356 671.606 92.5685 671.346 93.127 670.992C93.6855 670.657 94.151 670.229 94.5233 669.745C94.8956 669.261 95.1749 668.703 95.3797 668.089C95.5844 667.475 95.6775 666.805 95.6775 666.097C95.6775 665.39 95.5844 664.739 95.3797 664.125C95.1749 663.51 94.8956 662.971 94.5233 662.468C94.151 661.966 93.6855 661.538 93.127 661.203C92.5685 660.868 91.9169 660.588 91.1909 660.402C90.4462 660.216 89.6271 660.123 88.6963 660.123C87.2255 660.123 85.941 660.384 84.8612 660.886C83.7815 661.389 82.9437 662.096 82.3666 662.989C81.7895 663.883 81.4916 664.925 81.4916 666.135C81.4916 666.991 81.6592 667.791 81.9756 668.535C82.2921 669.28 82.7762 669.894 83.4277 670.415C84.0607 670.936 84.824 671.346 85.7176 671.643C86.6112 671.941 87.6165 672.09 88.7149 672.09L88.6963 672.072Z" fill="url(#paint91_linear_7_559)"/>
<path d="M109.026 674.119V660.477H101.095V658.094H119.879V660.477H111.949V674.119H109.007H109.026Z" fill="url(#paint92_linear_7_559)"/>
<path d="M123.603 674.119V658.094H126.525V670.601L138.868 658.094H141.81V674.119H138.868V661.612L126.525 674.119H123.603Z" fill="url(#paint93_linear_7_559)"/>
<path d="M150.783 658.094L150.969 661.482C151.304 660.998 151.714 660.551 152.179 660.16C153.017 659.416 154.041 658.839 155.232 658.411C156.424 657.983 157.745 657.778 159.198 657.778C160.333 657.778 161.376 657.908 162.325 658.169C163.275 658.43 164.131 658.802 164.876 659.286C165.62 659.769 166.253 660.346 166.756 661.035C167.259 661.724 167.65 662.487 167.91 663.343C168.171 664.199 168.301 665.111 168.301 666.097C168.301 667.084 168.171 668.014 167.91 668.87C167.65 669.708 167.259 670.49 166.756 671.16C166.253 671.848 165.62 672.425 164.894 672.909C164.168 673.393 163.312 673.765 162.344 674.007C161.376 674.249 160.333 674.398 159.198 674.398C157.745 674.398 156.424 674.193 155.232 673.802C154.041 673.393 153.035 672.835 152.179 672.072C151.77 671.718 151.397 671.327 151.081 670.899V680H148.102V658.094H150.783ZM158.285 672.072C159.216 672.072 160.035 671.978 160.78 671.792C161.525 671.606 162.158 671.346 162.716 670.992C163.275 670.657 163.74 670.229 164.112 669.745C164.485 669.261 164.764 668.703 164.969 668.089C165.174 667.475 165.267 666.805 165.267 666.097C165.267 665.39 165.174 664.739 164.969 664.125C164.764 663.51 164.485 662.971 164.112 662.468C163.74 661.966 163.275 661.538 162.716 661.203C162.158 660.868 161.506 660.588 160.78 660.402C160.035 660.216 159.216 660.123 158.285 660.123C156.815 660.123 155.53 660.384 154.45 660.886C153.371 661.389 152.533 662.096 151.956 662.989C151.379 663.883 151.081 664.925 151.081 666.135C151.081 666.991 151.248 667.791 151.565 668.535C151.881 669.28 152.365 669.894 153.017 670.415C153.65 670.936 154.413 671.346 155.307 671.643C156.2 671.941 157.206 672.09 158.304 672.09L158.285 672.072Z" fill="url(#paint94_linear_7_559)"/>
<path d="M295.23 161.49L266.504 158.214L295.099 153.952L295.23 161.49Z" fill="url(#paint95_linear_7_559)"/>
<path d="M137.509 0L133.786 24.9949L129.969 0H137.509Z" fill="url(#paint96_linear_7_559)"/>
<path d="M128.61 322.999L131.887 295.566L136.15 322.85L128.61 322.999Z" fill="url(#paint97_linear_7_559)"/>
<path d="M10.6365 151.403L29.4952 154.66L10.8226 158.922L10.6365 151.403Z" fill="url(#paint98_linear_7_559)"/>
<defs>
<linearGradient id="paint0_linear_7_559" x1="133.469" y1="80.3076" x2="133.469" y2="229.347" gradientUnits="userSpaceOnUse">
<stop stop-color="#672A10"/>
<stop offset="0.286458" stop-color="#C1AFA7"/>
<stop offset="0.65625" stop-color="#724B3A"/>
<stop offset="1" stop-color="#986955"/>
</linearGradient>
<linearGradient id="paint1_linear_7_559" x1="29.7372" y1="189.314" x2="29.7372" y2="206.697" gradientUnits="userSpaceOnUse">
<stop stop-color="#672A10"/>
<stop offset="0.286458" stop-color="#C1AFA7"/>
<stop offset="0.65625" stop-color="#724B3A"/>
<stop offset="1" stop-color="#986955"/>
</linearGradient>
<linearGradient id="paint2_linear_7_559" x1="25.8277" y1="184.419" x2="25.8277" y2="196.051" gradientUnits="userSpaceOnUse">
<stop stop-color="#672A10"/>
<stop offset="0.286458" stop-color="#C1AFA7"/>
<stop offset="0.65625" stop-color="#724B3A"/>
<stop offset="1" stop-color="#986955"/>
</linearGradient>
<linearGradient id="paint3_linear_7_559" x1="89.5806" y1="245.762" x2="89.5806" y2="322.905" gradientUnits="userSpaceOnUse">
<stop stop-color="#672A10"/>
<stop offset="0.286458" stop-color="#C1AFA7"/>
<stop offset="0.65625" stop-color="#724B3A"/>
<stop offset="1" stop-color="#986955"/>
</linearGradient>
<linearGradient id="paint4_linear_7_559" x1="66.6541" y1="230.407" x2="66.6541" y2="322.905" gradientUnits="userSpaceOnUse">
<stop stop-color="#672A10"/>
<stop offset="0.286458" stop-color="#C1AFA7"/>
<stop offset="0.65625" stop-color="#724B3A"/>
<stop offset="1" stop-color="#986955"/>
</linearGradient>
<linearGradient id="paint5_linear_7_559" x1="52.4682" y1="223.652" x2="52.4682" y2="322.924" gradientUnits="userSpaceOnUse">
<stop stop-color="#672A10"/>
<stop offset="0.286458" stop-color="#C1AFA7"/>
<stop offset="0.65625" stop-color="#724B3A"/>
<stop offset="1" stop-color="#986955"/>
</linearGradient>
<linearGradient id="paint6_linear_7_559" x1="102.426" y1="258.492" x2="102.426" y2="322.924" gradientUnits="userSpaceOnUse">
<stop stop-color="#672A10"/>
<stop offset="0.286458" stop-color="#C1AFA7"/>
<stop offset="0.65625" stop-color="#724B3A"/>
<stop offset="1" stop-color="#986955"/>
</linearGradient>
<linearGradient id="paint7_linear_7_559" x1="76.8933" y1="236.438" x2="76.8933" y2="322.905" gradientUnits="userSpaceOnUse">
<stop stop-color="#672A10"/>
<stop offset="0.286458" stop-color="#C1AFA7"/>
<stop offset="0.65625" stop-color="#724B3A"/>
<stop offset="1" stop-color="#986955"/>
</linearGradient>
<linearGradient id="paint8_linear_7_559" x1="19.2095" y1="177.198" x2="19.2095" y2="183.061" gradientUnits="userSpaceOnUse">
<stop stop-color="#672A10"/>
<stop offset="0.286458" stop-color="#C1AFA7"/>
<stop offset="0.65625" stop-color="#724B3A"/>
<stop offset="1" stop-color="#986955"/>
</linearGradient>
<linearGradient id="paint9_linear_7_559" x1="43.6439" y1="211.778" x2="43.6439" y2="281.384" gradientUnits="userSpaceOnUse">
<stop stop-color="#672A10"/>
<stop offset="0.286458" stop-color="#C1AFA7"/>
<stop offset="0.65625" stop-color="#724B3A"/>
<stop offset="1" stop-color="#986955"/>
</linearGradient>
<linearGradient id="paint10_linear_7_559" x1="40.628" y1="206.138" x2="40.628" y2="257.617" gradientUnits="userSpaceOnUse">
<stop stop-color="#672A10"/>
<stop offset="0.286458" stop-color="#C1AFA7"/>
<stop offset="0.65625" stop-color="#724B3A"/>
<stop offset="1" stop-color="#986955"/>
</linearGradient>
<linearGradient id="paint11_linear_7_559" x1="37.519" y1="200.76" x2="37.519" y2="238.596" gradientUnits="userSpaceOnUse">
<stop stop-color="#672A10"/>
<stop offset="0.286458" stop-color="#C1AFA7"/>
<stop offset="0.65625" stop-color="#724B3A"/>
<stop offset="1" stop-color="#986955"/>
</linearGradient>
<linearGradient id="paint12_linear_7_559" x1="33.8888" y1="195.121" x2="33.8888" y2="221.53" gradientUnits="userSpaceOnUse">
<stop stop-color="#672A10"/>
<stop offset="0.286458" stop-color="#C1AFA7"/>
<stop offset="0.65625" stop-color="#724B3A"/>
<stop offset="1" stop-color="#986955"/>
</linearGradient>
<linearGradient id="paint13_linear_7_559" x1="46.3713" y1="217.38" x2="46.3713" y2="309.394" gradientUnits="userSpaceOnUse">
<stop stop-color="#672A10"/>
<stop offset="0.286458" stop-color="#C1AFA7"/>
<stop offset="0.65625" stop-color="#724B3A"/>
<stop offset="1" stop-color="#986955"/>
</linearGradient>
<linearGradient id="paint14_linear_7_559" x1="115.374" y1="277.271" x2="115.374" y2="322.906" gradientUnits="userSpaceOnUse">
<stop stop-color="#672A10"/>
<stop offset="0.286458" stop-color="#C1AFA7"/>
<stop offset="0.65625" stop-color="#724B3A"/>
<stop offset="1" stop-color="#986955"/>
</linearGradient>
<linearGradient id="paint15_linear_7_559" x1="32.8835" y1="101.934" x2="32.8835" y2="123.3" gradientUnits="userSpaceOnUse">
<stop stop-color="#672A10"/>
<stop offset="0.286458" stop-color="#C1AFA7"/>
<stop offset="0.65625" stop-color="#724B3A"/>
<stop offset="1" stop-color="#986955"/>
</linearGradient>
<linearGradient id="paint16_linear_7_559" x1="47.6186" y1="0.614258" x2="47.6186" y2="96.7415" gradientUnits="userSpaceOnUse">
<stop stop-color="#672A10"/>
<stop offset="0.286458" stop-color="#C1AFA7"/>
<stop offset="0.65625" stop-color="#724B3A"/>
<stop offset="1" stop-color="#986955"/>
</linearGradient>
<linearGradient id="paint17_linear_7_559" x1="118.325" y1="0" x2="118.325" y2="33.7422" gradientUnits="userSpaceOnUse">
<stop stop-color="#672A10"/>
<stop offset="0.286458" stop-color="#C1AFA7"/>
<stop offset="0.65625" stop-color="#724B3A"/>
<stop offset="1" stop-color="#986955"/>
</linearGradient>
<linearGradient id="paint18_linear_7_559" x1="35.7877" y1="90.1716" x2="35.7877" y2="118.889" gradientUnits="userSpaceOnUse">
<stop stop-color="#672A10"/>
<stop offset="0.286458" stop-color="#C1AFA7"/>
<stop offset="0.65625" stop-color="#724B3A"/>
<stop offset="1" stop-color="#986955"/>
</linearGradient>
<linearGradient id="paint19_linear_7_559" x1="84.1073" y1="0" x2="84.1073" y2="75.2826" gradientUnits="userSpaceOnUse">
<stop stop-color="#672A10"/>
<stop offset="0.286458" stop-color="#C1AFA7"/>
<stop offset="0.65625" stop-color="#724B3A"/>
<stop offset="1" stop-color="#986955"/>
</linearGradient>
<linearGradient id="paint20_linear_7_559" x1="22.3092" y1="129.404" x2="22.3092" y2="136.569" gradientUnits="userSpaceOnUse">
<stop stop-color="#672A10"/>
<stop offset="0.286458" stop-color="#C1AFA7"/>
<stop offset="0.65625" stop-color="#724B3A"/>
<stop offset="1" stop-color="#986955"/>
</linearGradient>
<linearGradient id="paint21_linear_7_559" x1="71.6248" y1="0" x2="71.6248" y2="83.4715" gradientUnits="userSpaceOnUse">
<stop stop-color="#672A10"/>
<stop offset="0.286458" stop-color="#C1AFA7"/>
<stop offset="0.65625" stop-color="#724B3A"/>
<stop offset="1" stop-color="#986955"/>
</linearGradient>
<linearGradient id="paint22_linear_7_559" x1="42.1173" y1="53.5073" x2="42.1173" y2="108.02" gradientUnits="userSpaceOnUse">
<stop stop-color="#672A10"/>
<stop offset="0.286458" stop-color="#C1AFA7"/>
<stop offset="0.65625" stop-color="#724B3A"/>
<stop offset="1" stop-color="#986955"/>
</linearGradient>
<linearGradient id="paint23_linear_7_559" x1="105.423" y1="0" x2="105.423" y2="54.6241" gradientUnits="userSpaceOnUse">
<stop stop-color="#672A10"/>
<stop offset="0.286458" stop-color="#C1AFA7"/>
<stop offset="0.65625" stop-color="#724B3A"/>
<stop offset="1" stop-color="#986955"/>
</linearGradient>
<linearGradient id="paint24_linear_7_559" x1="28.3968" y1="115.948" x2="28.3968" y2="129.367" gradientUnits="userSpaceOnUse">
<stop stop-color="#672A10"/>
<stop offset="0.286458" stop-color="#C1AFA7"/>
<stop offset="0.65625" stop-color="#724B3A"/>
<stop offset="1" stop-color="#986955"/>
</linearGradient>
<linearGradient id="paint25_linear_7_559" x1="39.0828" y1="73.4214" x2="39.0828" y2="113.51" gradientUnits="userSpaceOnUse">
<stop stop-color="#672A10"/>
<stop offset="0.286458" stop-color="#C1AFA7"/>
<stop offset="0.65625" stop-color="#724B3A"/>
<stop offset="1" stop-color="#986955"/>
</linearGradient>
<linearGradient id="paint26_linear_7_559" x1="57.7833" y1="0" x2="57.7833" y2="90.5997" gradientUnits="userSpaceOnUse">
<stop stop-color="#672A10"/>
<stop offset="0.286458" stop-color="#C1AFA7"/>
<stop offset="0.65625" stop-color="#724B3A"/>
<stop offset="1" stop-color="#986955"/>
</linearGradient>
<linearGradient id="paint27_linear_7_559" x1="44.854" y1="30.5598" x2="44.854" y2="102.66" gradientUnits="userSpaceOnUse">
<stop stop-color="#672A10"/>
<stop offset="0.286458" stop-color="#C1AFA7"/>
<stop offset="0.65625" stop-color="#724B3A"/>
<stop offset="1" stop-color="#986955"/>
</linearGradient>
<linearGradient id="paint28_linear_7_559" x1="93.4436" y1="0" x2="93.4436" y2="67.5961" gradientUnits="userSpaceOnUse">
<stop stop-color="#672A10"/>
<stop offset="0.286458" stop-color="#C1AFA7"/>
<stop offset="0.65625" stop-color="#724B3A"/>
<stop offset="1" stop-color="#986955"/>
</linearGradient>
<linearGradient id="paint29_linear_7_559" x1="148.205" y1="0.465332" x2="148.205" y2="41.3729" gradientUnits="userSpaceOnUse">
<stop stop-color="#672A10"/>
<stop offset="0.286458" stop-color="#C1AFA7"/>
<stop offset="0.65625" stop-color="#724B3A"/>
<stop offset="1" stop-color="#986955"/>
</linearGradient>
<linearGradient id="paint30_linear_7_559" x1="189.785" y1="15.8755" x2="189.785" y2="86.4122" gradientUnits="userSpaceOnUse">
<stop stop-color="#672A10"/>
<stop offset="0.286458" stop-color="#C1AFA7"/>
<stop offset="0.65625" stop-color="#724B3A"/>
<stop offset="1" stop-color="#986955"/>
</linearGradient>
<linearGradient id="paint31_linear_7_559" x1="241.232" y1="81.3499" x2="241.232" y2="120.769" gradientUnits="userSpaceOnUse">
<stop stop-color="#672A10"/>
<stop offset="0.286458" stop-color="#C1AFA7"/>
<stop offset="0.65625" stop-color="#724B3A"/>
<stop offset="1" stop-color="#986955"/>
</linearGradient>
<linearGradient id="paint32_linear_7_559" x1="254.487" y1="107.331" x2="254.487" y2="131.21" gradientUnits="userSpaceOnUse">
<stop stop-color="#672A10"/>
<stop offset="0.286458" stop-color="#C1AFA7"/>
<stop offset="0.65625" stop-color="#724B3A"/>
<stop offset="1" stop-color="#986955"/>
</linearGradient>
<linearGradient id="paint33_linear_7_559" x1="199.261" y1="23.4502" x2="199.261" y2="93.0191" gradientUnits="userSpaceOnUse">
<stop stop-color="#672A10"/>
<stop offset="0.286458" stop-color="#C1AFA7"/>
<stop offset="0.65625" stop-color="#724B3A"/>
<stop offset="1" stop-color="#986955"/>
</linearGradient>
<linearGradient id="paint34_linear_7_559" x1="160.25" y1="2.40088" x2="160.25" y2="59.2955" gradientUnits="userSpaceOnUse">
<stop stop-color="#672A10"/>
<stop offset="0.286458" stop-color="#C1AFA7"/>
<stop offset="0.65625" stop-color="#724B3A"/>
<stop offset="1" stop-color="#986955"/>
</linearGradient>
<linearGradient id="paint35_linear_7_559" x1="248.623" y1="95.7178" x2="248.623" y2="126.445" gradientUnits="userSpaceOnUse">
<stop stop-color="#672A10"/>
<stop offset="0.286458" stop-color="#C1AFA7"/>
<stop offset="0.65625" stop-color="#724B3A"/>
<stop offset="1" stop-color="#986955"/>
</linearGradient>
<linearGradient id="paint36_linear_7_559" x1="225.743" y1="54.8845" x2="225.743" y2="110.067" gradientUnits="userSpaceOnUse">
<stop stop-color="#672A10"/>
<stop offset="0.286458" stop-color="#C1AFA7"/>
<stop offset="0.65625" stop-color="#724B3A"/>
<stop offset="1" stop-color="#986955"/>
</linearGradient>
<linearGradient id="paint37_linear_7_559" x1="262.734" y1="122.853" x2="262.734" y2="138.226" gradientUnits="userSpaceOnUse">
<stop stop-color="#672A10"/>
<stop offset="0.286458" stop-color="#C1AFA7"/>
<stop offset="0.65625" stop-color="#724B3A"/>
<stop offset="1" stop-color="#986955"/>
</linearGradient>
<linearGradient id="paint38_linear_7_559" x1="273.895" y1="139.287" x2="273.895" y2="147.289" gradientUnits="userSpaceOnUse">
<stop stop-color="#672A10"/>
<stop offset="0.286458" stop-color="#C1AFA7"/>
<stop offset="0.65625" stop-color="#724B3A"/>
<stop offset="1" stop-color="#986955"/>
</linearGradient>
<linearGradient id="paint39_linear_7_559" x1="182.078" y1="10.9993" x2="182.078" y2="80.5682" gradientUnits="userSpaceOnUse">
<stop stop-color="#672A10"/>
<stop offset="0.286458" stop-color="#C1AFA7"/>
<stop offset="0.65625" stop-color="#724B3A"/>
<stop offset="1" stop-color="#986955"/>
</linearGradient>
<linearGradient id="paint40_linear_7_559" x1="208.588" y1="32.6443" x2="208.588" y2="99.0865" gradientUnits="userSpaceOnUse">
<stop stop-color="#672A10"/>
<stop offset="0.286458" stop-color="#C1AFA7"/>
<stop offset="0.65625" stop-color="#724B3A"/>
<stop offset="1" stop-color="#986955"/>
</linearGradient>
<linearGradient id="paint41_linear_7_559" x1="171.662" y1="6.01147" x2="171.662" y2="71.5604" gradientUnits="userSpaceOnUse">
<stop stop-color="#672A10"/>
<stop offset="0.286458" stop-color="#C1AFA7"/>
<stop offset="0.65625" stop-color="#724B3A"/>
<stop offset="1" stop-color="#986955"/>
</linearGradient>
<linearGradient id="paint42_linear_7_559" x1="217.161" y1="42.8804" x2="217.161" y2="104.558" gradientUnits="userSpaceOnUse">
<stop stop-color="#672A10"/>
<stop offset="0.286458" stop-color="#C1AFA7"/>
<stop offset="0.65625" stop-color="#724B3A"/>
<stop offset="1" stop-color="#986955"/>
</linearGradient>
<linearGradient id="paint43_linear_7_559" x1="233.515" y1="67.4099" x2="233.515" y2="115.259" gradientUnits="userSpaceOnUse">
<stop stop-color="#672A10"/>
<stop offset="0.286458" stop-color="#C1AFA7"/>
<stop offset="0.65625" stop-color="#724B3A"/>
<stop offset="1" stop-color="#986955"/>
</linearGradient>
<linearGradient id="paint44_linear_7_559" x1="159.477" y1="259.832" x2="159.477" y2="320.635" gradientUnits="userSpaceOnUse">
<stop stop-color="#672A10"/>
<stop offset="0.286458" stop-color="#C1AFA7"/>
<stop offset="0.65625" stop-color="#724B3A"/>
<stop offset="1" stop-color="#986955"/>
</linearGradient>
<linearGradient id="paint45_linear_7_559" x1="171.075" y1="247.158" x2="171.075" y2="317.043" gradientUnits="userSpaceOnUse">
<stop stop-color="#672A10"/>
<stop offset="0.286458" stop-color="#C1AFA7"/>
<stop offset="0.65625" stop-color="#724B3A"/>
<stop offset="1" stop-color="#986955"/>
</linearGradient>
<linearGradient id="paint46_linear_7_559" x1="146.464" y1="280.025" x2="146.464" y2="322.589" gradientUnits="userSpaceOnUse">
<stop stop-color="#672A10"/>
<stop offset="0.286458" stop-color="#C1AFA7"/>
<stop offset="0.65625" stop-color="#724B3A"/>
<stop offset="1" stop-color="#986955"/>
</linearGradient>
<linearGradient id="paint47_linear_7_559" x1="218.51" y1="212.503" x2="218.51" y2="277.382" gradientUnits="userSpaceOnUse">
<stop stop-color="#672A10"/>
<stop offset="0.286458" stop-color="#C1AFA7"/>
<stop offset="0.65625" stop-color="#724B3A"/>
<stop offset="1" stop-color="#986955"/>
</linearGradient>
<linearGradient id="paint48_linear_7_559" x1="255.139" y1="185.796" x2="255.139" y2="210.698" gradientUnits="userSpaceOnUse">
<stop stop-color="#672A10"/>
<stop offset="0.286458" stop-color="#C1AFA7"/>
<stop offset="0.65625" stop-color="#724B3A"/>
<stop offset="1" stop-color="#986955"/>
</linearGradient>
<linearGradient id="paint49_linear_7_559" x1="189.924" y1="231.524" x2="189.924" y2="306.602" gradientUnits="userSpaceOnUse">
<stop stop-color="#672A10"/>
<stop offset="0.286458" stop-color="#C1AFA7"/>
<stop offset="0.65625" stop-color="#724B3A"/>
<stop offset="1" stop-color="#986955"/>
</linearGradient>
<linearGradient id="paint50_linear_7_559" x1="209.342" y1="218.403" x2="209.342" y2="288.81" gradientUnits="userSpaceOnUse">
<stop stop-color="#672A10"/>
<stop offset="0.286458" stop-color="#C1AFA7"/>
<stop offset="0.65625" stop-color="#724B3A"/>
<stop offset="1" stop-color="#986955"/>
</linearGradient>
<linearGradient id="paint51_linear_7_559" x1="179.536" y1="239.602" x2="179.536" y2="313.097" gradientUnits="userSpaceOnUse">
<stop stop-color="#672A10"/>
<stop offset="0.286458" stop-color="#C1AFA7"/>
<stop offset="0.65625" stop-color="#724B3A"/>
<stop offset="1" stop-color="#986955"/>
</linearGradient>
<linearGradient id="paint52_linear_7_559" x1="263.423" y1="178.557" x2="263.423" y2="194.32" gradientUnits="userSpaceOnUse">
<stop stop-color="#672A10"/>
<stop offset="0.286458" stop-color="#C1AFA7"/>
<stop offset="0.65625" stop-color="#724B3A"/>
<stop offset="1" stop-color="#986955"/>
</linearGradient>
<linearGradient id="paint53_linear_7_559" x1="200.061" y1="224.47" x2="200.061" y2="298.32" gradientUnits="userSpaceOnUse">
<stop stop-color="#672A10"/>
<stop offset="0.286458" stop-color="#C1AFA7"/>
<stop offset="0.65625" stop-color="#724B3A"/>
<stop offset="1" stop-color="#986955"/>
</linearGradient>
<linearGradient id="paint54_linear_7_559" x1="226.758" y1="207.144" x2="226.758" y2="265.322" gradientUnits="userSpaceOnUse">
<stop stop-color="#672A10"/>
<stop offset="0.286458" stop-color="#C1AFA7"/>
<stop offset="0.65625" stop-color="#724B3A"/>
<stop offset="1" stop-color="#986955"/>
</linearGradient>
<linearGradient id="paint55_linear_7_559" x1="242.191" y1="196.293" x2="242.191" y2="237.573" gradientUnits="userSpaceOnUse">
<stop stop-color="#672A10"/>
<stop offset="0.286458" stop-color="#C1AFA7"/>
<stop offset="0.65625" stop-color="#724B3A"/>
<stop offset="1" stop-color="#986955"/>
</linearGradient>
<linearGradient id="paint56_linear_7_559" x1="273.914" y1="169.772" x2="273.914" y2="178.11" gradientUnits="userSpaceOnUse">
<stop stop-color="#672A10"/>
<stop offset="0.286458" stop-color="#C1AFA7"/>
<stop offset="0.65625" stop-color="#724B3A"/>
<stop offset="1" stop-color="#986955"/>
</linearGradient>
<linearGradient id="paint57_linear_7_559" x1="247.841" y1="191.882" x2="247.841" y2="226.053" gradientUnits="userSpaceOnUse">
<stop stop-color="#672A10"/>
<stop offset="0.286458" stop-color="#C1AFA7"/>
<stop offset="0.65625" stop-color="#724B3A"/>
<stop offset="1" stop-color="#986955"/>
</linearGradient>
<linearGradient id="paint58_linear_7_559" x1="234.763" y1="201.709" x2="234.763" y2="251.736" gradientUnits="userSpaceOnUse">
<stop stop-color="#672A10"/>
<stop offset="0.286458" stop-color="#C1AFA7"/>
<stop offset="0.65625" stop-color="#724B3A"/>
<stop offset="1" stop-color="#986955"/>
</linearGradient>
<linearGradient id="paint59_linear_7_559" x1="22.2161" y1="496.4" x2="22.2161" y2="517.021" gradientUnits="userSpaceOnUse">
<stop stop-color="#672A10"/>
<stop offset="0.286458" stop-color="#C1AFA7"/>
<stop offset="0.65625" stop-color="#724B3A"/>
<stop offset="1" stop-color="#986955"/>
</linearGradient>
<linearGradient id="paint60_linear_7_559" x1="46.4178" y1="500.643" x2="46.4178" y2="517.3" gradientUnits="userSpaceOnUse">
<stop stop-color="#672A10"/>
<stop offset="0.286458" stop-color="#C1AFA7"/>
<stop offset="0.65625" stop-color="#724B3A"/>
<stop offset="1" stop-color="#986955"/>
</linearGradient>
<linearGradient id="paint61_linear_7_559" x1="68.8602" y1="500.643" x2="68.8602" y2="517.3" gradientUnits="userSpaceOnUse">
<stop stop-color="#672A10"/>
<stop offset="0.286458" stop-color="#C1AFA7"/>
<stop offset="0.65625" stop-color="#724B3A"/>
<stop offset="1" stop-color="#986955"/>
</linearGradient>
<linearGradient id="paint62_linear_7_559" x1="84.4144" y1="495.525" x2="84.4144" y2="517.003" gradientUnits="userSpaceOnUse">
<stop stop-color="#672A10"/>
<stop offset="0.286458" stop-color="#C1AFA7"/>
<stop offset="0.65625" stop-color="#724B3A"/>
<stop offset="1" stop-color="#986955"/>
</linearGradient>
<linearGradient id="paint63_linear_7_559" x1="101.039" y1="494.911" x2="101.039" y2="517.3" gradientUnits="userSpaceOnUse">
<stop stop-color="#672A10"/>
<stop offset="0.286458" stop-color="#C1AFA7"/>
<stop offset="0.65625" stop-color="#724B3A"/>
<stop offset="1" stop-color="#986955"/>
</linearGradient>
<linearGradient id="paint64_linear_7_559" x1="126.172" y1="500.643" x2="126.172" y2="517.3" gradientUnits="userSpaceOnUse">
<stop stop-color="#672A10"/>
<stop offset="0.286458" stop-color="#C1AFA7"/>
<stop offset="0.65625" stop-color="#724B3A"/>
<stop offset="1" stop-color="#986955"/>
</linearGradient>
<linearGradient id="paint65_linear_7_559" x1="150.271" y1="500.662" x2="150.271" y2="517.021" gradientUnits="userSpaceOnUse">
<stop stop-color="#672A10"/>
<stop offset="0.286458" stop-color="#C1AFA7"/>
<stop offset="0.65625" stop-color="#724B3A"/>
<stop offset="1" stop-color="#986955"/>
</linearGradient>
<linearGradient id="paint66_linear_7_559" x1="174.1" y1="500.569" x2="174.1" y2="517.244" gradientUnits="userSpaceOnUse">
<stop stop-color="#672A10"/>
<stop offset="0.286458" stop-color="#C1AFA7"/>
<stop offset="0.65625" stop-color="#724B3A"/>
<stop offset="1" stop-color="#986955"/>
</linearGradient>
<linearGradient id="paint67_linear_7_559" x1="197.157" y1="500.643" x2="197.157" y2="517.3" gradientUnits="userSpaceOnUse">
<stop stop-color="#672A10"/>
<stop offset="0.286458" stop-color="#C1AFA7"/>
<stop offset="0.65625" stop-color="#724B3A"/>
<stop offset="1" stop-color="#986955"/>
</linearGradient>
<linearGradient id="paint68_linear_7_559" x1="98.5724" y1="388.957" x2="98.5724" y2="452.943" gradientUnits="userSpaceOnUse">
<stop stop-color="#672A10"/>
<stop offset="0.286458" stop-color="#C1AFA7"/>
<stop offset="0.65625" stop-color="#724B3A"/>
<stop offset="1" stop-color="#986955"/>
</linearGradient>
<linearGradient id="paint69_linear_7_559" x1="165.732" y1="388.957" x2="165.732" y2="452.961" gradientUnits="userSpaceOnUse">
<stop stop-color="#672A10"/>
<stop offset="0.286458" stop-color="#C1AFA7"/>
<stop offset="0.65625" stop-color="#724B3A"/>
<stop offset="1" stop-color="#986955"/>
</linearGradient>
<linearGradient id="paint70_linear_7_559" x1="230.109" y1="387.859" x2="230.109" y2="453.706" gradientUnits="userSpaceOnUse">
<stop stop-color="#672A10"/>
<stop offset="0.286458" stop-color="#C1AFA7"/>
<stop offset="0.65625" stop-color="#724B3A"/>
<stop offset="1" stop-color="#986955"/>
</linearGradient>
<linearGradient id="paint71_linear_7_559" x1="40.2743" y1="388.845" x2="40.2743" y2="452.942" gradientUnits="userSpaceOnUse">
<stop stop-color="#672A10"/>
<stop offset="0.286458" stop-color="#C1AFA7"/>
<stop offset="0.65625" stop-color="#724B3A"/>
<stop offset="1" stop-color="#986955"/>
</linearGradient>
<linearGradient id="paint72_linear_7_559" x1="23.1934" y1="582.831" x2="23.1934" y2="603.452" gradientUnits="userSpaceOnUse">
<stop stop-color="#672A10"/>
<stop offset="0.286458" stop-color="#C1AFA7"/>
<stop offset="0.65625" stop-color="#724B3A"/>
<stop offset="1" stop-color="#986955"/>
</linearGradient>
<linearGradient id="paint73_linear_7_559" x1="46.3433" y1="587.111" x2="46.3433" y2="603.75" gradientUnits="userSpaceOnUse">
<stop stop-color="#672A10"/>
<stop offset="0.286458" stop-color="#C1AFA7"/>
<stop offset="0.65625" stop-color="#724B3A"/>
<stop offset="1" stop-color="#986955"/>
</linearGradient>
<linearGradient id="paint74_linear_7_559" x1="68.6461" y1="587.446" x2="68.6461" y2="603.657" gradientUnits="userSpaceOnUse">
<stop stop-color="#672A10"/>
<stop offset="0.286458" stop-color="#C1AFA7"/>
<stop offset="0.65625" stop-color="#724B3A"/>
<stop offset="1" stop-color="#986955"/>
</linearGradient>
<linearGradient id="paint75_linear_7_559" x1="91.8983" y1="587.446" x2="91.8983" y2="603.657" gradientUnits="userSpaceOnUse">
<stop stop-color="#672A10"/>
<stop offset="0.286458" stop-color="#C1AFA7"/>
<stop offset="0.65625" stop-color="#724B3A"/>
<stop offset="1" stop-color="#986955"/>
</linearGradient>
<linearGradient id="paint76_linear_7_559" x1="116.714" y1="587.111" x2="116.714" y2="603.768" gradientUnits="userSpaceOnUse">
<stop stop-color="#672A10"/>
<stop offset="0.286458" stop-color="#C1AFA7"/>
<stop offset="0.65625" stop-color="#724B3A"/>
<stop offset="1" stop-color="#986955"/>
</linearGradient>
<linearGradient id="paint77_linear_7_559" x1="140.739" y1="587.427" x2="140.739" y2="603.452" gradientUnits="userSpaceOnUse">
<stop stop-color="#672A10"/>
<stop offset="0.286458" stop-color="#C1AFA7"/>
<stop offset="0.65625" stop-color="#724B3A"/>
<stop offset="1" stop-color="#986955"/>
</linearGradient>
<linearGradient id="paint78_linear_7_559" x1="163.489" y1="587.427" x2="163.489" y2="608.105" gradientUnits="userSpaceOnUse">
<stop stop-color="#672A10"/>
<stop offset="0.286458" stop-color="#C1AFA7"/>
<stop offset="0.65625" stop-color="#724B3A"/>
<stop offset="1" stop-color="#986955"/>
</linearGradient>
<linearGradient id="paint79_linear_7_559" x1="186.843" y1="587.427" x2="186.843" y2="603.452" gradientUnits="userSpaceOnUse">
<stop stop-color="#672A10"/>
<stop offset="0.286458" stop-color="#C1AFA7"/>
<stop offset="0.65625" stop-color="#724B3A"/>
<stop offset="1" stop-color="#986955"/>
</linearGradient>
<linearGradient id="paint80_linear_7_559" x1="209.332" y1="587.427" x2="209.332" y2="603.47" gradientUnits="userSpaceOnUse">
<stop stop-color="#672A10"/>
<stop offset="0.286458" stop-color="#C1AFA7"/>
<stop offset="0.65625" stop-color="#724B3A"/>
<stop offset="1" stop-color="#986955"/>
</linearGradient>
<linearGradient id="paint81_linear_7_559" x1="20.7267" y1="622.77" x2="20.7267" y2="638.795" gradientUnits="userSpaceOnUse">
<stop stop-color="#672A10"/>
<stop offset="0.286458" stop-color="#C1AFA7"/>
<stop offset="0.65625" stop-color="#724B3A"/>
<stop offset="1" stop-color="#986955"/>
</linearGradient>
<linearGradient id="paint82_linear_7_559" x1="43.7556" y1="622.77" x2="43.7556" y2="638.795" gradientUnits="userSpaceOnUse">
<stop stop-color="#672A10"/>
<stop offset="0.286458" stop-color="#C1AFA7"/>
<stop offset="0.65625" stop-color="#724B3A"/>
<stop offset="1" stop-color="#986955"/>
</linearGradient>
<linearGradient id="paint83_linear_7_559" x1="67.4174" y1="622.77" x2="67.4174" y2="643.447" gradientUnits="userSpaceOnUse">
<stop stop-color="#672A10"/>
<stop offset="0.286458" stop-color="#C1AFA7"/>
<stop offset="0.65625" stop-color="#724B3A"/>
<stop offset="1" stop-color="#986955"/>
</linearGradient>
<linearGradient id="paint84_linear_7_559" x1="91.4887" y1="622.417" x2="91.4887" y2="639.074" gradientUnits="userSpaceOnUse">
<stop stop-color="#672A10"/>
<stop offset="0.286458" stop-color="#C1AFA7"/>
<stop offset="0.65625" stop-color="#724B3A"/>
<stop offset="1" stop-color="#986955"/>
</linearGradient>
<linearGradient id="paint85_linear_7_559" x1="115.784" y1="622.77" x2="115.784" y2="638.795" gradientUnits="userSpaceOnUse">
<stop stop-color="#672A10"/>
<stop offset="0.286458" stop-color="#C1AFA7"/>
<stop offset="0.65625" stop-color="#724B3A"/>
<stop offset="1" stop-color="#986955"/>
</linearGradient>
<linearGradient id="paint86_linear_7_559" x1="141.344" y1="622.77" x2="141.344" y2="638.795" gradientUnits="userSpaceOnUse">
<stop stop-color="#672A10"/>
<stop offset="0.286458" stop-color="#C1AFA7"/>
<stop offset="0.65625" stop-color="#724B3A"/>
<stop offset="1" stop-color="#986955"/>
</linearGradient>
<linearGradient id="paint87_linear_7_559" x1="166.477" y1="622.77" x2="166.477" y2="638.795" gradientUnits="userSpaceOnUse">
<stop stop-color="#672A10"/>
<stop offset="0.286458" stop-color="#C1AFA7"/>
<stop offset="0.65625" stop-color="#724B3A"/>
<stop offset="1" stop-color="#986955"/>
</linearGradient>
<linearGradient id="paint88_linear_7_559" x1="20.736" y1="658.094" x2="20.736" y2="674.119" gradientUnits="userSpaceOnUse">
<stop stop-color="#672A10"/>
<stop offset="0.286458" stop-color="#C1AFA7"/>
<stop offset="0.65625" stop-color="#724B3A"/>
<stop offset="1" stop-color="#986955"/>
</linearGradient>
<linearGradient id="paint89_linear_7_559" x1="42.3035" y1="658.094" x2="42.3035" y2="674.119" gradientUnits="userSpaceOnUse">
<stop stop-color="#672A10"/>
<stop offset="0.286458" stop-color="#C1AFA7"/>
<stop offset="0.65625" stop-color="#724B3A"/>
<stop offset="1" stop-color="#986955"/>
</linearGradient>
<linearGradient id="paint90_linear_7_559" x1="64.3456" y1="657.76" x2="64.3456" y2="674.454" gradientUnits="userSpaceOnUse">
<stop stop-color="#672A10"/>
<stop offset="0.286458" stop-color="#C1AFA7"/>
<stop offset="0.65625" stop-color="#724B3A"/>
<stop offset="1" stop-color="#986955"/>
</linearGradient>
<linearGradient id="paint91_linear_7_559" x1="88.6125" y1="657.778" x2="88.6125" y2="680" gradientUnits="userSpaceOnUse">
<stop stop-color="#672A10"/>
<stop offset="0.286458" stop-color="#C1AFA7"/>
<stop offset="0.65625" stop-color="#724B3A"/>
<stop offset="1" stop-color="#986955"/>
</linearGradient>
<linearGradient id="paint92_linear_7_559" x1="110.487" y1="658.094" x2="110.487" y2="674.119" gradientUnits="userSpaceOnUse">
<stop stop-color="#672A10"/>
<stop offset="0.286458" stop-color="#C1AFA7"/>
<stop offset="0.65625" stop-color="#724B3A"/>
<stop offset="1" stop-color="#986955"/>
</linearGradient>
<linearGradient id="paint93_linear_7_559" x1="132.706" y1="658.094" x2="132.706" y2="674.119" gradientUnits="userSpaceOnUse">
<stop stop-color="#672A10"/>
<stop offset="0.286458" stop-color="#C1AFA7"/>
<stop offset="0.65625" stop-color="#724B3A"/>
<stop offset="1" stop-color="#986955"/>
</linearGradient>
<linearGradient id="paint94_linear_7_559" x1="158.202" y1="657.778" x2="158.202" y2="680" gradientUnits="userSpaceOnUse">
<stop stop-color="#672A10"/>
<stop offset="0.286458" stop-color="#C1AFA7"/>
<stop offset="0.65625" stop-color="#724B3A"/>
<stop offset="1" stop-color="#986955"/>
</linearGradient>
<linearGradient id="paint95_linear_7_559" x1="280.867" y1="153.952" x2="280.867" y2="161.49" gradientUnits="userSpaceOnUse">
<stop stop-color="#672A10"/>
<stop offset="0.286458" stop-color="#C1AFA7"/>
<stop offset="0.65625" stop-color="#724B3A"/>
<stop offset="1" stop-color="#986955"/>
</linearGradient>
<linearGradient id="paint96_linear_7_559" x1="133.739" y1="0" x2="133.739" y2="24.9949" gradientUnits="userSpaceOnUse">
<stop stop-color="#672A10"/>
<stop offset="0.286458" stop-color="#C1AFA7"/>
<stop offset="0.65625" stop-color="#724B3A"/>
<stop offset="1" stop-color="#986955"/>
</linearGradient>
<linearGradient id="paint97_linear_7_559" x1="132.38" y1="295.566" x2="132.38" y2="322.999" gradientUnits="userSpaceOnUse">
<stop stop-color="#672A10"/>
<stop offset="0.286458" stop-color="#C1AFA7"/>
<stop offset="0.65625" stop-color="#724B3A"/>
<stop offset="1" stop-color="#986955"/>
</linearGradient>
<linearGradient id="paint98_linear_7_559" x1="20.0658" y1="151.403" x2="20.0658" y2="158.922" gradientUnits="userSpaceOnUse">
<stop stop-color="#672A10"/>
<stop offset="0.286458" stop-color="#C1AFA7"/>
<stop offset="0.65625" stop-color="#724B3A"/>
<stop offset="1" stop-color="#986955"/>
</linearGradient>
</defs>
</svg>
