<svg width="264" height="67" viewBox="0 0 264 67" fill="none" xmlns="http://www.w3.org/2000/svg">
<path d="M77.9916 2.49675C81.1937 2.49675 89.4223 4.97206 89.4223 14.1102V53.7894C89.4223 62.9275 81.1937 65.4028 77.9916 65.4028V65.9426H119.153V65.4028C115.951 65.4028 107.722 62.9275 107.722 53.7894V14.1102C107.722 4.97206 115.951 2.49675 119.153 2.49675V1.95703H77.9916V2.49675Z" fill="url(#paint0_linear_7_631)"/>
<path d="M208.625 1.95703H172.043V2.49675C181.184 2.49675 183.381 20.6986 177.814 33.9498L173.998 42.9763L158.695 14.1102C154.395 6.07012 162.809 2.49675 166.011 2.49675V1.95703H122.839V2.49675C126.041 2.49675 132.445 6.07012 136.746 14.1102L164.28 65.9612H164.82L178.354 33.9684C183.939 20.7172 199.484 2.51535 208.625 2.51535V1.97563V1.95703Z" fill="url(#paint1_linear_7_631)"/>
<path d="M230.109 0.858887C211.995 0.858887 197.176 15.6735 197.176 33.7822C197.176 51.891 211.995 66.7056 230.109 66.7056C248.223 66.7056 263.041 51.9841 263.041 33.7822C263.041 15.5804 248.316 0.858887 230.109 0.858887ZM246.026 61.2897C239.808 64.8631 227.651 55.3527 218.864 40.259C210.17 25.1652 207.973 9.81091 214.191 6.23754C220.409 2.66418 232.566 12.1745 241.353 27.2683C250.047 42.362 252.244 57.7163 246.026 61.2897Z" fill="url(#paint2_linear_7_631)"/>
<path d="M46.8087 1.88245H0.806885V2.42219C6.93177 2.42219 12.2375 7.81944 12.2375 14.0356V53.7148C12.2375 59.931 6.93177 65.3283 0.806885 65.3283V65.868H46.8087C65.0158 65.868 79.7416 51.5187 79.7416 33.8752C79.7416 16.2317 64.9227 1.88245 46.8087 1.88245ZM44.4258 65.9424C44.4258 45.4514 34.7823 33.8938 12.0886 33.8938C34.7823 33.8938 44.4258 22.3362 44.4258 1.84521C44.4258 22.3362 55.6516 33.8938 78.3454 33.8938C55.6516 33.8938 44.4258 45.4514 44.4258 65.9424Z" fill="url(#paint3_linear_7_631)"/>
<defs>
<linearGradient id="paint0_linear_7_631" x1="98.5724" y1="1.95703" x2="98.5724" y2="65.9426" gradientUnits="userSpaceOnUse">
<stop stop-color="#672A10"/>
<stop offset="0.286458" stop-color="#C1AFA7"/>
<stop offset="0.65625" stop-color="#724B3A"/>
<stop offset="1" stop-color="#986955"/>
</linearGradient>
<linearGradient id="paint1_linear_7_631" x1="165.732" y1="1.95703" x2="165.732" y2="65.9612" gradientUnits="userSpaceOnUse">
<stop stop-color="#672A10"/>
<stop offset="0.286458" stop-color="#C1AFA7"/>
<stop offset="0.65625" stop-color="#724B3A"/>
<stop offset="1" stop-color="#986955"/>
</linearGradient>
<linearGradient id="paint2_linear_7_631" x1="230.109" y1="0.858887" x2="230.109" y2="66.7056" gradientUnits="userSpaceOnUse">
<stop stop-color="#672A10"/>
<stop offset="0.286458" stop-color="#C1AFA7"/>
<stop offset="0.65625" stop-color="#724B3A"/>
<stop offset="1" stop-color="#986955"/>
</linearGradient>
<linearGradient id="paint3_linear_7_631" x1="40.2743" y1="1.84521" x2="40.2743" y2="65.9424" gradientUnits="userSpaceOnUse">
<stop stop-color="#672A10"/>
<stop offset="0.286458" stop-color="#C1AFA7"/>
<stop offset="0.65625" stop-color="#724B3A"/>
<stop offset="1" stop-color="#986955"/>
</linearGradient>
</defs>
</svg>
