<svg width="263" height="73" viewBox="0 0 263 73" fill="none" xmlns="http://www.w3.org/2000/svg">
<path d="M103.82 66.8744C104.564 66.5406 105.13 66.0592 105.518 65.4304C105.906 64.8016 106.107 64.0485 106.107 63.1712C106.107 62.4958 105.999 61.8903 105.782 61.3546C105.565 60.8189 105.239 60.3608 104.82 59.9882C104.394 59.6156 103.874 59.3361 103.254 59.142C102.633 58.9479 101.912 58.8547 101.105 58.8547H92.1636V72.7824H94.2885V67.4722H98.74L103.765 72.7824H106.464L101.353 67.3713C102.323 67.3557 103.145 67.1927 103.82 66.8744ZM94.2807 65.803V60.5316H100.756C101.284 60.5316 101.757 60.586 102.16 60.7024C102.563 60.8189 102.905 60.9819 103.176 61.1993C103.447 61.4167 103.649 61.6962 103.781 62.0222C103.913 62.3561 103.982 62.7365 103.982 63.179C103.982 63.6215 103.913 63.9786 103.773 64.3047C103.634 64.6308 103.424 64.9025 103.145 65.1276C102.866 65.3528 102.532 65.5236 102.129 65.6323C101.733 65.7487 101.276 65.803 100.756 65.803H94.2807Z" fill="#8A694F"/>
<path d="M120.632 63.2416C120.051 62.7602 119.345 62.3953 118.515 62.1392C117.685 61.883 116.747 61.751 115.7 61.751C114.839 61.751 114.048 61.8364 113.327 62.0072C112.606 62.178 111.97 62.4264 111.419 62.7525C110.869 63.0785 110.403 63.4667 110.031 63.9247C109.651 64.3828 109.364 64.9029 109.17 65.4774C108.976 66.0519 108.875 66.673 108.875 67.3407C108.875 68.0083 108.976 68.6682 109.17 69.2505C109.372 69.8328 109.659 70.3607 110.047 70.8187C110.434 71.2845 110.9 71.6727 111.45 71.991C112.001 72.3093 112.645 72.5577 113.381 72.7285C114.118 72.8993 114.925 72.9847 115.793 72.9847C117.08 72.9847 118.166 72.8605 119.05 72.6198C119.934 72.3714 120.656 72.0065 121.199 71.5174C121.741 71.0283 122.129 70.415 122.37 69.6852L120.423 69.3437C120.26 69.7939 119.989 70.1821 119.609 70.5004C119.221 70.8187 118.725 71.0594 118.096 71.2147C117.476 71.3777 116.708 71.4553 115.793 71.4553C115.134 71.4553 114.537 71.3932 114.002 71.2768C113.474 71.1603 113.009 70.9818 112.613 70.7411C112.218 70.5004 111.885 70.2209 111.629 69.8871C111.373 69.5533 111.171 69.1729 111.039 68.7303C110.962 68.4819 110.9 68.2102 110.861 67.9152H122.37C122.393 67.7987 122.416 67.6667 122.416 67.5348C122.416 67.4028 122.424 67.2708 122.424 67.1388C122.424 66.3314 122.269 65.5939 121.966 64.9418C121.664 64.2819 121.214 63.7151 120.632 63.2416ZM110.915 66.4246C110.938 66.2693 110.985 66.1063 111.031 65.951C111.148 65.524 111.342 65.1514 111.605 64.8175C111.869 64.4837 112.195 64.2042 112.582 63.9713C112.97 63.7384 113.42 63.5599 113.947 63.4434C114.467 63.327 115.064 63.2649 115.723 63.2649C116.476 63.2649 117.143 63.3503 117.724 63.521C118.298 63.6918 118.794 63.9325 119.198 64.2431C119.601 64.5536 119.911 64.9262 120.121 65.3688C120.283 65.6871 120.384 66.0364 120.438 66.4246H110.923H110.915Z" fill="#8A694F"/>
<path d="M135.119 67.0146C134.445 66.7739 133.545 66.6109 132.413 66.5177L129.83 66.378C129.086 66.3159 128.496 66.2149 128.054 66.0985C127.612 65.982 127.294 65.819 127.108 65.6094C126.922 65.3998 126.829 65.1358 126.829 64.802C126.829 64.4681 126.976 64.1887 127.263 63.9558C127.558 63.7228 127.985 63.5443 128.559 63.4278C129.125 63.3114 129.838 63.2493 130.683 63.2493C131.529 63.2493 132.312 63.3269 132.909 63.4744C133.506 63.6219 133.972 63.8626 134.297 64.1731C134.631 64.4837 134.832 64.8874 134.91 65.3765L136.795 65.097C136.647 64.3284 136.329 63.6996 135.833 63.2105C135.337 62.7214 134.662 62.3487 133.809 62.108C132.956 61.8674 131.909 61.7432 130.676 61.7432C129.443 61.7432 128.396 61.8751 127.535 62.1313C126.674 62.3875 126.015 62.7602 125.565 63.2337C125.115 63.7073 124.89 64.2896 124.89 64.965C124.89 65.5783 125.053 66.0907 125.371 66.5099C125.689 66.9292 126.185 67.2552 126.868 67.4959C127.55 67.7366 128.442 67.8996 129.543 67.9928L132.165 68.1558C132.894 68.2101 133.468 68.3033 133.886 68.4353C134.305 68.5673 134.608 68.7381 134.794 68.9554C134.98 69.1728 135.073 69.4523 135.073 69.8094C135.073 70.0734 134.988 70.314 134.825 70.5159C134.662 70.7177 134.406 70.8963 134.057 71.0438C133.716 71.1913 133.281 71.3 132.754 71.3854C132.227 71.4708 131.606 71.5019 130.877 71.5019C129.536 71.5019 128.496 71.3078 127.76 70.9274C127.015 70.5392 126.581 69.9492 126.449 69.1573L124.518 69.4523C124.689 70.2597 125.03 70.9274 125.534 71.4553C126.038 71.9832 126.736 72.3636 127.62 72.6198C128.504 72.8682 129.605 73.0002 130.916 73.0002C132.227 73.0002 133.398 72.8682 134.305 72.6043C135.212 72.3403 135.895 71.9521 136.36 71.4397C136.826 70.9274 137.058 70.314 137.058 69.5998C137.058 68.9632 136.903 68.4353 136.593 68.0161C136.283 67.5968 135.786 67.2708 135.112 67.0301L135.119 67.0146Z" fill="#8A694F"/>
<path d="M142.371 58.2881H140.207V60.2988H142.371V58.2881Z" fill="#8A694F"/>
<path d="M142.293 61.968H140.285V72.7903H142.293V61.968Z" fill="#8A694F"/>
<path d="M157.315 64.1497C157.105 63.8547 156.857 63.5907 156.578 63.3578C156.012 62.8532 155.322 62.4573 154.523 62.17C153.724 61.8828 152.825 61.743 151.832 61.743C151.08 61.743 150.374 61.8362 149.722 62.0147C149.071 62.1933 148.497 62.4495 148.001 62.7678C147.504 63.0939 147.078 63.4898 146.729 63.9478C146.38 64.4137 146.116 64.9338 145.93 65.5083C145.744 66.0828 145.659 66.7039 145.659 67.3715C145.659 68.0392 145.752 68.668 145.93 69.2425C146.108 69.817 146.372 70.3294 146.713 70.7952C147.055 71.261 147.481 71.657 147.985 71.9753C148.489 72.3013 149.063 72.5498 149.707 72.7206C150.351 72.8914 151.056 72.9768 151.824 72.9768C152.817 72.9768 153.716 72.8448 154.515 72.5653C155.314 72.2936 156.004 71.9054 156.57 71.4008C156.873 71.1368 157.136 70.8418 157.369 70.5235L157.509 72.7749H159.316V57.8535H157.307V64.1419L157.315 64.1497ZM156.718 69.491C156.322 70.0965 155.756 70.5623 155.027 70.9039C154.298 71.2455 153.429 71.4085 152.421 71.4085C151.809 71.4085 151.258 71.3464 150.754 71.2222C150.25 71.098 149.815 70.9194 149.443 70.6865C149.071 70.4536 148.761 70.1742 148.497 69.8403C148.233 69.5065 148.047 69.1338 147.923 68.7146C147.799 68.2954 147.737 67.8529 147.737 67.3715C147.737 66.8902 147.799 66.4477 147.923 66.0285C148.047 65.6092 148.241 65.2366 148.497 64.9028C148.753 64.5689 149.071 64.2894 149.443 64.0565C149.815 63.8236 150.25 63.6451 150.754 63.5209C151.258 63.3966 151.816 63.3345 152.421 63.3345C153.173 63.3345 153.856 63.4355 154.461 63.6295C155.066 63.8236 155.578 64.1109 156.004 64.468C156.431 64.8251 156.756 65.2521 156.981 65.749C157.206 66.2458 157.323 66.797 157.323 67.3871C157.323 68.1867 157.121 68.8854 156.725 69.4832L156.718 69.491Z" fill="#8A694F"/>
<path d="M174.446 63.2416C173.864 62.7602 173.158 62.3953 172.329 62.1392C171.499 61.883 170.56 61.751 169.513 61.751C168.653 61.751 167.862 61.8364 167.14 62.0072C166.419 62.178 165.783 62.4264 165.233 62.7525C164.682 63.0785 164.217 63.4667 163.844 63.9247C163.464 64.3828 163.177 64.9029 162.976 65.4774C162.774 66.0519 162.681 66.673 162.681 67.3407C162.681 68.0083 162.782 68.6682 162.976 69.2505C163.177 69.8328 163.464 70.3607 163.852 70.8187C164.24 71.2845 164.705 71.6727 165.256 71.991C165.807 72.3093 166.45 72.5577 167.187 72.7285C167.924 72.8993 168.73 72.9847 169.599 72.9847C170.886 72.9847 171.972 72.8605 172.856 72.6198C173.74 72.3714 174.461 72.0065 175.004 71.5174C175.547 71.0283 175.935 70.415 176.175 69.6852L174.229 69.3437C174.066 69.7939 173.794 70.1821 173.414 70.5004C173.027 70.8187 172.53 71.0594 171.902 71.2147C171.282 71.3777 170.514 71.4553 169.599 71.4553C168.94 71.4553 168.342 71.3932 167.807 71.2768C167.28 71.1603 166.815 70.9818 166.419 70.7411C166.024 70.5004 165.69 70.2209 165.434 69.8871C165.178 69.5533 164.977 69.1729 164.845 68.7303C164.767 68.4819 164.705 68.2102 164.666 67.9152H176.175C176.198 67.7987 176.222 67.6667 176.222 67.5348C176.222 67.4028 176.229 67.2708 176.229 67.1388C176.229 66.3314 176.074 65.5939 175.772 64.9418C175.469 64.2896 175.027 63.7151 174.438 63.2416H174.446ZM164.729 66.4246C164.752 66.2693 164.798 66.1063 164.845 65.951C164.961 65.524 165.155 65.1514 165.419 64.8175C165.682 64.4837 166.008 64.2042 166.388 63.9713C166.768 63.7384 167.226 63.5599 167.753 63.4434C168.273 63.327 168.87 63.2649 169.529 63.2649C170.281 63.2649 170.948 63.3503 171.53 63.521C172.104 63.6918 172.6 63.9325 173.003 64.2431C173.407 64.5536 173.717 64.9262 173.926 65.3688C174.089 65.6871 174.19 66.0364 174.244 66.4246H164.729Z" fill="#8A694F"/>
<path d="M189.623 62.3255C188.871 61.9373 187.956 61.751 186.878 61.751C186.095 61.751 185.358 61.8597 184.652 62.0693C183.947 62.2789 183.326 62.5817 182.783 62.9776C182.241 63.3735 181.791 63.8393 181.434 64.3983L181.294 61.9684H179.503V72.7906H181.512V67.5813C181.512 66.9603 181.628 66.3935 181.861 65.8811C182.093 65.3688 182.427 64.934 182.853 64.5691C183.28 64.2042 183.792 63.9248 184.381 63.7229C184.97 63.521 185.606 63.4279 186.296 63.4279C187.088 63.4279 187.754 63.5676 188.297 63.8549C188.832 64.1421 189.243 64.5381 189.523 65.0505C189.802 65.5628 189.941 66.1606 189.941 66.8516V72.7984H191.95V66.4556C191.95 65.5007 191.748 64.67 191.353 63.9713C190.957 63.2649 190.383 62.7214 189.623 62.341V62.3255Z" fill="#8A694F"/>
<path d="M205.684 70.2363C205.296 70.6322 204.792 70.9272 204.172 71.1213C203.552 71.3154 202.815 71.4085 201.969 71.4085C201.349 71.4085 200.783 71.3464 200.271 71.23C199.759 71.1135 199.317 70.935 198.929 70.7098C198.542 70.4847 198.224 70.2052 197.976 69.8714C197.72 69.5375 197.534 69.1649 197.402 68.7457C197.27 68.3264 197.2 67.8762 197.2 67.3793C197.2 66.8591 197.27 66.3933 197.402 65.9741C197.534 65.5549 197.727 65.1822 197.976 64.8484C198.224 64.5146 198.542 64.2351 198.922 64.0022C199.302 63.7693 199.744 63.5907 200.256 63.4743C200.767 63.3578 201.341 63.2957 201.977 63.2957C202.815 63.2957 203.544 63.3966 204.164 63.6063C204.785 63.8159 205.289 64.1109 205.661 64.4991C206.041 64.8872 206.289 65.3841 206.405 65.9819L208.391 65.6015C208.22 64.763 207.848 64.0565 207.29 63.482C206.723 62.9075 205.994 62.465 205.103 62.17C204.211 61.875 203.164 61.7197 201.969 61.7197C201.093 61.7197 200.302 61.8051 199.581 61.9759C198.867 62.1467 198.231 62.3951 197.681 62.7135C197.13 63.0318 196.665 63.4199 196.293 63.8857C195.913 64.3515 195.626 64.8717 195.424 65.454C195.222 66.0362 195.129 66.6728 195.129 67.3638C195.129 68.0547 195.23 68.6836 195.424 69.2658C195.626 69.8403 195.913 70.3605 196.293 70.8108C196.673 71.261 197.13 71.6492 197.681 71.9753C198.231 72.3013 198.867 72.542 199.581 72.7128C200.294 72.8758 201.093 72.9612 201.969 72.9612C203.148 72.9612 204.187 72.8137 205.087 72.5265C205.987 72.2315 206.723 71.7967 207.29 71.2222C207.856 70.6477 208.243 69.9412 208.445 69.1028L206.46 68.7224C206.328 69.3202 206.072 69.817 205.684 70.213V70.2363Z" fill="#8A694F"/>
<path d="M222.334 63.2416C221.753 62.7602 221.047 62.3953 220.217 62.1392C219.387 61.883 218.449 61.751 217.402 61.751C216.541 61.751 215.75 61.8364 215.029 62.0072C214.308 62.178 213.672 62.4264 213.121 62.7525C212.571 63.0785 212.105 63.4667 211.733 63.9247C211.353 64.3828 211.066 64.9029 210.865 65.4774C210.663 66.0519 210.57 66.673 210.57 67.3407C210.57 68.0083 210.671 68.6682 210.865 69.2505C211.066 69.8328 211.353 70.3607 211.741 70.8187C212.129 71.2845 212.594 71.6727 213.145 71.991C213.695 72.3093 214.339 72.5577 215.076 72.7285C215.812 72.8993 216.619 72.9847 217.487 72.9847C218.775 72.9847 219.861 72.8605 220.745 72.6198C221.629 72.3714 222.35 72.0065 222.893 71.5174C223.436 71.0283 223.823 70.415 224.064 69.6852L222.117 69.3437C221.954 69.7939 221.683 70.1821 221.303 70.5004C220.915 70.8187 220.419 71.0594 219.791 71.2147C219.17 71.3777 218.403 71.4553 217.487 71.4553C216.828 71.4553 216.231 71.3932 215.696 71.2768C215.169 71.1603 214.703 70.9818 214.308 70.7411C213.912 70.5004 213.579 70.2209 213.323 69.8871C213.067 69.5533 212.865 69.1729 212.734 68.7303C212.656 68.4819 212.594 68.2102 212.555 67.9152H224.064C224.087 67.7987 224.11 67.6667 224.11 67.5348C224.11 67.4028 224.118 67.2708 224.118 67.1388C224.118 66.3314 223.963 65.5939 223.661 64.9418C223.358 64.2896 222.916 63.7151 222.327 63.2416H222.334ZM212.617 66.4246C212.64 66.2693 212.687 66.1063 212.734 65.951C212.85 65.524 213.044 65.1514 213.307 64.8175C213.571 64.4837 213.897 64.2042 214.277 63.9713C214.657 63.7384 215.114 63.5599 215.642 63.4434C216.161 63.327 216.758 63.2649 217.418 63.2649C218.17 63.2649 218.837 63.3503 219.419 63.521C219.992 63.6918 220.489 63.9325 220.892 64.2431C221.295 64.5536 221.605 64.9262 221.815 65.3688C221.978 65.6871 222.079 66.0364 222.133 66.4246H212.617Z" fill="#8A694F"/>
<path d="M165.171 43.6152C163.015 43.6152 157.455 41.9461 157.455 35.7663V8.95907C157.455 2.77934 163.008 1.1102 165.171 1.1102V0.737549H137.4V1.1102C139.564 1.1102 145.116 2.77934 145.116 8.95907V35.7663C145.116 41.9461 139.564 43.6152 137.4 43.6152V43.9879H165.171V43.6152Z" fill="#8A694F"/>
<path d="M195.982 43.9879L205.118 22.3666C208.879 13.4076 219.372 1.11801 225.545 1.11801V0.745361H200.86V1.11801C207.033 1.11801 208.515 13.4154 204.746 22.3666L202.171 28.4687L191.849 8.96688C188.948 3.53245 194.625 1.11801 196.789 1.11801V0.745361H167.66V1.11801C169.816 1.11801 174.144 3.52469 177.044 8.96688L195.618 43.9957H195.99L195.982 43.9879Z" fill="#8A694F"/>
<path d="M240.024 0C227.802 0 217.806 10.0071 217.806 22.2424C217.806 34.4776 227.802 44.4847 240.024 44.4847C252.246 44.4847 262.243 34.5397 262.243 22.2424C262.243 9.94501 252.309 0 240.024 0ZM250.765 40.8359C246.57 43.2426 238.365 36.8222 232.44 26.6287C226.577 16.4353 225.096 6.05551 229.291 3.64883C233.487 1.24216 241.692 7.66255 247.617 17.856C253.48 28.0494 254.961 38.4292 250.765 40.8359Z" fill="#8A694F"/>
<path d="M114.747 0.69873H85.3159V1.07138C89.4494 1.07138 93.0323 4.71245 93.0323 8.92025V22.32C108.256 22.289 114.739 14.4944 114.747 0.69873Z" fill="#8A694F"/>
<path d="M93.0323 22.3201V35.7198C93.0323 39.9199 89.4572 43.5687 85.3159 43.5687V43.9413H114.747C114.739 30.1456 108.256 22.3589 93.0323 22.3201Z" fill="#8A694F"/>
<path d="M137.64 22.32C122.346 22.32 114.769 30.1145 114.754 43.9413H116.359C128.636 43.9413 138.578 34.2447 138.578 22.32C138.578 10.3953 128.574 0.69873 116.359 0.69873H114.754C114.769 14.5255 122.346 22.32 137.64 22.32Z" fill="#8A694F"/>
<path d="M27.5933 0L27.9112 13.85C28.0353 14.6963 28.1982 15.5114 28.3843 16.3111L28.7565 0C28.679 0 28.6092 0 28.5316 0H27.5933Z" fill="#8A694F"/>
<path d="M54.334 10.5117C54.0548 10.2322 53.7601 9.96049 53.4731 9.69653L35.3647 28.5074L54.3417 10.5117H54.334Z" fill="#8A694F"/>
<path d="M50.96 35.4792C49.8898 35.6034 48.8661 35.7742 47.8657 35.9838L65.2917 36.3798C65.2917 35.9683 65.2839 35.5646 65.2684 35.1609L50.9678 35.487L50.96 35.4792Z" fill="#8A694F"/>
<path d="M54.1097 62.698C54.4121 62.4107 54.7068 62.1157 54.9938 61.813L35.0552 42.9011L54.1019 62.698H54.1097Z" fill="#8A694F"/>
<path d="M27.5239 55.4314L27.1206 72.9924H28.3692L28.0357 58.5678C27.9116 57.4887 27.7333 56.4406 27.5161 55.4314H27.5239Z" fill="#8A694F"/>
<path d="M0.357422 63.5904L20.5597 42.6057L0.357422 61.766V63.5904Z" fill="#8A694F"/>
<path d="M0.357422 35.7353L5.95668 35.6111C6.8175 35.4869 7.65506 35.3238 8.4616 35.1375L0.357422 34.9512V35.7353Z" fill="#8A694F"/>
<path d="M0.357422 6.90161V8.75708L20.8622 28.2046L0.357422 6.90161Z" fill="#8A694F"/>
<path d="M48.6185 5.93133C48.285 5.71395 47.9593 5.50434 47.618 5.30249L33.7905 27.1722L48.6185 5.93133Z" fill="#8A694F"/>
<path d="M42.0726 32.9871L64.5006 28.9501C64.4231 28.5541 64.33 28.1582 64.2292 27.77L41.7856 32.8706C41.8787 32.9172 41.9795 32.956 42.0803 32.9948L42.0726 32.9871Z" fill="#8A694F"/>
<path d="M36.4033 41.3408L36.4499 41.3718L59.0097 56.8832C59.2501 56.5417 59.475 56.1923 59.6922 55.8429L36.4576 41.3641L36.4033 41.333V41.3408Z" fill="#8A694F"/>
<path d="M30.5562 49.6551L34.7285 72.472C35.1395 72.4021 35.5505 72.3245 35.9615 72.2468L30.688 49.3601C30.6415 49.4533 30.6027 49.5542 30.5639 49.6551H30.5562Z" fill="#8A694F"/>
<path d="M22.0486 44.0574L1.86182 72.9841H3.77735L22.0564 44.0651L22.0486 44.0574Z" fill="#8A694F"/>
<path d="M13.5335 38.1729L0.357422 40.5485V41.3792L13.8592 38.3048C13.7506 38.2583 13.6421 38.2194 13.5335 38.1729Z" fill="#8A694F"/>
<path d="M0.357422 16.5906V17.8327L19.5205 29.773L0.357422 16.5906Z" fill="#8A694F"/>
<path d="M25.3377 21.3263L21.4446 0H20.2271L25.2136 21.6446C25.2602 21.5359 25.299 21.4272 25.3377 21.3263Z" fill="#8A694F"/>
<path d="M23.7935 24.5015L14.6114 0H13.231L23.7548 24.5792C23.7548 24.5792 23.7858 24.5248 23.8013 24.5015H23.7935Z" fill="#8A694F"/>
<path d="M32.5106 25.6431L42.9801 2.9349C42.6233 2.77963 42.2589 2.63213 41.8944 2.48462L32.4873 25.612C32.4873 25.612 32.5028 25.6353 32.5106 25.6431Z" fill="#8A694F"/>
<path d="M38.9624 31.4652L62.5848 22.7391C62.4374 22.3664 62.2746 21.9938 62.1117 21.6289L38.9004 31.4186C38.9004 31.4186 38.9469 31.4419 38.9702 31.4652H38.9624Z" fill="#8A694F"/>
<path d="M38.0557 40.1222L62.2209 51.0997C62.3915 50.7271 62.5543 50.3467 62.7017 49.9585L38.0867 40.0989C38.0867 40.0989 38.0634 40.1144 38.0557 40.1222Z" fill="#8A694F"/>
<path d="M32.1069 46.5652L41.1805 70.7717C41.576 70.632 41.9637 70.4767 42.3515 70.3215L32.1457 46.4954C32.1457 46.4954 32.1146 46.5419 32.0991 46.573L32.1069 46.5652Z" fill="#8A694F"/>
<path d="M23.3288 45.6489L10.7266 72.9841H12.2621L23.3598 45.6877C23.3598 45.6877 23.3443 45.6645 23.3288 45.6489Z" fill="#8A694F"/>
<path d="M0.357422 46.7132L16.8217 39.7648C16.8217 39.7648 16.7674 39.7338 16.7364 39.7183L0.357422 45.7738V46.7209V46.7132Z" fill="#8A694F"/>
<path d="M17.8919 31.0073L0.357422 23.0342V24.0124L17.8609 31.0228C17.8609 31.0228 17.8842 31.0073 17.8997 30.9995L17.8919 31.0073Z" fill="#8A694F"/>
<path d="M30.8587 23.019L36.0392 0.768842C35.6592 0.683444 35.2714 0.613572 34.8836 0.543701L30.7656 22.8482C30.7966 22.9103 30.8277 22.9646 30.8587 23.0267V23.019Z" fill="#8A694F"/>
<path d="M36.8217 30.0286L59.0947 16.2174C58.8775 15.8836 58.6448 15.5575 58.4044 15.2314L36.814 30.0209C36.814 30.0209 36.814 30.0209 36.8217 30.0209V30.0286Z" fill="#8A694F"/>
<path d="M40.7539 38.4601L64.5236 43.91C64.6089 43.5063 64.6865 43.1026 64.7485 42.6989L40.94 38.3591C40.878 38.3979 40.8159 38.429 40.7539 38.4523V38.4601Z" fill="#8A694F"/>
<path d="M33.5659 44.4226L48.0371 67.4257C48.3938 67.2084 48.7428 66.9755 49.0918 66.7426L33.5659 44.4148C33.5659 44.4148 33.5581 44.4148 33.5581 44.4226H33.5659Z" fill="#8A694F"/>
<path d="M25.0109 48.3511L19.2798 72.9923H20.5982L25.1117 48.5452C25.0729 48.4831 25.0497 48.4209 25.0109 48.3511Z" fill="#8A694F"/>
<path d="M18.9389 41.1775L0.357422 52.6985V53.9251L18.9544 41.193L18.9389 41.1775Z" fill="#8A694F"/>
<path d="M15.2396 32.6606L0.357422 29.2446V30.0753L15.0613 32.7537C15.1156 32.7227 15.1776 32.6916 15.2396 32.6606Z" fill="#8A694F"/>
<path d="M22.3434 26.6598L5.56115 0H3.79297L22.3356 26.6753C22.3356 26.6753 22.3434 26.6675 22.3434 26.6598Z" fill="#8A694F"/>
<path d="M24.0107 0L26.2985 18.4693C26.3838 18.151 26.4691 17.8327 26.5466 17.5066L25.1817 0H24.0029H24.0107Z" fill="#8A694F"/>
<path d="M51.6268 8.10501C51.3166 7.85658 51.0064 7.61591 50.6962 7.37524L34.6196 27.8009L51.6268 8.09725V8.10501Z" fill="#8A694F"/>
<path d="M45.7338 34.1749L65.0907 32.6921C65.052 32.2884 65.0054 31.8847 64.9434 31.4888L44.8574 33.942C45.1444 34.0274 45.4468 34.1051 45.7415 34.1749H45.7338Z" fill="#8A694F"/>
<path d="M56.6755 59.9572C56.947 59.6389 57.2106 59.3206 57.4666 58.9868L35.7598 42.1633L56.6755 59.9572Z" fill="#8A694F"/>
<path d="M29.3613 53.2967L30.8813 72.915C31.3001 72.8917 31.7112 72.8607 32.1299 72.8141L29.6017 52.4194C29.5164 52.7067 29.4311 53.0017 29.3613 53.2967Z" fill="#8A694F"/>
<path d="M0.357422 67.5577V69.9256L21.3042 43.2969L0.357422 67.5577Z" fill="#8A694F"/>
<path d="M0.357422 38.4761L10.6641 37.2184C10.3461 37.133 10.0204 37.0476 9.68692 36.97L0.357422 37.6842V38.4761Z" fill="#8A694F"/>
<path d="M0.357422 12.0952V13.5858L20.1564 28.942L0.357422 12.0952Z" fill="#8A694F"/>
<path d="M33.0687 26.3722L45.5003 4.11434C45.1513 3.92802 44.8023 3.75722 44.4456 3.58643L33.0532 26.3567C33.0532 26.3567 33.061 26.3645 33.061 26.3722H33.0687Z" fill="#8A694F"/>
<path d="M40.0869 32.0783L63.5541 25.4095C63.4301 25.0213 63.306 24.6409 63.1664 24.2605L39.9551 32.0084C40.0016 32.0317 40.0404 32.055 40.0869 32.0783Z" fill="#8A694F"/>
<path d="M37.3032 40.6806L60.9488 53.7C61.1505 53.3351 61.3443 52.9702 61.5227 52.5976L37.3187 40.6729C37.3187 40.6729 37.3032 40.6729 37.3032 40.6884V40.6806Z" fill="#8A694F"/>
<path d="M31.4868 47.6754L38.4045 71.649C38.8077 71.5325 39.211 71.4161 39.6065 71.2919L31.5566 47.5356C31.5333 47.5822 31.5101 47.621 31.4868 47.6676V47.6754Z" fill="#8A694F"/>
<path d="M22.762 44.9041L7.07324 72.9845H8.74061L22.7775 44.9273C22.7775 44.9273 22.7775 44.9118 22.762 44.9041Z" fill="#8A694F"/>
<path d="M15.5886 39.0967L0.357422 43.4287V44.3137L15.736 39.1743C15.6895 39.151 15.6429 39.12 15.5886 39.0967Z" fill="#8A694F"/>
<path d="M18.6364 30.4404L0.357422 20.3789V21.4503L18.6287 30.4559L18.6442 30.4404H18.6364Z" fill="#8A694F"/>
<path d="M24.422 23.3525L17.6828 0H16.3799L24.3445 23.4923C24.3755 23.4457 24.3988 23.3991 24.422 23.3448V23.3525Z" fill="#8A694F"/>
<path d="M23.0571 25.6661L10.3773 0H8.8418L23.0261 25.6971C23.0261 25.6971 23.0416 25.6738 23.0493 25.6661H23.0571Z" fill="#8A694F"/>
<path d="M31.7428 24.5171L39.6066 1.69247C39.2343 1.57602 38.8621 1.45957 38.4821 1.35864L31.6963 24.4472C31.6963 24.4472 31.7196 24.4938 31.7428 24.5249V24.5171Z" fill="#8A694F"/>
<path d="M37.8152 30.7357L61.0343 19.4321C60.8481 19.075 60.6465 18.7256 60.4526 18.384L37.7842 30.7124C37.7842 30.7124 37.7997 30.728 37.8152 30.7357Z" fill="#8A694F"/>
<path d="M39.2036 39.3529L63.5472 47.621C63.679 47.2329 63.7953 46.8369 63.9039 46.4332L39.2967 39.2986C39.2967 39.2986 39.2346 39.3374 39.2114 39.3529H39.2036Z" fill="#8A694F"/>
<path d="M32.8521 45.4087L44.6555 69.2969C45.0277 69.1183 45.4077 68.9243 45.7722 68.7302L32.8831 45.3699C32.8831 45.3699 32.8676 45.3932 32.8598 45.4009L32.8521 45.4087Z" fill="#8A694F"/>
<path d="M24.1121 46.7981L15.0928 72.9843H16.4965L24.1741 46.8835C24.1741 46.8835 24.1431 46.8214 24.1198 46.7981H24.1121Z" fill="#8A694F"/>
<path d="M17.9229 40.4634L0.357422 49.011V50.0668L17.9695 40.4867C17.9695 40.4867 17.9462 40.4634 17.9307 40.4634H17.9229Z" fill="#8A694F"/>
<path d="M17 31.9586L1 27V27.7942L16.9243 32C16.9243 32 16.9773 31.9724 17 31.9586Z" fill="#8A694F"/>
<path d="M32.5024 0.217331C32.1146 0.17075 31.7269 0.139696 31.3391 0.108643L29.6562 20.4412C29.7105 20.5887 29.7726 20.7284 29.8346 20.8759L32.5024 0.217331Z" fill="#8A694F"/>
<path d="M56.9157 13.3065C56.6598 12.996 56.4038 12.701 56.1324 12.3982L36.0542 29.307L56.9079 13.3065H56.9157Z" fill="#8A694F"/>
<path d="M42.9873 37.4434L65.0896 40.2538C65.1362 39.8501 65.1672 39.4386 65.1982 39.0272L43.4604 37.2571C43.2975 37.3192 43.1424 37.3813 42.9873 37.4434Z" fill="#8A694F"/>
<path d="M51.1307 65.2755C51.4642 65.0193 51.7899 64.7631 52.1078 64.4914L34.2554 43.5999L51.1307 65.2755Z" fill="#8A694F"/>
<path d="M23.1499 72.9845H24.4218L26.2365 51.0527C26.1822 50.8896 26.1124 50.7344 26.0503 50.5791L23.1577 72.9923L23.1499 72.9845Z" fill="#8A694F"/>
<path d="M0.357422 56.7591V58.2264L19.7919 41.861L19.7842 41.8533L0.357422 56.7591Z" fill="#8A694F"/>
<path d="M13.0759 33.6778L0.357422 32.063V32.8626L12.6261 33.8641C12.7735 33.8098 12.9286 33.7477 13.0759 33.6856V33.6778Z" fill="#8A694F"/>
<path d="M0.357422 0.13208V2.56981L21.6687 27.5139L0.357422 0.13208Z" fill="#8A694F"/>
</svg>
