<svg width="286" height="323" viewBox="0 0 286 323" fill="none" xmlns="http://www.w3.org/2000/svg">
<path d="M123.469 229.347C123.469 181.702 96.5869 154.827 48.9282 154.827C96.5869 154.827 123.469 127.952 123.469 80.3076C123.469 127.952 150.352 154.827 198.011 154.827C150.352 154.827 123.469 181.702 123.469 229.347Z" fill="url(#paint0_linear_7_560)"/>
<path d="M38.5773 190.691L0.897156 206.697V202.528L36.4178 189.314H36.4364C37.1811 189.779 37.8699 190.226 38.5773 190.691Z" fill="url(#paint1_linear_7_560)"/>
<path d="M30.7583 186.001L0.897156 196.051V192.143L27.8727 184.419H27.8913C28.8594 184.922 29.8089 185.461 30.7583 186.001Z" fill="url(#paint2_linear_7_560)"/>
<path d="M93.5524 248.405L71.7895 322.905H65.6088L92.0072 245.762C92.5471 246.636 93.0498 247.511 93.5524 248.386V248.405Z" fill="url(#paint3_linear_7_560)"/>
<path d="M82.9037 232.008L37.7396 322.905H30.4046L81.7122 230.407C82.1218 230.929 82.5127 231.45 82.885 231.989L82.9037 232.008Z" fill="url(#paint4_linear_7_560)"/>
<path d="M77.4118 224.973L15.9208 322.924H7.52472L76.332 223.652C76.7229 224.08 77.0953 224.526 77.4118 224.973Z" fill="url(#paint5_linear_7_560)"/>
<path d="M98.8954 258.492C99.5656 259.869 100.236 261.246 100.85 262.642L89.7918 322.924H84.002L98.8954 258.492Z" fill="url(#paint6_linear_7_560)"/>
<path d="M87.3344 238.336L53.1914 322.905H46.4522L86.0313 236.438C86.4781 237.052 86.9063 237.703 87.3344 238.336Z" fill="url(#paint7_linear_7_560)"/>
<path d="M17.5219 179.245L0.897156 183.061V179.394L12.9608 177.198C14.4873 177.849 16.0139 178.538 17.5219 179.227V179.245Z" fill="url(#paint8_linear_7_560)"/>
<path d="M66.3907 212.857L0.897156 281.384V273.288L65.2737 211.778C65.646 212.113 66.0183 212.448 66.372 212.838L66.3907 212.857Z" fill="url(#paint9_linear_7_560)"/>
<path d="M60.3588 207.162L0.897156 257.617V251.159L59.186 206.138C59.5956 206.473 59.9865 206.827 60.3588 207.181V207.162Z" fill="url(#paint10_linear_7_560)"/>
<path d="M54.1223 201.876L0.897156 238.596V233.162L52.7819 200.76C53.2473 201.132 53.6941 201.467 54.1409 201.876H54.1223Z" fill="url(#paint11_linear_7_560)"/>
<path d="M46.8804 196.33L0.897156 221.53V216.84L45.2421 195.121C45.8006 195.511 46.3405 195.902 46.8804 196.33Z" fill="url(#paint12_linear_7_560)"/>
<path d="M71.8453 218.534L0.897156 309.394V298.916L70.7842 217.38C71.1565 217.77 71.5289 218.161 71.8453 218.534Z" fill="url(#paint13_linear_7_560)"/>
<path d="M109.693 285.497V285.553L106.64 322.906H101.055L106.901 277.271C107.906 279.969 108.837 282.687 109.693 285.478V285.497Z" fill="url(#paint14_linear_7_560)"/>
<path d="M0.897156 101.934L44.8698 122.053C44.274 122.481 43.6411 122.909 43.0453 123.3L0.897156 106.27V101.934Z" fill="url(#paint15_linear_7_560)"/>
<path d="M0.897156 0.614258L74.34 95.6062C74.0049 95.997 73.6884 96.3692 73.3347 96.7415L0.897156 11.3716V0.614258Z" fill="url(#paint16_linear_7_560)"/>
<path d="M111.853 24.2877C110.959 27.5075 109.991 30.6342 108.948 33.7422L104.797 0H109.972L111.853 24.2691V24.2877Z" fill="url(#paint17_linear_7_560)"/>
<path d="M0.897156 90.1716L50.6782 117.772C50.1941 118.163 49.7101 118.535 49.2075 118.889L0.897156 94.9175V90.1716Z" fill="url(#paint18_linear_7_560)"/>
<path d="M63.5237 0L90.7599 73.1981C90.3503 73.8867 89.9035 74.594 89.4381 75.2826L57.4547 0H63.5237Z" fill="url(#paint19_linear_7_560)"/>
<path d="M0.897156 129.404L23.7212 134.671C22.4553 135.322 21.1893 135.955 19.9048 136.569L0.897156 133.089V129.404Z" fill="url(#paint20_linear_7_560)"/>
<path d="M44.9256 0L85.0818 81.8896C84.6909 82.4107 84.3185 82.9504 83.9276 83.4715L38.1678 0H44.9256Z" fill="url(#paint21_linear_7_560)"/>
<path d="M0.897156 53.5073L63.3375 107.015C62.9652 107.387 62.5928 107.703 62.2391 108.02L0.897156 60.1329V53.5073Z" fill="url(#paint22_linear_7_560)"/>
<path d="M93.5338 0L102.656 50.2504C102.042 51.7207 101.371 53.1724 100.701 54.6241L88.1908 0H93.5338Z" fill="url(#paint23_linear_7_560)"/>
<path d="M0.897156 115.948L35.8965 127.915C35.0774 128.418 34.2769 128.902 33.4391 129.367L0.915772 119.875V115.948H0.897156Z" fill="url(#paint24_linear_7_560)"/>
<path d="M0.897156 73.4214L57.2685 112.468C56.8589 112.84 56.4493 113.156 56.0398 113.51L0.897156 78.9117V73.4214Z" fill="url(#paint25_linear_7_560)"/>
<path d="M23.7585 0L79.5713 89.2969C79.2176 89.7249 78.8825 90.1716 78.5287 90.5997L15.9953 0H23.7585Z" fill="url(#paint26_linear_7_560)"/>
<path d="M0.897156 30.5598L68.8108 101.618C68.4943 101.971 68.1592 102.306 67.8055 102.66L0.897156 38.7674V30.5598Z" fill="url(#paint27_linear_7_560)"/>
<path d="M77.0208 0L95.5816 64.8231C95.0976 65.7536 94.5949 66.6842 94.0551 67.5961L71.3055 0H77.0208Z" fill="url(#paint28_linear_7_560)"/>
<path d="M137.004 0.465332C138.716 0.595611 140.411 0.763112 142.123 0.949225L136.929 41.3729C135.998 38.8976 135.105 36.3851 134.286 33.8167L137.004 0.465332Z" fill="url(#paint29_linear_7_560)"/>
<path d="M199.239 18.2205L161.41 86.4122C161.019 85.9283 160.647 85.4258 160.312 84.9419L194.622 15.8755C196.168 16.6386 197.713 17.4016 199.258 18.2205H199.239Z" fill="url(#paint30_linear_7_560)"/>
<path d="M267.488 85.9841L196.521 120.769C196 120.396 195.479 120.024 194.976 119.67L264.938 81.3499C265.813 82.876 266.669 84.4207 267.488 86.0027V85.9841Z" fill="url(#paint31_linear_7_560)"/>
<path d="M278.602 112.412L212.978 131.21C212.085 130.726 211.21 130.242 210.353 129.721L276.908 107.331C277.504 109.006 278.062 110.719 278.621 112.431L278.602 112.412Z" fill="url(#paint32_linear_7_560)"/>
<path d="M212.904 26.2419L166.623 93.0191C166.269 92.6097 165.934 92.2002 165.618 91.7722L208.51 23.4502C210 24.3435 211.47 25.2741 212.904 26.2419Z" fill="url(#paint33_linear_7_560)"/>
<path d="M157.65 3.38728L144.73 59.2955C144.078 58.0114 143.445 56.7458 142.849 55.443L152.586 2.40088C154.299 2.69866 155.974 3.01505 157.631 3.38728H157.65Z" fill="url(#paint34_linear_7_560)"/>
<path d="M274.32 100.613L204.936 126.445H204.917C204.247 126.036 203.577 125.607 202.925 125.142L272.235 95.7178C272.98 97.3183 273.669 98.9747 274.32 100.613Z" fill="url(#paint35_linear_7_560)"/>
<path d="M249.411 58.8859L183.173 110.067C182.801 109.751 182.428 109.434 182.075 109.081L245.986 54.8845C247.159 56.2059 248.294 57.5273 249.411 58.8859Z" fill="url(#paint36_linear_7_560)"/>
<path d="M282.735 128.101L226.885 138.226H226.866C225.47 137.612 224.093 136.96 222.734 136.309L281.525 122.853C281.953 124.602 282.363 126.333 282.717 128.101H282.735Z" fill="url(#paint37_linear_7_560)"/>
<path d="M285.323 144.665L251.05 147.289H251.031C248.127 146.415 245.278 145.466 242.467 144.479L284.69 139.287C284.951 141.073 285.155 142.841 285.323 144.647V144.665Z" fill="url(#paint38_linear_7_560)"/>
<path d="M188.144 12.9721L157.203 80.5682C156.775 79.9726 156.365 79.3585 156.011 78.7629L183.359 10.9993C184.96 11.6134 186.58 12.2834 188.144 12.9721Z" fill="url(#paint39_linear_7_560)"/>
<path d="M226.159 35.8826L171.984 99.0865C171.612 98.7329 171.314 98.3793 170.998 98.0257L222.063 32.6443C223.46 33.6865 224.819 34.766 226.178 35.8826H226.159Z" fill="url(#paint40_linear_7_560)"/>
<path d="M173.343 7.48176L151.432 71.5604C150.91 70.7415 150.426 69.9412 149.98 69.1223L168.41 6.01147C170.067 6.45815 171.724 6.96065 173.343 7.48176Z" fill="url(#paint41_linear_7_560)"/>
<path d="M238.055 46.491L177.272 104.558C176.937 104.223 176.601 103.907 176.266 103.572L234.257 42.8804C235.542 44.0343 236.808 45.244 238.055 46.4723V46.491Z" fill="url(#paint42_linear_7_560)"/>
<path d="M258.98 71.7463L189.317 115.259C188.888 114.943 188.46 114.608 188.051 114.254L255.964 67.4099C257.007 68.843 258.012 70.276 258.98 71.7463Z" fill="url(#paint43_linear_7_560)"/>
<path d="M143.631 259.832L157.315 319.63C155.509 320.002 153.722 320.319 151.897 320.635L141.639 264.113C142.272 262.661 142.961 261.246 143.631 259.832Z" fill="url(#paint44_linear_7_560)"/>
<path d="M150.352 247.158L173.344 315.48C171.594 316.038 169.844 316.559 168.056 317.043L148.807 249.912C149.291 248.963 149.812 248.07 150.352 247.158Z" fill="url(#paint45_linear_7_560)"/>
<path d="M135.31 280.025L140.504 322.142C138.679 322.329 136.836 322.477 135.012 322.589L132.424 288.903C133.336 285.869 134.304 282.929 135.328 280.025H135.31Z" fill="url(#paint46_linear_7_560)"/>
<path d="M177.123 212.503L240.959 273.493C240.27 274.2 239.563 274.926 238.874 275.614C238.278 276.21 237.683 276.787 237.068 277.382L176.062 213.546C176.434 213.173 176.769 212.838 177.123 212.503Z" fill="url(#paint47_linear_7_560)"/>
<path d="M212.792 185.796L280.129 205.45C279.626 207.218 279.105 208.949 278.546 210.698L210.149 187.323C211.024 186.801 211.88 186.299 212.755 185.815H212.792V185.796Z" fill="url(#paint48_linear_7_560)"/>
<path d="M160.61 231.524L200.394 304.09C198.793 304.964 197.136 305.802 195.497 306.602L159.455 233.125C159.828 232.585 160.219 232.045 160.591 231.524H160.61Z" fill="url(#paint49_linear_7_560)"/>
<path d="M171.463 218.403L228.263 285.348C226.848 286.521 225.433 287.693 223.981 288.81L170.421 219.539C170.756 219.148 171.091 218.757 171.463 218.403Z" fill="url(#paint50_linear_7_560)"/>
<path d="M155.006 239.602L185.407 311.106C183.694 311.795 182 312.465 180.25 313.097L153.666 241.686C154.094 240.979 154.541 240.29 155.006 239.602Z" fill="url(#paint51_linear_7_560)"/>
<path d="M227.164 178.557L283.834 188.96C283.536 190.766 283.201 192.534 282.828 194.32L223.013 180.511C224.39 179.841 225.749 179.171 227.164 178.557Z" fill="url(#paint52_linear_7_560)"/>
<path d="M166.176 224.47L215.045 295.324C213.518 296.347 211.992 297.352 210.409 298.32L165.078 225.792C165.431 225.345 165.767 224.917 166.157 224.47H166.176Z" fill="url(#paint53_linear_7_560)"/>
<path d="M182.819 207.144L251.831 261.042C250.696 262.493 249.523 263.908 248.35 265.322L181.684 208.204C182.056 207.832 182.447 207.516 182.819 207.162V207.144Z" fill="url(#paint54_linear_7_560)"/>
<path d="M196.316 196.293L269.648 232.697C268.847 234.334 268.009 235.972 267.153 237.573L194.734 197.428C195.255 197.037 195.777 196.647 196.316 196.293Z" fill="url(#paint55_linear_7_560)"/>
<path d="M285.807 172.694C285.695 174.518 285.528 176.323 285.341 178.11L242.02 172.545C244.776 171.559 247.587 170.628 250.417 169.772L285.788 172.675L285.807 172.694Z" fill="url(#paint56_linear_7_560)"/>
<path d="M202.702 191.901L274.86 221.009C274.19 222.721 273.464 224.396 272.738 226.053L200.822 193.167C201.436 192.701 202.069 192.292 202.702 191.882H202.721L202.702 191.901Z" fill="url(#paint57_linear_7_560)"/>
<path d="M189.224 201.709L261.605 247.102C260.637 248.665 259.65 250.191 258.627 251.736L187.92 202.77C188.349 202.398 188.777 202.063 189.224 201.709Z" fill="url(#paint58_linear_7_560)"/>
<defs>
<linearGradient id="paint0_linear_7_560" x1="123.469" y1="80.3076" x2="123.469" y2="229.347" gradientUnits="userSpaceOnUse">
<stop stop-color="#672A10"/>
<stop offset="0.286458" stop-color="#C1AFA7"/>
<stop offset="0.65625" stop-color="#724B3A"/>
<stop offset="1" stop-color="#986955"/>
</linearGradient>
<linearGradient id="paint1_linear_7_560" x1="19.7372" y1="189.314" x2="19.7372" y2="206.697" gradientUnits="userSpaceOnUse">
<stop stop-color="#672A10"/>
<stop offset="0.286458" stop-color="#C1AFA7"/>
<stop offset="0.65625" stop-color="#724B3A"/>
<stop offset="1" stop-color="#986955"/>
</linearGradient>
<linearGradient id="paint2_linear_7_560" x1="15.8277" y1="184.419" x2="15.8277" y2="196.051" gradientUnits="userSpaceOnUse">
<stop stop-color="#672A10"/>
<stop offset="0.286458" stop-color="#C1AFA7"/>
<stop offset="0.65625" stop-color="#724B3A"/>
<stop offset="1" stop-color="#986955"/>
</linearGradient>
<linearGradient id="paint3_linear_7_560" x1="79.5806" y1="245.762" x2="79.5806" y2="322.905" gradientUnits="userSpaceOnUse">
<stop stop-color="#672A10"/>
<stop offset="0.286458" stop-color="#C1AFA7"/>
<stop offset="0.65625" stop-color="#724B3A"/>
<stop offset="1" stop-color="#986955"/>
</linearGradient>
<linearGradient id="paint4_linear_7_560" x1="56.6541" y1="230.407" x2="56.6541" y2="322.905" gradientUnits="userSpaceOnUse">
<stop stop-color="#672A10"/>
<stop offset="0.286458" stop-color="#C1AFA7"/>
<stop offset="0.65625" stop-color="#724B3A"/>
<stop offset="1" stop-color="#986955"/>
</linearGradient>
<linearGradient id="paint5_linear_7_560" x1="42.4682" y1="223.652" x2="42.4682" y2="322.924" gradientUnits="userSpaceOnUse">
<stop stop-color="#672A10"/>
<stop offset="0.286458" stop-color="#C1AFA7"/>
<stop offset="0.65625" stop-color="#724B3A"/>
<stop offset="1" stop-color="#986955"/>
</linearGradient>
<linearGradient id="paint6_linear_7_560" x1="92.4261" y1="258.492" x2="92.4261" y2="322.924" gradientUnits="userSpaceOnUse">
<stop stop-color="#672A10"/>
<stop offset="0.286458" stop-color="#C1AFA7"/>
<stop offset="0.65625" stop-color="#724B3A"/>
<stop offset="1" stop-color="#986955"/>
</linearGradient>
<linearGradient id="paint7_linear_7_560" x1="66.8933" y1="236.438" x2="66.8933" y2="322.905" gradientUnits="userSpaceOnUse">
<stop stop-color="#672A10"/>
<stop offset="0.286458" stop-color="#C1AFA7"/>
<stop offset="0.65625" stop-color="#724B3A"/>
<stop offset="1" stop-color="#986955"/>
</linearGradient>
<linearGradient id="paint8_linear_7_560" x1="9.20951" y1="177.198" x2="9.20951" y2="183.061" gradientUnits="userSpaceOnUse">
<stop stop-color="#672A10"/>
<stop offset="0.286458" stop-color="#C1AFA7"/>
<stop offset="0.65625" stop-color="#724B3A"/>
<stop offset="1" stop-color="#986955"/>
</linearGradient>
<linearGradient id="paint9_linear_7_560" x1="33.6439" y1="211.778" x2="33.6439" y2="281.384" gradientUnits="userSpaceOnUse">
<stop stop-color="#672A10"/>
<stop offset="0.286458" stop-color="#C1AFA7"/>
<stop offset="0.65625" stop-color="#724B3A"/>
<stop offset="1" stop-color="#986955"/>
</linearGradient>
<linearGradient id="paint10_linear_7_560" x1="30.628" y1="206.138" x2="30.628" y2="257.617" gradientUnits="userSpaceOnUse">
<stop stop-color="#672A10"/>
<stop offset="0.286458" stop-color="#C1AFA7"/>
<stop offset="0.65625" stop-color="#724B3A"/>
<stop offset="1" stop-color="#986955"/>
</linearGradient>
<linearGradient id="paint11_linear_7_560" x1="27.519" y1="200.76" x2="27.519" y2="238.596" gradientUnits="userSpaceOnUse">
<stop stop-color="#672A10"/>
<stop offset="0.286458" stop-color="#C1AFA7"/>
<stop offset="0.65625" stop-color="#724B3A"/>
<stop offset="1" stop-color="#986955"/>
</linearGradient>
<linearGradient id="paint12_linear_7_560" x1="23.8888" y1="195.121" x2="23.8888" y2="221.53" gradientUnits="userSpaceOnUse">
<stop stop-color="#672A10"/>
<stop offset="0.286458" stop-color="#C1AFA7"/>
<stop offset="0.65625" stop-color="#724B3A"/>
<stop offset="1" stop-color="#986955"/>
</linearGradient>
<linearGradient id="paint13_linear_7_560" x1="36.3713" y1="217.38" x2="36.3713" y2="309.394" gradientUnits="userSpaceOnUse">
<stop stop-color="#672A10"/>
<stop offset="0.286458" stop-color="#C1AFA7"/>
<stop offset="0.65625" stop-color="#724B3A"/>
<stop offset="1" stop-color="#986955"/>
</linearGradient>
<linearGradient id="paint14_linear_7_560" x1="105.374" y1="277.271" x2="105.374" y2="322.906" gradientUnits="userSpaceOnUse">
<stop stop-color="#672A10"/>
<stop offset="0.286458" stop-color="#C1AFA7"/>
<stop offset="0.65625" stop-color="#724B3A"/>
<stop offset="1" stop-color="#986955"/>
</linearGradient>
<linearGradient id="paint15_linear_7_560" x1="22.8835" y1="101.934" x2="22.8835" y2="123.3" gradientUnits="userSpaceOnUse">
<stop stop-color="#672A10"/>
<stop offset="0.286458" stop-color="#C1AFA7"/>
<stop offset="0.65625" stop-color="#724B3A"/>
<stop offset="1" stop-color="#986955"/>
</linearGradient>
<linearGradient id="paint16_linear_7_560" x1="37.6186" y1="0.614258" x2="37.6186" y2="96.7415" gradientUnits="userSpaceOnUse">
<stop stop-color="#672A10"/>
<stop offset="0.286458" stop-color="#C1AFA7"/>
<stop offset="0.65625" stop-color="#724B3A"/>
<stop offset="1" stop-color="#986955"/>
</linearGradient>
<linearGradient id="paint17_linear_7_560" x1="108.325" y1="0" x2="108.325" y2="33.7422" gradientUnits="userSpaceOnUse">
<stop stop-color="#672A10"/>
<stop offset="0.286458" stop-color="#C1AFA7"/>
<stop offset="0.65625" stop-color="#724B3A"/>
<stop offset="1" stop-color="#986955"/>
</linearGradient>
<linearGradient id="paint18_linear_7_560" x1="25.7877" y1="90.1716" x2="25.7877" y2="118.889" gradientUnits="userSpaceOnUse">
<stop stop-color="#672A10"/>
<stop offset="0.286458" stop-color="#C1AFA7"/>
<stop offset="0.65625" stop-color="#724B3A"/>
<stop offset="1" stop-color="#986955"/>
</linearGradient>
<linearGradient id="paint19_linear_7_560" x1="74.1073" y1="0" x2="74.1073" y2="75.2826" gradientUnits="userSpaceOnUse">
<stop stop-color="#672A10"/>
<stop offset="0.286458" stop-color="#C1AFA7"/>
<stop offset="0.65625" stop-color="#724B3A"/>
<stop offset="1" stop-color="#986955"/>
</linearGradient>
<linearGradient id="paint20_linear_7_560" x1="12.3092" y1="129.404" x2="12.3092" y2="136.569" gradientUnits="userSpaceOnUse">
<stop stop-color="#672A10"/>
<stop offset="0.286458" stop-color="#C1AFA7"/>
<stop offset="0.65625" stop-color="#724B3A"/>
<stop offset="1" stop-color="#986955"/>
</linearGradient>
<linearGradient id="paint21_linear_7_560" x1="61.6248" y1="0" x2="61.6248" y2="83.4715" gradientUnits="userSpaceOnUse">
<stop stop-color="#672A10"/>
<stop offset="0.286458" stop-color="#C1AFA7"/>
<stop offset="0.65625" stop-color="#724B3A"/>
<stop offset="1" stop-color="#986955"/>
</linearGradient>
<linearGradient id="paint22_linear_7_560" x1="32.1173" y1="53.5073" x2="32.1173" y2="108.02" gradientUnits="userSpaceOnUse">
<stop stop-color="#672A10"/>
<stop offset="0.286458" stop-color="#C1AFA7"/>
<stop offset="0.65625" stop-color="#724B3A"/>
<stop offset="1" stop-color="#986955"/>
</linearGradient>
<linearGradient id="paint23_linear_7_560" x1="95.4234" y1="0" x2="95.4234" y2="54.6241" gradientUnits="userSpaceOnUse">
<stop stop-color="#672A10"/>
<stop offset="0.286458" stop-color="#C1AFA7"/>
<stop offset="0.65625" stop-color="#724B3A"/>
<stop offset="1" stop-color="#986955"/>
</linearGradient>
<linearGradient id="paint24_linear_7_560" x1="18.3968" y1="115.948" x2="18.3968" y2="129.367" gradientUnits="userSpaceOnUse">
<stop stop-color="#672A10"/>
<stop offset="0.286458" stop-color="#C1AFA7"/>
<stop offset="0.65625" stop-color="#724B3A"/>
<stop offset="1" stop-color="#986955"/>
</linearGradient>
<linearGradient id="paint25_linear_7_560" x1="29.0828" y1="73.4214" x2="29.0828" y2="113.51" gradientUnits="userSpaceOnUse">
<stop stop-color="#672A10"/>
<stop offset="0.286458" stop-color="#C1AFA7"/>
<stop offset="0.65625" stop-color="#724B3A"/>
<stop offset="1" stop-color="#986955"/>
</linearGradient>
<linearGradient id="paint26_linear_7_560" x1="47.7833" y1="0" x2="47.7833" y2="90.5997" gradientUnits="userSpaceOnUse">
<stop stop-color="#672A10"/>
<stop offset="0.286458" stop-color="#C1AFA7"/>
<stop offset="0.65625" stop-color="#724B3A"/>
<stop offset="1" stop-color="#986955"/>
</linearGradient>
<linearGradient id="paint27_linear_7_560" x1="34.854" y1="30.5598" x2="34.854" y2="102.66" gradientUnits="userSpaceOnUse">
<stop stop-color="#672A10"/>
<stop offset="0.286458" stop-color="#C1AFA7"/>
<stop offset="0.65625" stop-color="#724B3A"/>
<stop offset="1" stop-color="#986955"/>
</linearGradient>
<linearGradient id="paint28_linear_7_560" x1="83.4436" y1="0" x2="83.4436" y2="67.5961" gradientUnits="userSpaceOnUse">
<stop stop-color="#672A10"/>
<stop offset="0.286458" stop-color="#C1AFA7"/>
<stop offset="0.65625" stop-color="#724B3A"/>
<stop offset="1" stop-color="#986955"/>
</linearGradient>
<linearGradient id="paint29_linear_7_560" x1="138.205" y1="0.465332" x2="138.205" y2="41.3729" gradientUnits="userSpaceOnUse">
<stop stop-color="#672A10"/>
<stop offset="0.286458" stop-color="#C1AFA7"/>
<stop offset="0.65625" stop-color="#724B3A"/>
<stop offset="1" stop-color="#986955"/>
</linearGradient>
<linearGradient id="paint30_linear_7_560" x1="179.785" y1="15.8755" x2="179.785" y2="86.4122" gradientUnits="userSpaceOnUse">
<stop stop-color="#672A10"/>
<stop offset="0.286458" stop-color="#C1AFA7"/>
<stop offset="0.65625" stop-color="#724B3A"/>
<stop offset="1" stop-color="#986955"/>
</linearGradient>
<linearGradient id="paint31_linear_7_560" x1="231.232" y1="81.3499" x2="231.232" y2="120.769" gradientUnits="userSpaceOnUse">
<stop stop-color="#672A10"/>
<stop offset="0.286458" stop-color="#C1AFA7"/>
<stop offset="0.65625" stop-color="#724B3A"/>
<stop offset="1" stop-color="#986955"/>
</linearGradient>
<linearGradient id="paint32_linear_7_560" x1="244.487" y1="107.331" x2="244.487" y2="131.21" gradientUnits="userSpaceOnUse">
<stop stop-color="#672A10"/>
<stop offset="0.286458" stop-color="#C1AFA7"/>
<stop offset="0.65625" stop-color="#724B3A"/>
<stop offset="1" stop-color="#986955"/>
</linearGradient>
<linearGradient id="paint33_linear_7_560" x1="189.261" y1="23.4502" x2="189.261" y2="93.0191" gradientUnits="userSpaceOnUse">
<stop stop-color="#672A10"/>
<stop offset="0.286458" stop-color="#C1AFA7"/>
<stop offset="0.65625" stop-color="#724B3A"/>
<stop offset="1" stop-color="#986955"/>
</linearGradient>
<linearGradient id="paint34_linear_7_560" x1="150.25" y1="2.40088" x2="150.25" y2="59.2955" gradientUnits="userSpaceOnUse">
<stop stop-color="#672A10"/>
<stop offset="0.286458" stop-color="#C1AFA7"/>
<stop offset="0.65625" stop-color="#724B3A"/>
<stop offset="1" stop-color="#986955"/>
</linearGradient>
<linearGradient id="paint35_linear_7_560" x1="238.623" y1="95.7178" x2="238.623" y2="126.445" gradientUnits="userSpaceOnUse">
<stop stop-color="#672A10"/>
<stop offset="0.286458" stop-color="#C1AFA7"/>
<stop offset="0.65625" stop-color="#724B3A"/>
<stop offset="1" stop-color="#986955"/>
</linearGradient>
<linearGradient id="paint36_linear_7_560" x1="215.743" y1="54.8845" x2="215.743" y2="110.067" gradientUnits="userSpaceOnUse">
<stop stop-color="#672A10"/>
<stop offset="0.286458" stop-color="#C1AFA7"/>
<stop offset="0.65625" stop-color="#724B3A"/>
<stop offset="1" stop-color="#986955"/>
</linearGradient>
<linearGradient id="paint37_linear_7_560" x1="252.734" y1="122.853" x2="252.734" y2="138.226" gradientUnits="userSpaceOnUse">
<stop stop-color="#672A10"/>
<stop offset="0.286458" stop-color="#C1AFA7"/>
<stop offset="0.65625" stop-color="#724B3A"/>
<stop offset="1" stop-color="#986955"/>
</linearGradient>
<linearGradient id="paint38_linear_7_560" x1="263.895" y1="139.287" x2="263.895" y2="147.289" gradientUnits="userSpaceOnUse">
<stop stop-color="#672A10"/>
<stop offset="0.286458" stop-color="#C1AFA7"/>
<stop offset="0.65625" stop-color="#724B3A"/>
<stop offset="1" stop-color="#986955"/>
</linearGradient>
<linearGradient id="paint39_linear_7_560" x1="172.078" y1="10.9993" x2="172.078" y2="80.5682" gradientUnits="userSpaceOnUse">
<stop stop-color="#672A10"/>
<stop offset="0.286458" stop-color="#C1AFA7"/>
<stop offset="0.65625" stop-color="#724B3A"/>
<stop offset="1" stop-color="#986955"/>
</linearGradient>
<linearGradient id="paint40_linear_7_560" x1="198.588" y1="32.6443" x2="198.588" y2="99.0865" gradientUnits="userSpaceOnUse">
<stop stop-color="#672A10"/>
<stop offset="0.286458" stop-color="#C1AFA7"/>
<stop offset="0.65625" stop-color="#724B3A"/>
<stop offset="1" stop-color="#986955"/>
</linearGradient>
<linearGradient id="paint41_linear_7_560" x1="161.662" y1="6.01147" x2="161.662" y2="71.5604" gradientUnits="userSpaceOnUse">
<stop stop-color="#672A10"/>
<stop offset="0.286458" stop-color="#C1AFA7"/>
<stop offset="0.65625" stop-color="#724B3A"/>
<stop offset="1" stop-color="#986955"/>
</linearGradient>
<linearGradient id="paint42_linear_7_560" x1="207.161" y1="42.8804" x2="207.161" y2="104.558" gradientUnits="userSpaceOnUse">
<stop stop-color="#672A10"/>
<stop offset="0.286458" stop-color="#C1AFA7"/>
<stop offset="0.65625" stop-color="#724B3A"/>
<stop offset="1" stop-color="#986955"/>
</linearGradient>
<linearGradient id="paint43_linear_7_560" x1="223.515" y1="67.4099" x2="223.515" y2="115.259" gradientUnits="userSpaceOnUse">
<stop stop-color="#672A10"/>
<stop offset="0.286458" stop-color="#C1AFA7"/>
<stop offset="0.65625" stop-color="#724B3A"/>
<stop offset="1" stop-color="#986955"/>
</linearGradient>
<linearGradient id="paint44_linear_7_560" x1="149.477" y1="259.832" x2="149.477" y2="320.635" gradientUnits="userSpaceOnUse">
<stop stop-color="#672A10"/>
<stop offset="0.286458" stop-color="#C1AFA7"/>
<stop offset="0.65625" stop-color="#724B3A"/>
<stop offset="1" stop-color="#986955"/>
</linearGradient>
<linearGradient id="paint45_linear_7_560" x1="161.075" y1="247.158" x2="161.075" y2="317.043" gradientUnits="userSpaceOnUse">
<stop stop-color="#672A10"/>
<stop offset="0.286458" stop-color="#C1AFA7"/>
<stop offset="0.65625" stop-color="#724B3A"/>
<stop offset="1" stop-color="#986955"/>
</linearGradient>
<linearGradient id="paint46_linear_7_560" x1="136.464" y1="280.025" x2="136.464" y2="322.589" gradientUnits="userSpaceOnUse">
<stop stop-color="#672A10"/>
<stop offset="0.286458" stop-color="#C1AFA7"/>
<stop offset="0.65625" stop-color="#724B3A"/>
<stop offset="1" stop-color="#986955"/>
</linearGradient>
<linearGradient id="paint47_linear_7_560" x1="208.51" y1="212.503" x2="208.51" y2="277.382" gradientUnits="userSpaceOnUse">
<stop stop-color="#672A10"/>
<stop offset="0.286458" stop-color="#C1AFA7"/>
<stop offset="0.65625" stop-color="#724B3A"/>
<stop offset="1" stop-color="#986955"/>
</linearGradient>
<linearGradient id="paint48_linear_7_560" x1="245.139" y1="185.796" x2="245.139" y2="210.698" gradientUnits="userSpaceOnUse">
<stop stop-color="#672A10"/>
<stop offset="0.286458" stop-color="#C1AFA7"/>
<stop offset="0.65625" stop-color="#724B3A"/>
<stop offset="1" stop-color="#986955"/>
</linearGradient>
<linearGradient id="paint49_linear_7_560" x1="179.924" y1="231.524" x2="179.924" y2="306.602" gradientUnits="userSpaceOnUse">
<stop stop-color="#672A10"/>
<stop offset="0.286458" stop-color="#C1AFA7"/>
<stop offset="0.65625" stop-color="#724B3A"/>
<stop offset="1" stop-color="#986955"/>
</linearGradient>
<linearGradient id="paint50_linear_7_560" x1="199.342" y1="218.403" x2="199.342" y2="288.81" gradientUnits="userSpaceOnUse">
<stop stop-color="#672A10"/>
<stop offset="0.286458" stop-color="#C1AFA7"/>
<stop offset="0.65625" stop-color="#724B3A"/>
<stop offset="1" stop-color="#986955"/>
</linearGradient>
<linearGradient id="paint51_linear_7_560" x1="169.536" y1="239.602" x2="169.536" y2="313.097" gradientUnits="userSpaceOnUse">
<stop stop-color="#672A10"/>
<stop offset="0.286458" stop-color="#C1AFA7"/>
<stop offset="0.65625" stop-color="#724B3A"/>
<stop offset="1" stop-color="#986955"/>
</linearGradient>
<linearGradient id="paint52_linear_7_560" x1="253.423" y1="178.557" x2="253.423" y2="194.32" gradientUnits="userSpaceOnUse">
<stop stop-color="#672A10"/>
<stop offset="0.286458" stop-color="#C1AFA7"/>
<stop offset="0.65625" stop-color="#724B3A"/>
<stop offset="1" stop-color="#986955"/>
</linearGradient>
<linearGradient id="paint53_linear_7_560" x1="190.061" y1="224.47" x2="190.061" y2="298.32" gradientUnits="userSpaceOnUse">
<stop stop-color="#672A10"/>
<stop offset="0.286458" stop-color="#C1AFA7"/>
<stop offset="0.65625" stop-color="#724B3A"/>
<stop offset="1" stop-color="#986955"/>
</linearGradient>
<linearGradient id="paint54_linear_7_560" x1="216.758" y1="207.144" x2="216.758" y2="265.322" gradientUnits="userSpaceOnUse">
<stop stop-color="#672A10"/>
<stop offset="0.286458" stop-color="#C1AFA7"/>
<stop offset="0.65625" stop-color="#724B3A"/>
<stop offset="1" stop-color="#986955"/>
</linearGradient>
<linearGradient id="paint55_linear_7_560" x1="232.191" y1="196.293" x2="232.191" y2="237.573" gradientUnits="userSpaceOnUse">
<stop stop-color="#672A10"/>
<stop offset="0.286458" stop-color="#C1AFA7"/>
<stop offset="0.65625" stop-color="#724B3A"/>
<stop offset="1" stop-color="#986955"/>
</linearGradient>
<linearGradient id="paint56_linear_7_560" x1="263.914" y1="169.772" x2="263.914" y2="178.11" gradientUnits="userSpaceOnUse">
<stop stop-color="#672A10"/>
<stop offset="0.286458" stop-color="#C1AFA7"/>
<stop offset="0.65625" stop-color="#724B3A"/>
<stop offset="1" stop-color="#986955"/>
</linearGradient>
<linearGradient id="paint57_linear_7_560" x1="237.841" y1="191.882" x2="237.841" y2="226.053" gradientUnits="userSpaceOnUse">
<stop stop-color="#672A10"/>
<stop offset="0.286458" stop-color="#C1AFA7"/>
<stop offset="0.65625" stop-color="#724B3A"/>
<stop offset="1" stop-color="#986955"/>
</linearGradient>
<linearGradient id="paint58_linear_7_560" x1="224.763" y1="201.709" x2="224.763" y2="251.736" gradientUnits="userSpaceOnUse">
<stop stop-color="#672A10"/>
<stop offset="0.286458" stop-color="#C1AFA7"/>
<stop offset="0.65625" stop-color="#724B3A"/>
<stop offset="1" stop-color="#986955"/>
</linearGradient>
</defs>
</svg>
