<svg width="85" height="98" viewBox="0 0 85 98" fill="none" xmlns="http://www.w3.org/2000/svg">
<g id="logo_Divo_map">
<path id="Vector" d="M84 42.4352C84 61.1763 71.5353 77.0187 54.4137 82.1342C54.1343 82.1962 53.8549 82.2737 53.5755 82.3667C47.2732 84.3199 42.6785 90.1019 42.4922 97C42.306 90.1329 37.7423 84.3509 31.4866 82.3822C31.1607 82.2737 30.8347 82.1807 30.5087 82.1187C13.4337 76.9722 1 61.1608 1 42.4352C1 19.5551 19.5807 1 42.4922 1C65.4038 1 84 19.5551 84 42.4352Z" fill="#8A694F" stroke="white" stroke-width="2" stroke-linejoin="round"/>
<path id="Vector_2" d="M44.7177 22.05H15V22.3997C18.9568 22.3997 22.3915 25.8469 22.3915 29.827V55.2063C22.3915 59.1864 18.9568 62.6336 15 62.6336V62.9833H44.7177C56.487 62.9833 66 53.8075 66 42.5167C66 31.2258 56.4196 22.05 44.7177 22.05ZM43.1855 63C43.1855 49.894 36.9558 42.5 22.2905 42.5C36.9558 42.5 43.1855 35.106 43.1855 22C43.1855 35.106 50.4424 42.5 65.1076 42.5C50.4424 42.5 43.1855 49.894 43.1855 63Z" fill="white"/>
</g>
</svg>
