<svg width="150" height="46" viewBox="0 0 150 46" fill="none" xmlns="http://www.w3.org/2000/svg">
<g id="minstroy">
<path fill-rule="evenodd" clip-rule="evenodd" d="M16.8683 4.78073L11.9288 17.5151L7.03716 4.78073H0.785156V7.30492H2.45785V18.9743H0.800484V21.5158H7.05249V18.9743H5.49092V8.26229L10.7715 21.5158H13.0707L18.3072 8.26229V18.9743H16.7438L16.7744 21.5158H23.0264V18.9743H21.3709V7.30492H23.0264V4.78073H16.8683Z" fill="#F5F5F5"/>
<path fill-rule="evenodd" clip-rule="evenodd" d="M25.2177 4.78073H31.4697V7.30492H29.9081V17.0133L37.8482 4.78073H42.5366V7.30492H40.975V18.9743H42.5366V21.5158H36.2847V18.9743H37.8482V9.26581L29.9081 21.5158H25.2177V18.9743H26.7812V7.30492H25.2177V4.78073Z" fill="#F5F5F5"/>
<path fill-rule="evenodd" clip-rule="evenodd" d="M55.2769 18.9743H56.9171V14.0028H49.4158V18.9743H51.056V21.5158H44.7253V18.9743H46.3674V7.30684H44.7253V4.78073H51.056V7.30684H49.4158V11.4786H56.9171V7.30684H55.2769V4.78073H61.6228V7.30684H60.0593V18.9743H61.6228V21.5158H55.2769V18.9743Z" fill="#F5F5F5"/>
<path fill-rule="evenodd" clip-rule="evenodd" d="M78.299 4.78045V10.1595H75.7834C75.4672 8.03134 73.5186 6.54335 71.3899 6.80289C67.6709 6.80289 66.5615 9.84614 66.5615 13.3123C66.5615 17.2341 68.7016 19.4757 71.7023 19.4757C73.7676 19.6411 75.5764 18.0953 75.7412 16.023C75.7451 15.9499 75.7489 15.8769 75.7508 15.8058H78.7839C78.5481 18.3299 77.2204 22.0788 71.5623 22.0788C70.2806 22.0788 63.2928 21.9537 63.2928 13.5007C63.2928 6.5991 67.0291 4.34022 71.1102 4.34022C72.8556 4.24409 74.5513 4.94771 75.72 6.25498V4.8439L78.299 4.78045Z" fill="#F5F5F5"/>
<path fill-rule="evenodd" clip-rule="evenodd" d="M84.7981 18.9743H86.4536V7.30684H82.6253V10.898H80.1077V4.78073H95.8326V10.898H93.3148V7.30684H89.4867V18.9743H91.144V21.5158H84.7981V18.9743Z" fill="#F5F5F5"/>
<path fill-rule="evenodd" clip-rule="evenodd" d="M102.289 12.8108H105.667C107.073 12.8108 109.214 12.3552 109.214 10.0656C109.214 7.77592 106.87 7.30684 105.698 7.30684H102.289V12.8108ZM97.6006 4.78073H105.728C108.355 4.78073 112.388 5.48627 112.388 10.0194C112.388 12.8262 110.48 15.3523 105.713 15.3523H102.306V18.9743H103.947V21.5158H97.6006V18.9743H99.2579V7.30684H97.6006V4.78073Z" fill="#F5F5F5"/>
<path fill-rule="evenodd" clip-rule="evenodd" d="M122.271 19.4771C126.397 19.4771 127.18 15.7284 127.18 13.2042C127.18 10.6781 126.397 6.93123 122.271 6.93123C118.144 6.93123 117.361 10.6935 117.361 13.2042C117.361 15.713 118.144 19.4771 122.271 19.4771ZM122.271 4.28017C123.724 4.28017 130.447 4.46857 130.447 13.1408C130.447 21.813 123.724 22.0168 122.271 22.0168C120.817 22.0168 114.096 21.8304 114.096 13.1408C114.096 4.4532 120.817 4.28017 122.271 4.28017Z" fill="#F5F5F5"/>
<path fill-rule="evenodd" clip-rule="evenodd" d="M138.195 -0.000244141C138.613 1.41084 140.09 2.21635 141.499 1.79918C142.361 1.54157 143.035 0.864861 143.29 -0.000244141H145.745C144.861 2.77195 141.905 4.29837 139.142 3.41212C137.525 2.89306 136.258 1.62231 135.741 -0.000244141H138.195ZM132.114 4.78284H138.368V7.30894H136.804V17.0173L144.744 4.78284H149.433V7.30894H147.793V18.9764H149.433V21.5179H143.183V18.9764H144.744V9.26792L136.804 21.5179H132.114V18.9764H133.758V7.30894H132.114V4.78284Z" fill="#F5F5F5"/>
<path fill-rule="evenodd" clip-rule="evenodd" d="M5.47388 36.7285H8.84992C10.2716 36.7285 12.4137 36.2749 12.4137 33.9852C12.4137 31.6956 10.0532 31.2246 8.88057 31.2246H5.4892L5.47388 36.7285ZM0.785359 28.6985H8.91316C11.5381 28.6985 15.5713 29.4212 15.5713 33.9371C15.5713 36.7611 13.6649 39.27 8.89781 39.27H5.4892V42.892H7.05269V45.4335H0.785359V42.892H2.44081V31.2246H0.785359V28.6985Z" fill="#F5F5F5"/>
<path fill-rule="evenodd" clip-rule="evenodd" d="M25.4501 43.3965C29.5772 43.3965 30.3589 39.6477 30.3589 37.1216C30.3589 34.5973 29.5772 30.8505 25.4501 30.8505C21.3229 30.8505 20.5411 34.6148 20.5411 37.1216C20.5411 39.6324 21.3229 43.3965 25.4501 43.3965ZM25.4501 28.1994C26.9042 28.1994 33.6257 28.3859 33.6257 37.0602C33.6257 45.7343 26.9042 45.936 25.4501 45.936C23.9958 45.936 17.2744 45.7495 17.2744 37.0602C17.2744 28.3726 23.9958 28.1994 25.4501 28.1994Z" fill="#F5F5F5"/>
<path fill-rule="evenodd" clip-rule="evenodd" d="M50.6487 28.6996V34.0807H48.1331C47.8169 31.9505 45.8683 30.4626 43.7415 30.7241C40.0206 30.7241 38.9111 33.7674 38.9111 37.2315C38.9111 41.1533 41.0515 43.397 44.0538 43.397C46.1173 43.5777 47.9376 42.0454 48.1197 39.9749C48.1274 39.8923 48.1311 39.8096 48.1331 39.725H51.1661C50.9305 42.2511 49.6026 45.9999 43.9428 45.9999C42.6628 45.9999 35.6751 45.8749 35.6751 37.4199C35.6751 30.5183 39.4114 28.2595 43.4905 28.2595C45.2302 28.1268 46.9375 28.79 48.1331 30.0647V28.6536L50.6487 28.6996Z" fill="#F5F5F5"/>
<path fill-rule="evenodd" clip-rule="evenodd" d="M68.0004 28.7V34.081H65.4846C65.1607 31.9546 63.218 30.4707 61.091 30.7243C57.3721 30.7243 56.2608 33.7675 56.2608 37.2318C56.2608 41.1537 58.403 43.3971 61.4034 43.3971C63.4688 43.5606 65.2776 42.015 65.4423 39.9425C65.4462 39.8714 65.45 39.7983 65.452 39.7254H68.4524C68.2188 42.2514 66.8909 46.0002 61.231 46.0002C59.9357 46.0002 52.9633 45.8752 52.9633 37.4203C52.9633 30.5186 56.6996 28.2597 60.7788 28.2597C62.5396 28.1059 64.2736 28.7731 65.4846 30.0649V28.6538L68.0004 28.7Z" fill="#F5F5F5"/>
<path fill-rule="evenodd" clip-rule="evenodd" d="M70.2604 28.7H76.5125V31.2242H74.951V40.9327L82.8737 28.7H87.5641V31.2242H86.0007V42.8936H87.5641V45.4349H81.3121V42.8936H82.8737V33.2024L74.9336 45.4504H70.2452V42.8936H71.8871V31.2242H70.2452L70.2604 28.7Z" fill="#F5F5F5"/>
<path fill-rule="evenodd" clip-rule="evenodd" d="M89.7709 28.7H96.0248V31.2242H94.4595V40.9327L102.401 28.7H107.09V31.2242H105.45V42.8936H107.09V45.4349H100.838V42.8936H102.401V33.2024L94.3981 45.4349H89.7097V42.8936H91.3498V31.2242H89.7097L89.7709 28.7Z" fill="#F5F5F5"/>
</g>
</svg>
