<svg width="953" height="388" viewBox="0 0 953 388" fill="none" xmlns="http://www.w3.org/2000/svg">
    <mask id="mask0_403_1101" style="mask-type:luminance" maskUnits="userSpaceOnUse" x="-10" y="0" width="963" height="388">
    <path d="M655.702 379.347C653.282 380.222 649.349 381.859 648.227 384.536C646.848 387.83 650.801 387.47 653.035 386.842C655.517 386.152 657.72 385.39 660.304 384.947C661.303 384.772 663.65 384.618 664.381 383.897C666.492 381.807 663.393 380.284 661.766 379.655L663.331 380.994C661.107 379.872 659.717 378.904 657.926 378.904C657.267 378.904 656.546 379.038 655.702 379.336M772.404 375.918C769.717 378.266 773.423 379.686 775.709 380.108C778.242 380.572 780.558 380.86 783.071 381.601C784.049 381.89 786.221 382.775 787.199 382.446C790.01 381.498 787.899 378.77 786.715 377.483L787.539 379.377C785.469 376.67 784.708 374.899 781.403 374.538C780.507 374.446 779.405 374.353 778.262 374.353C776.121 374.353 773.825 374.683 772.414 375.918M608.681 368.948C607.631 369.73 605.912 371.151 605.253 373.076C604.44 375.455 606.077 374.909 607.034 374.312C608.094 373.643 609.052 372.963 610.133 372.459C610.555 372.263 611.523 371.985 611.873 371.429C612.892 369.833 611.739 369.01 611.121 368.701L611.657 369.504C610.916 368.958 610.452 368.454 609.824 368.454C609.505 368.454 609.134 368.598 608.671 368.938M835.898 367.712C836.783 368.598 837.669 369.37 838.4 370.317C838.678 370.688 839.182 371.563 839.79 371.779C841.571 372.407 842.117 371.11 842.281 370.441L841.622 371.151C842.178 369.874 842.796 369.205 841.499 368.124C840.5 367.28 838.719 365.921 836.701 365.715C836.505 365.694 836.341 365.684 836.176 365.684C834.343 365.684 835.167 366.992 835.898 367.733M298.955 359.785C296.267 362.132 299.974 363.553 302.26 363.975C304.792 364.438 307.109 364.727 309.621 365.468C310.599 365.756 312.771 366.642 313.75 366.312C316.56 365.365 314.439 362.637 313.266 361.35L314.089 363.244C312.02 360.536 311.258 358.765 307.953 358.405C307.057 358.312 305.956 358.209 304.813 358.209C302.671 358.209 300.375 358.539 298.965 359.774M362.459 351.579C363.344 352.464 364.23 353.237 364.961 354.184C365.249 354.554 365.743 355.43 366.35 355.646C368.132 356.274 368.677 354.966 368.842 354.307L368.173 355.007C368.729 353.731 369.347 353.062 368.06 351.97C367.061 351.126 365.28 349.767 363.262 349.561C363.066 349.54 362.891 349.53 362.737 349.53C360.894 349.53 361.717 350.838 362.459 351.579ZM651.481 348.47C649.123 349.334 650.585 350.261 651.645 350.632C652.829 351.033 653.962 351.342 655.033 351.867C655.445 352.073 656.279 352.639 656.927 352.567C658.801 352.351 658.719 350.941 658.574 350.271L658.286 351.198C658.214 349.808 658.482 348.943 656.845 348.531C656.073 348.336 654.961 348.099 653.787 348.099C653.025 348.099 652.222 348.202 651.481 348.48M701.508 347.121C699.15 347.986 700.612 348.923 701.672 349.283C702.856 349.685 703.989 349.993 705.06 350.518C705.472 350.724 706.306 351.291 706.954 351.219C708.828 351.002 708.746 349.592 708.602 348.923L708.313 349.849C708.241 348.459 708.509 347.594 706.872 347.172C706.1 346.977 704.988 346.74 703.814 346.74C703.052 346.74 702.249 346.843 701.508 347.121ZM790.381 346.977C791.266 347.862 792.151 348.634 792.882 349.582C793.171 349.952 793.665 350.827 794.272 351.044C796.053 351.672 796.599 350.374 796.764 349.705L796.095 350.405C796.64 349.129 797.268 348.47 795.971 347.368C794.972 346.524 793.191 345.165 791.173 344.959C790.978 344.938 790.803 344.928 790.648 344.928C788.816 344.928 789.639 346.235 790.37 346.977M115.937 346.349C116.576 347.389 117.255 348.346 117.708 349.345C117.883 349.736 118.12 350.56 118.697 351.023C120.354 352.351 121.343 351.764 121.734 351.414L120.807 351.538C121.796 350.971 122.661 350.858 121.662 349.479C120.89 348.408 119.469 346.596 117.42 345.432C116.648 344.99 116.154 344.815 115.855 344.815C115.186 344.815 115.526 345.7 115.927 346.349M743.72 344.557C742.433 344.804 740.261 345.319 738.82 346.761C737.049 348.542 738.758 348.768 739.88 348.655C741.126 348.521 742.279 348.326 743.473 348.356C743.937 348.367 744.925 348.531 745.481 348.192C747.097 347.203 746.418 345.968 746.006 345.412L746.129 346.369C745.573 345.299 745.409 344.485 744.297 344.485C744.122 344.485 743.926 344.506 743.7 344.547M823.656 331.173C821.041 331.996 815.966 333.438 819.785 336.516C824.192 340.068 831.769 338.05 834.92 333.881L834.189 333.314C832.748 332.192 830.75 330.009 828.845 329.814C828.712 329.803 828.578 329.793 828.444 329.793C826.848 329.793 825.149 330.699 823.656 331.173ZM316.89 330.812C317.775 331.698 318.661 332.47 319.392 333.417C319.67 333.788 320.174 334.663 320.782 334.879C322.563 335.507 323.108 334.21 323.273 333.541L322.604 334.251C323.16 332.975 323.778 332.305 322.491 331.224C321.492 330.38 319.711 329.021 317.693 328.815C317.497 328.794 317.332 328.784 317.178 328.784C315.335 328.784 316.159 330.092 316.9 330.833M270.26 328.414C268.973 328.661 266.801 329.186 265.36 330.617C263.589 332.398 265.298 332.624 266.42 332.511C267.666 332.377 268.819 332.182 270.013 332.213C270.477 332.223 271.465 332.388 272.021 332.048C273.637 331.06 272.958 329.824 272.546 329.268L272.67 330.226C272.114 329.155 271.949 328.341 270.837 328.341C270.662 328.341 270.466 328.362 270.24 328.403M623.991 322.061C620.83 322.823 618.812 328.568 620.017 331.44C621.52 335.003 626.586 337.659 630.138 338.05L630.055 336.753C632.156 334.375 635.265 331.914 636.645 329.114C636.109 327.888 633.401 327.178 632.331 326.457C630.405 325.15 627.553 321.968 624.784 321.968C624.516 321.968 624.249 321.999 623.981 322.061M204.254 323.142C204.893 324.182 205.572 325.15 206.025 326.138C206.2 326.529 206.437 327.363 207.014 327.816C208.671 329.145 209.66 328.568 210.051 328.208L209.124 328.331C210.113 327.765 210.977 327.652 209.979 326.272C209.207 325.201 207.786 323.389 205.737 322.215C204.965 321.773 204.471 321.598 204.172 321.598C203.503 321.598 203.843 322.483 204.244 323.132M46.8634 319.178C43.2907 319.353 46.7192 322.195 48.9637 323.636C51.4656 325.242 53.7924 326.622 56.181 328.393C57.1076 329.083 59.0947 330.782 60.2169 331.07C63.4601 331.894 62.132 329 61.3186 327.549L61.5657 329.217C60.289 326.365 60.0522 324.81 56.7267 322.885C54.2145 321.433 50.0242 319.178 47.1311 319.178C47.0487 319.178 46.956 319.178 46.8737 319.178M678.651 318.303C677.035 318.9 675.82 320.63 674.584 321.804C672.597 323.688 668.675 327.209 673.462 328.3C678.981 329.556 684.911 324.419 685.899 319.281L684.993 319.096C683.603 318.808 681.647 318.087 679.99 318.087C679.516 318.087 679.063 318.149 678.651 318.293M444.372 317.366C441.684 319.714 445.401 321.134 447.677 321.557C450.209 322.02 452.526 322.308 455.038 323.049C456.016 323.338 458.189 324.223 459.167 323.894C461.977 322.946 459.867 320.218 458.683 318.941L459.506 320.836C457.437 318.128 456.675 316.357 453.38 315.997C452.485 315.904 451.383 315.801 450.23 315.801C448.099 315.801 445.803 316.131 444.382 317.366M109.194 317.469C112.643 322.071 121.229 324.635 125.863 323.492L125.286 322.751C124.143 321.268 122.764 318.808 120.838 317.696C119.109 316.707 116.844 316.429 114.97 315.925C113.456 315.523 111.232 314.895 109.791 314.895C108.35 314.895 107.721 315.492 109.204 317.469M350.207 315.008C347.581 315.832 342.516 317.274 346.336 320.352C350.742 323.904 358.32 321.886 361.47 317.716L360.739 317.15C359.298 316.028 357.301 313.845 355.396 313.649C355.262 313.639 355.128 313.629 354.994 313.629C353.398 313.629 351.7 314.535 350.207 315.008ZM122.249 312.177C122.887 313.217 123.567 314.175 124.02 315.173C124.195 315.564 124.431 316.388 125.008 316.851C126.666 318.18 127.654 317.593 128.045 317.243L127.119 317.366C128.107 316.8 128.972 316.687 127.973 315.307C127.201 314.236 125.78 312.424 123.731 311.261C122.959 310.818 122.465 310.643 122.166 310.643C121.497 310.643 121.837 311.529 122.238 312.177M678.548 311.776C675.861 314.123 679.568 315.544 681.853 315.966C684.386 316.429 686.702 316.718 689.215 317.459C690.193 317.747 692.365 318.633 693.343 318.303C696.154 317.356 694.033 314.628 692.859 313.351L693.683 315.245C691.613 312.537 690.852 310.767 687.557 310.406C686.661 310.314 685.56 310.211 684.417 310.211C682.275 310.211 679.979 310.54 678.569 311.776M770.417 315.832C770.201 319.693 773.588 324.306 776.605 326.221L777.109 325.016C780.033 323.801 783.915 322.957 786.386 321.052C786.437 319.714 784.316 317.891 783.678 316.769C782.412 314.545 781.135 309.819 778.108 309.15C777.871 309.099 777.634 309.078 777.387 309.078C774.319 309.078 770.582 312.949 770.417 315.842M75.0634 309.274C75.7017 310.314 76.3813 311.271 76.8343 312.27C77.0093 312.661 77.2461 313.485 77.8227 313.948C79.4803 315.276 80.4687 314.689 80.8599 314.339L79.9333 314.463C80.9217 313.897 81.7865 313.783 80.7878 312.404C80.0156 311.333 78.5948 309.521 76.546 308.357C75.7738 307.915 75.2796 307.74 74.981 307.74C74.3118 307.74 74.6516 308.625 75.0531 309.274M507.896 309.181C508.782 310.067 509.667 310.839 510.398 311.786C510.676 312.157 511.181 313.032 511.788 313.248C513.569 313.876 514.115 312.579 514.28 311.909L513.621 312.61C514.177 311.333 514.794 310.664 513.508 309.583C512.509 308.738 510.728 307.379 508.71 307.173C508.514 307.153 508.339 307.143 508.185 307.143C506.352 307.143 507.165 308.45 507.907 309.191M742.063 303.601C742.948 304.486 743.834 305.258 744.565 306.206C744.853 306.576 745.347 307.451 745.954 307.668C747.736 308.296 748.281 306.988 748.446 306.329L747.777 307.029C748.333 305.753 748.951 305.083 747.653 304.002C746.655 303.158 744.873 301.799 742.855 301.593C742.66 301.573 742.485 301.562 742.33 301.562C740.487 301.562 741.321 302.87 742.052 303.611M838.101 302.211C835.414 304.558 839.131 305.979 841.406 306.401C843.939 306.875 846.255 307.153 848.768 307.894C849.746 308.182 851.918 309.068 852.896 308.738C855.707 307.791 853.586 305.063 852.412 303.786L853.236 305.681C851.177 302.973 850.405 301.202 847.11 300.842C846.214 300.749 845.113 300.646 843.97 300.646C841.828 300.646 839.532 300.975 838.122 302.211M135.283 296.003C131.711 296.178 135.139 299.019 137.384 300.461C139.885 302.067 142.212 303.446 144.601 305.217C145.527 305.907 147.515 307.606 148.637 307.894C151.89 308.718 150.552 305.825 149.738 304.373L149.986 306.041C148.709 303.199 148.482 301.634 145.147 299.709C142.634 298.257 138.444 296.003 135.551 296.003C135.469 296.003 135.376 296.003 135.293 296.003M296.978 299.709C296.762 303.57 300.149 308.193 303.166 310.097L303.67 308.893C306.594 307.678 310.475 306.834 312.946 304.929C313.008 303.601 310.877 301.768 310.239 300.646C308.972 298.432 307.696 293.696 304.669 293.027C304.432 292.976 304.195 292.955 303.948 292.955C300.88 292.955 297.143 296.826 296.978 299.719M901.626 294.015C902.511 294.901 903.397 295.673 904.128 296.62C904.406 296.991 904.91 297.866 905.518 298.082C907.299 298.71 907.845 297.413 908.009 296.744L907.34 297.444C907.896 296.167 908.514 295.498 907.227 294.417C906.228 293.573 904.447 292.214 902.429 292.008C902.233 291.987 902.058 291.977 901.904 291.977C900.061 291.977 900.885 293.284 901.626 294.026M197.603 294.314C201.052 298.916 209.639 301.48 214.272 300.337L213.696 299.596C212.553 298.123 211.173 295.652 209.248 294.541C207.518 293.552 205.253 293.274 203.379 292.77C201.866 292.368 199.642 291.74 198.2 291.74C196.759 291.74 196.131 292.337 197.614 294.314M462.41 288.456C463.295 289.341 464.181 290.113 464.912 291.061C465.2 291.431 465.694 292.306 466.302 292.523C468.083 293.151 468.628 291.843 468.793 291.174L468.134 291.884C468.69 290.608 469.308 289.938 468.021 288.857C467.022 288.013 465.241 286.654 463.223 286.448C463.027 286.427 462.852 286.417 462.698 286.417C460.855 286.417 461.679 287.725 462.42 288.466M415.78 286.047C414.493 286.294 412.321 286.808 410.88 288.25C409.109 290.031 410.818 290.258 411.94 290.144C413.186 290.01 414.339 289.815 415.533 289.846C415.997 289.856 416.985 290.021 417.551 289.681C419.168 288.693 418.488 287.457 418.076 286.901L418.2 287.859C417.644 286.788 417.469 285.974 416.367 285.974C416.192 285.974 415.997 285.995 415.77 286.036M53.2776 285.079C49.705 285.254 53.1232 288.095 55.378 289.537C57.8798 291.143 60.2066 292.523 62.5953 294.293C63.5219 294.983 65.5089 296.682 66.6312 296.97C69.8743 297.794 68.5462 294.901 67.7328 293.449L67.9799 295.117C66.7033 292.265 66.4665 290.711 63.1409 288.785C60.6288 287.334 56.4384 285.068 53.5453 285.068C53.4629 285.068 53.3703 285.068 53.2982 285.068M163.483 286.108C164.122 287.148 164.801 288.106 165.254 289.104C165.429 289.496 165.666 290.319 166.242 290.783C167.9 292.111 168.888 291.524 169.28 291.174L168.353 291.297C169.342 290.731 170.206 290.618 169.208 289.238C168.435 288.168 167.015 286.355 164.966 285.192C164.194 284.749 163.699 284.574 163.401 284.574C162.732 284.574 163.071 285.46 163.473 286.108M21.3094 282.742C18.8796 283.009 20.5989 284.039 21.8035 284.533C23.142 285.089 24.429 285.552 25.6542 286.18C26.1381 286.427 27.1161 287.045 27.8162 287.107C29.8239 287.282 29.5253 286.119 29.268 285.542L29.0929 286.242C28.8149 285.099 28.9797 284.44 27.147 283.792C25.891 283.349 23.8421 282.7 22.03 282.7C21.783 282.7 21.5462 282.711 21.3094 282.742ZM696.576 282.865C697.461 283.751 698.347 284.523 699.078 285.47C699.356 285.841 699.86 286.716 700.468 286.932C702.249 287.56 702.795 286.263 702.959 285.594L702.29 286.304C702.846 285.017 703.464 284.358 702.177 283.277C701.178 282.433 699.397 281.074 697.379 280.868C697.184 280.847 697.008 280.837 696.854 280.837C695.021 280.837 695.835 282.144 696.576 282.886M115.598 283.401C119.057 288.003 127.633 290.566 132.267 289.424L131.69 288.682C130.547 287.2 129.168 284.739 127.242 283.627C125.513 282.639 123.247 282.361 121.374 281.856C119.86 281.455 117.626 280.827 116.185 280.827C114.743 280.827 114.115 281.424 115.598 283.401ZM649.936 280.466C648.649 280.713 646.477 281.238 645.036 282.67C643.265 284.451 644.974 284.677 646.096 284.564C647.342 284.43 648.505 284.234 649.689 284.265C650.153 284.276 651.141 284.44 651.707 284.101C653.324 283.112 652.644 281.867 652.232 281.321L652.356 282.278C651.8 281.208 651.635 280.394 650.523 280.394C650.348 280.394 650.153 280.415 649.926 280.456M64.3352 278.551C62.863 280.991 64.9015 285.769 67.4446 288.579L68.3609 288.044C71.81 288.744 76.1342 290.175 79.3361 290.185C79.8303 289.331 78.2036 287.035 77.8947 285.974C77.2976 283.864 77.4932 280.085 74.5383 278.088C73.1896 277.172 71.3055 276.77 69.514 276.77C67.1872 276.77 65.0148 277.439 64.3352 278.551ZM81.4365 275.185C82.0748 276.224 82.7543 277.182 83.2073 278.181C83.3824 278.572 83.6192 279.395 84.1957 279.859C85.8533 281.187 86.8417 280.6 87.233 280.25L86.3064 280.374C87.2947 279.807 88.1596 279.694 87.1609 278.314C86.3887 277.244 84.9679 275.432 82.9191 274.268C82.1469 273.826 81.6527 273.65 81.3541 273.65C80.6849 273.65 81.0246 274.536 81.4262 275.185M495.716 272.672C493.101 273.496 488.026 274.937 491.845 278.016C496.252 281.568 503.83 279.55 506.98 275.38L506.249 274.814C504.808 273.702 502.82 271.509 500.906 271.313C500.772 271.303 500.638 271.293 500.504 271.293C498.908 271.293 497.209 272.199 495.716 272.672ZM856.109 273.27C856.994 274.155 857.879 274.927 858.61 275.874C858.888 276.245 859.393 277.12 860 277.336C861.782 277.964 862.327 276.657 862.492 275.998L861.823 276.698C862.379 275.421 862.996 274.762 861.709 273.671C860.711 272.827 858.93 271.468 856.912 271.262C856.716 271.241 856.551 271.231 856.397 271.231C854.554 271.231 855.378 272.539 856.119 273.28M809.479 270.86C808.192 271.107 806.02 271.622 804.589 273.064C802.818 274.845 804.527 275.071 805.649 274.958C806.895 274.824 808.058 274.629 809.242 274.659C809.706 274.67 810.694 274.835 811.26 274.495C812.877 273.506 812.197 272.271 811.785 271.715L811.909 272.672C811.353 271.602 811.188 270.788 810.076 270.788C809.901 270.788 809.706 270.809 809.479 270.85M729.893 267.072C727.278 267.895 722.202 269.337 726.022 272.415C730.428 275.967 738.006 273.949 741.157 269.779L740.426 269.213C738.984 268.091 736.987 265.908 735.082 265.712C734.948 265.702 734.814 265.692 734.681 265.692C733.085 265.692 731.386 266.598 729.883 267.061M109.667 259.535C107.238 259.803 108.957 260.832 110.162 261.326C111.51 261.882 112.777 262.346 114.012 262.974C114.496 263.221 115.474 263.839 116.164 263.9C118.172 264.075 117.873 262.912 117.616 262.335L117.441 263.036C117.163 261.893 117.327 261.234 115.495 260.585C114.239 260.142 112.19 259.494 110.378 259.494C110.131 259.494 109.894 259.504 109.667 259.535ZM889.426 257.466C886.81 258.289 881.735 259.731 885.554 262.809C889.961 266.361 897.539 264.343 900.689 260.173L899.958 259.607C898.517 258.495 896.519 256.302 894.615 256.107C894.481 256.096 894.347 256.086 894.213 256.086C892.617 256.086 890.919 256.992 889.426 257.466ZM370.263 256.724C367.576 259.082 371.292 260.493 373.568 260.915C376.101 261.388 378.417 261.666 380.929 262.408C381.907 262.696 384.08 263.581 385.058 263.252C387.869 262.305 385.758 259.576 384.574 258.3L385.398 260.194C383.328 257.486 382.566 255.715 379.261 255.355C378.366 255.262 377.264 255.17 376.121 255.17C373.98 255.17 371.684 255.499 370.273 256.735M152.704 255.334C151.231 257.774 153.27 262.552 155.813 265.362L156.729 264.827C160.178 265.527 164.513 266.958 167.704 266.958C168.199 266.104 166.572 263.808 166.263 262.747C165.666 260.637 165.862 256.858 162.907 254.861C161.558 253.955 159.674 253.553 157.882 253.553C155.555 253.553 153.383 254.222 152.714 255.334M442.487 257.332C442.271 261.193 445.659 265.815 448.675 267.72L449.169 266.516C452.093 265.301 455.975 264.456 458.446 262.552C458.508 261.224 456.376 259.391 455.738 258.269C454.472 256.045 453.195 251.319 450.168 250.65C449.931 250.598 449.695 250.578 449.447 250.578C446.369 250.578 442.642 254.449 442.477 257.342M27.6412 248.611C25.2114 248.879 26.9308 249.908 28.1354 250.403C29.4842 250.959 30.7505 251.422 31.986 252.05C32.4699 252.297 33.448 252.915 34.1378 252.977C36.1455 253.152 35.8469 251.988 35.5895 251.412L35.4145 252.112C35.1365 250.959 35.3013 250.31 33.4686 249.661C32.2125 249.219 30.1637 248.57 28.3516 248.57C28.1045 248.57 27.8677 248.58 27.6309 248.611M433.757 248.549C434.642 249.435 435.528 250.207 436.259 251.154C436.537 251.525 437.041 252.4 437.659 252.616C439.44 253.244 439.986 251.937 440.15 251.278L439.491 251.978C440.047 250.701 440.665 250.042 439.368 248.951C438.369 248.107 436.588 246.748 434.57 246.542C434.374 246.521 434.199 246.511 434.045 246.511C432.202 246.511 433.026 247.818 433.767 248.56M222.015 255.221L222.921 255.406C224.712 255.777 227.451 256.879 229.252 256.22C230.869 255.633 232.084 253.903 233.33 252.73C235.327 250.845 239.26 247.335 234.472 246.233C233.896 246.099 233.309 246.037 232.732 246.037C227.77 246.037 222.921 250.629 222.015 255.221ZM676.633 251.762C676.417 255.623 679.804 260.235 682.821 262.15L683.315 260.946C686.239 259.731 690.121 258.886 692.592 256.982C692.653 255.643 690.522 253.821 689.884 252.699C688.617 250.485 687.341 245.749 684.314 245.08C684.077 245.028 683.84 245.008 683.593 245.008C680.525 245.008 676.788 248.879 676.623 251.772M70.6568 244.431C69.1845 246.871 71.2231 251.648 73.7661 254.459L74.6825 253.924C78.1315 254.624 82.466 256.055 85.6577 256.065C86.1519 255.211 84.5252 252.915 84.2163 251.854C83.6192 249.744 83.8148 245.965 80.8599 243.968C79.5112 243.052 77.627 242.65 75.8356 242.65C73.5087 242.65 71.3363 243.319 70.6568 244.431ZM277.879 237.904C275.779 240.272 272.659 242.732 271.269 245.523C271.794 246.748 274.512 247.468 275.573 248.189C277.684 249.631 280.896 253.327 283.913 252.606C287.073 251.844 289.112 246.109 287.907 243.237C286.414 239.675 281.349 236.998 277.797 236.596L277.879 237.893V237.904ZM836.155 242.176C835.939 246.037 839.326 250.66 842.343 252.565L842.837 251.36C845.761 250.145 849.643 249.301 852.114 247.396C852.165 246.068 850.044 244.236 849.406 243.113C848.14 240.9 846.863 236.164 843.836 235.494C843.599 235.443 843.362 235.422 843.115 235.422C840.037 235.422 836.31 239.294 836.145 242.187M882.836 235.319C880.149 237.677 883.856 239.088 886.141 239.51C888.674 239.983 890.991 240.261 893.503 241.003C894.481 241.291 896.653 242.176 897.631 241.847C900.442 240.9 898.331 238.171 897.147 236.884L897.971 238.779C895.902 236.071 895.14 234.3 891.835 233.94C890.939 233.847 889.837 233.744 888.695 233.744C886.553 233.744 884.267 234.074 882.847 235.309M542.531 226.589C541.172 226.29 540.4 225.796 539.576 227.268C538.928 228.411 537.929 230.408 538.104 232.437C538.32 234.939 539.597 233.775 540.235 232.848C540.935 231.809 541.533 230.8 542.325 229.904C542.634 229.554 543.406 228.905 543.499 228.267C543.787 226.403 542.408 226.105 541.718 226.074L542.531 226.599V226.589ZM388.219 227.804C389.104 228.689 389.99 229.461 390.72 230.408C391.009 230.779 391.503 231.654 392.121 231.87C393.902 232.498 394.448 231.201 394.612 230.532L393.953 231.232C394.509 229.955 395.127 229.286 393.83 228.195C392.831 227.351 391.05 225.991 389.032 225.786C388.836 225.765 388.661 225.755 388.507 225.755C386.674 225.755 387.488 227.062 388.229 227.804M341.589 225.384C340.302 225.631 338.13 226.146 336.688 227.587C334.918 229.368 336.627 229.595 337.749 229.482C338.995 229.348 340.148 229.152 341.342 229.183C341.805 229.193 342.794 229.358 343.36 229.018C344.977 228.03 344.297 226.795 343.885 226.239L344.009 227.196C343.453 226.125 343.288 225.312 342.176 225.312C342.001 225.312 341.805 225.333 341.579 225.374M946.351 227.093C947.236 227.979 948.122 228.751 948.853 229.698C949.141 230.069 949.635 230.944 950.242 231.16C952.024 231.788 952.569 230.491 952.734 229.822L952.065 230.532C952.621 229.245 953.239 228.586 951.952 227.495C950.953 226.65 949.172 225.291 947.154 225.085C946.958 225.065 946.783 225.055 946.629 225.055C944.796 225.055 945.62 226.362 946.351 227.103M201.063 223.253C199.189 223.469 199.271 224.869 199.415 225.549L199.704 224.622C199.765 226.012 199.498 226.877 201.135 227.299C202.401 227.618 204.594 228.061 206.509 227.361C208.867 226.496 207.415 225.569 206.344 225.199C205.16 224.787 204.028 224.478 202.957 223.953C202.566 223.757 201.814 223.243 201.176 223.243C201.135 223.243 201.094 223.243 201.063 223.243M251.09 222.007C249.216 222.223 249.298 223.634 249.442 224.303L249.731 223.376C249.792 224.766 249.525 225.631 251.162 226.053C252.428 226.372 254.621 226.825 256.536 226.125C258.894 225.261 257.442 224.334 256.371 223.963C255.187 223.551 254.055 223.253 252.984 222.717C252.593 222.522 251.841 222.007 251.213 222.007C251.172 222.007 251.131 222.007 251.1 222.007M592.507 215.706L594.484 216.303C591.086 216.128 589.233 215.572 586.834 217.858C584.97 219.629 582.026 222.717 582.077 225.611C582.139 229.183 585.619 227.258 587.41 225.786C589.408 224.149 591.117 222.573 593.299 221.132C594.154 220.576 596.234 219.485 596.615 218.527C597.593 216.066 594.947 215.685 593.135 215.685C592.919 215.685 592.702 215.685 592.517 215.696M421.556 211.989C418.941 212.813 413.865 214.254 417.685 217.333C422.092 220.885 429.669 218.877 432.82 214.697L432.089 214.131C430.647 213.009 428.66 210.826 426.745 210.63C426.611 210.62 426.478 210.61 426.344 210.61C424.748 210.61 423.049 211.516 421.556 211.989ZM636.799 209.096C635.44 208.798 634.678 208.303 633.844 209.776C633.195 210.919 632.197 212.916 632.372 214.944C632.588 217.446 633.865 216.283 634.503 215.356C635.203 214.316 635.8 213.307 636.593 212.411C636.902 212.061 637.674 211.413 637.767 210.774C638.055 208.911 636.675 208.612 635.986 208.581L636.799 209.106V209.096ZM900.844 206.327C901.729 207.212 902.614 207.984 903.345 208.931C903.634 209.302 904.128 210.177 904.746 210.393C906.527 211.021 907.073 209.714 907.237 209.055L906.568 209.755C907.124 208.478 907.742 207.809 906.444 206.728C905.446 205.884 903.665 204.525 901.647 204.319C901.451 204.298 901.276 204.288 901.122 204.288C899.289 204.288 900.113 205.596 900.844 206.337M854.204 203.917C852.917 204.165 850.745 204.679 849.303 206.131C847.532 207.912 849.241 208.139 850.364 208.025C851.609 207.892 852.762 207.696 853.957 207.727C854.42 207.737 855.409 207.912 855.964 207.562C857.581 206.574 856.912 205.338 856.49 204.782L856.613 205.74C856.057 204.669 855.892 203.856 854.78 203.856C854.605 203.856 854.41 203.876 854.183 203.917M301.045 200.386C299.984 201.045 299.027 201.735 297.946 202.229C297.523 202.425 296.556 202.703 296.206 203.259C295.186 204.854 296.329 205.678 296.947 205.987L296.411 205.184C297.534 206.007 298.038 206.769 299.387 205.76C300.437 204.978 302.167 203.557 302.826 201.632C303.289 200.293 302.97 199.882 302.424 199.882C302.012 199.882 301.456 200.129 301.034 200.396M686.733 198.255L688.71 198.852C685.313 198.677 683.459 198.121 681.06 200.407C679.197 202.177 676.252 205.266 676.304 208.159C676.366 211.732 679.846 209.807 681.637 208.345C683.634 206.708 685.343 205.132 687.526 203.691C688.381 203.135 690.46 202.044 690.841 201.086C691.819 198.625 689.184 198.244 687.361 198.244C687.135 198.244 686.929 198.244 686.744 198.255M368.286 196.69C368.07 200.551 371.457 205.174 374.474 207.078L374.968 205.874C377.892 204.659 381.773 203.814 384.244 201.91C384.306 200.571 382.175 198.749 381.537 197.627C380.27 195.413 378.994 190.677 375.967 190.008C375.73 189.956 375.493 189.936 375.246 189.936C372.168 189.936 368.441 193.807 368.276 196.7M934.13 190.564C931.515 191.388 926.439 192.829 930.258 195.907C934.665 199.459 942.243 197.441 945.393 193.272L944.662 192.705C943.221 191.593 941.223 189.4 939.319 189.205C939.185 189.195 939.051 189.184 938.917 189.184C937.321 189.184 935.623 190.09 934.13 190.554M575.467 189.184C574.17 189.4 571.987 189.884 570.525 191.295C568.724 193.035 570.422 193.303 571.545 193.21C572.79 193.107 573.954 192.932 575.148 192.983C575.611 193.004 576.6 193.189 577.166 192.86C578.793 191.902 578.154 190.646 577.743 190.09L577.856 191.048C577.31 189.956 577.166 189.122 576.013 189.122C575.848 189.122 575.663 189.143 575.457 189.174M255.054 187.743C252.572 188.433 250.369 189.184 247.785 189.617C246.776 189.781 244.439 189.936 243.708 190.657C241.587 192.736 244.696 194.27 246.312 194.898L244.747 193.56C247.785 195.094 249.257 196.35 252.377 195.228C254.796 194.353 258.739 192.726 259.862 190.059C260.757 187.938 259.429 187.331 257.782 187.331C256.866 187.331 255.857 187.516 255.054 187.733M534.768 178.137C532.184 180.114 532.637 186.178 534.902 188.319C537.713 190.976 543.427 191.377 546.835 190.296L546.238 189.133C547.206 186.116 549.059 182.605 549.203 179.486C548.225 178.58 545.455 179.022 544.189 178.786C542.439 178.456 539.741 177.344 537.435 177.344C536.436 177.344 535.52 177.55 534.779 178.116M669.704 171.681C668.407 171.898 666.224 172.382 664.762 173.792C662.961 175.532 664.659 175.8 665.781 175.707C667.027 175.604 668.191 175.429 669.385 175.481C669.848 175.501 670.837 175.687 671.403 175.357C673.04 174.4 672.391 173.154 671.99 172.587L672.103 173.545C671.557 172.454 671.413 171.63 670.26 171.63C670.095 171.63 669.91 171.651 669.704 171.681ZM880.87 175.192C880.654 179.053 884.041 183.676 887.058 185.581L887.552 184.376C890.476 183.161 894.357 182.317 896.828 180.412C896.89 179.084 894.759 177.251 894.12 176.129C892.854 173.916 891.577 169.18 888.55 168.51C888.314 168.459 888.077 168.438 887.83 168.438C884.762 168.438 881.024 172.31 880.86 175.203M620.707 167.8C619.41 168.016 617.227 168.5 615.765 169.911C613.963 171.651 615.662 171.918 616.784 171.826C618.03 171.723 619.193 171.548 620.388 171.599C620.851 171.62 621.839 171.805 622.406 171.476C624.043 170.518 623.394 169.262 622.992 168.706L623.106 169.664C622.56 168.572 622.416 167.748 621.263 167.748C621.098 167.748 620.913 167.769 620.707 167.8ZM628.995 160.665C626.411 162.642 626.864 168.706 629.139 170.848C631.95 173.504 637.664 173.905 641.072 172.835L640.475 171.681C641.442 168.665 643.296 165.154 643.44 162.045C642.462 161.139 639.692 161.581 638.426 161.345C636.675 161.015 633.978 159.903 631.672 159.903C630.673 159.903 629.757 160.109 629.005 160.675M421.34 157.257C417.973 158.297 413.495 159.121 410.684 160.644C410.663 161.623 413.196 162.858 413.968 163.651C415.513 165.216 417.15 168.624 420.702 168.963C424.418 169.313 429.319 165.957 429.422 163.661C429.546 160.819 425.458 157.597 421.886 156.351L421.34 157.257ZM589.449 150.905C587.668 151.286 584.703 151.389 583.323 152.727C582.087 153.921 581.665 155.991 581.006 157.566C579.946 160.099 577.763 164.897 582.592 163.97C588.152 162.899 591.508 155.805 590.345 150.709L589.439 150.905H589.449ZM714.954 150.349C713.667 150.565 711.474 151.049 710.012 152.459C708.21 154.199 709.909 154.467 711.031 154.374C712.277 154.271 713.44 154.096 714.635 154.148C715.098 154.168 716.086 154.354 716.653 154.024C718.279 153.067 717.641 151.811 717.24 151.255L717.353 152.212C716.807 151.121 716.663 150.287 715.51 150.287C715.345 150.287 715.16 150.307 714.954 150.338M353.779 153.726L354.644 154.107C356.364 154.848 358.752 156.361 360.976 156.403C362.974 156.444 365.094 155.6 366.968 155.136C369.985 154.395 375.843 153.077 371.292 151.008C369.645 150.256 367.658 149.927 365.599 149.927C361.079 149.927 356.199 151.502 353.779 153.715M191.529 145.407C188.605 146.632 184.734 147.497 182.273 149.422C182.221 150.761 184.353 152.573 185.001 153.685C186.278 155.898 187.575 160.624 190.613 161.272C193.794 161.952 198.108 157.659 198.262 154.549C198.458 150.688 195.05 146.086 192.013 144.192L191.519 145.396L191.529 145.407ZM397.691 140.135L398.442 139.579C397.845 140.547 397.145 141.062 398.679 141.803C399.873 142.37 401.984 143.276 404.342 143.327C407.255 143.389 406.164 142.349 405.207 141.803C404.146 141.196 403.096 140.681 402.211 140.022C401.871 139.765 401.263 139.147 400.543 139.023C400.223 138.962 399.935 138.941 399.688 138.941C398.278 138.941 397.835 139.713 397.691 140.135ZM463.861 137.963C462.42 138.128 461.082 138.334 459.692 138.364C459.578 138.364 459.455 138.364 459.3 138.364C458.703 138.364 457.869 138.364 457.355 138.581C455.512 139.384 456.335 140.269 456.829 140.65L456.644 139.95C457.437 140.825 457.612 141.474 459.527 141.165C461.02 140.918 463.532 140.424 465.148 139.291C466.724 138.189 465.818 137.901 464.726 137.901C464.438 137.901 464.129 137.922 463.851 137.953M683.676 133.392C681.894 133.773 678.929 133.876 677.549 135.214C676.314 136.408 675.892 138.478 675.233 140.053C674.173 142.586 671.99 147.384 676.819 146.457C682.378 145.386 685.735 138.303 684.582 133.206L683.676 133.402V133.392ZM133.646 136.83L134.377 137.386C135.829 138.498 137.826 140.671 139.741 140.856C141.45 141.021 143.304 139.991 144.93 139.476C147.545 138.642 152.611 137.17 148.771 134.112C147.195 132.856 145.229 132.311 143.211 132.311C139.535 132.311 135.664 134.123 133.656 136.83M498.568 127.451C495.202 128.491 490.723 129.314 487.912 130.838C487.892 131.827 490.424 133.052 491.197 133.845C492.741 135.41 494.378 138.817 497.93 139.157C501.647 139.507 506.548 136.151 506.651 133.855C506.774 131.013 502.687 127.791 499.114 126.545L498.568 127.461V127.451ZM344.06 127.214L344.812 126.658C344.215 127.626 343.515 128.141 345.049 128.882C346.243 129.448 348.354 130.354 350.711 130.406C353.625 130.468 352.523 129.428 351.576 128.882C350.516 128.275 349.455 127.76 348.58 127.101C348.24 126.844 347.633 126.226 346.912 126.102C346.593 126.04 346.305 126.02 346.058 126.02C344.657 126.02 344.215 126.792 344.07 127.214M228.645 121.582C227.399 121.716 226.246 121.922 225.052 121.902C224.588 121.902 223.59 121.727 223.044 122.077C221.438 123.075 222.117 124.311 222.529 124.856L222.395 123.899C223.044 125.134 223.178 126.03 224.836 125.701C226.123 125.454 228.295 124.918 229.726 123.467C231.239 121.932 230.189 121.552 229.16 121.552C228.985 121.552 228.82 121.562 228.655 121.582M431.039 123.94L431.904 124.321C433.613 125.062 436.001 126.576 438.235 126.617C440.233 126.658 442.354 125.814 444.227 125.351C447.244 124.609 453.102 123.291 448.552 121.222C446.904 120.47 444.917 120.151 442.858 120.141C438.338 120.141 433.458 121.716 431.039 123.94ZM171.792 120.841L172.451 120.131C171.905 121.418 171.287 122.077 172.585 123.158C173.594 124.002 175.375 125.351 177.403 125.536C179.905 125.773 178.989 124.311 178.196 123.518C177.31 122.633 176.415 121.871 175.684 120.934C175.395 120.563 174.901 119.698 174.283 119.482C173.954 119.369 173.666 119.317 173.419 119.317C172.307 119.317 171.926 120.285 171.802 120.831M882.569 117.114C879.881 119.461 883.588 120.882 885.874 121.304C888.406 121.768 890.723 122.056 893.235 122.797C894.213 123.086 896.385 123.971 897.364 123.642C900.174 122.694 898.053 119.966 896.88 118.679L897.703 120.573C895.634 117.866 894.872 116.095 891.567 115.734C890.671 115.642 889.57 115.539 888.427 115.539C886.285 115.539 884 115.868 882.579 117.104M407.791 115.549C404.548 116.383 407.101 118.288 408.522 119.163L407.513 117.814C410.004 119.698 410.952 120.954 414.802 121.047C417.788 121.119 422.751 121.088 425.221 119.575C428.269 117.711 423.904 116.857 421.237 116.671C418.272 116.455 415.574 116.373 412.63 115.961C411.724 115.837 409.922 115.467 408.656 115.467C408.326 115.467 408.038 115.487 407.811 115.549M474.991 110.35L475.743 109.794C475.146 110.762 474.445 111.276 475.98 112.018C477.174 112.584 479.284 113.49 481.642 113.541C484.556 113.603 483.465 112.563 482.507 112.018C481.447 111.41 480.396 110.895 479.511 110.236C479.171 109.979 478.564 109.361 477.843 109.238C477.524 109.186 477.236 109.155 476.989 109.155C475.578 109.155 475.135 109.928 474.991 110.35ZM541.162 108.177C539.72 108.332 538.372 108.548 536.992 108.579C536.889 108.579 536.755 108.579 536.611 108.579C536.014 108.579 535.17 108.579 534.665 108.795C532.822 109.598 533.646 110.484 534.14 110.865L533.955 110.164C534.748 111.04 534.923 111.688 536.838 111.379C538.331 111.132 540.843 110.638 542.459 109.506C544.034 108.404 543.128 108.116 542.037 108.116C541.749 108.116 541.44 108.136 541.162 108.167M946.093 108.888C946.979 109.773 947.864 110.545 948.595 111.493C948.883 111.863 949.378 112.738 949.985 112.955C951.766 113.583 952.312 112.285 952.477 111.616L951.807 112.316C952.353 111.04 952.981 110.37 951.694 109.279C950.696 108.435 948.914 107.076 946.896 106.87C946.701 106.849 946.526 106.839 946.371 106.839C944.539 106.839 945.362 108.146 946.093 108.888ZM126.202 100.281L126.861 99.5701C126.316 100.857 125.698 101.516 126.995 102.597C128.004 103.441 129.785 104.79 131.814 104.986C134.315 105.222 133.399 103.76 132.606 102.968C131.711 102.082 130.825 101.32 130.094 100.383C129.806 100.013 129.312 99.148 128.694 98.9318C128.364 98.8185 128.076 98.767 127.829 98.767C126.717 98.767 126.336 99.7348 126.213 100.281M421.371 97.4286L422.123 96.8726C421.525 97.8404 420.825 98.3552 422.359 99.0965C423.554 99.6628 425.664 100.569 428.022 100.62C430.936 100.672 429.834 99.6422 428.887 99.0965C427.826 98.4891 426.776 97.9743 425.891 97.3153C425.551 97.0579 424.944 96.4402 424.223 96.3166C423.904 96.2652 423.615 96.2343 423.368 96.2343C421.968 96.2343 421.515 97.0065 421.371 97.4286ZM823.296 95.6371L824.058 95.04C823.327 96.224 822.617 96.7902 823.728 98.0566C824.593 99.0347 826.158 100.641 828.125 101.145C830.555 101.763 829.885 100.167 829.206 99.2715C828.454 98.2626 827.692 97.3771 827.116 96.3269C826.889 95.9254 826.529 94.9885 825.952 94.6796C825.53 94.4531 825.17 94.3708 824.861 94.3708C823.945 94.3708 823.492 95.1738 823.296 95.6474M487.83 94.4531C484.463 95.493 479.985 96.3167 477.174 97.8404C477.153 98.8288 479.676 100.054 480.458 100.847C482.003 102.412 483.64 105.82 487.192 106.159C490.908 106.509 495.819 103.153 495.912 100.857C496.036 98.0154 491.948 94.7929 488.376 93.5471L487.84 94.4531H487.83ZM181.243 88.008C178.433 88.9655 180.564 91.6939 181.758 92.9603L180.924 91.0761C183.004 93.7736 183.776 95.5445 187.081 95.8842C189.645 96.1519 193.897 96.3784 196.069 94.4634C198.746 92.0954 195.029 90.7055 192.744 90.2937C190.211 89.8406 187.894 89.573 185.372 88.8419C184.548 88.6051 182.86 87.9462 181.779 87.9462C181.583 87.9462 181.398 87.9668 181.254 88.0183M420.29 90.9423L421.155 91.3129C422.874 92.0645 425.252 93.5677 427.487 93.6089C429.484 93.6501 431.605 92.8058 433.479 92.3425C436.495 91.6012 442.354 90.2833 437.803 88.2139C436.156 87.4623 434.169 87.1329 432.109 87.1329C427.59 87.1329 422.709 88.7081 420.29 90.9217M900.596 88.1315C901.482 89.017 902.367 89.7892 903.098 90.7364C903.376 91.107 903.881 91.9821 904.488 92.1983C906.269 92.8264 906.815 91.5291 906.98 90.8599L906.321 91.56C906.867 90.2833 907.495 89.6141 906.197 88.5331C905.199 87.6888 903.417 86.3298 901.399 86.1239C901.204 86.1033 901.029 86.093 900.874 86.093C899.042 86.093 899.865 87.4006 900.596 88.1419M485.071 85.7841C481.827 86.6181 484.381 88.5228 485.802 89.3979L484.782 88.0492C487.274 89.9333 488.221 91.1894 492.072 91.282C495.058 91.3541 500.01 91.3232 502.491 89.8098C505.549 87.9462 501.173 87.0917 498.507 86.9063C495.541 86.6901 492.844 86.6078 489.899 86.1959C488.983 86.0724 487.181 85.7017 485.925 85.7017C485.596 85.7017 485.307 85.7223 485.081 85.7841M853.967 85.7223C852.68 85.9694 850.508 86.4842 849.066 87.9256C847.295 89.7068 849.005 89.9333 850.127 89.82C851.372 89.6862 852.536 89.4906 853.72 89.5215C854.183 89.5318 855.172 89.6965 855.738 89.3567C857.354 88.3683 856.675 87.1329 856.263 86.5769L856.387 87.5344C855.831 86.4636 855.656 85.6503 854.554 85.6503C854.379 85.6503 854.183 85.6709 853.957 85.712M464.201 77.3416L464.953 76.7856C464.356 77.7534 463.656 78.2785 465.19 79.0095C466.384 79.5758 468.495 80.4818 470.852 80.5333C473.766 80.5951 472.664 79.5552 471.717 79.0095C470.657 78.4021 469.606 77.8873 468.721 77.2284C468.381 76.971 467.774 76.3532 467.053 76.2297C466.734 76.1679 466.446 76.1473 466.199 76.1473C464.788 76.1473 464.345 76.9195 464.201 77.3416ZM530.372 75.1692C528.93 75.3236 527.582 75.5398 526.202 75.581C526.099 75.581 525.965 75.581 525.821 75.581C525.224 75.581 524.38 75.581 523.865 75.7972C522.022 76.6003 522.846 77.4857 523.34 77.8667L523.155 77.1666C523.947 78.0417 524.112 78.6903 526.037 78.3815C527.53 78.1344 530.042 77.6402 531.659 76.5076C533.234 75.406 532.328 75.1177 531.237 75.1177C530.948 75.1177 530.64 75.1383 530.362 75.1692M779.467 77.8667C778.201 80.0803 774.783 83.6014 775.761 86.546C776.78 89.6347 782.669 91.1894 785.428 89.748C788.857 87.9668 791.101 82.6954 791.204 79.1228L789.917 79.3081C787.385 77.4137 784.677 74.5103 781.773 73.3571C780.6 73.9852 780.105 76.7445 779.477 77.8667M933.903 72.3379C931.288 73.1615 926.212 74.603 930.032 77.6814C934.439 81.2334 942.016 79.2154 945.167 75.0457L944.436 74.4794C942.994 73.3674 941.007 71.1745 939.092 70.9788C938.958 70.9685 938.825 70.9583 938.691 70.9583C937.095 70.9583 935.396 71.8643 933.893 72.3379M55.3882 66.9635C52.4745 68.1887 48.5931 69.0535 46.1324 70.9788C46.0809 72.3173 48.2121 74.1293 48.8607 75.2413C50.1374 77.4548 51.4347 82.1806 54.4719 82.8292C57.6533 83.5191 61.9672 79.2257 62.1217 76.1061C62.3173 72.2452 58.9094 67.643 55.8824 65.7486L55.3882 66.9532V66.9635ZM410.55 64.441L411.302 63.8851C410.705 64.8529 410.004 65.3676 411.538 66.1089C412.733 66.6752 414.843 67.5812 417.201 67.6327C420.115 67.6842 419.013 66.6546 418.066 66.1089C417.006 65.5015 415.955 64.9867 415.07 64.3278C414.73 64.0704 414.123 63.4527 413.402 63.3291C413.083 63.2776 412.805 63.2467 412.547 63.2467C411.137 63.2467 410.694 64.0189 410.55 64.441ZM-2.4944 58.418L-1.76341 58.974C-0.311708 60.0859 1.68566 62.2583 3.60067 62.4437C5.30976 62.6084 7.163 61.5788 8.77943 61.064C11.3945 60.2301 16.4601 58.7681 12.6197 55.7C11.0548 54.4439 9.07801 53.8982 7.06004 53.8982C3.38446 53.8982 -0.486735 55.7102 -2.4944 58.418ZM474.229 52.7863C470.986 53.6202 473.539 55.5249 474.96 56.4001L473.941 55.0513C476.433 56.9354 477.38 58.1915 481.23 58.2842C484.216 58.3563 489.168 58.3254 491.65 56.8119C494.707 54.9484 490.332 54.0938 487.665 53.9085C484.7 53.6923 482.003 53.6099 479.058 53.1878C478.142 53.0643 476.34 52.6936 475.084 52.6936C474.754 52.6936 474.466 52.7142 474.24 52.776M880.643 57.0075C880.427 60.8684 883.814 65.4809 886.831 67.3959L887.336 66.1913C890.26 64.9764 894.141 64.1322 896.612 62.2275C896.674 60.8993 894.543 59.0667 893.904 57.9444C892.638 55.7308 891.361 50.9948 888.334 50.3256C888.097 50.2741 887.861 50.2432 887.614 50.2432C884.535 50.2432 880.808 54.1144 880.643 57.0075ZM801.088 49.8314L802.035 50.0476C800.656 50.2226 799.77 50.027 799.492 51.6949C799.276 52.9922 799.019 55.2058 799.873 57.0487C800.934 59.3241 801.737 57.8003 802.015 56.7089C802.324 55.494 802.54 54.3409 802.972 53.229C803.147 52.7966 803.641 51.9214 803.518 51.2831C803.261 50.0064 802.53 49.7078 801.871 49.7078C801.572 49.7078 801.294 49.7696 801.088 49.8314ZM92.4941 43.1598C91.2483 43.2936 90.0952 43.4995 88.9009 43.4789C88.4376 43.4789 87.4492 43.3039 86.8932 43.6539C85.2871 44.6526 85.9666 45.8881 86.3784 46.4338L86.2446 45.4763C86.9035 46.7118 87.027 47.6075 88.6847 47.2883C89.9716 47.0412 92.144 46.5059 93.5648 45.0542C95.0783 43.5201 94.0282 43.1391 92.9986 43.1391C92.8236 43.1391 92.6588 43.1494 92.4941 43.17M35.6307 42.4287L36.2896 41.7183C35.744 43.0053 35.1262 43.6642 36.4235 44.7556C37.4325 45.5998 39.2136 46.9486 41.2316 47.1442C43.7335 47.381 42.8171 45.919 42.0244 45.1262C41.1286 44.2511 40.2432 43.4789 39.5122 42.542C39.2239 42.1817 38.7297 41.3065 38.112 41.0903C37.7825 40.9771 37.4943 40.9256 37.2472 40.9256C36.1352 40.9256 35.7543 41.8934 35.6307 42.439M830.132 44.2923L831.337 42.6244C830.06 45.7852 828.928 47.3501 830.307 50.3668C831.378 52.7039 833.324 56.4927 836.083 57.3988C839.481 58.5107 838.801 54.5983 837.998 52.4156C837.103 49.9961 836.166 47.8649 835.527 45.3218C835.28 44.3334 834.93 42.0169 834.148 41.3374C833.654 40.9153 833.211 40.7403 832.809 40.7403C831.378 40.7403 830.524 42.9847 830.132 44.2923ZM767.905 25.9967C767.678 27.8088 766.814 30.6401 767.627 32.3801C768.348 33.9348 770.17 35.0158 771.447 36.1484C773.496 37.981 777.315 41.6051 778.015 36.7455C778.829 31.1446 773.218 25.6467 768.018 25.0804L767.905 25.9967ZM-10 21.9196L-9.34107 21.2092C-9.88675 22.4962 -10.5045 23.1551 -9.20723 24.2362C-8.19825 25.0804 -6.41709 26.4292 -4.38882 26.6248C-1.88696 26.8616 -2.80328 25.3996 -3.59605 24.6068C-4.49178 23.7317 -5.37721 22.9595 -6.10821 22.0226C-6.39649 21.652 -6.89069 20.7871 -7.50843 20.5709C-7.8379 20.4576 -8.12618 20.4062 -8.37328 20.4062C-9.48522 20.4062 -9.86616 21.374 -9.98971 21.9196M45.0307 9.63683C42.22 10.5943 44.3512 13.3227 45.5455 14.5891L44.7116 12.7049C46.7913 15.4024 47.5635 17.1733 50.8684 17.5131C53.4321 17.7808 57.6842 18.0073 59.8566 16.0922C62.5335 13.7242 58.8167 12.3343 56.5311 11.9225C53.9983 11.4694 51.6818 11.1915 49.1593 10.4708C48.3357 10.234 46.6472 9.57503 45.5661 9.57503C45.3705 9.57503 45.1852 9.59562 45.0307 9.6471M795.724 0.123544L796.671 0.339761C795.292 0.514789 794.406 0.319176 794.128 1.98709C793.912 3.28435 793.655 5.49793 794.509 7.34087C795.57 9.61623 796.373 8.09245 796.651 7.00111C796.96 5.78621 797.176 4.63308 797.608 3.52114C797.783 3.08872 798.277 2.21358 798.154 1.57525C797.907 0.298575 797.165 0 796.507 0C796.208 0 795.93 0.0617694 795.724 0.123544Z" fill="white"/>
    </mask>
    <g mask="url(#mask0_403_1101)">
        <path d="M62.5765 -255.364L-113.407 358.363L879.985 643.213L1055.97 29.4866L62.5765 -255.364Z" fill="url(#paint0_radial_403_1101)"/>
    </g>
    <defs>
        <radialGradient id="paint0_radial_403_1101" cx="0" cy="0" r="1" gradientUnits="userSpaceOnUse" gradientTransform="translate(635.681 275.227) rotate(-164) scale(392.762 392.762)">
        <stop stop-color="#836942"/>
        <stop offset="0.27" stop-color="#6B5636"/>
        <stop offset="1" stop-color="#C7B07E"/>
    </radialGradient>
    </defs>
</svg>
