<svg width="197" height="24" viewBox="0 0 197 24" fill="none" xmlns="http://www.w3.org/2000/svg">
<path d="M0.604553 23.0026V2.3999H13.8596C15.0511 2.3999 16.1123 2.54881 17.0431 2.82798C17.9739 3.10715 18.7372 3.53518 19.3702 4.07491C20.0031 4.63324 20.4686 5.30328 20.8037 6.08495C21.1201 6.88524 21.2877 7.77855 21.2877 8.78356C21.2877 10.0863 20.9898 11.1844 20.4127 12.1336C19.8356 13.0642 18.9978 13.7714 17.8995 14.2739C16.8942 14.7392 15.6841 14.9997 14.2506 15.0183L21.8276 23.0212H17.825L10.3783 15.1672H3.78801V23.0212H0.641787L0.604553 23.0026ZM3.75077 4.8566V12.6547H13.357C14.1203 12.6547 14.8091 12.5803 15.3862 12.4128C15.9819 12.2453 16.466 12.0033 16.8942 11.6683C17.3037 11.3333 17.6202 10.9239 17.825 10.44C18.0298 9.95609 18.1415 9.39773 18.1415 8.78356C18.1415 8.16938 18.0484 7.57385 17.8436 7.07135C17.6388 6.56885 17.341 6.178 16.95 5.843C16.5404 5.52661 16.0378 5.26606 15.4421 5.09856C14.8463 4.93106 14.1575 4.8566 13.357 4.8566H3.75077Z" fill="url(#paint0_linear_7_621)"/>
<path d="M35.6225 23.2815C34.3194 23.2815 33.1279 23.1513 32.0481 22.8907C30.9498 22.6302 30.0003 22.2766 29.1998 21.7927C28.3806 21.3274 27.6918 20.7504 27.1147 20.0618C26.5376 19.3732 26.1094 18.5915 25.8115 17.7354C25.5137 16.8792 25.3647 15.9301 25.3647 14.9065C25.3647 13.8829 25.5137 13.0081 25.8115 12.152C26.1094 11.2959 26.5376 10.5328 27.0961 9.86284C27.6546 9.19283 28.3434 8.61584 29.1625 8.13195C29.9817 7.64805 30.9125 7.27583 31.9923 7.03389C33.0534 6.77333 34.2263 6.64307 35.5108 6.64307C37.056 6.64307 38.4523 6.82917 39.681 7.22001C40.9097 7.61085 41.9522 8.15058 42.8272 8.85781C43.6836 9.56504 44.3538 10.4026 44.8006 11.3703C45.2474 12.3381 45.4708 13.4176 45.4708 14.6273C45.4708 14.832 45.4708 15.0181 45.4708 15.2228C45.4708 15.4276 45.4335 15.6137 45.3963 15.7812H28.3434C28.3993 16.2093 28.4923 16.6187 28.604 16.9909C28.7902 17.6423 29.0881 18.2007 29.479 18.7032C29.87 19.1871 30.354 19.6151 30.9311 19.9687C31.5083 20.3224 32.2157 20.5829 32.9976 20.769C33.7795 20.9365 34.6731 21.0296 35.6412 21.0296C37.0002 21.0296 38.1358 20.9179 39.0666 20.676C39.9975 20.434 40.7421 20.0804 41.3006 19.6151C41.8777 19.1498 42.2687 18.5729 42.5107 17.9029L45.3963 18.4054C45.0426 19.4849 44.4655 20.3968 43.6649 21.1226C42.8644 21.8485 41.8033 22.3882 40.4815 22.7604C39.1597 23.114 37.5587 23.3002 35.6598 23.3002L35.6225 23.2815ZM28.3993 13.5665H42.5107C42.4362 12.9895 42.2687 12.4684 42.0453 12.0031C41.7288 11.3517 41.282 10.7934 40.6677 10.3467C40.0719 9.88141 39.3459 9.52782 38.4895 9.26726C37.6331 9.0067 36.6465 8.87644 35.5295 8.87644C34.5428 8.87644 33.6678 8.96947 32.8859 9.13697C32.104 9.30447 31.4338 9.56505 30.8753 9.91867C30.2982 10.2537 29.8328 10.6817 29.4232 11.1656C29.0136 11.6495 28.753 12.2078 28.5668 12.8406C28.4923 13.0825 28.4365 13.3059 28.3806 13.5478L28.3993 13.5665Z" fill="url(#paint1_linear_7_621)"/>
<path d="M57.702 8.89501C56.4546 8.89501 55.3935 8.9881 54.5557 9.1556C53.718 9.3231 53.0664 9.58363 52.6382 9.93724C52.21 10.2722 51.9866 10.7003 51.9866 11.1842C51.9866 11.6681 52.1169 12.0775 52.3962 12.3753C52.6754 12.6731 53.1409 12.9151 53.7924 13.1012C54.444 13.2687 55.3376 13.4176 56.436 13.5106L60.2711 13.7153C61.9466 13.8456 63.2683 14.1062 64.2736 14.4598C65.2789 14.8134 66.005 15.2973 66.4704 15.9115C66.9358 16.5257 67.1592 17.3073 67.1592 18.2565C67.1592 19.3173 66.8241 20.2293 66.1353 20.9738C65.4465 21.7368 64.4226 22.2952 63.0822 22.7046C61.7418 23.0954 60.0663 23.3002 58.0557 23.3002C56.0451 23.3002 54.4813 23.114 53.1595 22.7418C51.8377 22.3696 50.8138 21.7926 50.0691 21.011C49.3244 20.2293 48.8218 19.2429 48.5612 18.0518L51.4095 17.6051C51.6143 18.7776 52.2473 19.6523 53.3456 20.2293C54.444 20.8062 55.9892 21.0854 57.9626 21.0854C59.0424 21.0854 59.9732 21.0296 60.7551 20.9179C61.537 20.8063 62.17 20.6387 62.6912 20.4154C63.1939 20.1921 63.5848 19.9315 63.8268 19.6338C64.0689 19.336 64.1992 18.9824 64.1992 18.5915C64.1992 18.0704 64.0689 17.6423 63.7896 17.3259C63.5104 17.0095 63.0636 16.749 62.4492 16.5628C61.8349 16.3581 60.9785 16.2278 59.8987 16.1534L56.0078 15.9115C54.3696 15.7812 53.0664 15.5206 52.0425 15.167C51.0372 14.8134 50.2925 14.3295 49.8271 13.7153C49.3617 13.1012 49.1197 12.3381 49.1197 11.4262C49.1197 10.4212 49.4548 9.56504 50.125 8.85781C50.7952 8.15058 51.7632 7.61085 53.0478 7.22001C54.3323 6.82917 55.8775 6.64307 57.702 6.64307C59.5264 6.64307 61.0716 6.8292 62.3375 7.18281C63.6034 7.55503 64.6087 8.09477 65.3348 8.82061C66.0608 9.54645 66.5449 10.477 66.7683 11.6123L63.9758 12.0218C63.8641 11.2959 63.5476 10.7003 63.0636 10.235C62.5795 9.76975 61.8907 9.43477 60.9971 9.21143C60.1221 8.9881 59.0051 8.87644 57.702 8.87644V8.89501Z" fill="url(#paint2_linear_7_621)"/>
<path d="M71.8134 4.50296V1.52515H75.0154V4.50296H71.8134ZM71.9251 23.0026V6.97824H74.9037V23.0026H71.9251Z" fill="url(#paint3_linear_7_621)"/>
<path d="M97.1693 0.910889H100.148V23.0025H97.4672L97.2624 19.671C96.9273 20.1363 96.5363 20.583 96.0895 20.9738C95.2518 21.7183 94.2279 22.2952 93.0364 22.7047C91.8449 23.1141 90.5231 23.3002 89.0524 23.3002C87.9168 23.3002 86.8743 23.1699 85.9062 22.9094C84.9567 22.6488 84.1004 22.2952 83.3557 21.8113C82.611 21.3274 81.9781 20.7505 81.4754 20.0618C80.9728 19.3732 80.5818 18.6102 80.3212 17.7727C80.0606 16.9352 79.9302 16.0046 79.9302 14.9996C79.9302 13.9946 80.0606 13.1013 80.3212 12.2451C80.5818 11.389 80.9728 10.6259 81.494 9.93731C82.0153 9.24869 82.6483 8.67174 83.3743 8.18785C84.119 7.70395 84.9567 7.33177 85.9248 7.07122C86.8929 6.81066 87.9354 6.68034 89.0524 6.68034C90.5231 6.68034 91.8635 6.88505 93.0364 7.31311C94.2279 7.74117 95.2332 8.31813 96.0895 9.06258C96.4991 9.41619 96.8714 9.80704 97.1879 10.2351V0.929461L97.1693 0.910889ZM89.9274 20.9552C91.4167 20.9552 92.7013 20.7133 93.781 20.2108C94.8608 19.7083 95.6986 19.0197 96.2757 18.1263C96.8528 17.233 97.1507 16.1907 97.1507 15.0182C97.1507 14.1435 96.9831 13.3246 96.648 12.5801C96.3129 11.8357 95.8289 11.2029 95.1959 10.6818C94.563 10.1607 93.7997 9.73262 92.9061 9.45345C92.0125 9.17429 91.0072 9.00675 89.8902 9.00675C88.9779 9.00675 88.1588 9.09985 87.4141 9.28596C86.6695 9.47207 86.0179 9.73262 85.478 10.0862C84.9195 10.4212 84.4541 10.8493 84.0818 11.3332C83.7094 11.817 83.4116 12.3754 83.2254 12.9896C83.0392 13.6038 82.9461 14.2738 82.9461 14.981C82.9461 15.6882 83.0392 16.3582 83.2254 16.9724C83.4116 17.5865 83.6908 18.1449 84.0818 18.6288C84.4727 19.1127 84.9381 19.5407 85.478 19.8757C86.0179 20.2107 86.6695 20.4899 87.4141 20.6761C88.1588 20.8622 88.9779 20.9552 89.8902 20.9552H89.9274Z" fill="url(#paint4_linear_7_621)"/>
<path d="M115.376 23.2815C114.073 23.2815 112.882 23.1513 111.802 22.8907C110.704 22.6302 109.754 22.2766 108.954 21.7927C108.135 21.3274 107.446 20.7504 106.869 20.0618C106.292 19.3732 105.863 18.5915 105.565 17.7354C105.268 16.8792 105.119 15.9301 105.119 14.9065C105.119 13.8829 105.268 13.0081 105.565 12.152C105.863 11.2959 106.292 10.5328 106.85 9.86284C107.409 9.19283 108.097 8.61584 108.916 8.13195C109.736 7.64805 110.666 7.27583 111.746 7.03389C112.807 6.77333 113.98 6.64307 115.265 6.64307C116.81 6.64307 118.206 6.82917 119.435 7.22001C120.664 7.61085 121.706 8.15058 122.581 8.85781C123.437 9.56504 124.108 10.4026 124.554 11.3703C125.001 12.3381 125.225 13.4176 125.225 14.6273C125.225 14.832 125.225 15.0181 125.225 15.2228C125.225 15.4276 125.187 15.6137 125.15 15.7812H108.097C108.153 16.2093 108.246 16.6187 108.358 16.9909C108.544 17.6423 108.842 18.2007 109.233 18.7032C109.624 19.1871 110.108 19.6151 110.685 19.9687C111.262 20.3224 111.97 20.5829 112.751 20.769C113.533 20.9365 114.427 21.0296 115.395 21.0296C116.754 21.0296 117.89 20.9179 118.821 20.676C119.751 20.434 120.496 20.0804 121.055 19.6151C121.632 19.1498 122.023 18.5729 122.265 17.9029L125.15 18.4054C124.796 19.4849 124.219 20.3968 123.419 21.1226C122.618 21.8485 121.557 22.3882 120.235 22.7604C118.914 23.114 117.313 23.3002 115.414 23.3002L115.376 23.2815ZM108.153 13.5665H122.265C122.19 12.9895 122.023 12.4684 121.799 12.0031C121.483 11.3517 121.036 10.7934 120.422 10.3467C119.826 9.88141 119.1 9.52782 118.243 9.26726C117.387 9.0067 116.4 8.87644 115.283 8.87644C114.297 8.87644 113.422 8.96947 112.64 9.13697C111.858 9.30447 111.188 9.56505 110.629 9.91867C110.052 10.2537 109.587 10.6817 109.177 11.1656C108.768 11.6495 108.507 12.2078 108.321 12.8406C108.246 13.0825 108.19 13.3059 108.135 13.5478L108.153 13.5665Z" fill="url(#paint5_linear_7_621)"/>
<path d="M130.065 23.0026V6.97823H132.709L132.913 10.5702C133.435 9.75129 134.105 9.04411 134.924 8.46716C135.724 7.89021 136.655 7.44354 137.698 7.12715C138.74 6.81076 139.839 6.66187 140.993 6.66187C142.575 6.66187 143.934 6.94102 145.051 7.51797C146.168 8.09492 147.025 8.89518 147.621 9.93741C148.216 10.9796 148.496 12.208 148.496 13.6225V23.0211H145.517V14.218C145.517 13.1944 145.312 12.3011 144.902 11.5566C144.493 10.7936 143.879 10.2166 143.097 9.78855C142.296 9.36049 141.309 9.15577 140.137 9.15577C139.113 9.15577 138.163 9.30464 137.288 9.60242C136.413 9.9002 135.65 10.3097 135.017 10.8494C134.384 11.3891 133.881 12.0405 133.546 12.7849C133.211 13.548 133.025 14.3855 133.025 15.2975V23.0211H130.046L130.065 23.0026Z" fill="url(#paint6_linear_7_621)"/>
<path d="M172.865 12.3939L169.923 12.9523C169.756 12.0776 169.383 11.3331 168.825 10.7561C168.266 10.1792 167.522 9.73254 166.61 9.43476C165.679 9.13697 164.599 8.96947 163.37 8.96947C162.421 8.96947 161.583 9.06256 160.82 9.23006C160.056 9.41617 159.405 9.65809 158.846 10.0117C158.288 10.3467 157.822 10.7748 157.45 11.2587C157.078 11.7426 156.799 12.3009 156.594 12.9151C156.389 13.5292 156.296 14.2178 156.296 14.9995C156.296 15.7253 156.389 16.3954 156.594 17.0096C156.78 17.6237 157.078 18.182 157.45 18.6659C157.822 19.1498 158.288 19.5779 158.865 19.8943C159.442 20.2293 160.094 20.4898 160.857 20.6573C161.62 20.8249 162.458 20.9179 163.37 20.9179C164.618 20.9179 165.716 20.769 166.647 20.4899C167.578 20.2107 168.322 19.764 168.881 19.187C169.458 18.5915 169.83 17.8656 170.035 16.9723L172.976 17.5307C172.679 18.759 172.12 19.8198 171.264 20.6573C170.426 21.5135 169.328 22.1463 167.987 22.5929C166.647 23.021 165.102 23.2443 163.37 23.2443C162.067 23.2443 160.894 23.114 159.833 22.8721C158.772 22.6301 157.841 22.2579 157.022 21.774C156.203 21.2901 155.514 20.7132 154.955 20.0432C154.397 19.3732 153.969 18.6101 153.671 17.754C153.373 16.8979 153.224 15.9673 153.224 14.9437C153.224 13.9201 153.373 12.9895 153.671 12.1148C153.969 11.2587 154.397 10.477 154.955 9.78837C155.514 9.09976 156.203 8.52282 157.022 8.05754C157.841 7.59226 158.772 7.22004 159.833 6.95948C160.894 6.69892 162.067 6.5686 163.37 6.5686C165.139 6.5686 166.684 6.79197 168.006 7.23864C169.328 7.68531 170.407 8.33666 171.245 9.17417C172.083 10.0303 172.623 11.0725 172.883 12.3195L172.865 12.3939Z" fill="url(#paint7_linear_7_621)"/>
<path d="M186.362 23.2815C185.059 23.2815 183.867 23.1513 182.787 22.8907C181.689 22.6302 180.74 22.2766 179.939 21.7927C179.12 21.3274 178.431 20.7504 177.854 20.0618C177.277 19.3732 176.849 18.5915 176.551 17.7354C176.253 16.8792 176.104 15.9301 176.104 14.9065C176.104 13.8829 176.253 13.0081 176.551 12.152C176.849 11.2959 177.277 10.5328 177.835 9.86284C178.394 9.19283 179.083 8.61584 179.902 8.13195C180.721 7.64805 181.652 7.27583 182.732 7.03389C183.793 6.77333 184.966 6.64307 186.25 6.64307C187.795 6.64307 189.192 6.82917 190.42 7.22001C191.649 7.61085 192.691 8.15058 193.566 8.85781C194.423 9.56504 195.093 10.4026 195.54 11.3703C195.987 12.3381 196.21 13.4176 196.21 14.6273C196.21 14.832 196.21 15.0181 196.21 15.2228C196.21 15.4276 196.173 15.6137 196.136 15.7812H179.083C179.139 16.2093 179.232 16.6187 179.343 16.9909C179.529 17.6423 179.827 18.2007 180.218 18.7032C180.609 19.1871 181.093 19.6151 181.67 19.9687C182.248 20.3224 182.955 20.5829 183.737 20.769C184.519 20.9365 185.412 21.0296 186.38 21.0296C187.739 21.0296 188.875 20.9179 189.806 20.676C190.737 20.434 191.481 20.0804 192.04 19.6151C192.617 19.1498 193.008 18.5729 193.25 17.9029L196.136 18.4054C195.782 19.4849 195.205 20.3968 194.404 21.1226C193.604 21.8485 192.543 22.3882 191.221 22.7604C189.899 23.114 188.298 23.3002 186.399 23.3002L186.362 23.2815ZM179.139 13.5665H193.25C193.176 12.9895 193.008 12.4684 192.785 12.0031C192.468 11.3517 192.021 10.7934 191.407 10.3467C190.811 9.88141 190.085 9.52782 189.229 9.26726C188.372 9.0067 187.386 8.87644 186.269 8.87644C185.282 8.87644 184.407 8.96947 183.625 9.13697C182.843 9.30447 182.173 9.56505 181.615 9.91867C181.037 10.2537 180.572 10.6817 180.162 11.1656C179.753 11.6495 179.492 12.2078 179.306 12.8406C179.232 13.0825 179.176 13.3059 179.12 13.5478L179.139 13.5665Z" fill="url(#paint8_linear_7_621)"/>
<defs>
<linearGradient id="paint0_linear_7_621" x1="11.2161" y1="2.3999" x2="11.2161" y2="23.0212" gradientUnits="userSpaceOnUse">
<stop stop-color="#672A10"/>
<stop offset="0.286458" stop-color="#C1AFA7"/>
<stop offset="0.65625" stop-color="#724B3A"/>
<stop offset="1" stop-color="#986955"/>
</linearGradient>
<linearGradient id="paint1_linear_7_621" x1="35.4178" y1="6.64307" x2="35.4178" y2="23.3002" gradientUnits="userSpaceOnUse">
<stop stop-color="#672A10"/>
<stop offset="0.286458" stop-color="#C1AFA7"/>
<stop offset="0.65625" stop-color="#724B3A"/>
<stop offset="1" stop-color="#986955"/>
</linearGradient>
<linearGradient id="paint2_linear_7_621" x1="57.8602" y1="6.64307" x2="57.8602" y2="23.3002" gradientUnits="userSpaceOnUse">
<stop stop-color="#672A10"/>
<stop offset="0.286458" stop-color="#C1AFA7"/>
<stop offset="0.65625" stop-color="#724B3A"/>
<stop offset="1" stop-color="#986955"/>
</linearGradient>
<linearGradient id="paint3_linear_7_621" x1="73.4144" y1="1.52515" x2="73.4144" y2="23.0026" gradientUnits="userSpaceOnUse">
<stop stop-color="#672A10"/>
<stop offset="0.286458" stop-color="#C1AFA7"/>
<stop offset="0.65625" stop-color="#724B3A"/>
<stop offset="1" stop-color="#986955"/>
</linearGradient>
<linearGradient id="paint4_linear_7_621" x1="90.0391" y1="0.910889" x2="90.0391" y2="23.3002" gradientUnits="userSpaceOnUse">
<stop stop-color="#672A10"/>
<stop offset="0.286458" stop-color="#C1AFA7"/>
<stop offset="0.65625" stop-color="#724B3A"/>
<stop offset="1" stop-color="#986955"/>
</linearGradient>
<linearGradient id="paint5_linear_7_621" x1="115.172" y1="6.64307" x2="115.172" y2="23.3002" gradientUnits="userSpaceOnUse">
<stop stop-color="#672A10"/>
<stop offset="0.286458" stop-color="#C1AFA7"/>
<stop offset="0.65625" stop-color="#724B3A"/>
<stop offset="1" stop-color="#986955"/>
</linearGradient>
<linearGradient id="paint6_linear_7_621" x1="139.271" y1="6.66187" x2="139.271" y2="23.0211" gradientUnits="userSpaceOnUse">
<stop stop-color="#672A10"/>
<stop offset="0.286458" stop-color="#C1AFA7"/>
<stop offset="0.65625" stop-color="#724B3A"/>
<stop offset="1" stop-color="#986955"/>
</linearGradient>
<linearGradient id="paint7_linear_7_621" x1="163.1" y1="6.5686" x2="163.1" y2="23.2443" gradientUnits="userSpaceOnUse">
<stop stop-color="#672A10"/>
<stop offset="0.286458" stop-color="#C1AFA7"/>
<stop offset="0.65625" stop-color="#724B3A"/>
<stop offset="1" stop-color="#986955"/>
</linearGradient>
<linearGradient id="paint8_linear_7_621" x1="186.157" y1="6.64307" x2="186.157" y2="23.3002" gradientUnits="userSpaceOnUse">
<stop stop-color="#672A10"/>
<stop offset="0.286458" stop-color="#C1AFA7"/>
<stop offset="0.65625" stop-color="#724B3A"/>
<stop offset="1" stop-color="#986955"/>
</linearGradient>
</defs>
</svg>
