<svg width="159" height="120" viewBox="0 0 159 120" fill="none" xmlns="http://www.w3.org/2000/svg">
<g id="Vector">
<path d="M115.204 120C115.204 87.5838 126.514 76.3582 159 76.3582C126.514 76.3582 115.204 65.0725 115.204 32.6563C115.204 65.0725 103.894 76.3582 71.4688 76.3582C103.955 76.3582 115.204 87.6438 115.204 120Z" fill="#8A694F"/>
<path d="M17.025 33.977C26.4098 33.977 34.0499 26.3532 34.0499 16.9885C34.0499 7.62381 26.4098 0 17.025 0C7.64018 0 0 7.62381 0 16.9885C0 26.3532 7.64018 33.977 17.025 33.977ZM17.025 5.94297C23.101 5.94297 28.0341 10.8654 28.0341 16.9285C28.0341 22.9915 23.101 27.914 17.025 27.914C10.9489 27.914 6.0159 22.9915 6.0159 16.9285C6.0159 10.8654 10.9489 5.94297 17.025 5.94297Z" fill="#8A694F"/>
</g>
</svg>
