<svg width="159" height="120" viewBox="0 0 159 120" fill="none" xmlns="http://www.w3.org/2000/svg">
<g id="Vector">
<path d="M43.7957 120C43.7957 87.5838 32.4858 76.3582 0 76.3582C32.4858 76.3582 43.7957 65.0725 43.7957 32.6563C43.7957 65.0725 55.1056 76.3582 87.5312 76.3582C55.0454 76.3582 43.7957 87.6438 43.7957 120Z" fill="#8A694F"/>
<path d="M141.975 33.977C132.59 33.977 124.95 26.3532 124.95 16.9885C124.95 7.62381 132.59 0 141.975 0C151.36 0 159 7.62381 159 16.9885C159 26.3532 151.36 33.977 141.975 33.977ZM141.975 5.94297C135.899 5.94297 130.966 10.8654 130.966 16.9285C130.966 22.9915 135.899 27.914 141.975 27.914C148.051 27.914 152.984 22.9915 152.984 16.9285C152.984 10.8654 148.051 5.94297 141.975 5.94297Z" fill="#8A694F"/>
</g>
</svg>
