<svg width="40" height="40" viewBox="0 0 40 40" fill="none" xmlns="http://www.w3.org/2000/svg">
<g id="Vector">
<path d="M20.7701 25.5011L22.0806 26.3878C23.5875 27.4223 25.0945 28.4568 26.6179 29.4748C26.7897 29.6053 26.9923 29.6888 27.206 29.7172C27.4197 29.7455 27.637 29.7178 27.8368 29.6367C28.0366 29.5556 28.2119 29.4239 28.3457 29.2545C28.4794 29.0851 28.567 28.8838 28.5999 28.6702L32.4329 11.6257C32.4752 11.472 32.482 11.3106 32.4529 11.1538C32.4238 10.9969 32.3594 10.8488 32.2647 10.7207C32.17 10.5925 32.0474 10.4876 31.9063 10.414C31.7651 10.3404 31.6091 10.2999 31.45 10.2957C31.1811 10.2955 30.9144 10.3456 30.6638 10.4434C25.7497 12.0855 20.9995 13.9246 16.1673 15.6652L8.27202 18.5223C8.03147 18.5997 7.82008 18.7486 7.66595 18.9493C7.3711 19.409 7.66595 19.8852 8.30478 20.0659L13.5464 21.478C13.6812 21.5057 13.8052 21.5714 13.9039 21.6674C14.0026 21.7634 14.0718 21.8857 14.1034 22.0199C14.7422 23.9247 15.4302 25.7966 16.0199 27.7014C16.0603 27.9047 16.1572 28.0924 16.2994 28.2428C16.4416 28.3933 16.6233 28.5005 16.8236 28.5519C17.0238 28.6034 17.2346 28.5971 17.4314 28.5338C17.6283 28.4705 17.8033 28.3527 17.9363 28.194C18.8373 27.2745 19.8037 26.4206 20.7701 25.5011ZM18.6243 0H21.4253C22.0642 0.0821026 22.7194 0.147785 23.3418 0.262728C28.2926 1.0747 32.7463 3.75352 35.7908 7.75048C37.5531 9.97541 38.808 12.5602 39.4674 15.3232C40.1267 18.0863 40.1745 20.9605 39.6074 23.7441C38.6267 28.8836 35.6773 33.4338 31.391 36.4201C27.1047 39.4064 21.8223 40.5914 16.6751 39.7212C12.857 39.1444 9.30078 37.4277 6.47019 34.7951C3.22602 31.8438 1.05831 27.8907 0.311228 23.5634C0.180187 22.8738 0.0982814 22.1513 0 21.4452V18.588C0 17.964 0.147425 17.3236 0.245706 16.6997C0.967083 12.2738 3.16082 8.22278 6.47019 5.2053C9.31415 2.59533 12.8648 0.887076 16.6751 0.295569C17.3467 0.180626 18.0183 0.0985231 18.7062 0" fill="#8A694F"/>
<path d="M16.675 26.6669C16.6106 26.5512 16.5558 26.4304 16.5112 26.3057C16.0034 24.795 15.512 23.2843 15.0042 21.7736C14.824 21.2481 14.8731 21.1168 15.3318 20.8541L27.4368 13.8918C27.4368 13.8918 27.5514 13.8097 27.6169 13.8097H28.0592C28.0592 13.9574 28.0592 14.1381 27.9118 14.2202C26.929 15.0576 25.9298 15.8622 24.9306 16.6832C22.4736 18.6865 20.0165 20.7063 17.5595 22.7424C17.369 22.9257 17.2475 23.1693 17.2155 23.4321C17.0681 24.3845 16.9862 25.3697 16.8715 26.3221C16.8788 26.4205 16.8788 26.5193 16.8715 26.6177H16.675" fill="#8A694F"/>
</g>
</svg>
