<svg width="40" height="40" viewBox="0 0 40 40" fill="none" xmlns="http://www.w3.org/2000/svg">
<path id="Exclude" fill-rule="evenodd" clip-rule="evenodd" d="M20 40C31.0457 40 40 31.0457 40 20C40 8.9543 31.0457 0 20 0C8.9543 0 0 8.9543 0 20C0 31.0457 8.9543 40 20 40ZM15.5697 13.2339C15.1633 13.2781 14.8507 13.5459 14.6577 13.967L14.6586 13.9689C14.6877 13.98 14.713 13.9907 14.7361 14.0004C14.7778 14.018 14.812 14.0325 14.8479 14.0403C15.5762 14.1992 16.0392 14.6174 16.0995 15.3985C16.113 15.5713 16.1274 15.7442 16.1419 15.9172C16.2002 16.6146 16.2586 17.3131 16.2526 18.0105C16.2471 18.5951 16.1366 19.1929 15.9817 19.7597C15.7952 20.443 15.348 20.5708 14.7913 20.1375C14.525 19.9307 14.2782 19.677 14.0852 19.3997C13.0395 17.8977 12.2722 16.2397 11.5503 14.5629C11.2766 13.9275 10.8684 13.6512 10.1957 13.6691C9.50958 13.6874 8.82314 13.69 8.13679 13.6927C7.69445 13.6944 7.25214 13.6961 6.80997 13.702C6.0278 13.7114 5.82924 14.0131 6.14007 14.7302C7.53276 17.9494 9.18061 21.0163 11.3202 23.8003C12.6869 25.5787 14.371 26.8814 16.4762 27.6164C17.4448 27.9551 18.4451 27.9456 19.4457 27.9362C19.603 27.9347 19.7604 27.9333 19.9176 27.9331C20.89 27.9322 21.0941 27.7198 21.1665 26.7404L21.1699 26.6934C21.2178 26.0412 21.2663 25.3796 21.712 24.8418C22.0702 24.4103 22.3801 24.3464 22.8384 24.6575C23.0927 24.8295 23.3265 25.042 23.538 25.2666C23.8007 25.5442 24.0568 25.8281 24.3129 26.112C24.578 26.4059 24.8431 26.6998 25.1154 26.9866C25.6331 27.5318 26.2631 27.9087 27.01 27.9811C27.3579 28.0145 27.7108 27.9933 28.0636 27.972C28.236 27.9616 28.4082 27.9512 28.5799 27.9472C28.8478 27.941 29.1159 27.9396 29.3839 27.9383C29.9664 27.9353 30.5486 27.9323 31.1269 27.8796C31.922 27.8072 32.1503 27.3466 31.8543 26.5947C31.8088 26.4791 31.7532 26.3635 31.6789 26.2657C31.5715 26.1229 31.4661 25.9781 31.3607 25.8332C31.0812 25.4488 30.8014 25.0642 30.482 24.7168C30.0514 24.2481 29.6007 23.7981 29.1502 23.3481C28.8299 23.0283 28.5097 22.7085 28.1967 22.382C27.6437 21.8059 27.5955 21.381 28.0214 20.7005C28.2186 20.3848 28.439 20.0848 28.6594 19.7847C28.7894 19.6076 28.9195 19.4305 29.0448 19.2503C29.231 18.9819 29.4178 18.7141 29.6047 18.4462C30.2373 17.5395 30.8698 16.6329 31.4757 15.7077C31.7086 15.3515 31.8413 14.9163 31.9638 14.5009C32.0816 14.1014 31.8988 13.8307 31.4999 13.7302C31.3375 13.6888 31.1621 13.686 30.9933 13.686C30.5358 13.6872 30.0782 13.691 29.6206 13.6948C28.687 13.7025 27.7532 13.7102 26.8198 13.6963C26.2882 13.6888 26.0089 13.9088 25.8011 14.3853C25.3835 15.3412 24.9558 16.298 24.4566 17.2116C23.9055 18.222 23.3135 19.2089 22.4655 20.0191C21.9171 20.5426 21.3326 20.2663 21.2435 19.5736C21.172 19.0181 21.147 18.4532 21.1516 17.893C21.1563 17.3455 21.1737 16.798 21.1911 16.2505C21.2085 15.703 21.2259 15.1555 21.2305 14.608C21.2379 13.6343 20.9271 13.2706 19.9909 13.1267L19.9684 13.1233C19.5182 13.0539 19.0602 12.9833 18.6093 13.0027C17.5952 13.0459 16.5802 13.1239 15.5697 13.2339Z" fill="#8A694F"/>
</svg>
