<svg width="756" height="1001" viewBox="0 0 756 1001" fill="none" xmlns="http://www.w3.org/2000/svg">
<path d="M1000.61 126.389V122.886C996.287 115.287 990.922 108.238 984.569 101.885L898.723 16.0399C893.785 11.1011 889.463 5.72452 885.759 0H883.761C886.388 4.15309 889.328 8.1378 892.595 11.9093H892.572V43.0125C892.572 68.8178 882.526 93.074 864.275 111.314L778.43 197.159C759.864 215.725 749.639 240.408 749.639 266.651V295.722L727.493 273.576V242.821C727.493 217.016 737.539 192.759 755.79 174.519L841.635 88.674C860.201 70.1086 870.426 45.4258 870.426 19.1828V0H868.743V19.194C868.743 44.9992 858.697 69.2555 840.445 87.4954L754.6 173.341C736.035 191.906 725.809 216.589 725.809 242.832V271.904L703.663 249.769V219.014C703.663 193.208 713.709 168.952 731.96 150.712L817.806 64.8667C819.523 63.1494 821.173 61.3759 822.744 59.5575H822.767V59.5351C837.179 42.8666 845.463 22.1012 846.473 0.0112246H844.789C843.802 21.0348 836.113 40.8237 822.756 56.931V4.62452C822.756 3.07553 822.789 1.53776 822.868 0H821.184C821.117 1.53776 821.072 3.07553 821.072 4.62452V58.8953C819.635 60.534 818.154 62.1279 816.605 63.6881L798.937 81.3556V0H797.253V34.0665C794.997 21.9328 790.485 10.4052 783.919 0H781.921C791.899 15.445 797.253 33.4492 797.253 52.2728V83.0281L775.119 105.174V76.1025C775.119 49.8483 764.893 25.1655 746.328 6.61126L739.761 0H737.382L745.172 7.78984C763.423 26.041 773.469 50.2972 773.469 76.0913V106.847L751.323 128.981V99.9098C751.323 73.6555 741.097 48.984 722.532 30.4186L692.113 0H689.733L721.342 31.6084C739.593 49.8483 749.639 74.1158 749.639 99.9098V130.665L730.782 149.522C729.659 150.645 728.559 151.801 727.493 152.968V123.728C727.493 97.4741 717.267 72.7913 698.702 54.2258L644.476 0H642.096L697.523 55.4269C715.763 73.678 725.82 97.9343 725.82 123.74V154.843H725.843C714.416 168.054 706.84 183.847 703.674 200.819V147.558C703.674 121.304 693.449 96.621 674.883 78.0668L596.828 0H594.448L673.693 79.2454C691.945 97.4965 701.991 121.753 701.991 147.547V248.085L684.323 230.418C682.774 228.869 681.281 227.264 679.856 225.625V171.365C679.856 145.111 669.63 120.428 651.065 101.863L565.231 16.0399C560.292 11.1011 555.97 5.72452 552.266 0H550.268C552.895 4.15309 555.836 8.1378 559.102 11.9093H559.08V43.0125C559.08 68.8178 549.034 93.074 530.782 111.314L444.937 197.159C426.372 215.725 416.146 240.408 416.146 266.651V295.722L394 273.576V242.821C394 217.016 404.046 192.759 422.297 174.519L508.143 88.674C526.708 70.1086 536.934 45.4258 536.934 19.1828V0H535.25V19.194C535.25 44.9992 525.204 69.2555 506.953 87.4954L421.107 173.341C402.542 191.906 392.316 216.589 392.316 242.832V271.904L370.182 249.769V219.014C370.182 193.208 380.228 168.952 398.479 150.712L484.324 64.8667C486.041 63.1494 487.691 61.3759 489.263 59.5575H489.285V59.5351C503.698 42.8554 511.981 22.0899 513.003 0H511.319C510.331 21.0236 502.643 40.8125 489.285 56.9197V4.62452C489.285 3.07553 489.319 1.53776 489.398 0H487.714C487.647 1.53776 487.602 3.07553 487.602 4.62452V58.8953C486.165 60.534 484.683 62.1279 483.134 63.6881L465.467 81.3556V0H463.783V34.0665C461.527 21.9328 457.015 10.4052 450.448 0H448.45C458.429 15.445 463.783 33.4492 463.783 52.2728V83.0281L441.637 105.174V76.1025C441.637 49.8483 431.411 25.1655 412.846 6.61126L406.257 0H403.878L411.667 7.78984C429.919 26.041 439.965 50.2972 439.965 76.0913V106.847L417.83 128.981V99.9098C417.83 73.6555 407.604 48.984 389.039 30.4186L358.62 0H356.241L387.849 31.6084C406.1 49.8483 416.146 74.1158 416.146 99.9098V130.665L397.289 149.522C396.166 150.645 395.066 151.801 394 152.968V123.728C394 97.4741 383.774 72.7913 365.209 54.2258L310.972 0H308.592L364.019 55.4269C382.27 73.678 392.316 97.9343 392.316 123.74V154.843H392.339C380.912 168.054 373.336 183.847 370.17 200.819V147.558C370.17 121.304 359.945 96.621 341.379 78.0668L263.335 0H260.955L340.201 79.2454C358.452 97.4965 368.498 121.753 368.498 147.547V248.085L350.83 230.418C349.281 228.869 347.789 227.264 346.363 225.625V171.365C346.363 145.111 336.137 120.428 317.572 101.863L231.727 16.0399C226.788 11.1011 222.466 5.72452 218.762 0H216.764C219.391 4.15309 222.332 8.1378 225.598 11.9093H225.576V43.0125C225.576 68.8178 215.53 93.074 197.278 111.314L111.433 197.159C92.8676 215.725 82.6421 240.408 82.6421 266.651V295.722L60.5072 273.576V242.821C60.5072 217.016 70.5532 192.759 88.8043 174.519L174.65 88.674C193.215 70.1086 203.441 45.4258 203.441 19.1828V0H201.757V19.194C201.757 44.9992 191.711 69.2555 173.46 87.4954L87.6145 173.341C69.0491 191.906 58.8236 216.589 58.8236 242.832V271.904L36.6775 249.769V219.014C36.6775 193.208 46.7235 168.952 64.9746 150.712L150.82 64.8667C152.537 63.1494 154.187 61.3759 155.759 59.5575H155.781V59.5351C170.194 42.8554 178.489 22.0899 179.499 0H177.815C176.827 21.0236 169.15 40.8125 155.781 56.9197V4.62452C155.781 3.07553 155.815 1.53776 155.894 0H154.21C154.142 1.53776 154.098 3.07553 154.098 4.62452V58.8953C152.661 60.534 151.179 62.1279 149.63 63.6881L131.963 81.3556V0H130.279V34.0665C128.023 21.9328 123.511 10.4052 116.956 0H114.958C124.936 15.445 130.29 33.4492 130.29 52.2728V83.0281L108.155 105.174V76.1025C108.155 49.8483 97.9299 25.1655 79.3645 6.61126L72.7645 0H70.3849L78.1747 7.78984C96.4258 26.041 106.472 50.2972 106.472 76.0913V106.847L84.337 128.981V99.9098C84.337 73.6555 74.1114 48.984 55.546 30.4186L25.1162 0H22.7366L54.345 31.6084C72.5849 49.8483 82.6421 74.1158 82.6421 99.9098V130.665L63.7848 149.522C62.6624 150.645 61.5624 151.801 60.496 152.968V123.728C60.496 97.4741 50.2705 72.7913 31.705 54.2258L0.10791 22.6287V25.0083L30.5265 55.4269C48.7776 73.678 58.8236 97.9343 58.8236 123.74V154.843H58.846C47.4194 168.054 39.8428 183.847 36.6775 200.819V147.558C36.6775 121.304 26.4519 96.621 7.88653 78.0668L0.10791 70.277V72.6566L6.70795 79.2566C24.9591 97.5077 35.0051 121.764 35.0051 147.558V248.096L17.3376 230.429C15.7886 228.88 14.2957 227.275 12.859 225.636V171.377C12.859 154.102 8.42531 137.501 0.10791 122.886V126.389C7.33652 140.094 11.1753 155.438 11.1753 171.377V223.672C6.89877 218.508 3.19466 212.952 0.10791 207.116V210.618C3.25079 216.14 6.95489 221.382 11.1753 226.276V226.298H11.1978C12.7692 228.117 14.4192 229.89 16.1366 231.608L101.982 317.453C120.233 335.704 130.279 359.96 130.279 385.754V416.51L108.144 438.656V409.584C108.144 383.33 97.9187 358.647 79.3533 340.093L0.10791 260.847V263.227L78.1635 341.294C96.4146 359.545 106.461 383.801 106.461 409.595V440.351L84.3258 462.497V433.425C84.3258 407.171 74.1002 382.499 55.5348 363.934L0.10791 308.496V310.875L54.345 365.112C72.5849 383.364 82.6421 407.62 82.6421 433.414V464.169L63.7848 483.026C62.6624 484.149 61.5624 485.305 60.496 486.472V457.232C60.496 430.978 50.2705 406.295 31.705 387.741L0.10791 356.133V358.512L30.5265 388.931C48.7776 407.182 58.8236 431.438 58.8236 457.232V488.336H58.846C47.4194 501.547 39.8428 517.34 36.6775 534.311V481.051C36.6775 454.797 26.4519 430.114 7.88653 411.56L0.10791 403.781V406.161L6.70795 412.761C24.9591 431.012 35.0051 455.268 35.0051 481.073V581.612L17.3376 563.944C15.7886 562.395 14.2957 560.79 12.859 559.163V504.903C12.859 487.628 8.42531 471.027 0.10791 456.402V459.904C7.33652 473.609 11.1753 488.953 11.1753 504.892V557.187C6.88754 552.024 3.18344 546.479 0.10791 540.631V544.133C3.25079 549.655 6.95489 554.897 11.1753 559.791V559.814H11.1978C12.7692 561.632 14.4192 563.405 16.1366 565.123L101.982 650.968C120.233 669.219 130.279 693.476 130.279 719.281V750.036L108.144 772.182V743.111C108.144 716.856 97.9187 692.174 79.3533 673.619L0.10791 594.352V596.731L78.1635 674.798C96.4146 693.049 106.461 717.305 106.461 743.099V773.855L84.3258 795.99V766.918C84.3258 740.664 74.1002 715.981 55.5348 697.415L0.10791 641.989V644.368L54.345 698.605C72.5849 716.856 82.6421 741.113 82.6421 766.918V797.673L63.7848 816.53C62.6624 817.653 61.5624 818.809 60.496 819.976V790.736C60.496 764.482 50.2705 739.799 31.705 721.245L0.10791 689.637V692.016L30.5265 722.435C48.7776 740.686 58.8236 764.942 58.8236 790.736V821.84H58.846C47.4194 835.051 39.8428 850.844 36.6775 867.815V814.555C36.6775 788.301 26.4519 763.618 7.88653 745.064L0.10791 737.274V739.653L6.70795 746.253C24.9591 764.505 35.0051 788.761 35.0051 814.566V915.104L17.3376 897.437C15.7886 895.888 14.2957 894.283 12.859 892.644V838.385C12.859 821.11 8.42531 804.509 0.10791 789.895V793.397C7.33652 807.102 11.1753 822.446 11.1753 838.385V890.68C6.88754 885.517 3.18344 879.972 0.10791 874.124V877.626C3.25079 883.148 6.95489 888.39 11.1753 893.284V893.306H11.1978C12.7692 895.125 14.4192 896.898 16.1366 898.616L101.982 984.461C106.921 989.4 111.242 994.776 114.946 1000.5H116.944C114.318 996.348 111.377 992.363 108.111 988.592H108.133V957.488C108.133 931.683 118.179 907.427 136.43 889.176L222.276 803.33C240.841 784.765 251.067 760.082 251.067 733.839V704.768L273.201 726.914V757.669C273.201 783.474 263.155 807.73 244.904 825.982L159.059 911.827C140.493 930.392 130.268 955.075 130.268 981.318V1000.51H131.952V981.318C131.952 955.513 141.998 931.257 160.249 913.005L246.094 827.16C264.659 808.595 274.885 783.912 274.885 757.658V728.586L297.031 750.721V781.476C297.031 807.281 286.985 831.538 268.734 849.789L182.889 935.634C181.171 937.352 179.521 939.125 177.95 940.943H177.927V940.966C163.515 957.634 155.231 978.411 154.221 1000.49H155.905C156.893 979.466 164.581 959.677 177.939 943.57V995.865C177.939 997.414 177.905 998.952 177.826 1000.49H179.51C179.577 998.952 179.622 997.414 179.622 995.865V941.606C181.059 939.967 182.541 938.373 184.09 936.813L201.757 919.145V1000.49H203.441V966.423C205.697 978.557 210.209 990.085 216.776 1000.49H218.773C208.795 985.045 203.441 967.041 203.441 948.217V917.462L225.576 895.327V924.398C225.576 950.653 235.801 975.335 254.367 993.89L260.967 1000.49H263.346L255.556 992.7C237.305 974.449 227.259 950.192 227.259 924.398V893.643L249.405 871.508V900.58C249.405 926.834 259.631 951.506 278.196 970.071L308.615 1000.49H310.994L279.386 968.881C261.135 950.63 251.089 926.374 251.089 900.58V869.825L269.946 850.967C271.069 849.845 272.169 848.689 273.235 847.521V876.761C273.235 903.016 283.461 927.687 302.026 946.253L356.263 1000.49H358.643L303.216 945.063C284.965 926.812 274.919 902.555 274.919 876.761V845.658H274.896C286.323 832.447 293.899 816.654 297.065 799.682V852.943C297.065 879.197 307.29 903.869 325.856 922.434L403.923 1000.5H406.302L327.057 921.256C308.806 903.004 298.76 878.748 298.76 852.954V752.416L316.427 770.083C317.976 771.632 319.469 773.237 320.895 774.876V829.136C320.895 852.943 329.302 875.459 344.713 893.295V893.318H344.735C346.307 895.136 347.957 896.909 349.674 898.627L435.52 984.472C440.458 989.411 444.78 994.788 448.484 1000.51H450.482C447.855 996.359 444.915 992.374 441.648 988.603H441.671V957.5C441.671 931.694 451.717 907.438 469.968 889.187L555.813 803.342C574.379 784.776 584.604 760.093 584.604 733.85V704.779L606.75 726.925V757.68C606.75 783.485 596.704 807.742 578.453 825.993L492.608 911.838C474.042 930.404 463.817 955.086 463.817 981.329V1000.52H465.5V981.329C465.5 955.524 475.546 931.268 493.798 913.017L579.643 827.171C598.208 808.606 608.434 783.923 608.434 757.669V728.597L630.569 750.732V781.487C630.569 807.293 620.523 831.549 602.272 849.8L516.426 935.645C514.709 937.363 513.059 939.136 511.487 940.955H511.465V940.977C497.053 957.646 488.769 978.422 487.748 1000.5H489.431C490.419 979.477 498.097 959.688 511.465 943.581V995.876C511.465 997.425 511.42 998.963 511.353 1000.5H513.036C513.104 998.963 513.149 997.425 513.149 995.876V941.617C514.585 939.978 516.067 938.384 517.616 936.824L535.284 919.157V1000.5H536.967V966.434C539.223 978.568 543.736 990.096 550.302 1000.5H552.3C542.321 985.056 536.967 967.052 536.967 948.228V917.473L559.113 895.338V924.41C559.113 950.664 569.339 975.347 587.904 993.901L594.504 1000.5H596.884L589.094 992.711C570.843 974.46 560.797 950.204 560.797 924.41V893.654L582.932 871.52V900.591C582.932 926.845 593.157 951.517 611.723 970.082L642.141 1000.5H644.521L612.913 968.893C594.661 950.641 584.615 926.385 584.615 900.591V869.836L603.473 850.979C604.595 849.856 605.695 848.7 606.761 847.533V876.773C606.761 903.027 616.987 927.698 635.552 946.264L689.79 1000.5H692.169L636.742 945.074C618.491 926.823 608.445 902.567 608.445 876.773V845.669H608.423C619.849 832.458 627.426 816.665 630.591 799.694V852.954C630.591 879.208 640.817 903.88 659.382 922.445L737.449 1000.51H739.829L660.583 921.267C642.332 903.016 632.286 878.759 632.286 852.965V752.427L649.954 770.094C651.503 771.643 652.995 773.248 654.421 774.887V829.147C654.421 852.954 662.828 875.471 678.24 893.306V893.329H678.262C679.833 895.147 681.483 896.921 683.201 898.638L769.046 984.483C773.985 989.422 778.306 994.799 782.01 1000.52H784.008C781.382 996.37 778.441 992.386 775.175 988.614H775.197V957.511C775.197 931.706 785.243 907.449 803.494 889.198L889.34 803.353C907.905 784.787 918.131 760.105 918.131 733.862V704.79L940.277 726.936V757.691C940.277 783.497 930.231 807.753 911.98 826.004L826.134 911.849C807.569 930.415 797.343 955.098 797.343 981.341V1000.53H799.027V981.341C799.027 955.535 809.073 931.279 827.324 913.028L913.169 827.182C931.735 808.617 941.96 783.934 941.96 757.68V728.608L964.106 750.743V781.499C964.106 807.304 954.06 831.56 935.809 849.811L849.964 935.657C848.247 937.374 846.597 939.147 845.025 940.966H845.003V940.988C830.59 957.657 822.307 978.433 821.296 1000.51H822.98C823.968 979.489 831.645 959.7 845.014 943.592V995.888C845.014 997.437 844.98 998.974 844.902 1000.51H846.585C846.653 998.974 846.698 997.437 846.698 995.888V941.628C848.134 939.989 849.616 938.395 851.176 936.835L868.844 919.168V1000.51H870.527V966.446C872.784 978.579 877.296 990.107 883.862 1000.51H885.86C875.881 985.067 870.527 967.063 870.527 948.239V917.484L892.662 895.349V924.421C892.662 950.675 902.888 975.358 921.453 993.912L928.053 1000.51H930.433L922.643 992.722C904.392 974.471 894.346 950.215 894.346 924.421V893.666L916.492 871.531V900.602C916.492 926.857 926.717 951.528 945.283 970.094L975.701 1000.51H978.081L946.473 968.904C928.222 950.653 918.176 926.396 918.176 900.602V869.847L937.033 850.99C938.155 849.867 939.255 848.711 940.322 847.544V876.784C940.322 903.038 950.547 927.71 969.113 946.275L1000.72 977.883V975.504L970.302 945.085C952.051 926.834 942.005 902.578 942.005 876.784V845.681H941.983C953.409 832.469 960.986 816.676 964.151 799.705V852.965C964.151 879.22 974.377 903.891 992.942 922.457L1000.73 930.246V927.867L994.132 921.267C975.881 903.016 965.835 878.759 965.835 852.965V752.427L983.502 770.094C985.051 771.643 986.544 773.248 987.97 774.887V829.147C987.97 846.421 992.404 863.023 1000.72 877.648V874.146C993.492 860.441 989.654 845.097 989.654 829.158V776.863C993.941 782.026 997.645 787.571 1000.72 793.419V789.917C996.4 782.318 991.034 775.258 984.681 768.916L898.836 683.07C880.585 664.819 870.539 640.563 870.539 614.769V584.014L892.673 561.868V590.939C892.673 617.193 902.899 641.876 921.464 660.43L1000.72 739.676V737.296L922.654 659.229C904.403 640.99 894.357 616.722 894.357 590.928V560.173L916.503 538.027V567.098C916.503 593.353 926.729 618.035 945.294 636.59L1000.72 692.016V689.637L946.484 635.4C928.233 617.149 918.187 592.892 918.187 567.098V536.343L937.044 517.486C938.166 516.363 939.267 515.207 940.333 514.04V543.28C940.333 569.534 950.558 594.217 969.124 612.771L1000.73 644.379V642L970.314 611.581C952.062 593.33 942.017 569.074 942.017 543.28V512.177H941.994C953.421 498.965 960.997 483.172 964.163 466.201V519.461C964.163 545.716 974.388 570.398 992.954 588.953L1000.74 596.742V594.363L994.143 587.763C975.892 569.512 965.846 545.255 965.846 519.461V418.923L983.514 436.59C985.063 438.139 986.556 439.744 987.981 441.383V495.643C987.981 512.917 992.415 529.518 1000.73 544.144V540.642C993.504 526.937 989.665 511.593 989.665 495.654V443.359C993.953 448.522 997.657 454.067 1000.73 459.915V456.413C996.411 448.825 991.045 441.754 984.692 435.412L898.847 349.566C880.596 331.315 870.55 307.059 870.55 281.254V250.498L892.685 228.364V257.435C892.685 283.689 902.91 308.372 921.476 326.926L1000.73 406.172V403.792L922.665 325.737C904.414 307.486 894.368 283.229 894.368 257.435V226.68L916.514 204.534V233.605C916.514 259.86 926.74 284.543 945.305 303.108L1000.73 358.535V356.155L946.495 301.918C928.244 283.667 918.198 259.411 918.198 233.605V202.85L937.055 183.993C938.178 182.87 939.278 181.714 940.344 180.547V209.787C940.344 236.041 950.57 260.724 969.135 279.278L1000.74 310.887V308.507L970.325 278.088C952.074 259.837 942.028 235.581 942.028 209.776V178.672H942.005C953.432 165.461 961.008 149.668 964.174 132.697V185.957C964.174 212.211 974.399 236.894 992.965 255.46L1000.75 263.25V260.87L994.155 254.27C975.903 236.019 965.857 211.762 965.857 185.957V85.4077L983.525 103.075C985.074 104.624 986.567 106.229 987.992 107.857V162.116C987.992 179.391 992.426 195.992 1000.74 210.618V207.116C993.515 193.41 989.676 178.066 989.676 162.128V109.832C993.964 114.996 997.668 120.541 1000.74 126.389H1000.61ZM918.075 37.7594L940.221 59.8942V90.6495C940.221 116.455 930.175 140.711 911.924 158.951L826.078 244.796C807.513 263.362 797.287 288.045 797.287 314.288V367.548C794.122 350.577 786.545 334.784 775.119 321.572H775.141V290.469C775.141 264.664 785.187 240.408 803.438 222.168L889.284 136.322C907.849 117.757 918.075 93.074 918.075 66.831V37.7594ZM846.608 328.868V274.609C848.045 272.97 849.526 271.376 851.086 269.816L868.754 252.148V352.687C868.754 378.492 858.708 402.748 840.457 420.988L754.611 506.834C736.046 525.399 725.82 550.082 725.82 576.325V605.396L703.674 583.25V552.495C703.674 526.69 713.72 502.434 731.971 484.194L817.817 398.348C819.534 396.631 821.184 394.857 822.756 393.039H822.778V393.017C838.189 375.181 846.597 352.664 846.597 328.857L846.608 328.868ZM822.789 390.413V338.117C822.789 315.388 830.59 293.848 844.924 276.573V328.868C844.924 351.598 837.123 373.138 822.789 390.413ZM746.361 673.586L660.516 587.74C642.265 569.489 632.219 545.233 632.219 519.439V418.9L649.886 436.568C651.435 438.117 652.928 439.722 654.354 441.361V495.62C654.354 519.428 662.761 541.944 678.172 559.78V559.802H678.195C679.766 561.621 681.416 563.394 683.133 565.112L768.979 650.957C787.23 669.208 797.276 693.464 797.276 719.27V750.025L775.141 772.171V743.099C775.141 716.845 764.916 692.162 746.35 673.608L746.361 673.586ZM722.543 697.404L636.697 611.559C618.446 593.308 608.4 569.051 608.4 543.257V512.154H608.378C619.804 498.943 627.381 483.15 630.546 466.178V519.439C630.546 545.693 640.772 570.376 659.337 588.93L745.183 674.775C763.434 693.027 773.48 717.283 773.48 743.077V773.832L751.334 795.967V766.895C751.334 740.641 741.108 715.958 722.543 697.393V697.404ZM698.724 721.223L612.879 635.377C594.628 617.126 584.582 592.87 584.582 567.076V536.321L603.439 517.463C604.561 516.341 605.661 515.185 606.728 514.017V543.257C606.728 569.512 616.953 594.194 635.519 612.749L721.364 698.594C739.615 716.845 749.661 741.101 749.661 766.907V797.662L730.804 816.519C729.682 817.642 728.582 818.798 727.515 819.965V790.725C727.515 764.471 717.29 739.788 698.724 721.234V721.223ZM674.906 745.041L589.06 659.196C570.809 640.956 560.763 616.688 560.763 590.894V560.139L582.898 537.993V567.065C582.898 593.319 593.124 618.002 611.689 636.556L697.534 722.401C715.774 740.652 725.832 764.909 725.832 790.703V821.806H725.854C714.427 835.017 706.851 850.81 703.686 867.782V814.521C703.686 788.267 693.46 763.584 674.895 745.03L674.906 745.041ZM487.624 671.61V725.87C486.187 727.508 484.706 729.102 483.157 730.663L465.489 748.33V647.792C465.489 621.986 475.535 597.73 493.786 579.49L579.632 493.645C598.197 475.079 608.423 450.397 608.423 424.154V395.082L630.558 417.228V447.983C630.558 473.789 620.512 498.045 602.26 516.285L516.415 602.13C514.698 603.848 513.048 605.621 511.476 607.439H511.454V607.462C496.042 625.298 487.635 647.814 487.635 671.61H487.624ZM511.443 610.066V662.361C511.443 685.102 503.642 706.631 489.297 723.917V671.621C489.297 648.892 497.098 627.352 511.443 610.077V610.066ZM412.869 673.586L327.023 587.74C308.772 569.489 298.726 545.233 298.726 519.439V418.9L316.393 436.568C317.942 438.117 319.435 439.722 320.861 441.361V495.62C320.861 519.428 329.268 541.944 344.679 559.78V559.802H344.702C346.273 561.621 347.923 563.394 349.641 565.112L435.486 650.957C453.737 669.208 463.783 693.464 463.783 719.27V750.025L441.637 772.171V743.099C441.637 716.845 431.411 692.162 412.846 673.608L412.869 673.586ZM389.05 697.404L303.205 611.559C284.953 593.308 274.908 569.051 274.908 543.257V512.154H274.885C286.312 498.943 293.888 483.15 297.054 466.178V519.439C297.054 545.693 307.279 570.376 325.845 588.93L411.69 674.775C429.941 693.027 439.987 717.283 439.987 743.077V773.832L417.852 795.967V766.895C417.852 740.641 407.627 715.958 389.061 697.393L389.05 697.404ZM365.232 721.223L279.386 635.377C261.135 617.126 251.089 592.87 251.089 567.076V536.321L269.946 517.463C271.069 516.341 272.169 515.185 273.235 514.017V543.257C273.235 569.512 283.461 594.194 302.026 612.749L387.871 698.594C406.123 716.845 416.169 741.101 416.169 766.907V797.662L397.311 816.519C396.189 817.642 395.089 818.798 394.022 819.965V790.725C394.022 764.471 383.797 739.788 365.232 721.234V721.223ZM154.12 671.61V725.87C152.683 727.508 151.202 729.102 149.653 730.663L131.985 748.33V647.792C131.985 621.986 142.031 597.73 160.282 579.49L246.128 493.645C264.693 475.079 274.919 450.397 274.919 424.154V395.082L297.065 417.228V447.983C297.065 473.789 287.019 498.045 268.768 516.285L182.922 602.13C181.205 603.848 179.555 605.621 177.983 607.439H177.961V607.462C162.55 625.298 154.142 647.814 154.142 671.61H154.12ZM177.939 610.066V662.361C177.939 685.102 170.137 706.631 155.804 723.917V671.621C155.804 648.892 163.605 627.352 177.939 610.077V610.066ZM254.367 326.893L340.212 412.738C358.463 430.989 368.509 455.246 368.509 481.051V581.589L350.842 563.922C349.293 562.373 347.8 560.768 346.374 559.14V504.881C346.374 478.626 336.149 453.944 317.583 435.389L231.738 349.544C213.487 331.293 203.441 307.037 203.441 281.231V250.476L225.576 228.341V257.413C225.576 283.667 235.801 308.35 254.367 326.904V326.893ZM278.185 303.074L364.03 388.92C382.282 407.171 392.328 431.427 392.328 457.221V488.324H392.35C380.923 501.536 373.347 517.329 370.182 534.3V481.04C370.182 454.785 359.956 430.103 341.391 411.548L255.545 325.703C237.294 307.452 227.248 283.196 227.248 257.402V226.646L249.394 204.5V233.572C249.394 259.826 259.62 284.509 278.185 303.074ZM302.004 279.256L387.849 365.101C406.1 383.352 416.146 407.609 416.146 433.403V464.158L397.289 483.015C396.166 484.138 395.066 485.294 394 486.461V457.221C394 430.967 383.774 406.284 365.209 387.73L279.364 301.884C261.112 283.633 251.067 259.377 251.067 233.572V202.817L269.924 183.959C271.046 182.837 272.146 181.681 273.213 180.513V209.753C273.213 236.008 283.438 260.69 302.004 279.245V279.256ZM325.822 255.437L411.667 341.283C429.919 359.534 439.965 383.79 439.965 409.584V440.339L417.83 462.485V433.414C417.83 407.16 407.604 382.488 389.039 363.923L303.193 278.077C284.942 259.826 274.896 235.57 274.896 209.765V178.661H274.874C286.3 165.45 293.877 149.657 297.042 132.685V185.946C297.042 212.2 307.268 236.883 325.833 255.448L325.822 255.437ZM513.115 328.868V274.609C514.552 272.97 516.033 271.376 517.582 269.816L535.25 252.148V352.687C535.25 378.492 525.204 402.748 506.953 420.988L421.107 506.834C402.542 525.399 392.316 550.082 392.316 576.325V605.396L370.182 583.25V552.495C370.182 526.69 380.228 502.434 398.479 484.194L484.324 398.348C486.041 396.631 487.691 394.857 489.263 393.039H489.285V393.017C504.697 375.181 513.104 352.664 513.104 328.857L513.115 328.868ZM489.297 390.413V338.117C489.297 315.388 497.098 293.848 511.443 276.573V328.868C511.443 351.598 503.642 373.138 489.297 390.413ZM587.871 326.893L673.716 412.738C691.967 430.989 702.013 455.246 702.013 481.051V581.589L684.346 563.922C682.797 562.373 681.304 560.768 679.878 559.14V504.881C679.878 478.626 669.653 453.944 651.087 435.389L565.242 349.544C546.991 331.293 536.945 307.037 536.945 281.231V250.476L559.091 228.341V257.413C559.091 283.667 569.316 308.35 587.882 326.904L587.871 326.893ZM611.689 303.074L697.534 388.92C715.774 407.171 725.832 431.427 725.832 457.221V488.324H725.854C714.427 501.536 706.851 517.329 703.686 534.3V481.04C703.686 454.785 693.46 430.103 674.895 411.548L589.049 325.703C570.798 307.452 560.752 283.196 560.752 257.402V226.646L582.887 204.5V233.572C582.887 259.826 593.112 284.509 611.678 303.074H611.689ZM635.508 279.256L721.353 365.101C739.604 383.352 749.65 407.609 749.65 433.403V464.158L730.793 483.015C729.67 484.138 728.57 485.294 727.504 486.461V457.221C727.504 430.967 717.279 406.284 698.713 387.73L612.868 301.884C594.617 283.633 584.571 259.377 584.571 233.572V202.817L603.428 183.959C604.55 182.837 605.65 181.681 606.717 180.513V209.753C606.717 236.008 616.942 260.69 635.508 279.245V279.256ZM678.183 504.881V557.176C663.85 539.901 656.049 518.361 656.049 495.632V443.336C670.382 460.622 678.183 482.151 678.183 504.881ZM582.898 369.58V400.335C582.898 426.14 572.852 450.397 554.601 468.648L468.756 554.493C450.19 573.059 439.965 597.741 439.965 623.984V653.224C438.898 652.057 437.809 650.901 436.687 649.778L417.83 630.921V600.166C417.83 574.361 427.876 550.104 446.127 531.864L531.972 446.019C550.538 427.454 560.763 402.771 560.763 376.528V347.288C561.83 348.455 562.918 349.611 564.052 350.734L582.909 369.591L582.898 369.58ZM559.102 345.413H559.08V376.517C559.08 402.322 549.034 426.578 530.782 444.818L444.937 530.663C426.372 549.229 416.146 573.912 416.146 600.155V629.226L394 607.08V576.325C394 550.52 404.046 526.263 422.297 508.023L508.143 422.178C526.708 403.613 536.934 378.93 536.934 352.687V299.426C540.099 316.398 547.675 332.191 559.102 345.402V345.413ZM344.679 504.881V557.176C330.346 539.901 322.545 518.361 322.545 495.632V443.336C336.878 460.622 344.679 482.151 344.679 504.881ZM441.626 655.088H441.648V623.984C441.648 598.179 451.694 573.923 469.945 555.683L555.791 469.837C574.356 451.272 584.582 426.589 584.582 400.346V371.275L606.728 393.409V424.165C606.728 449.97 596.682 474.226 578.431 492.466L492.585 578.312C474.02 596.877 463.794 621.56 463.794 647.803V701.063C460.629 684.092 453.052 668.299 441.626 655.088ZM751.323 266.662C751.323 240.857 761.368 216.6 779.62 198.36L865.465 112.515C884.03 93.9495 894.256 69.2667 894.256 43.0237V13.7725C895.322 14.9399 896.411 16.096 897.545 17.2185L916.402 36.0757V66.831C916.402 92.6363 906.356 116.893 888.105 135.132L802.26 220.978C783.694 239.543 773.469 264.226 773.469 290.469V319.709C772.402 318.542 771.313 317.386 770.18 316.263L751.323 297.406V266.651V266.662ZM656.037 109.832C670.371 127.118 678.172 148.647 678.172 171.377V223.672C663.838 206.386 656.037 184.857 656.037 162.128V109.832ZM632.219 85.4077L649.886 103.075C651.435 104.624 652.928 106.229 654.354 107.857V162.116C654.354 185.924 662.761 208.44 678.172 226.276V226.298H678.195C679.766 228.117 681.416 229.89 683.133 231.608L768.979 317.453C787.23 335.704 797.276 359.96 797.276 385.754V416.51L775.141 438.656V409.584C775.141 383.33 764.916 358.647 746.35 340.093L660.505 254.247C642.253 235.996 632.208 211.74 632.208 185.935V85.4077H632.219ZM659.326 255.448L745.172 341.294C763.423 359.545 773.469 383.801 773.469 409.595V440.351L751.323 462.497V433.425C751.323 407.171 741.097 382.499 722.532 363.934L636.686 278.088C618.435 259.837 608.389 235.581 608.389 209.776V178.672H608.367C619.793 165.461 627.37 149.668 630.535 132.697V185.957C630.535 212.211 640.761 236.894 659.326 255.46V255.448ZM608.4 61.5891L630.535 83.7352V114.49C630.535 140.296 620.489 164.552 602.238 182.792L516.393 268.637C514.675 270.355 513.025 272.128 511.454 273.947H511.431V273.969C496.02 291.805 487.613 314.321 487.613 338.129V392.388C486.176 394.027 484.694 395.621 483.145 397.181L465.478 414.848V314.31C465.478 288.505 475.524 264.249 493.775 246.009L579.62 160.163C598.186 141.598 608.411 116.915 608.411 90.672V61.6004L608.4 61.5891ZM584.582 37.7706L606.728 59.9055V90.6607C606.728 116.466 596.682 140.722 578.431 158.962L492.585 244.808C474.02 263.373 463.794 288.056 463.794 314.299V367.559C460.629 350.588 453.052 334.795 441.626 321.584H441.648V290.48C441.648 264.675 451.694 240.419 469.945 222.179L555.791 136.333C574.356 117.768 584.582 93.0853 584.582 66.8422V37.7706ZM417.83 266.673C417.83 240.868 427.876 216.611 446.127 198.372L531.972 112.526C550.538 93.9608 560.763 69.278 560.763 43.035V13.7725C561.83 14.9399 562.918 16.096 564.052 17.2185L582.909 36.0757V66.831C582.909 92.6363 572.863 116.893 554.612 135.132L468.767 220.978C450.201 239.543 439.976 264.226 439.976 290.469V319.709C438.909 318.542 437.821 317.386 436.698 316.263L417.841 297.406V266.651L417.83 266.673ZM322.545 109.844C336.878 127.129 344.679 148.658 344.679 171.388V223.683C330.346 206.397 322.545 184.868 322.545 162.139V109.844ZM298.726 85.4189L316.393 103.086C317.942 104.635 319.435 106.24 320.861 107.868V162.128C320.861 185.935 329.268 208.451 344.679 226.287V226.31H344.702C346.273 228.128 347.923 229.901 349.641 231.619L435.486 317.464C453.737 335.715 463.783 359.972 463.783 385.766V416.521L441.637 438.667V409.595C441.637 383.341 431.411 358.658 412.846 340.104L327.001 254.259C308.75 236.008 298.704 211.751 298.704 185.946V85.4077L298.726 85.4189ZM274.908 61.6004L297.054 83.7464V114.502C297.054 140.307 287.008 164.563 268.756 182.803L182.911 268.649C181.194 270.366 179.544 272.139 177.972 273.958H177.95V273.98C162.538 291.816 154.131 314.332 154.131 338.14V392.399C152.695 394.038 151.213 395.632 149.664 397.192L131.996 414.86V314.321C131.996 288.516 142.042 264.26 160.294 246.02L246.139 160.174C264.704 141.609 274.93 116.926 274.93 90.6832V61.6116L274.908 61.6004ZM177.939 276.596V328.891C177.939 351.62 170.137 373.16 155.804 390.435V338.14C155.804 315.41 163.605 293.87 177.939 276.596ZM106.472 319.743C105.405 318.575 104.317 317.419 103.183 316.297L84.3258 297.44V266.684C84.3258 240.879 94.3717 216.623 112.623 198.383L198.468 112.537C217.034 93.972 227.259 69.2892 227.259 43.0462V13.7725C228.326 14.9399 229.414 16.096 230.548 17.2185L249.405 36.0757V66.831C249.405 92.6363 239.359 116.893 221.108 135.132L135.263 220.978C116.697 239.543 106.472 264.226 106.472 290.469V319.709V319.743ZM108.122 321.606H108.144V290.503C108.144 264.698 118.19 240.441 136.441 222.201L222.287 136.356C240.852 117.791 251.078 93.1077 251.078 66.8647V37.7931L273.213 59.9279V90.6832C273.213 116.488 263.167 140.745 244.915 158.985L159.07 244.83C140.505 263.395 130.279 288.078 130.279 314.321V367.582C127.114 350.61 119.537 334.817 108.111 321.606H108.122ZM58.8236 605.43L36.6775 583.284V552.529C36.6775 526.724 46.7235 502.467 64.9746 484.227L150.82 398.382C152.537 396.665 154.187 394.891 155.759 393.073H155.781V393.05C171.193 375.215 179.6 352.698 179.6 328.891V274.631C181.037 272.992 182.518 271.399 184.067 269.838L201.735 252.171V352.709C201.735 378.515 191.689 402.771 173.438 421.011L87.5921 506.856C69.0267 525.422 58.8011 550.104 58.8011 576.347V605.419L58.8236 605.43ZM82.6421 629.249L60.5072 607.103V576.347C60.5072 550.542 70.5532 526.286 88.8043 508.046L174.65 422.201C193.215 403.635 203.441 378.952 203.441 352.709V299.449C206.606 316.42 214.183 332.213 225.609 345.424H225.587V376.528C225.587 402.333 215.541 426.589 197.29 444.829L111.444 530.675C92.8789 549.24 82.6533 573.923 82.6533 600.166V629.237L82.6421 629.249ZM106.461 653.236C105.394 652.068 104.305 650.912 103.172 649.79L84.3145 630.932V600.177C84.3145 574.372 94.3605 550.116 112.612 531.876L198.457 446.03C217.022 427.465 227.248 402.782 227.248 376.539V347.299C228.314 348.466 229.403 349.623 230.537 350.745L249.394 369.602V400.357C249.394 426.163 239.348 450.419 221.097 468.67L135.252 554.516C116.686 573.081 106.461 597.764 106.461 624.007V653.247V653.236ZM108.111 655.099H108.133V623.996C108.133 598.19 118.179 573.934 136.43 555.694L222.276 469.849C240.841 451.283 251.067 426.601 251.067 400.357V371.286L273.201 393.421V424.176C273.201 449.981 263.155 474.238 244.904 492.477L159.059 578.323C140.493 596.888 130.268 621.571 130.268 647.814V701.075C127.103 684.103 119.526 668.31 108.099 655.099H108.111ZM58.8123 938.923L36.6663 916.777V886.022C36.6663 860.216 46.7123 835.96 64.9634 817.709L150.809 731.864C152.526 730.146 154.176 728.373 155.748 726.554H155.77V726.532C171.181 708.696 179.589 686.18 179.589 662.372V608.113C181.025 606.474 182.507 604.88 184.056 603.32L201.723 585.653V686.191C201.723 711.996 191.677 736.252 173.426 754.504L87.5809 840.349C69.0155 858.914 58.7899 883.597 58.7899 909.851V938.923H58.8123ZM82.6308 962.742L60.496 940.595V909.84C60.496 884.035 70.542 859.779 88.7931 841.527L174.639 755.682C193.204 737.117 203.43 712.434 203.43 686.18V632.919C206.595 649.902 214.171 665.684 225.598 678.895H225.576V709.998C225.576 735.803 215.53 760.06 197.278 778.311L111.433 864.156C92.8676 882.722 82.6421 907.404 82.6421 933.659V962.73L82.6308 962.742ZM249.383 733.839C249.383 759.644 239.337 783.901 221.086 802.152L135.24 887.997C116.675 906.563 106.449 931.245 106.449 957.5V986.74C105.383 985.572 104.294 984.416 103.161 983.294L84.3033 964.436V933.681C84.3033 907.876 94.3493 883.62 112.6 865.368L198.446 779.523C217.011 760.958 227.237 736.275 227.237 710.021V680.781C228.303 681.948 229.392 683.104 230.526 684.227L249.383 703.084V733.839ZM344.668 890.669C330.334 873.383 322.533 851.854 322.533 829.124V776.829C336.867 794.115 344.668 815.644 344.668 838.373V890.669ZM368.487 915.093L350.819 897.426C349.27 895.877 347.777 894.272 346.352 892.633V838.373C346.352 812.119 336.126 787.436 317.561 768.882L231.715 683.037C213.464 664.786 203.418 640.529 203.418 614.735V583.98L225.553 561.834V590.906C225.553 617.16 235.779 641.843 254.344 660.397L340.19 746.242C358.441 764.493 368.487 788.75 368.487 814.555V915.093ZM341.379 745.064L255.534 659.218C237.283 640.978 227.237 616.711 227.237 590.917V560.161L249.383 538.016V567.087C249.383 593.341 259.608 618.024 278.174 636.578L364.019 722.424C382.27 740.675 392.316 764.931 392.316 790.725V821.828H392.339C380.912 835.04 373.336 850.833 370.17 867.804V814.544C370.17 788.289 359.945 763.607 341.379 745.052V745.064ZM392.305 938.923L370.17 916.777V886.022C370.17 860.216 380.216 835.96 398.467 817.709L484.313 731.864C486.03 730.146 487.68 728.373 489.252 726.554H489.274V726.532C504.685 708.696 513.093 686.18 513.093 662.372V608.113C514.529 606.474 516.011 604.88 517.56 603.32L535.227 585.653V686.191C535.227 711.996 525.181 736.252 506.93 754.504L421.085 840.349C402.519 858.914 392.294 883.597 392.294 909.851V938.923H392.305ZM416.124 962.742L393.978 940.595V909.84C393.978 884.035 404.024 859.779 422.275 841.527L508.12 755.682C526.685 737.117 536.911 712.434 536.911 686.18V632.919C540.076 649.902 547.653 665.684 559.08 678.895H559.057V709.998C559.057 735.803 549.011 760.06 530.76 778.311L444.915 864.156C426.349 882.722 416.124 907.404 416.124 933.659V962.73V962.742ZM582.876 733.839C582.876 759.644 572.83 783.901 554.579 802.152L468.733 887.997C450.168 906.563 439.942 931.245 439.942 957.5V986.74C438.876 985.572 437.787 984.416 436.665 983.294L417.807 964.436V933.681C417.807 907.876 427.853 883.62 446.104 865.368L531.95 779.523C550.515 760.958 560.741 736.275 560.741 710.021V680.781C561.807 681.948 562.896 683.104 564.03 684.227L582.887 703.084V733.839H582.876ZM678.161 890.669C663.827 873.383 656.026 851.854 656.026 829.124V776.829C670.36 794.115 678.161 815.644 678.161 838.373V890.669ZM701.979 915.093L684.312 897.426C682.763 895.877 681.27 894.272 679.845 892.633V838.373C679.845 812.119 669.619 787.436 651.054 768.882L565.208 683.037C546.957 664.786 536.911 640.529 536.911 614.735V583.98L559.057 561.834V590.906C559.057 617.16 569.283 641.843 587.848 660.397L673.693 746.242C691.945 764.493 701.991 788.75 701.991 814.555V915.093H701.979ZM725.798 938.912L703.652 916.766V886.01C703.652 860.205 713.698 835.949 731.949 817.698L817.794 731.852C819.512 730.135 821.162 728.362 822.733 726.543H822.756V726.521C838.167 708.685 846.574 686.168 846.574 662.361V608.102C848.011 606.463 849.492 604.869 851.053 603.309L868.72 585.641V686.18C868.72 711.985 858.674 736.241 840.423 754.492L754.578 840.338C736.012 858.903 725.787 883.586 725.787 909.84V938.912H725.798ZM822.767 723.917V671.621C822.767 648.892 830.568 627.352 844.902 610.077V662.372C844.902 685.113 837.101 706.642 822.767 723.928V723.917ZM894.234 680.769C895.3 681.937 896.389 683.093 897.522 684.215L916.38 703.073V733.828C916.38 759.633 906.334 783.889 888.083 802.141L802.237 887.986C783.672 906.551 773.446 931.234 773.446 957.488V986.728C772.38 985.561 771.291 984.405 770.157 983.282L751.3 964.425V933.67C751.3 907.865 761.346 883.608 779.597 865.357L865.443 779.512C884.008 760.946 894.234 736.264 894.234 710.009V680.769ZM892.572 678.906H892.55V710.009C892.55 735.815 882.504 760.071 864.253 778.322L778.407 864.167C759.842 882.733 749.616 907.416 749.616 933.67V962.742L727.47 940.595V909.84C727.47 884.035 737.516 859.779 755.767 841.527L841.613 755.682C860.178 737.117 870.404 712.434 870.404 686.18V632.919C873.569 649.902 881.146 665.684 892.572 678.895V678.906ZM941.871 395.071L964.017 417.217V447.972C964.017 473.777 953.971 498.034 935.72 516.273L849.874 602.119C848.157 603.836 846.507 605.61 844.935 607.428H844.913V607.451C829.502 625.286 821.094 647.803 821.094 671.599V725.858C819.658 727.497 818.176 729.091 816.627 730.651L798.96 748.319V647.78C798.96 621.975 809.005 597.719 827.257 579.479L913.102 493.634C931.667 475.068 941.893 450.385 941.893 424.142V395.071H941.871ZM918.052 371.252L940.198 393.387V424.142C940.198 449.948 930.152 474.204 911.901 492.444L826.056 578.289C807.49 596.855 797.265 621.537 797.265 647.78V701.041C794.099 684.069 786.523 668.276 775.096 655.065H775.119V623.962C775.119 598.157 785.165 573.9 803.416 555.66L889.261 469.815C907.827 451.25 918.052 426.567 918.052 400.324V371.252ZM894.234 347.265C895.3 348.433 896.389 349.589 897.522 350.711L916.38 369.569V400.324C916.38 426.129 906.334 450.385 888.083 468.637L802.237 554.482C783.672 573.047 773.446 597.73 773.446 623.973V653.213C772.38 652.046 771.291 650.89 770.157 649.767L751.3 630.91V600.155C751.3 574.349 761.346 550.093 779.597 531.853L865.443 446.008C884.008 427.442 894.234 402.76 894.234 376.517V347.277V347.265ZM892.572 345.402H892.55V376.505C892.55 402.311 882.504 426.567 864.253 444.807L778.407 530.652C759.842 549.218 749.616 573.9 749.616 600.143V629.215L727.47 607.069V576.314C727.47 550.508 737.516 526.252 755.767 508.012L841.613 422.167C860.178 403.601 870.404 378.919 870.404 352.676V299.415C873.569 316.387 881.146 332.18 892.572 345.391V345.402ZM964.017 114.468C964.017 140.273 953.971 164.53 935.72 182.769L849.874 268.615C848.157 270.332 846.507 272.106 844.935 273.924H844.913V273.947C829.502 291.782 821.094 314.299 821.094 338.106V392.366C819.658 394.004 818.176 395.598 816.627 397.158L798.96 414.826V314.288C798.96 288.482 809.005 264.226 827.257 245.986L913.102 160.141C931.667 141.575 941.893 116.893 941.893 90.6495V61.5779L964.039 83.724V114.479L964.017 114.468Z" fill="#8A694F" fill-opacity="0.1"/>
</svg>
