<svg width="166" height="43" fill="none" xmlns="http://www.w3.org/2000/svg"><path d="M75.159 16.9l3.136-2.312h-10.4V28.29h10.4v-2.31h-7.428v-3.468h6.273v-2.31h-6.273V16.9h4.292zm-12.96 0l3.137-2.312H53.45V28.29h6.19c3.468 0 5.449-1.568 5.449-4.292 0-2.641-1.816-4.044-5.118-4.044h-3.632V16.9h5.86zm-2.64 5.282c1.898 0 2.723.66 2.723 1.899 0 1.238-.908 1.898-2.724 1.898h-3.136v-3.797h3.136zm27.073-7.594H81.02V28.29h2.972v-3.879h2.724c3.632 0 5.86-1.899 5.86-4.953 0-3.054-2.311-4.87-5.943-4.87zm0 7.512h-2.641v-5.283h2.641c1.899 0 2.972.908 2.972 2.641-.083 1.734-1.073 2.642-2.972 2.642zm-38.217 3.219c-.825.413-1.65.66-2.559.66-2.641 0-4.622-1.898-4.622-4.54 0-2.64 1.898-4.54 4.622-4.54.99 0 1.899.33 2.724.826l2.146-1.568-.165-.165c-1.238-1.073-2.889-1.651-4.787-1.651-2.064 0-3.88.66-5.283 1.98-1.32 1.321-2.146 3.137-2.063 5.036 0 1.898.742 3.714 2.063 5.117 1.403 1.321 3.302 2.064 5.2 1.982 2.146 0 3.962-.743 5.283-2.064l-1.898-1.403-.66.33zm89.063-5.118h-6.356v-5.613h-2.971V28.29h2.971v-5.612h6.356v5.612h2.972V14.588h-2.972v5.613zm-20.058-5.613l-5.943 13.702h2.972l1.155-2.723h6.274l1.155 2.723h3.137l-5.778-13.702h-2.972zm-.825 8.667l2.311-5.53 2.146 5.53h-4.457zm34.585-2.063l5.365-6.604h-3.384l-4.457 5.86h-1.651v-5.86h-2.972V28.29h2.972v-5.53h1.898l4.54 5.53h3.797l-6.108-7.098zm-45.893-1.238h-3.632V16.9h7.759v-2.312h-10.73V28.29h6.19c3.467 0 5.448-1.568 5.448-4.292.082-2.641-1.734-4.044-5.035-4.044zm-.496 6.108h-3.136v-3.797h3.136c1.899 0 2.724.66 2.724 1.898.083 1.238-.908 1.899-2.724 1.899zM28.92 14.325c.535.702.989 1.465 1.351 2.273l-10.275 7.677-4.295-2.728v-3.282l4.295 2.728 8.923-6.668zm-17.601 6.99c0-.147.003-.293.01-.439l-2.602-.129a11.534 11.534 0 00.843 4.945 11.41 11.41 0 002.447 3.706l1.846-1.87a8.768 8.768 0 01-1.884-2.85 8.864 8.864 0 01-.66-3.363zm8.675-8.791c.145 0 .29.006.433.013l.13-2.639a11.12 11.12 0 00-4.881.854 11.241 11.241 0 00-3.66 2.48l1.847 1.871a8.637 8.637 0 012.811-1.91 8.546 8.546 0 013.32-.669zm-.001 17.584c-.145 0-.29 0-.434-.012l-.13 2.637a11.114 11.114 0 004.88-.854 11.236 11.236 0 003.657-2.48l-1.843-1.87a8.643 8.643 0 01-2.81 1.91 8.548 8.548 0 01-3.32.669z" fill="#F5F5F5"/><path d="M24.883 14.058l2.193-1.638a11.138 11.138 0 00-7.086-2.536v2.64a8.551 8.551 0 014.893 1.534zm6.39 7.258a11.644 11.644 0 00-.177-2.048l-2.428 1.813v.235a8.867 8.867 0 01-.745 3.566 8.762 8.762 0 01-2.112 2.95l1.75 1.962a11.397 11.397 0 002.746-3.84c.639-1.46.968-3.04.966-4.638zm-11.28 8.792a8.558 8.558 0 01-3.518-.756 8.661 8.661 0 01-2.912-2.14l-1.935 1.774a11.258 11.258 0 003.788 2.782c1.441.648 3 .982 4.577.98v-2.64zM14.176 14.8l-1.75-1.962a11.396 11.396 0 00-2.746 3.839c-.64 1.46-.97 3.04-.968 4.638h2.607a8.87 8.87 0 01.745-3.565 8.763 8.763 0 012.112-2.95z" fill="#F5F5F5"/></svg>