<svg width="180" height="160" fill="none" xmlns="http://www.w3.org/2000/svg"><g fill="#8A694F"><path d="M64.618 120.92c-4.077 4.013-8.818 6.748-14.042 8.562-3.568 1.253-7.212 2.25-10.805 3.476-2.14.742-4.205 1.662-6.753 2.684h-3.44c.254-.715.381-1.303.662-1.815 12.64-22.517 27.93-42.964 46.967-60.472a182.565 182.565 0 0125.204-19.45c14.373-9.228 28.109-19.375 40.851-30.8.28-.255.586-.46.968-.766 1.657 1.278 2.294 2.939 1.962 5.265-2.726 1.789-5.581 3.68-8.46 5.572.076.179.178.332.255.51 2.624-.945 5.275-1.89 8.129-2.913v4.575c-3.976 2.377-8.41 3.988-12.895 5.495 3.95 0 7.671-1.252 11.825-2.274-.51 2.223-1.377 3.757-3.186 4.856-4.638 2.735-9.684 4.268-14.985 5.035-1.682.23-3.363.486-5.02.843 6.167.767 12.156-.204 18.476-2.12-1.07 5.034-3.593 8.868-6.702 12.395-3.313 3.783-8.053 4.678-12.386 6.62l5.785-.664c.051.153.102.28.153.434-2.421 1.1-4.867 2.224-7.288 3.323.025.127.051.23.076.358 1.58-.128 3.135-.256 5.454-.46-1.886 1.66-3.186 2.964-4.664 4.089-4.587 3.45-9.786 5.75-15.188 7.591-9.302 3.195-18.782 5.29-28.695 4.55-2.93-.205-5.76.434-8.461 1.712.841-.077 1.656-.256 2.497-.23 3.39.051 6.881-.281 10.169.358 6.549 1.303 12.996.971 19.52.204 1.3-.153 2.574-.358 4.409-.613-1.07 1.84-1.809 3.323-2.727 4.703-3.185 4.651-7.186 8.332-12.614 10.172-5.734 1.943-11.417 4.064-17.253 5.623-3.874 1.048-8.002 1.227-12.003 1.917 7.237 0 14.551 1.201 21.712-2.351-.203.588-.204.767-.28.818-8.18 5.393-16.615 10.274-25.84 13.572-4.078 1.456-8.461 2.019-12.666 3.015-1.81.435-3.593.972-5.377 1.457.05.205.076.384.127.588l1.402-.076c3.567-.307 7.135-.793 10.728-.921 3.008-.102 5.785-.894 8.538-1.942 1.987-.767 3.95-1.687 5.912-2.53"/><path d="M48.104 72.741c.637 4.14 1.147 7.591 1.708 11.042.05.306.407.588 1.045 1.431-.128-1.763-.153-2.888-.332-3.987-.586-3.91-.178-7.77.714-11.578.968-4.013 2.625-7.643 5.377-10.837 5.632-6.467 11.748-12.397 18.833-17.253 1.019-.69 2.064-1.329 3.491-2.223-.688 3.833-2.548 7.156-1.988 11.271.765-2.48 1.325-4.575 2.039-6.62 1.401-4.09 3.72-7.36 7.823-9.278 3.16-1.482 6.142-3.322 9.659-5.265-1.198 4.396-3.033 8.179-2.752 12.499.433-.87.84-1.764 1.325-2.607 2.523-4.243 4.995-8.486 7.62-12.652.56-.895 1.554-1.687 2.548-2.147 8.741-4.269 17.89-7.233 27.548-8.435.255-.025.535.102.994.18-1.758 3.04-3.44 5.98-5.122 8.92.102.101.229.204.331.331a8862.81 8862.81 0 007.008-6.952c-.662 2.403-2.268 3.707-3.134 6.058 2.981-1.917 5.555-3.604 8.155-5.29.127.178.229.331.356.51-3.695 3.042-7.237 6.288-11.111 9.074-4.23 3.016-8.613 5.93-13.175 8.358-14.704 7.795-28.466 16.971-41.59 27.195-6.167 4.805-11.417 10.581-16.31 16.639-13.353 16.587-25.33 34.121-35.652 52.779-.23.409-.484.792-.79 1.304-.637.025-1.274.076-2.039.102-.255-.767-.662-1.457-.688-2.173-.102-2.837-.255-5.699-.025-8.536.306-4.141.994-8.256 2.472-12.575.484 3.297.917 6.21 1.35 9.124.23 0 .434 0 .663-.025 0-1.227-.05-2.454 0-3.655.051-1.227.153-2.454.357-3.681.23-1.278.586-2.53 1.325-3.783v6.518c.204.025.433.051.637.077.357-1.892.688-3.783 1.07-5.674.816-4.09 1.555-8.205 2.472-12.269 1.122-5.01 3.517-9.431 6.78-13.342 3.465-4.14 7.084-8.127 10.983-12.55"/><path d="M133.578 29.47c-2.549 1.917-5.021 3.961-7.645 5.75-7.595 5.189-15.189 10.352-22.885 15.413-15.877 10.453-29.842 23.054-42.38 37.316-12.946 14.747-23.904 30.901-33.384 48.077-.918 1.635-1.555 3.45-2.396 5.367-.968-.383-1.886-.767-2.93-1.176.56-1.073.968-1.917 1.427-2.709 8.282-14.748 17.252-29.061 27.471-42.556 7.977-10.53 16.412-20.677 26.606-29.214a224.707 224.707 0 0127.013-19.425c9.047-5.546 18.17-10.965 27.268-16.434.51-.307 1.07-.563 1.605-.844l.23.384M19.18 154.505c.407-1.432.153-2.224-.994-2.122-1.096.077-1.274.895-.765 2.045.51 0 1.096.051 1.784.077m-1.223-8.486c1.784.716 3.44 1.355 5.3 2.096-.61 2.581-1.223 5.035-1.732 7.208-2.32 1.687-4.434 3.22-6.422 4.677-.153-2.556-.306-5.163-.51-8.383.892-1.457 2.09-3.476 3.364-5.598zm7.568-2.223c-.483.996-.84 1.738-1.273 2.607a1222.87 1222.87 0 00-5.709-2.326c.28-.895.535-1.662.867-2.735 2.038.818 3.899 1.559 6.116 2.454zm126.274-1.406c0-20.601-7.135-27.757-27.675-27.757 20.54 0 27.675-7.157 27.675-27.758 0 20.601 7.136 27.758 27.676 27.758-20.54 0-27.676 7.156-27.676 27.757zM19.052 51.093C19.052 37.29 14.262 32.51.5 32.51c13.761 0 18.552-4.805 18.552-18.607 0 13.802 4.791 18.607 18.527 18.607-13.761 0-18.527 4.805-18.527 18.582zm41.59-36.627c-3.975 0-7.212-3.246-7.212-7.233C53.43 3.246 56.667 0 60.642 0c3.976 0 7.212 3.246 7.212 7.233 0 3.987-3.236 7.234-7.212 7.234zm0-11.936c-2.574 0-4.663 2.096-4.663 4.678 0 2.581 2.09 4.677 4.663 4.677a4.673 4.673 0 004.664-4.677c0-2.582-2.09-4.678-4.664-4.678zm61.697 147.093c-3.975 0-7.212-3.246-7.212-7.233 0-3.987 3.237-7.233 7.212-7.233 3.976 0 7.212 3.246 7.212 7.233 0 3.987-3.236 7.233-7.212 7.233zm0-11.936c-2.574 0-4.663 2.096-4.663 4.677 0 2.582 2.089 4.678 4.663 4.678 2.574 0 4.664-2.096 4.664-4.678a4.673 4.673 0 00-4.664-4.677z"/></g></svg>