<svg width="162" height="114" fill="none" xmlns="http://www.w3.org/2000/svg"><g fill="#8A694F"><path d="M64.168 19.056C77.234-1.906 100.1-2.187 112.12 4.656c12.708 7.226 19.343 23.899 14.495 37.303-8.881-.664-17.634.281-25.903 3.881-14.954 6.511-26.004 16.75-30.266 33.065-2.348 8.962-.663 17.337 4.44 25.125-5.843 4.008-11.458 5.31-18.118 1.863-24.78-12.868-43.562-31.15-53.26-57.831C1.186 41.652-.217 34.989.88 28.12 4.376 6.086 26.17-5.43 47.147 3.583 54.47 6.75 60.06 11.882 64.219 19.056"/><path d="M78.868 97.927c-3.292-5.643-3.599-11.362-2.272-17.183 2.629-11.465 9.876-19.559 19.65-25.533 17.481-10.724 42.516-9.013 58.338 4.06 2.552 2.093 4.466 4.978 6.916 7.787-1.506.894-2.169 1.455-2.909 1.71-8.83 2.86-14.47 9.141-18.476 17.159-3.624 7.225-7.962 13.915-14.113 19.303-12.759 11.157-30.19 11.004-41.852-.332-.357-.358-.689-.766-1.25-1.328 5.742-8.911 12.453-16.903 20.9-23.363 2.884-2.195 5.997-4.11 9.111-6 2.016-1.225 3.037-2.783 1.812-4.877-1.174-1.991-3.012-1.787-4.9-.74-11.663 6.383-20.875 15.447-28.607 26.146-.715.995-1.43 1.966-2.348 3.242"/></g></svg>