<svg width="48" height="48" fill="none" xmlns="http://www.w3.org/2000/svg"><circle cx="24" cy="24" r="23" stroke="#8A694F" stroke-width="2"/><path d="M25.046 21.92v8.812a1.035 1.035 0 11-2.073 0V11.037a1.035 1.035 0 112.073 0V21.92zm-2.074 15.001h-8.81a1.036 1.036 0 110-2.073h19.694a1.035 1.035 0 01.733 1.77 1.034 1.034 0 01-.733.303H22.972z" fill="#8A694F"/><path d="M32.034 24.293l-7.31 7.31a1.035 1.035 0 11-1.466-1.466l7.31-7.31a1.035 1.035 0 111.466 1.466z" fill="#8A694F"/><path d="M17.398 22.827l7.31 7.31a1.035 1.035 0 11-1.466 1.466l-7.31-7.31a1.035 1.035 0 01.733-1.77c.265 0 .53.102.733.304z" fill="#8A694F"/></svg>