<svg width="38" height="38" fill="none" xmlns="http://www.w3.org/2000/svg"><path d="M18.54 37.04C8.27 37.04 0 28.76 0 18.49 0 8.25 8.3 0 18.6 0c10.21 0 18.44 8.33 18.44 18.65 0 10.11-8.33 18.39-18.5 18.39zM2.17 18.53c0 8.98 7.37 16.35 16.36 16.36 8.98 0 16.35-7.38 16.34-16.37C34.86 9.5 27.5 2.16 18.51 2.19 9.46 2.22 2.17 9.51 2.17 18.53z" fill="#fff"/><path d="M24.23 28.49c-2.86-.23-5.5-1.15-7.89-2.73-4.04-2.67-6.66-6.36-7.69-11.1-.2-.93-.28-2-.02-2.9.39-1.36 1.46-2.35 2.71-2.99.94-.48 1.94-.28 2.77.39.49.4.96.84 1.39 1.3 1.11 1.17 1.11 2.7.03 3.9-.61.67-1.22 1.31-2.13 1.58-.58.17-.41.58-.23.95 1.16 2.4 2.82 4.38 5.09 5.81.68.43 1.42.77 2.13 1.15.45.24.7.11 1.01-.33.51-.75 1.09-1.48 1.77-2.07.89-.77 2.17-.76 3.1-.04.66.51 1.27 1.09 1.81 1.72.75.86.79 2.23.12 3.18-.95 1.36-2.15 2.32-3.96 2.16l-.01.02z" fill="#fff"/></svg>