<svg width="296" height="680" fill="none" xmlns="http://www.w3.org/2000/svg"><path d="M133.469 229.347c0-47.645-26.882-74.52-74.54-74.52 47.658 0 74.54-26.875 74.54-74.52 0 47.645 26.883 74.52 74.542 74.52-47.659 0-74.542 26.875-74.542 74.52z" fill="url(#paint0_linear_7_559)"/><path d="M48.577 190.691l-37.68 16.006v-4.169l35.52-13.214h.02c.744.465 1.433.912 2.14 1.377z" fill="url(#paint1_linear_7_559)"/><path d="M40.758 186.001l-29.86 10.05v-3.908l26.975-7.724h.018a86.277 86.277 0 012.867 1.582z" fill="url(#paint2_linear_7_559)"/><path d="M103.552 248.405l-21.763 74.5h-6.18l26.398-77.143c.54.874 1.043 1.749 1.545 2.624v.019z" fill="url(#paint3_linear_7_559)"/><path d="M92.904 232.008L47.74 322.905h-7.335l51.307-92.498c.41.522.8 1.043 1.173 1.582l.019.019z" fill="url(#paint4_linear_7_559)"/><path d="M87.412 224.973L25.92 322.924h-8.396l68.807-99.272c.39.428.763.874 1.08 1.321z" fill="url(#paint5_linear_7_559)"/><path d="M108.895 258.492c.671 1.377 1.341 2.754 1.955 4.15l-11.058 60.282h-5.79l14.893-64.432z" fill="url(#paint6_linear_7_559)"/><path d="M97.334 238.336l-34.143 84.569h-6.739l39.58-86.467c.446.614.874 1.265 1.302 1.898z" fill="url(#paint7_linear_7_559)"/><path d="M27.522 179.245l-16.625 3.816v-3.667l12.064-2.196a196.67 196.67 0 014.56 2.029v.018z" fill="url(#paint8_linear_7_559)"/><path d="M76.39 212.857l-65.493 68.527v-8.096l64.377-61.51c.372.335.744.67 1.098 1.06l.019.019z" fill="url(#paint9_linear_7_559)"/><path d="M70.359 207.162l-59.462 50.455v-6.458l58.289-45.021c.41.335.8.689 1.173 1.043v-.019z" fill="url(#paint10_linear_7_559)"/><path d="M64.122 201.876l-53.225 36.72v-5.434l51.885-32.402c.465.372.912.707 1.359 1.116h-.019z" fill="url(#paint11_linear_7_559)"/><path d="M56.88 196.33l-45.983 25.2v-4.69l44.345-21.719c.559.39 1.099.781 1.638 1.209z" fill="url(#paint12_linear_7_559)"/><path d="M81.845 218.534l-70.948 90.86v-10.478l69.887-81.536c.372.39.745.781 1.061 1.154z" fill="url(#paint13_linear_7_559)"/><path d="M119.693 285.497v.056l-3.053 37.353h-5.585l5.846-45.635a146.51 146.51 0 012.792 8.207v.019z" fill="url(#paint14_linear_7_559)"/><path d="M10.897 101.934l43.973 20.119c-.596.428-1.229.856-1.825 1.247l-42.148-17.03v-4.336z" fill="url(#paint15_linear_7_559)"/><path d="M10.897.614L84.34 95.606c-.335.391-.652.763-1.005 1.136l-72.438-85.37V.614z" fill="url(#paint16_linear_7_559)"/><path d="M121.853 24.288a186.083 186.083 0 01-2.905 9.454L114.797 0h5.175l1.881 24.27v.018z" fill="url(#paint17_linear_7_559)"/><path d="M10.897 90.172l49.781 27.6c-.484.391-.968.763-1.47 1.117l-48.31-23.971v-4.746z" fill="url(#paint18_linear_7_559)"/><path d="M73.524 0l27.236 73.198c-.41.689-.857 1.396-1.322 2.085L67.455 0h6.069z" fill="url(#paint19_linear_7_559)"/><path d="M10.897 129.404l22.824 5.267a146.241 146.241 0 01-3.816 1.898l-19.008-3.48v-3.685z" fill="url(#paint20_linear_7_559)"/><path d="M54.926 0l40.156 81.89c-.391.52-.763 1.06-1.154 1.582L48.168 0h6.758z" fill="url(#paint21_linear_7_559)"/><path d="M10.897 53.507l62.44 53.508c-.372.372-.744.688-1.098 1.005L10.897 60.133v-6.626z" fill="url(#paint22_linear_7_559)"/><path d="M103.534 0l9.122 50.25c-.614 1.47-1.285 2.922-1.955 4.374L98.191 0h5.343z" fill="url(#paint23_linear_7_559)"/><path d="M10.897 115.948l35 11.967c-.82.503-1.62.987-2.458 1.452l-32.523-9.492v-3.927h-.019z" fill="url(#paint24_linear_7_559)"/><path d="M10.897 73.421l56.372 39.047c-.41.372-.82.688-1.23 1.042L10.898 78.912v-5.49z" fill="url(#paint25_linear_7_559)"/><path d="M33.758 0l55.813 89.297c-.353.428-.689.875-1.042 1.303L25.995 0h7.763z" fill="url(#paint26_linear_7_559)"/><path d="M10.897 30.56l67.914 71.058c-.317.353-.652.688-1.006 1.042L10.897 38.767V30.56z" fill="url(#paint27_linear_7_559)"/><path d="M87.02 0l18.562 64.823c-.484.93-.987 1.861-1.527 2.773L81.305 0h5.716z" fill="url(#paint28_linear_7_559)"/><path d="M147.004.465c1.712.13 3.407.298 5.119.484l-5.194 40.424a156.558 156.558 0 01-2.643-7.556L147.004.465z" fill="url(#paint29_linear_7_559)"/><path d="M209.239 18.22L171.41 86.412a25.02 25.02 0 01-1.098-1.47l34.31-69.066c1.546.763 3.091 1.526 4.636 2.345h-.019z" fill="url(#paint30_linear_7_559)"/><path d="M277.488 85.984l-70.967 34.785c-.521-.373-1.042-.745-1.545-1.099l69.962-38.32a122.68 122.68 0 012.55 4.653v-.019z" fill="url(#paint31_linear_7_559)"/><path d="M288.602 112.412l-65.624 18.798a60.794 60.794 0 01-2.625-1.489l66.555-22.39c.596 1.675 1.154 3.388 1.713 5.1l-.019-.019z" fill="url(#paint32_linear_7_559)"/><path d="M222.904 26.242l-46.281 66.777c-.354-.41-.689-.819-1.005-1.247L218.51 23.45a96.81 96.81 0 014.394 2.792z" fill="url(#paint33_linear_7_559)"/><path d="M167.65 3.387l-12.92 55.909a104.692 104.692 0 01-1.881-3.853l9.737-53.042c1.713.298 3.388.614 5.045.986h.019z" fill="url(#paint34_linear_7_559)"/><path d="M284.32 100.613l-69.384 25.832h-.019c-.67-.409-1.34-.838-1.992-1.303l69.31-29.424a93.18 93.18 0 012.085 4.895z" fill="url(#paint35_linear_7_559)"/><path d="M259.411 58.886l-66.238 51.181a18.054 18.054 0 01-1.098-.986l63.911-54.197a138.583 138.583 0 013.425 4.002z" fill="url(#paint36_linear_7_559)"/><path d="M292.735 128.101l-55.85 10.125h-.019a140.764 140.764 0 01-4.132-1.917l58.791-13.456c.428 1.749.838 3.48 1.192 5.248h.018z" fill="url(#paint37_linear_7_559)"/><path d="M295.323 144.665l-34.273 2.624h-.019a198.606 198.606 0 01-8.564-2.81l42.223-5.192c.261 1.786.465 3.554.633 5.36v.018z" fill="url(#paint38_linear_7_559)"/><path d="M198.144 12.972l-30.941 67.596a25.268 25.268 0 01-1.192-1.805l27.348-67.764c1.601.614 3.221 1.284 4.785 1.973z" fill="url(#paint39_linear_7_559)"/><path d="M236.159 35.883l-54.175 63.203c-.372-.353-.67-.707-.986-1.06l51.065-65.382a111.522 111.522 0 014.115 3.239h-.019z" fill="url(#paint40_linear_7_559)"/><path d="M183.343 7.482L161.432 71.56a41.115 41.115 0 01-1.452-2.438l18.43-63.11c1.657.446 3.314.949 4.933 1.47z" fill="url(#paint41_linear_7_559)"/><path d="M248.055 46.491l-60.783 58.067c-.335-.335-.671-.651-1.006-.986l57.991-60.692a113.64 113.64 0 013.798 3.592v.019z" fill="url(#paint42_linear_7_559)"/><path d="M268.98 71.746l-69.663 43.513a20.647 20.647 0 01-1.266-1.005l67.913-46.844a112.32 112.32 0 013.016 4.336z" fill="url(#paint43_linear_7_559)"/><path d="M153.631 259.832l13.684 59.798c-1.806.372-3.593.689-5.418 1.005l-10.258-56.522c.633-1.452 1.322-2.867 1.992-4.281z" fill="url(#paint44_linear_7_559)"/><path d="M160.352 247.158l22.992 68.322c-1.75.558-3.5 1.079-5.288 1.563l-19.249-67.131a49.665 49.665 0 011.545-2.754z" fill="url(#paint45_linear_7_559)"/><path d="M145.31 280.025l5.194 42.117c-1.825.187-3.668.335-5.492.447l-2.588-33.686c.912-3.034 1.88-5.974 2.904-8.878h-.018z" fill="url(#paint46_linear_7_559)"/><path d="M187.123 212.503l63.836 60.99c-.689.707-1.396 1.433-2.085 2.121-.596.596-1.191 1.173-1.806 1.768l-61.006-63.836c.372-.373.707-.708 1.061-1.043z" fill="url(#paint47_linear_7_559)"/><path d="M222.792 185.796l67.337 19.654a169.48 169.48 0 01-1.583 5.248l-68.397-23.375a91.878 91.878 0 012.606-1.508h.037v-.019z" fill="url(#paint48_linear_7_559)"/><path d="M170.61 231.524l39.784 72.566a121.392 121.392 0 01-4.897 2.512l-36.042-73.477c.373-.54.764-1.08 1.136-1.601h.019z" fill="url(#paint49_linear_7_559)"/><path d="M181.463 218.403l56.8 66.945c-1.415 1.173-2.83 2.345-4.282 3.462l-53.56-69.271c.335-.391.67-.782 1.042-1.136z" fill="url(#paint50_linear_7_559)"/><path d="M165.006 239.602l30.401 71.504a153.187 153.187 0 01-5.157 1.991l-26.584-71.411c.428-.707.875-1.396 1.34-2.084z" fill="url(#paint51_linear_7_559)"/><path d="M237.164 178.557l56.67 10.403a128.097 128.097 0 01-1.006 5.36l-59.815-13.809c1.377-.67 2.736-1.34 4.151-1.954z" fill="url(#paint52_linear_7_559)"/><path d="M176.176 224.47l48.869 70.854a132.62 132.62 0 01-4.636 2.996l-45.331-72.528c.353-.447.689-.875 1.079-1.322h.019z" fill="url(#paint53_linear_7_559)"/><path d="M192.819 207.144l69.012 53.898a192.058 192.058 0 01-3.481 4.28l-66.666-57.118c.372-.372.763-.688 1.135-1.042v-.018z" fill="url(#paint54_linear_7_559)"/><path d="M206.316 196.293l73.332 36.404a153.01 153.01 0 01-2.495 4.876l-72.419-40.145a31.166 31.166 0 011.582-1.135z" fill="url(#paint55_linear_7_559)"/><path d="M295.807 172.694a126.464 126.464 0 01-.466 5.416l-43.321-5.565a177.774 177.774 0 018.397-2.773l35.371 2.903.019.019z" fill="url(#paint56_linear_7_559)"/><path d="M212.702 191.901l72.158 29.108c-.67 1.712-1.396 3.387-2.122 5.044l-71.916-32.886c.614-.466 1.247-.875 1.88-1.285h.019l-.019.019z" fill="url(#paint57_linear_7_559)"/><path d="M199.224 201.709l72.381 45.393a180.617 180.617 0 01-2.978 4.634L197.92 202.77c.429-.372.857-.707 1.304-1.061z" fill="url(#paint58_linear_7_559)"/><path d="M11.605 517.003V496.4H24.86c1.191 0 2.252.149 3.183.428.93.279 1.694.707 2.327 1.247a5.524 5.524 0 011.434 2.01c.316.8.484 1.694.484 2.699 0 1.302-.298 2.4-.875 3.35-.577.93-1.415 1.637-2.514 2.14-1.005.465-2.215.726-3.648.744l7.577 8.003h-4.003l-7.447-7.854h-6.59v7.854h-3.146l-.037-.018zm3.146-18.146v7.798h9.606c.763 0 1.452-.075 2.03-.242a4.249 4.249 0 001.507-.745c.41-.335.726-.744.931-1.228a4.236 4.236 0 00.317-1.656c0-.615-.094-1.21-.298-1.713a3.136 3.136 0 00-.894-1.228 4.396 4.396 0 00-1.508-.744c-.596-.168-1.285-.242-2.085-.242h-9.606z" fill="url(#paint59_linear_7_559)"/><path d="M46.623 517.282c-1.304 0-2.495-.131-3.575-.391-1.098-.261-2.048-.614-2.848-1.098a7.582 7.582 0 01-2.085-1.731 7.352 7.352 0 01-1.303-2.327c-.298-.856-.447-1.805-.447-2.829 0-1.023.149-1.898.447-2.754a7.274 7.274 0 011.284-2.289 7.87 7.87 0 012.067-1.731 9.647 9.647 0 012.83-1.098c1.06-.261 2.233-.391 3.518-.391 1.545 0 2.941.186 4.17.577 1.229.391 2.271.931 3.146 1.638.857.707 1.527 1.545 1.974 2.512.446.968.67 2.048.67 3.257v.596c0 .205-.037.391-.075.558H39.343c.056.428.15.838.261 1.21.186.651.484 1.21.875 1.712.391.484.875.912 1.452 1.266.577.353 1.285.614 2.067.8.782.168 1.675.261 2.643.261 1.36 0 2.495-.112 3.426-.354.93-.242 1.675-.596 2.234-1.061a3.811 3.811 0 001.21-1.712l2.885.502c-.353 1.08-.93 1.992-1.731 2.718-.8.725-1.862 1.265-3.184 1.637-1.321.354-2.922.54-4.821.54l-.037-.018zm-7.224-9.716h14.112a5.112 5.112 0 00-.466-1.563 4.363 4.363 0 00-1.377-1.656c-.596-.466-1.322-.819-2.178-1.08-.857-.26-1.843-.391-2.96-.391-.987 0-1.862.093-2.644.261-.782.167-1.452.428-2.01.782a5.538 5.538 0 00-1.453 1.247c-.41.483-.67 1.042-.856 1.675-.075.242-.13.465-.186.707l.018.018z" fill="url(#paint60_linear_7_559)"/><path d="M68.702 502.895c-1.247 0-2.308.093-3.146.261-.838.167-1.49.428-1.918.781-.428.335-.651.763-.651 1.247 0 .484.13.894.41 1.191.278.298.744.54 1.395.726.652.168 1.546.317 2.644.41l3.835.204c1.676.131 2.997.391 4.003.745 1.005.353 1.731.837 2.196 1.451.466.615.69 1.396.69 2.345 0 1.061-.336 1.973-1.025 2.718-.689.763-1.712 1.321-3.053 1.731-1.34.39-3.016.595-5.026.595s-3.575-.186-4.897-.558c-1.321-.372-2.345-.949-3.09-1.731-.745-.782-1.247-1.768-1.508-2.959l2.849-.447c.204 1.173.837 2.047 1.936 2.624 1.098.577 2.643.856 4.617.856 1.08 0 2.01-.055 2.792-.167.782-.112 1.415-.279 1.936-.503.503-.223.894-.483 1.136-.781.242-.298.372-.652.372-1.042 0-.522-.13-.95-.41-1.266-.279-.316-.725-.577-1.34-.763-.614-.205-1.47-.335-2.55-.41l-3.891-.242c-1.638-.13-2.942-.39-3.965-.744-1.006-.354-1.75-.838-2.216-1.452-.465-.614-.707-1.377-.707-2.289 0-1.005.335-1.861 1.005-2.568.67-.707 1.638-1.247 2.923-1.638 1.284-.391 2.83-.577 4.654-.577 1.824 0 3.37.186 4.636.54 1.265.372 2.27.912 2.997 1.638.726.725 1.21 1.656 1.433 2.791l-2.792.41a3.063 3.063 0 00-.912-1.787c-.484-.465-1.173-.8-2.067-1.024-.875-.223-1.992-.335-3.295-.335v.019z" fill="url(#paint61_linear_7_559)"/><path d="M82.813 498.503v-2.978h3.202v2.978h-3.202zm.112 18.5v-16.025h2.979v16.025h-2.979z" fill="url(#paint62_linear_7_559)"/><path d="M108.169 494.911h2.979v22.091h-2.681l-.205-3.331a7.78 7.78 0 01-1.172 1.303c-.838.744-1.862 1.321-3.054 1.731-1.191.409-2.513.595-3.984.595-1.135 0-2.178-.13-3.146-.391-.95-.26-1.806-.614-2.55-1.098a7.054 7.054 0 01-1.88-1.749 7.8 7.8 0 01-1.155-2.289c-.26-.838-.39-1.768-.39-2.773 0-1.005.13-1.899.39-2.755a7.311 7.311 0 011.173-2.308 7.666 7.666 0 011.88-1.749 8.84 8.84 0 012.55-1.117 12.02 12.02 0 013.128-.391c1.471 0 2.812.205 3.984.633 1.192.428 2.197 1.005 3.054 1.75.409.353.781.744 1.098 1.172v-9.306l-.019-.018zm-7.242 20.044c1.49 0 2.774-.242 3.854-.744 1.08-.503 1.918-1.191 2.495-2.085.577-.893.875-1.935.875-3.108 0-.875-.168-1.693-.503-2.438a5.184 5.184 0 00-1.452-1.898 6.761 6.761 0 00-2.29-1.229 10.078 10.078 0 00-3.016-.446c-.912 0-1.731.093-2.476.279-.745.186-1.396.447-1.936.8a5.01 5.01 0 00-1.396 1.247 5.183 5.183 0 00-.857 1.657 6.861 6.861 0 00-.279 1.991c0 .707.093 1.377.28 1.991.186.615.465 1.173.856 1.657.39.484.856.912 1.396 1.247a6.81 6.81 0 001.936.8c.745.186 1.564.279 2.476.279h.037z" fill="url(#paint63_linear_7_559)"/><path d="M126.376 517.282c-1.303 0-2.494-.131-3.574-.391-1.098-.261-2.048-.614-2.848-1.098a7.583 7.583 0 01-2.085-1.731 7.358 7.358 0 01-1.304-2.327c-.297-.856-.446-1.805-.446-2.829 0-1.023.149-1.898.446-2.754a7.287 7.287 0 011.285-2.289 7.877 7.877 0 012.066-1.731 9.655 9.655 0 012.83-1.098c1.061-.261 2.234-.391 3.519-.391 1.545 0 2.941.186 4.17.577 1.229.391 2.271.931 3.146 1.638.856.707 1.527 1.545 1.973 2.512.447.968.671 2.048.671 3.257v.596c0 .205-.038.391-.075.558h-17.053c.056.428.149.838.261 1.21.186.651.484 1.21.875 1.712.391.484.875.912 1.452 1.266.577.353 1.285.614 2.066.8.782.168 1.676.261 2.644.261 1.359 0 2.495-.112 3.426-.354.93-.242 1.675-.596 2.234-1.061a3.812 3.812 0 001.21-1.712l2.885.502c-.354 1.08-.931 1.992-1.731 2.718-.801.725-1.862 1.265-3.184 1.637-1.321.354-2.922.54-4.821.54l-.038-.018zm-7.223-9.716h14.112a5.11 5.11 0 00-.466-1.563 4.36 4.36 0 00-1.377-1.656c-.596-.466-1.322-.819-2.179-1.08-.856-.26-1.843-.391-2.96-.391-.986 0-1.861.093-2.643.261-.782.167-1.452.428-2.011.782-.577.335-1.042.763-1.452 1.247-.409.483-.67 1.042-.856 1.675a9.214 9.214 0 00-.186.707l.018.018z" fill="url(#paint64_linear_7_559)"/><path d="M141.065 517.003v-16.025h2.644l.204 3.592a7.461 7.461 0 012.011-2.103c.8-.577 1.731-1.023 2.774-1.34a11.294 11.294 0 013.295-.465c1.582 0 2.941.279 4.058.856s1.974 1.377 2.57 2.419c.595 1.043.875 2.271.875 3.685v9.399h-2.979v-8.803c0-1.024-.205-1.917-.615-2.661-.409-.763-1.023-1.34-1.805-1.768-.801-.429-1.788-.633-2.96-.633a8.812 8.812 0 00-2.849.446c-.875.298-1.638.708-2.271 1.247a5.522 5.522 0 00-1.471 1.936 6.19 6.19 0 00-.521 2.512v7.724h-2.979l.019-.018z" fill="url(#paint65_linear_7_559)"/><path d="M183.865 506.394l-2.942.558c-.167-.874-.54-1.619-1.098-2.196-.559-.577-1.303-1.023-2.215-1.321-.931-.298-2.011-.466-3.24-.466-.949 0-1.787.094-2.55.261-.764.186-1.415.428-1.974.782a5.012 5.012 0 00-1.396 1.247 5.605 5.605 0 00-.856 1.656c-.205.614-.298 1.303-.298 2.085 0 .725.093 1.395.298 2.01.186.614.484 1.172.856 1.656s.838.912 1.415 1.228a6.82 6.82 0 001.992.763c.763.168 1.601.261 2.513.261 1.248 0 2.346-.149 3.277-.428s1.675-.726 2.234-1.303c.577-.596.949-1.321 1.154-2.215l2.941.559c-.297 1.228-.856 2.289-1.712 3.126-.838.856-1.936 1.489-3.277 1.936-1.34.428-2.885.651-4.617.651-1.303 0-2.476-.13-3.537-.372a9.732 9.732 0 01-2.811-1.098 7.882 7.882 0 01-2.067-1.731 7.285 7.285 0 01-1.284-2.289c-.298-.856-.447-1.787-.447-2.81 0-1.024.149-1.954.447-2.829a7.694 7.694 0 011.284-2.327 7.23 7.23 0 012.067-1.73c.819-.466 1.75-.838 2.811-1.099 1.061-.26 2.234-.39 3.537-.39 1.769 0 3.314.223 4.636.67 1.322.446 2.401 1.098 3.239 1.935.838.856 1.378 1.899 1.638 3.145l-.018.075z" fill="url(#paint66_linear_7_559)"/><path d="M197.362 517.282c-1.303 0-2.495-.131-3.575-.391-1.098-.261-2.047-.614-2.848-1.098a7.583 7.583 0 01-2.085-1.731 7.355 7.355 0 01-1.303-2.327c-.298-.856-.447-1.805-.447-2.829 0-1.023.149-1.898.447-2.754a7.285 7.285 0 011.284-2.289 7.882 7.882 0 012.067-1.731 9.644 9.644 0 012.83-1.098c1.061-.261 2.234-.391 3.518-.391 1.545 0 2.942.186 4.17.577 1.229.391 2.271.931 3.146 1.638.857.707 1.527 1.545 1.974 2.512.447.968.67 2.048.67 3.257v.596c0 .205-.037.391-.074.558h-17.053c.056.428.149.838.26 1.21.186.651.484 1.21.875 1.712.391.484.875.912 1.452 1.266.578.353 1.285.614 2.067.8.782.168 1.675.261 2.643.261 1.359 0 2.495-.112 3.426-.354s1.675-.596 2.234-1.061a3.812 3.812 0 001.21-1.712l2.886.502c-.354 1.08-.931 1.992-1.732 2.718-.8.725-1.861 1.265-3.183 1.637-1.322.354-2.923.54-4.822.54l-.037-.018zm-7.223-9.716h14.111a5.109 5.109 0 00-.465-1.563 4.371 4.371 0 00-1.378-1.656c-.596-.466-1.322-.819-2.178-1.08-.857-.26-1.843-.391-2.96-.391-.987 0-1.862.093-2.644.261-.782.167-1.452.428-2.01.782-.578.335-1.043.763-1.453 1.247-.409.483-.67 1.042-.856 1.675-.074.242-.13.465-.186.707l.019.018z" fill="url(#paint67_linear_7_559)"/><path d="M77.992 389.497c3.202 0 11.43 2.475 11.43 11.613v39.679c0 9.139-8.228 11.614-11.43 11.614v.54h41.161v-.54c-3.202 0-11.431-2.475-11.431-11.614V401.11c0-9.138 8.229-11.613 11.431-11.613v-.54H77.992v.54z" fill="url(#paint68_linear_7_559)"/><path d="M208.625 388.957h-36.582v.54c9.141 0 11.338 18.202 5.771 31.453l-3.816 9.026-15.303-28.866c-4.3-8.04 4.114-11.613 7.316-11.613v-.54h-43.172v.54c3.202 0 9.606 3.573 13.907 11.613l27.534 51.851h.54l13.534-31.993c5.585-13.251 21.13-31.453 30.271-31.453v-.558z" fill="url(#paint69_linear_7_559)"/><path d="M230.109 387.859c-18.114 0-32.933 14.814-32.933 32.923s14.819 32.924 32.933 32.924c18.114 0 32.932-14.722 32.932-32.924 0-18.202-14.725-32.923-32.932-32.923zm15.917 60.431c-6.218 3.573-18.375-5.937-27.162-21.031-8.694-15.094-10.891-30.448-4.673-34.021 6.218-3.574 18.375 5.937 27.162 21.03 8.694 15.094 10.891 30.448 4.673 34.022z" fill="url(#paint70_linear_7_559)"/><path d="M46.809 388.882H.807v.54c6.125 0 11.43 5.397 11.43 11.614v39.679c0 6.216-5.305 11.613-11.43 11.613v.54h46.002c18.207 0 32.933-14.349 32.933-31.993 0-17.643-14.82-31.993-32.933-31.993zm-2.383 64.06c0-20.491-9.644-32.048-32.337-32.048 22.693 0 32.337-11.558 32.337-32.049 0 20.491 11.226 32.049 33.92 32.049-22.694 0-33.92 11.557-33.92 32.048z" fill="url(#paint71_linear_7_559)"/><path d="M12.163 603.452v-20.603h3.09v20.603h-3.09zm3.202-10.516l13.907-10.105h4.45l-13.87 9.901 14.372 10.72h-4.617l-14.223-10.516h-.019z" fill="url(#paint72_linear_7_559)"/><path d="M46.325 603.75c-1.322 0-2.495-.131-3.556-.373s-2.01-.595-2.83-1.079c-.819-.484-1.526-1.042-2.085-1.731a7.062 7.062 0 01-1.303-2.308c-.298-.856-.447-1.805-.447-2.829 0-1.023.15-1.935.447-2.791a7.352 7.352 0 011.303-2.327 7.582 7.582 0 012.085-1.731 10.33 10.33 0 012.849-1.079c1.06-.261 2.252-.391 3.555-.391 1.303 0 2.476.13 3.556.391s2.03.614 2.848 1.079a7.582 7.582 0 012.086 1.731 7.352 7.352 0 011.303 2.327 8.46 8.46 0 01.447 2.791 8.747 8.747 0 01-.447 2.829 7.163 7.163 0 01-1.285 2.308 7.67 7.67 0 01-2.085 1.731c-.838.484-1.768.837-2.848 1.079-1.08.242-2.271.373-3.556.373h-.037zm0-2.327c.968 0 1.824-.093 2.569-.26.763-.186 1.415-.428 1.992-.763a5.476 5.476 0 001.452-1.229c.39-.484.689-1.042.875-1.656.186-.614.28-1.303.28-2.047a7.29 7.29 0 00-.28-2.066 4.566 4.566 0 00-.875-1.657 5.195 5.195 0 00-1.452-1.228 7.41 7.41 0 00-1.992-.782c-.764-.186-1.62-.26-2.57-.26-.949 0-1.805.093-2.568.26-.764.168-1.434.428-2.011.782a5.253 5.253 0 00-1.452 1.247 4.84 4.84 0 00-.856 1.656 7.076 7.076 0 00-.28 2.048c0 .744.093 1.433.298 2.047a5.19 5.19 0 00.857 1.656c.372.484.856.912 1.433 1.229a6.968 6.968 0 002.01.763c.764.167 1.62.26 2.57.26z" fill="url(#paint73_linear_7_559)"/><path d="M58.89 601.33a6.095 6.095 0 001.416-.316c.41-.149.763-.391 1.06-.707.392-.428.69-1.024.876-1.768.205-.745.335-1.731.447-2.978.111-1.247.167-2.773.242-4.616l.056-3.499H78.42v16.025h-2.98v-13.624h-9.66l-.037 1.433c-.056 2.103-.168 3.853-.317 5.267-.148 1.415-.39 2.55-.726 3.425-.316.874-.726 1.582-1.228 2.103a4.284 4.284 0 01-1.806 1.172c-.689.242-1.583.372-2.644.41l-.149-2.327h.019z" fill="url(#paint74_linear_7_559)"/><path d="M82.143 601.33a6.095 6.095 0 001.415-.316c.41-.149.763-.391 1.061-.707.391-.428.689-1.024.875-1.768.205-.745.335-1.731.447-2.978.112-1.247.168-2.773.242-4.616l.056-3.499h15.433v16.025h-2.979v-13.624h-9.662l-.037 1.433c-.056 2.103-.167 3.853-.316 5.267-.15 1.415-.391 2.55-.726 3.425-.317.874-.727 1.582-1.23 2.103a4.285 4.285 0 01-1.805 1.172c-.689.242-1.582.372-2.644.41l-.148-2.327h.018z" fill="url(#paint75_linear_7_559)"/><path d="M116.919 603.75c-1.303 0-2.494-.131-3.574-.391-1.099-.261-2.048-.614-2.849-1.098a7.583 7.583 0 01-2.085-1.731 7.345 7.345 0 01-1.303-2.327c-.298-.856-.447-1.805-.447-2.829 0-1.023.149-1.898.447-2.754a7.268 7.268 0 011.285-2.289 7.861 7.861 0 012.066-1.731 9.644 9.644 0 012.83-1.098c1.061-.261 2.234-.391 3.518-.391 1.546 0 2.942.186 4.171.577 1.228.391 2.271.931 3.146 1.638.856.707 1.526 1.545 1.973 2.512.447.968.67 2.066.67 3.257v.596c0 .205-.037.391-.074.558H109.64c.056.428.149.838.261 1.21.186.651.484 1.21.875 1.712.391.484.875.912 1.452 1.266.577.353 1.284.614 2.066.8.782.186 1.676.261 2.644.261 1.359 0 2.494-.112 3.425-.354.931-.242 1.676-.596 2.234-1.061a3.812 3.812 0 001.21-1.712l2.886.502c-.354 1.08-.931 1.992-1.731 2.718-.801.725-1.862 1.265-3.184 1.637-1.322.373-2.923.54-4.822.54l-.037-.018zm-7.223-9.716h14.111a5.273 5.273 0 00-.465-1.563 4.362 4.362 0 00-1.378-1.656c-.595-.466-1.321-.819-2.178-1.08-.856-.26-1.843-.391-2.96-.391-.987 0-1.862.093-2.643.261-.782.167-1.453.428-2.011.782a5.53 5.53 0 00-1.452 1.247c-.41.484-.67 1.042-.857 1.675-.074.242-.13.465-.186.707l.019.018z" fill="url(#paint76_linear_7_559)"/><path d="M131.608 603.452v-16.025h2.978v16.025h-2.978zm3.183-8.282l10.723-7.743h4.115l-10.742 7.575 10.984 8.45h-4.245l-10.835-8.282z" fill="url(#paint77_linear_7_559)"/><path d="M153.203 603.452v-16.025h2.979v13.661h11.989v-13.661h2.979v13.661h2.625v7.017h-2.774v-4.653h-17.798z" fill="url(#paint78_linear_7_559)"/><path d="M177.74 603.452v-16.025h2.923v12.507l12.343-12.507h2.941v16.025h-2.941v-12.507l-12.343 12.507h-2.923z" fill="url(#paint79_linear_7_559)"/><path d="M218.138 603.452h-2.941v-5.974h-5.362l-5.715 5.974h-3.593l5.92-6.123c-1.024-.075-1.918-.261-2.681-.559-.987-.391-1.731-.949-2.234-1.675-.503-.726-.763-1.6-.763-2.643 0-1.042.242-1.935.744-2.698.503-.763 1.229-1.34 2.179-1.731.949-.409 2.085-.596 3.369-.596h11.077v16.043-.018zm-2.941-8.133v-5.77h-7.931c-.745 0-1.396.112-1.936.335-.559.224-.968.559-1.248.987-.279.428-.428.949-.428 1.581 0 .633.149 1.136.447 1.582.298.429.708.764 1.247.968.54.205 1.192.317 1.937.317h7.93-.018z" fill="url(#paint80_linear_7_559)"/><path d="M11.605 638.795V622.77h12.082c1.135 0 2.104.149 2.885.466.782.316 1.397.763 1.825 1.377.428.595.651 1.34.651 2.215 0 .576-.093 1.079-.297 1.507a3.842 3.842 0 01-.82 1.154c-.353.335-.782.596-1.303.819-.13.056-.298.112-.465.149.484.093.95.242 1.359.446.745.354 1.322.838 1.731 1.452.41.614.596 1.34.596 2.178 0 .93-.224 1.693-.67 2.326-.447.633-1.117 1.117-1.974 1.433-.856.335-1.899.503-3.127.503H11.605zm2.885-13.903v4.69h8.49c.632 0 1.172-.093 1.656-.279.466-.186.838-.465 1.099-.819.26-.354.39-.819.39-1.34 0-.726-.279-1.284-.819-1.657-.558-.39-1.321-.576-2.29-.576H14.49v-.019zm0 6.719v5.062h8.899c.745 0 1.378-.093 1.88-.279.503-.186.894-.466 1.154-.819.261-.354.391-.819.391-1.377 0-.559-.13-1.043-.41-1.433-.278-.391-.67-.689-1.19-.875-.522-.186-1.155-.279-1.937-.279H14.49z" fill="url(#paint81_linear_7_559)"/><path d="M34.652 638.795V622.77h2.923v12.507l12.343-12.507h2.941v16.025h-2.941v-12.507l-12.343 12.507h-2.923z" fill="url(#paint82_linear_7_559)"/><path d="M75.739 643.447v-4.652H59.096v4.652h-2.774v-6.979h1.917c.373-.391.69-.819.968-1.265.354-.596.633-1.322.838-2.197.205-.874.372-1.991.484-3.35.112-1.358.205-3.015.26-5.006l.057-1.88h15.042v13.698h2.625v6.979H75.72h.019zm-14.465-6.979h11.784v-11.483h-9.457c-.056 1.545-.13 2.885-.205 4.001a33.955 33.955 0 01-.316 2.997c-.13.837-.317 1.6-.559 2.308a6.92 6.92 0 01-1.061 1.972c-.056.056-.112.131-.168.205h-.018z" fill="url(#paint83_linear_7_559)"/><path d="M91.47 639.074c-1.322 0-2.495-.13-3.556-.372-1.06-.242-2.01-.596-2.83-1.08-.819-.484-1.526-1.042-2.085-1.731a7.055 7.055 0 01-1.303-2.307c-.297-.857-.446-1.806-.446-2.829 0-1.024.148-1.936.446-2.792A7.334 7.334 0 0183 625.637a7.55 7.55 0 012.086-1.731c.819-.466 1.768-.838 2.848-1.098 1.061-.261 2.253-.391 3.556-.391s2.476.13 3.555.391c1.08.26 2.03.614 2.849 1.098a7.55 7.55 0 012.085 1.731 7.34 7.34 0 011.303 2.326c.298.856.447 1.805.447 2.792a8.83 8.83 0 01-.447 2.829 7.172 7.172 0 01-1.284 2.307 7.669 7.669 0 01-2.085 1.731c-.838.484-1.77.838-2.849 1.08a16.29 16.29 0 01-3.556.372h-.037zm0-2.327c.968 0 1.825-.093 2.57-.26a6.846 6.846 0 001.991-.763 5.49 5.49 0 001.452-1.228 4.885 4.885 0 00.875-1.657c.186-.614.28-1.303.28-2.047 0-.745-.094-1.433-.28-2.066a4.702 4.702 0 00-.875-1.656 5.197 5.197 0 00-1.452-1.229 7.41 7.41 0 00-1.992-.781 11.959 11.959 0 00-2.569-.261c-.95 0-1.806.093-2.569.261-.763.186-1.433.446-2.01.781a5.255 5.255 0 00-1.453 1.247 4.835 4.835 0 00-.856 1.657 7.064 7.064 0 00-.28 2.047c0 .744.094 1.433.299 2.047.186.614.484 1.173.856 1.657.372.483.856.911 1.433 1.228a6.97 6.97 0 002.011.763c.763.167 1.62.26 2.57.26z" fill="url(#paint84_linear_7_559)"/><path d="M106.661 638.795V622.77h12.083c1.135 0 2.103.149 2.885.466.782.316 1.396.763 1.825 1.377.428.595.651 1.34.651 2.215 0 .576-.093 1.079-.298 1.507a3.822 3.822 0 01-.819 1.154c-.354.335-.782.596-1.303.819-.13.056-.298.112-.465.149.484.093.949.242 1.359.446.744.354 1.321.838 1.731 1.452.41.614.596 1.34.596 2.178 0 .93-.224 1.693-.67 2.326-.447.633-1.117 1.117-1.974 1.433-.856.335-1.899.503-3.127.503h-12.474zm2.886-13.903v4.69h8.489c.633 0 1.173-.093 1.657-.279.465-.186.838-.465 1.098-.819.261-.354.391-.819.391-1.34 0-.726-.279-1.284-.819-1.657-.558-.39-1.322-.576-2.29-.576h-8.489l-.037-.019zm0 6.719v5.062h8.899c.744 0 1.377-.093 1.88-.279.503-.186.894-.466 1.154-.819.261-.354.391-.819.391-1.377 0-.559-.13-1.043-.409-1.433a2.422 2.422 0 00-1.192-.875c-.521-.186-1.154-.279-1.936-.279h-8.787z" fill="url(#paint85_linear_7_559)"/><path d="M129.727 638.795V622.77h2.979v5.174h8.136c1.34 0 2.476.224 3.406.652.95.428 1.657 1.06 2.16 1.861.503.819.745 1.786.745 2.922 0 .837-.149 1.6-.429 2.27a4.462 4.462 0 01-1.228 1.694c-.54.465-1.21.819-1.992 1.061s-1.676.372-2.681.372h-11.096v.019zm2.979-8.692v6.533h7.689c.8 0 1.489-.131 2.085-.373a2.902 2.902 0 001.34-1.098c.317-.484.466-1.079.466-1.786 0-.708-.149-1.322-.466-1.806a2.908 2.908 0 00-1.34-1.098c-.577-.26-1.266-.391-2.085-.391h-7.689v.019zm17.314 8.692V622.77h2.941v16.025h-2.941z" fill="url(#paint86_linear_7_559)"/><path d="M172.62 638.795l-6.18-6.384-6.218 6.384h-3.538l7.857-8.189-7.577-7.836h3.704l5.809 5.974 5.957-5.974h3.481l-7.632 7.743 7.986 8.282h-3.649z" fill="url(#paint87_linear_7_559)"/><path d="M11.605 674.119v-16.025h2.978v16.025h-2.978zm3.183-8.282l10.723-7.743h4.114l-10.741 7.575 10.983 8.45h-4.244l-10.835-8.282z" fill="url(#paint88_linear_7_559)"/><path d="M33.181 674.119v-16.025h12.083c1.135 0 2.103.149 2.885.466.782.316 1.396.763 1.825 1.377.428.614.651 1.34.651 2.215 0 .577-.093 1.079-.298 1.507a3.84 3.84 0 01-.819 1.154 4.264 4.264 0 01-1.303.8c-.13.056-.298.112-.465.149a5.27 5.27 0 011.358.447c.745.354 1.322.837 1.732 1.452.41.614.596 1.34.596 2.177 0 .931-.224 1.694-.67 2.327-.447.632-1.118 1.116-1.974 1.433-.856.335-1.899.502-3.127.502H33.2l-.019.019zm2.886-13.903v4.69h8.49c.632 0 1.172-.093 1.656-.279a2.379 2.379 0 001.098-.819c.261-.372.391-.819.391-1.34 0-.726-.279-1.284-.819-1.656-.558-.391-1.322-.577-2.29-.577h-8.489l-.037-.019zm0 6.719v5.062h8.899c.744 0 1.377-.093 1.88-.279.503-.186.894-.465 1.154-.819.26-.354.391-.819.391-1.377 0-.559-.13-1.042-.41-1.452-.279-.391-.67-.689-1.19-.875-.522-.186-1.155-.279-1.937-.279h-8.768l-.02.019z" fill="url(#paint89_linear_7_559)"/><path d="M54.926 662.803c.204-.837.52-1.582 1.005-2.215.465-.632 1.08-1.153 1.824-1.563.745-.409 1.639-.726 2.644-.949 1.005-.223 2.178-.316 3.444-.316 1.49 0 2.792.13 3.89.372 1.1.242 1.993.614 2.7 1.135a4.69 4.69 0 011.545 1.917c.336.763.503 1.694.503 2.773v6.719c0 .316.037.577.13.819.093.223.224.39.429.521.204.111.465.186.8.186h.317c.111 0 .223-.019.297-.037l-.093 2.065c-.242.056-.484.112-.744.131-.26.037-.503.037-.745.037-.726 0-1.322-.112-1.787-.354-.466-.242-.82-.595-1.024-1.079-.224-.484-.317-1.061-.317-1.75v-.316a7.26 7.26 0 01-.819.875 9.118 9.118 0 01-2.16 1.451 11.02 11.02 0 01-2.68.912c-.968.205-1.992.317-3.072.317-1.433 0-2.662-.186-3.667-.54-1.006-.354-1.787-.893-2.309-1.582-.521-.688-.8-1.545-.8-2.512 0-.968.242-1.787.726-2.476.484-.688 1.21-1.228 2.215-1.619.987-.391 2.271-.651 3.817-.763l8.712-.521v-.205c0-.726-.111-1.34-.335-1.861a3.046 3.046 0 00-1.042-1.284c-.466-.335-1.08-.577-1.806-.745-.726-.167-1.62-.241-2.662-.241-1.173 0-2.197.111-3.072.353-.856.242-1.545.596-2.01 1.061-.485.465-.783 1.079-.894 1.824l-2.923-.465-.037-.075zm14.819 3.592l-8.602.596c-.893.056-1.656.204-2.233.409-.596.223-1.024.503-1.322.875-.298.372-.447.819-.447 1.34 0 .521.149 1.005.465 1.377.317.372.782.651 1.434.856.633.205 1.433.298 2.364.298.875 0 1.731-.074 2.57-.242a11.716 11.716 0 002.29-.689c.688-.297 1.302-.651 1.824-1.079.52-.428.93-.893 1.228-1.414.298-.522.447-1.08.447-1.657v-.651l-.019-.019z" fill="url(#paint90_linear_7_559)"/><path d="M81.194 658.094l.186 3.388a6.767 6.767 0 011.21-1.322c.838-.744 1.862-1.321 3.053-1.749 1.192-.428 2.513-.633 3.966-.633 1.135 0 2.178.13 3.127.391.95.261 1.806.633 2.55 1.117a7.024 7.024 0 011.88 1.749 7.678 7.678 0 011.155 2.308c.26.856.391 1.768.391 2.754 0 .987-.13 1.917-.39 2.773a7.568 7.568 0 01-1.155 2.29 7.268 7.268 0 01-1.862 1.749c-.726.484-1.582.856-2.55 1.098-.968.242-2.01.391-3.146.391-1.453 0-2.774-.205-3.966-.596-1.191-.409-2.197-.967-3.053-1.73a7.284 7.284 0 01-1.098-1.173V680h-2.98v-21.906h2.682zm7.502 13.978c.931 0 1.75-.094 2.495-.28.745-.186 1.377-.446 1.936-.8a5.01 5.01 0 001.396-1.247 5.595 5.595 0 00.857-1.656 6.288 6.288 0 00.297-1.992c0-.707-.093-1.358-.297-1.972a5.829 5.829 0 00-.857-1.657 4.803 4.803 0 00-1.396-1.265 7.284 7.284 0 00-1.936-.801c-.745-.186-1.564-.279-2.495-.279-1.47 0-2.755.261-3.835.763-1.08.503-1.917 1.21-2.494 2.103-.578.894-.875 1.936-.875 3.146 0 .856.167 1.656.484 2.4.316.745.8 1.359 1.452 1.88.633.521 1.396.931 2.29 1.228.893.298 1.898.447 2.997.447l-.019-.018z" fill="url(#paint91_linear_7_559)"/><path d="M109.026 674.119v-13.642h-7.931v-2.383h18.784v2.383h-7.93v13.642h-2.942.019z" fill="url(#paint92_linear_7_559)"/><path d="M123.603 674.119v-16.025h2.922v12.507l12.343-12.507h2.942v16.025h-2.942v-12.507l-12.343 12.507h-2.922z" fill="url(#paint93_linear_7_559)"/><path d="M150.783 658.094l.186 3.388a6.776 6.776 0 011.21-1.322c.838-.744 1.862-1.321 3.053-1.749 1.192-.428 2.513-.633 3.966-.633 1.135 0 2.178.13 3.127.391.95.261 1.806.633 2.551 1.117a7.036 7.036 0 011.88 1.749 7.654 7.654 0 011.154 2.308c.261.856.391 1.768.391 2.754 0 .987-.13 1.917-.391 2.773a7.545 7.545 0 01-1.154 2.29 7.274 7.274 0 01-1.862 1.749c-.726.484-1.582.856-2.55 1.098-.968.242-2.011.391-3.146.391-1.453 0-2.774-.205-3.966-.596-1.191-.409-2.197-.967-3.053-1.73a7.286 7.286 0 01-1.098-1.173V680h-2.979v-21.906h2.681zm7.502 13.978c.931 0 1.75-.094 2.495-.28.745-.186 1.378-.446 1.936-.8a4.998 4.998 0 001.396-1.247 5.584 5.584 0 00.857-1.656 6.279 6.279 0 00.298-1.992c0-.707-.093-1.358-.298-1.972a5.818 5.818 0 00-.857-1.657 4.791 4.791 0 00-1.396-1.265 7.276 7.276 0 00-1.936-.801c-.745-.186-1.564-.279-2.495-.279-1.47 0-2.755.261-3.835.763-1.079.503-1.917 1.21-2.494 2.103-.577.894-.875 1.936-.875 3.146 0 .856.167 1.656.484 2.4.316.745.8 1.359 1.452 1.88.633.521 1.396.931 2.29 1.228.893.298 1.899.447 2.997.447l-.019-.018z" fill="url(#paint94_linear_7_559)"/><path d="M295.23 161.49l-28.726-3.276 28.595-4.262.131 7.538z" fill="url(#paint95_linear_7_559)"/><path d="M137.509 0l-3.723 24.995L129.969 0h7.54z" fill="url(#paint96_linear_7_559)"/><path d="M128.61 322.999l3.277-27.433 4.263 27.284-7.54.149z" fill="url(#paint97_linear_7_559)"/><path d="M10.636 151.403l18.86 3.257-18.673 4.262-.187-7.519z" fill="url(#paint98_linear_7_559)"/><defs><linearGradient id="paint0_linear_7_559" x1="133.469" y1="80.308" x2="133.469" y2="229.347" gradientUnits="userSpaceOnUse"><stop stop-color="#672A10"/><stop offset=".286" stop-color="#C1AFA7"/><stop offset=".656" stop-color="#724B3A"/><stop offset="1" stop-color="#986955"/></linearGradient><linearGradient id="paint1_linear_7_559" x1="29.737" y1="189.314" x2="29.737" y2="206.697" gradientUnits="userSpaceOnUse"><stop stop-color="#672A10"/><stop offset=".286" stop-color="#C1AFA7"/><stop offset=".656" stop-color="#724B3A"/><stop offset="1" stop-color="#986955"/></linearGradient><linearGradient id="paint2_linear_7_559" x1="25.828" y1="184.419" x2="25.828" y2="196.051" gradientUnits="userSpaceOnUse"><stop stop-color="#672A10"/><stop offset=".286" stop-color="#C1AFA7"/><stop offset=".656" stop-color="#724B3A"/><stop offset="1" stop-color="#986955"/></linearGradient><linearGradient id="paint3_linear_7_559" x1="89.581" y1="245.762" x2="89.581" y2="322.905" gradientUnits="userSpaceOnUse"><stop stop-color="#672A10"/><stop offset=".286" stop-color="#C1AFA7"/><stop offset=".656" stop-color="#724B3A"/><stop offset="1" stop-color="#986955"/></linearGradient><linearGradient id="paint4_linear_7_559" x1="66.654" y1="230.407" x2="66.654" y2="322.905" gradientUnits="userSpaceOnUse"><stop stop-color="#672A10"/><stop offset=".286" stop-color="#C1AFA7"/><stop offset=".656" stop-color="#724B3A"/><stop offset="1" stop-color="#986955"/></linearGradient><linearGradient id="paint5_linear_7_559" x1="52.468" y1="223.652" x2="52.468" y2="322.924" gradientUnits="userSpaceOnUse"><stop stop-color="#672A10"/><stop offset=".286" stop-color="#C1AFA7"/><stop offset=".656" stop-color="#724B3A"/><stop offset="1" stop-color="#986955"/></linearGradient><linearGradient id="paint6_linear_7_559" x1="102.426" y1="258.492" x2="102.426" y2="322.924" gradientUnits="userSpaceOnUse"><stop stop-color="#672A10"/><stop offset=".286" stop-color="#C1AFA7"/><stop offset=".656" stop-color="#724B3A"/><stop offset="1" stop-color="#986955"/></linearGradient><linearGradient id="paint7_linear_7_559" x1="76.893" y1="236.438" x2="76.893" y2="322.905" gradientUnits="userSpaceOnUse"><stop stop-color="#672A10"/><stop offset=".286" stop-color="#C1AFA7"/><stop offset=".656" stop-color="#724B3A"/><stop offset="1" stop-color="#986955"/></linearGradient><linearGradient id="paint8_linear_7_559" x1="19.209" y1="177.198" x2="19.209" y2="183.061" gradientUnits="userSpaceOnUse"><stop stop-color="#672A10"/><stop offset=".286" stop-color="#C1AFA7"/><stop offset=".656" stop-color="#724B3A"/><stop offset="1" stop-color="#986955"/></linearGradient><linearGradient id="paint9_linear_7_559" x1="43.644" y1="211.778" x2="43.644" y2="281.384" gradientUnits="userSpaceOnUse"><stop stop-color="#672A10"/><stop offset=".286" stop-color="#C1AFA7"/><stop offset=".656" stop-color="#724B3A"/><stop offset="1" stop-color="#986955"/></linearGradient><linearGradient id="paint10_linear_7_559" x1="40.628" y1="206.138" x2="40.628" y2="257.617" gradientUnits="userSpaceOnUse"><stop stop-color="#672A10"/><stop offset=".286" stop-color="#C1AFA7"/><stop offset=".656" stop-color="#724B3A"/><stop offset="1" stop-color="#986955"/></linearGradient><linearGradient id="paint11_linear_7_559" x1="37.519" y1="200.76" x2="37.519" y2="238.596" gradientUnits="userSpaceOnUse"><stop stop-color="#672A10"/><stop offset=".286" stop-color="#C1AFA7"/><stop offset=".656" stop-color="#724B3A"/><stop offset="1" stop-color="#986955"/></linearGradient><linearGradient id="paint12_linear_7_559" x1="33.889" y1="195.121" x2="33.889" y2="221.53" gradientUnits="userSpaceOnUse"><stop stop-color="#672A10"/><stop offset=".286" stop-color="#C1AFA7"/><stop offset=".656" stop-color="#724B3A"/><stop offset="1" stop-color="#986955"/></linearGradient><linearGradient id="paint13_linear_7_559" x1="46.371" y1="217.38" x2="46.371" y2="309.394" gradientUnits="userSpaceOnUse"><stop stop-color="#672A10"/><stop offset=".286" stop-color="#C1AFA7"/><stop offset=".656" stop-color="#724B3A"/><stop offset="1" stop-color="#986955"/></linearGradient><linearGradient id="paint14_linear_7_559" x1="115.374" y1="277.271" x2="115.374" y2="322.906" gradientUnits="userSpaceOnUse"><stop stop-color="#672A10"/><stop offset=".286" stop-color="#C1AFA7"/><stop offset=".656" stop-color="#724B3A"/><stop offset="1" stop-color="#986955"/></linearGradient><linearGradient id="paint15_linear_7_559" x1="32.883" y1="101.934" x2="32.883" y2="123.3" gradientUnits="userSpaceOnUse"><stop stop-color="#672A10"/><stop offset=".286" stop-color="#C1AFA7"/><stop offset=".656" stop-color="#724B3A"/><stop offset="1" stop-color="#986955"/></linearGradient><linearGradient id="paint16_linear_7_559" x1="47.619" y1=".614" x2="47.619" y2="96.742" gradientUnits="userSpaceOnUse"><stop stop-color="#672A10"/><stop offset=".286" stop-color="#C1AFA7"/><stop offset=".656" stop-color="#724B3A"/><stop offset="1" stop-color="#986955"/></linearGradient><linearGradient id="paint17_linear_7_559" x1="118.325" y1="0" x2="118.325" y2="33.742" gradientUnits="userSpaceOnUse"><stop stop-color="#672A10"/><stop offset=".286" stop-color="#C1AFA7"/><stop offset=".656" stop-color="#724B3A"/><stop offset="1" stop-color="#986955"/></linearGradient><linearGradient id="paint18_linear_7_559" x1="35.788" y1="90.172" x2="35.788" y2="118.889" gradientUnits="userSpaceOnUse"><stop stop-color="#672A10"/><stop offset=".286" stop-color="#C1AFA7"/><stop offset=".656" stop-color="#724B3A"/><stop offset="1" stop-color="#986955"/></linearGradient><linearGradient id="paint19_linear_7_559" x1="84.107" y1="0" x2="84.107" y2="75.283" gradientUnits="userSpaceOnUse"><stop stop-color="#672A10"/><stop offset=".286" stop-color="#C1AFA7"/><stop offset=".656" stop-color="#724B3A"/><stop offset="1" stop-color="#986955"/></linearGradient><linearGradient id="paint20_linear_7_559" x1="22.309" y1="129.404" x2="22.309" y2="136.569" gradientUnits="userSpaceOnUse"><stop stop-color="#672A10"/><stop offset=".286" stop-color="#C1AFA7"/><stop offset=".656" stop-color="#724B3A"/><stop offset="1" stop-color="#986955"/></linearGradient><linearGradient id="paint21_linear_7_559" x1="71.625" y1="0" x2="71.625" y2="83.472" gradientUnits="userSpaceOnUse"><stop stop-color="#672A10"/><stop offset=".286" stop-color="#C1AFA7"/><stop offset=".656" stop-color="#724B3A"/><stop offset="1" stop-color="#986955"/></linearGradient><linearGradient id="paint22_linear_7_559" x1="42.117" y1="53.507" x2="42.117" y2="108.02" gradientUnits="userSpaceOnUse"><stop stop-color="#672A10"/><stop offset=".286" stop-color="#C1AFA7"/><stop offset=".656" stop-color="#724B3A"/><stop offset="1" stop-color="#986955"/></linearGradient><linearGradient id="paint23_linear_7_559" x1="105.423" y1="0" x2="105.423" y2="54.624" gradientUnits="userSpaceOnUse"><stop stop-color="#672A10"/><stop offset=".286" stop-color="#C1AFA7"/><stop offset=".656" stop-color="#724B3A"/><stop offset="1" stop-color="#986955"/></linearGradient><linearGradient id="paint24_linear_7_559" x1="28.397" y1="115.948" x2="28.397" y2="129.367" gradientUnits="userSpaceOnUse"><stop stop-color="#672A10"/><stop offset=".286" stop-color="#C1AFA7"/><stop offset=".656" stop-color="#724B3A"/><stop offset="1" stop-color="#986955"/></linearGradient><linearGradient id="paint25_linear_7_559" x1="39.083" y1="73.421" x2="39.083" y2="113.51" gradientUnits="userSpaceOnUse"><stop stop-color="#672A10"/><stop offset=".286" stop-color="#C1AFA7"/><stop offset=".656" stop-color="#724B3A"/><stop offset="1" stop-color="#986955"/></linearGradient><linearGradient id="paint26_linear_7_559" x1="57.783" y1="0" x2="57.783" y2="90.6" gradientUnits="userSpaceOnUse"><stop stop-color="#672A10"/><stop offset=".286" stop-color="#C1AFA7"/><stop offset=".656" stop-color="#724B3A"/><stop offset="1" stop-color="#986955"/></linearGradient><linearGradient id="paint27_linear_7_559" x1="44.854" y1="30.56" x2="44.854" y2="102.66" gradientUnits="userSpaceOnUse"><stop stop-color="#672A10"/><stop offset=".286" stop-color="#C1AFA7"/><stop offset=".656" stop-color="#724B3A"/><stop offset="1" stop-color="#986955"/></linearGradient><linearGradient id="paint28_linear_7_559" x1="93.444" y1="0" x2="93.444" y2="67.596" gradientUnits="userSpaceOnUse"><stop stop-color="#672A10"/><stop offset=".286" stop-color="#C1AFA7"/><stop offset=".656" stop-color="#724B3A"/><stop offset="1" stop-color="#986955"/></linearGradient><linearGradient id="paint29_linear_7_559" x1="148.205" y1=".465" x2="148.205" y2="41.373" gradientUnits="userSpaceOnUse"><stop stop-color="#672A10"/><stop offset=".286" stop-color="#C1AFA7"/><stop offset=".656" stop-color="#724B3A"/><stop offset="1" stop-color="#986955"/></linearGradient><linearGradient id="paint30_linear_7_559" x1="189.785" y1="15.876" x2="189.785" y2="86.412" gradientUnits="userSpaceOnUse"><stop stop-color="#672A10"/><stop offset=".286" stop-color="#C1AFA7"/><stop offset=".656" stop-color="#724B3A"/><stop offset="1" stop-color="#986955"/></linearGradient><linearGradient id="paint31_linear_7_559" x1="241.232" y1="81.35" x2="241.232" y2="120.769" gradientUnits="userSpaceOnUse"><stop stop-color="#672A10"/><stop offset=".286" stop-color="#C1AFA7"/><stop offset=".656" stop-color="#724B3A"/><stop offset="1" stop-color="#986955"/></linearGradient><linearGradient id="paint32_linear_7_559" x1="254.487" y1="107.331" x2="254.487" y2="131.21" gradientUnits="userSpaceOnUse"><stop stop-color="#672A10"/><stop offset=".286" stop-color="#C1AFA7"/><stop offset=".656" stop-color="#724B3A"/><stop offset="1" stop-color="#986955"/></linearGradient><linearGradient id="paint33_linear_7_559" x1="199.261" y1="23.45" x2="199.261" y2="93.019" gradientUnits="userSpaceOnUse"><stop stop-color="#672A10"/><stop offset=".286" stop-color="#C1AFA7"/><stop offset=".656" stop-color="#724B3A"/><stop offset="1" stop-color="#986955"/></linearGradient><linearGradient id="paint34_linear_7_559" x1="160.25" y1="2.401" x2="160.25" y2="59.295" gradientUnits="userSpaceOnUse"><stop stop-color="#672A10"/><stop offset=".286" stop-color="#C1AFA7"/><stop offset=".656" stop-color="#724B3A"/><stop offset="1" stop-color="#986955"/></linearGradient><linearGradient id="paint35_linear_7_559" x1="248.623" y1="95.718" x2="248.623" y2="126.445" gradientUnits="userSpaceOnUse"><stop stop-color="#672A10"/><stop offset=".286" stop-color="#C1AFA7"/><stop offset=".656" stop-color="#724B3A"/><stop offset="1" stop-color="#986955"/></linearGradient><linearGradient id="paint36_linear_7_559" x1="225.743" y1="54.885" x2="225.743" y2="110.067" gradientUnits="userSpaceOnUse"><stop stop-color="#672A10"/><stop offset=".286" stop-color="#C1AFA7"/><stop offset=".656" stop-color="#724B3A"/><stop offset="1" stop-color="#986955"/></linearGradient><linearGradient id="paint37_linear_7_559" x1="262.734" y1="122.853" x2="262.734" y2="138.226" gradientUnits="userSpaceOnUse"><stop stop-color="#672A10"/><stop offset=".286" stop-color="#C1AFA7"/><stop offset=".656" stop-color="#724B3A"/><stop offset="1" stop-color="#986955"/></linearGradient><linearGradient id="paint38_linear_7_559" x1="273.895" y1="139.287" x2="273.895" y2="147.289" gradientUnits="userSpaceOnUse"><stop stop-color="#672A10"/><stop offset=".286" stop-color="#C1AFA7"/><stop offset=".656" stop-color="#724B3A"/><stop offset="1" stop-color="#986955"/></linearGradient><linearGradient id="paint39_linear_7_559" x1="182.078" y1="10.999" x2="182.078" y2="80.568" gradientUnits="userSpaceOnUse"><stop stop-color="#672A10"/><stop offset=".286" stop-color="#C1AFA7"/><stop offset=".656" stop-color="#724B3A"/><stop offset="1" stop-color="#986955"/></linearGradient><linearGradient id="paint40_linear_7_559" x1="208.588" y1="32.644" x2="208.588" y2="99.087" gradientUnits="userSpaceOnUse"><stop stop-color="#672A10"/><stop offset=".286" stop-color="#C1AFA7"/><stop offset=".656" stop-color="#724B3A"/><stop offset="1" stop-color="#986955"/></linearGradient><linearGradient id="paint41_linear_7_559" x1="171.662" y1="6.011" x2="171.662" y2="71.56" gradientUnits="userSpaceOnUse"><stop stop-color="#672A10"/><stop offset=".286" stop-color="#C1AFA7"/><stop offset=".656" stop-color="#724B3A"/><stop offset="1" stop-color="#986955"/></linearGradient><linearGradient id="paint42_linear_7_559" x1="217.161" y1="42.88" x2="217.161" y2="104.558" gradientUnits="userSpaceOnUse"><stop stop-color="#672A10"/><stop offset=".286" stop-color="#C1AFA7"/><stop offset=".656" stop-color="#724B3A"/><stop offset="1" stop-color="#986955"/></linearGradient><linearGradient id="paint43_linear_7_559" x1="233.515" y1="67.41" x2="233.515" y2="115.259" gradientUnits="userSpaceOnUse"><stop stop-color="#672A10"/><stop offset=".286" stop-color="#C1AFA7"/><stop offset=".656" stop-color="#724B3A"/><stop offset="1" stop-color="#986955"/></linearGradient><linearGradient id="paint44_linear_7_559" x1="159.477" y1="259.832" x2="159.477" y2="320.635" gradientUnits="userSpaceOnUse"><stop stop-color="#672A10"/><stop offset=".286" stop-color="#C1AFA7"/><stop offset=".656" stop-color="#724B3A"/><stop offset="1" stop-color="#986955"/></linearGradient><linearGradient id="paint45_linear_7_559" x1="171.075" y1="247.158" x2="171.075" y2="317.043" gradientUnits="userSpaceOnUse"><stop stop-color="#672A10"/><stop offset=".286" stop-color="#C1AFA7"/><stop offset=".656" stop-color="#724B3A"/><stop offset="1" stop-color="#986955"/></linearGradient><linearGradient id="paint46_linear_7_559" x1="146.464" y1="280.025" x2="146.464" y2="322.589" gradientUnits="userSpaceOnUse"><stop stop-color="#672A10"/><stop offset=".286" stop-color="#C1AFA7"/><stop offset=".656" stop-color="#724B3A"/><stop offset="1" stop-color="#986955"/></linearGradient><linearGradient id="paint47_linear_7_559" x1="218.51" y1="212.503" x2="218.51" y2="277.382" gradientUnits="userSpaceOnUse"><stop stop-color="#672A10"/><stop offset=".286" stop-color="#C1AFA7"/><stop offset=".656" stop-color="#724B3A"/><stop offset="1" stop-color="#986955"/></linearGradient><linearGradient id="paint48_linear_7_559" x1="255.139" y1="185.796" x2="255.139" y2="210.698" gradientUnits="userSpaceOnUse"><stop stop-color="#672A10"/><stop offset=".286" stop-color="#C1AFA7"/><stop offset=".656" stop-color="#724B3A"/><stop offset="1" stop-color="#986955"/></linearGradient><linearGradient id="paint49_linear_7_559" x1="189.924" y1="231.524" x2="189.924" y2="306.602" gradientUnits="userSpaceOnUse"><stop stop-color="#672A10"/><stop offset=".286" stop-color="#C1AFA7"/><stop offset=".656" stop-color="#724B3A"/><stop offset="1" stop-color="#986955"/></linearGradient><linearGradient id="paint50_linear_7_559" x1="209.342" y1="218.403" x2="209.342" y2="288.81" gradientUnits="userSpaceOnUse"><stop stop-color="#672A10"/><stop offset=".286" stop-color="#C1AFA7"/><stop offset=".656" stop-color="#724B3A"/><stop offset="1" stop-color="#986955"/></linearGradient><linearGradient id="paint51_linear_7_559" x1="179.536" y1="239.602" x2="179.536" y2="313.097" gradientUnits="userSpaceOnUse"><stop stop-color="#672A10"/><stop offset=".286" stop-color="#C1AFA7"/><stop offset=".656" stop-color="#724B3A"/><stop offset="1" stop-color="#986955"/></linearGradient><linearGradient id="paint52_linear_7_559" x1="263.423" y1="178.557" x2="263.423" y2="194.32" gradientUnits="userSpaceOnUse"><stop stop-color="#672A10"/><stop offset=".286" stop-color="#C1AFA7"/><stop offset=".656" stop-color="#724B3A"/><stop offset="1" stop-color="#986955"/></linearGradient><linearGradient id="paint53_linear_7_559" x1="200.061" y1="224.47" x2="200.061" y2="298.32" gradientUnits="userSpaceOnUse"><stop stop-color="#672A10"/><stop offset=".286" stop-color="#C1AFA7"/><stop offset=".656" stop-color="#724B3A"/><stop offset="1" stop-color="#986955"/></linearGradient><linearGradient id="paint54_linear_7_559" x1="226.758" y1="207.144" x2="226.758" y2="265.322" gradientUnits="userSpaceOnUse"><stop stop-color="#672A10"/><stop offset=".286" stop-color="#C1AFA7"/><stop offset=".656" stop-color="#724B3A"/><stop offset="1" stop-color="#986955"/></linearGradient><linearGradient id="paint55_linear_7_559" x1="242.191" y1="196.293" x2="242.191" y2="237.573" gradientUnits="userSpaceOnUse"><stop stop-color="#672A10"/><stop offset=".286" stop-color="#C1AFA7"/><stop offset=".656" stop-color="#724B3A"/><stop offset="1" stop-color="#986955"/></linearGradient><linearGradient id="paint56_linear_7_559" x1="273.914" y1="169.772" x2="273.914" y2="178.11" gradientUnits="userSpaceOnUse"><stop stop-color="#672A10"/><stop offset=".286" stop-color="#C1AFA7"/><stop offset=".656" stop-color="#724B3A"/><stop offset="1" stop-color="#986955"/></linearGradient><linearGradient id="paint57_linear_7_559" x1="247.841" y1="191.882" x2="247.841" y2="226.053" gradientUnits="userSpaceOnUse"><stop stop-color="#672A10"/><stop offset=".286" stop-color="#C1AFA7"/><stop offset=".656" stop-color="#724B3A"/><stop offset="1" stop-color="#986955"/></linearGradient><linearGradient id="paint58_linear_7_559" x1="234.763" y1="201.709" x2="234.763" y2="251.736" gradientUnits="userSpaceOnUse"><stop stop-color="#672A10"/><stop offset=".286" stop-color="#C1AFA7"/><stop offset=".656" stop-color="#724B3A"/><stop offset="1" stop-color="#986955"/></linearGradient><linearGradient id="paint59_linear_7_559" x1="22.216" y1="496.4" x2="22.216" y2="517.021" gradientUnits="userSpaceOnUse"><stop stop-color="#672A10"/><stop offset=".286" stop-color="#C1AFA7"/><stop offset=".656" stop-color="#724B3A"/><stop offset="1" stop-color="#986955"/></linearGradient><linearGradient id="paint60_linear_7_559" x1="46.418" y1="500.643" x2="46.418" y2="517.3" gradientUnits="userSpaceOnUse"><stop stop-color="#672A10"/><stop offset=".286" stop-color="#C1AFA7"/><stop offset=".656" stop-color="#724B3A"/><stop offset="1" stop-color="#986955"/></linearGradient><linearGradient id="paint61_linear_7_559" x1="68.86" y1="500.643" x2="68.86" y2="517.3" gradientUnits="userSpaceOnUse"><stop stop-color="#672A10"/><stop offset=".286" stop-color="#C1AFA7"/><stop offset=".656" stop-color="#724B3A"/><stop offset="1" stop-color="#986955"/></linearGradient><linearGradient id="paint62_linear_7_559" x1="84.414" y1="495.525" x2="84.414" y2="517.003" gradientUnits="userSpaceOnUse"><stop stop-color="#672A10"/><stop offset=".286" stop-color="#C1AFA7"/><stop offset=".656" stop-color="#724B3A"/><stop offset="1" stop-color="#986955"/></linearGradient><linearGradient id="paint63_linear_7_559" x1="101.039" y1="494.911" x2="101.039" y2="517.3" gradientUnits="userSpaceOnUse"><stop stop-color="#672A10"/><stop offset=".286" stop-color="#C1AFA7"/><stop offset=".656" stop-color="#724B3A"/><stop offset="1" stop-color="#986955"/></linearGradient><linearGradient id="paint64_linear_7_559" x1="126.172" y1="500.643" x2="126.172" y2="517.3" gradientUnits="userSpaceOnUse"><stop stop-color="#672A10"/><stop offset=".286" stop-color="#C1AFA7"/><stop offset=".656" stop-color="#724B3A"/><stop offset="1" stop-color="#986955"/></linearGradient><linearGradient id="paint65_linear_7_559" x1="150.271" y1="500.662" x2="150.271" y2="517.021" gradientUnits="userSpaceOnUse"><stop stop-color="#672A10"/><stop offset=".286" stop-color="#C1AFA7"/><stop offset=".656" stop-color="#724B3A"/><stop offset="1" stop-color="#986955"/></linearGradient><linearGradient id="paint66_linear_7_559" x1="174.1" y1="500.569" x2="174.1" y2="517.244" gradientUnits="userSpaceOnUse"><stop stop-color="#672A10"/><stop offset=".286" stop-color="#C1AFA7"/><stop offset=".656" stop-color="#724B3A"/><stop offset="1" stop-color="#986955"/></linearGradient><linearGradient id="paint67_linear_7_559" x1="197.157" y1="500.643" x2="197.157" y2="517.3" gradientUnits="userSpaceOnUse"><stop stop-color="#672A10"/><stop offset=".286" stop-color="#C1AFA7"/><stop offset=".656" stop-color="#724B3A"/><stop offset="1" stop-color="#986955"/></linearGradient><linearGradient id="paint68_linear_7_559" x1="98.572" y1="388.957" x2="98.572" y2="452.943" gradientUnits="userSpaceOnUse"><stop stop-color="#672A10"/><stop offset=".286" stop-color="#C1AFA7"/><stop offset=".656" stop-color="#724B3A"/><stop offset="1" stop-color="#986955"/></linearGradient><linearGradient id="paint69_linear_7_559" x1="165.732" y1="388.957" x2="165.732" y2="452.961" gradientUnits="userSpaceOnUse"><stop stop-color="#672A10"/><stop offset=".286" stop-color="#C1AFA7"/><stop offset=".656" stop-color="#724B3A"/><stop offset="1" stop-color="#986955"/></linearGradient><linearGradient id="paint70_linear_7_559" x1="230.109" y1="387.859" x2="230.109" y2="453.706" gradientUnits="userSpaceOnUse"><stop stop-color="#672A10"/><stop offset=".286" stop-color="#C1AFA7"/><stop offset=".656" stop-color="#724B3A"/><stop offset="1" stop-color="#986955"/></linearGradient><linearGradient id="paint71_linear_7_559" x1="40.274" y1="388.845" x2="40.274" y2="452.942" gradientUnits="userSpaceOnUse"><stop stop-color="#672A10"/><stop offset=".286" stop-color="#C1AFA7"/><stop offset=".656" stop-color="#724B3A"/><stop offset="1" stop-color="#986955"/></linearGradient><linearGradient id="paint72_linear_7_559" x1="23.193" y1="582.831" x2="23.193" y2="603.452" gradientUnits="userSpaceOnUse"><stop stop-color="#672A10"/><stop offset=".286" stop-color="#C1AFA7"/><stop offset=".656" stop-color="#724B3A"/><stop offset="1" stop-color="#986955"/></linearGradient><linearGradient id="paint73_linear_7_559" x1="46.343" y1="587.111" x2="46.343" y2="603.75" gradientUnits="userSpaceOnUse"><stop stop-color="#672A10"/><stop offset=".286" stop-color="#C1AFA7"/><stop offset=".656" stop-color="#724B3A"/><stop offset="1" stop-color="#986955"/></linearGradient><linearGradient id="paint74_linear_7_559" x1="68.646" y1="587.446" x2="68.646" y2="603.657" gradientUnits="userSpaceOnUse"><stop stop-color="#672A10"/><stop offset=".286" stop-color="#C1AFA7"/><stop offset=".656" stop-color="#724B3A"/><stop offset="1" stop-color="#986955"/></linearGradient><linearGradient id="paint75_linear_7_559" x1="91.898" y1="587.446" x2="91.898" y2="603.657" gradientUnits="userSpaceOnUse"><stop stop-color="#672A10"/><stop offset=".286" stop-color="#C1AFA7"/><stop offset=".656" stop-color="#724B3A"/><stop offset="1" stop-color="#986955"/></linearGradient><linearGradient id="paint76_linear_7_559" x1="116.714" y1="587.111" x2="116.714" y2="603.768" gradientUnits="userSpaceOnUse"><stop stop-color="#672A10"/><stop offset=".286" stop-color="#C1AFA7"/><stop offset=".656" stop-color="#724B3A"/><stop offset="1" stop-color="#986955"/></linearGradient><linearGradient id="paint77_linear_7_559" x1="140.739" y1="587.427" x2="140.739" y2="603.452" gradientUnits="userSpaceOnUse"><stop stop-color="#672A10"/><stop offset=".286" stop-color="#C1AFA7"/><stop offset=".656" stop-color="#724B3A"/><stop offset="1" stop-color="#986955"/></linearGradient><linearGradient id="paint78_linear_7_559" x1="163.489" y1="587.427" x2="163.489" y2="608.105" gradientUnits="userSpaceOnUse"><stop stop-color="#672A10"/><stop offset=".286" stop-color="#C1AFA7"/><stop offset=".656" stop-color="#724B3A"/><stop offset="1" stop-color="#986955"/></linearGradient><linearGradient id="paint79_linear_7_559" x1="186.843" y1="587.427" x2="186.843" y2="603.452" gradientUnits="userSpaceOnUse"><stop stop-color="#672A10"/><stop offset=".286" stop-color="#C1AFA7"/><stop offset=".656" stop-color="#724B3A"/><stop offset="1" stop-color="#986955"/></linearGradient><linearGradient id="paint80_linear_7_559" x1="209.332" y1="587.427" x2="209.332" y2="603.47" gradientUnits="userSpaceOnUse"><stop stop-color="#672A10"/><stop offset=".286" stop-color="#C1AFA7"/><stop offset=".656" stop-color="#724B3A"/><stop offset="1" stop-color="#986955"/></linearGradient><linearGradient id="paint81_linear_7_559" x1="20.727" y1="622.77" x2="20.727" y2="638.795" gradientUnits="userSpaceOnUse"><stop stop-color="#672A10"/><stop offset=".286" stop-color="#C1AFA7"/><stop offset=".656" stop-color="#724B3A"/><stop offset="1" stop-color="#986955"/></linearGradient><linearGradient id="paint82_linear_7_559" x1="43.756" y1="622.77" x2="43.756" y2="638.795" gradientUnits="userSpaceOnUse"><stop stop-color="#672A10"/><stop offset=".286" stop-color="#C1AFA7"/><stop offset=".656" stop-color="#724B3A"/><stop offset="1" stop-color="#986955"/></linearGradient><linearGradient id="paint83_linear_7_559" x1="67.417" y1="622.77" x2="67.417" y2="643.447" gradientUnits="userSpaceOnUse"><stop stop-color="#672A10"/><stop offset=".286" stop-color="#C1AFA7"/><stop offset=".656" stop-color="#724B3A"/><stop offset="1" stop-color="#986955"/></linearGradient><linearGradient id="paint84_linear_7_559" x1="91.489" y1="622.417" x2="91.489" y2="639.074" gradientUnits="userSpaceOnUse"><stop stop-color="#672A10"/><stop offset=".286" stop-color="#C1AFA7"/><stop offset=".656" stop-color="#724B3A"/><stop offset="1" stop-color="#986955"/></linearGradient><linearGradient id="paint85_linear_7_559" x1="115.784" y1="622.77" x2="115.784" y2="638.795" gradientUnits="userSpaceOnUse"><stop stop-color="#672A10"/><stop offset=".286" stop-color="#C1AFA7"/><stop offset=".656" stop-color="#724B3A"/><stop offset="1" stop-color="#986955"/></linearGradient><linearGradient id="paint86_linear_7_559" x1="141.344" y1="622.77" x2="141.344" y2="638.795" gradientUnits="userSpaceOnUse"><stop stop-color="#672A10"/><stop offset=".286" stop-color="#C1AFA7"/><stop offset=".656" stop-color="#724B3A"/><stop offset="1" stop-color="#986955"/></linearGradient><linearGradient id="paint87_linear_7_559" x1="166.477" y1="622.77" x2="166.477" y2="638.795" gradientUnits="userSpaceOnUse"><stop stop-color="#672A10"/><stop offset=".286" stop-color="#C1AFA7"/><stop offset=".656" stop-color="#724B3A"/><stop offset="1" stop-color="#986955"/></linearGradient><linearGradient id="paint88_linear_7_559" x1="20.736" y1="658.094" x2="20.736" y2="674.119" gradientUnits="userSpaceOnUse"><stop stop-color="#672A10"/><stop offset=".286" stop-color="#C1AFA7"/><stop offset=".656" stop-color="#724B3A"/><stop offset="1" stop-color="#986955"/></linearGradient><linearGradient id="paint89_linear_7_559" x1="42.303" y1="658.094" x2="42.303" y2="674.119" gradientUnits="userSpaceOnUse"><stop stop-color="#672A10"/><stop offset=".286" stop-color="#C1AFA7"/><stop offset=".656" stop-color="#724B3A"/><stop offset="1" stop-color="#986955"/></linearGradient><linearGradient id="paint90_linear_7_559" x1="64.346" y1="657.76" x2="64.346" y2="674.454" gradientUnits="userSpaceOnUse"><stop stop-color="#672A10"/><stop offset=".286" stop-color="#C1AFA7"/><stop offset=".656" stop-color="#724B3A"/><stop offset="1" stop-color="#986955"/></linearGradient><linearGradient id="paint91_linear_7_559" x1="88.612" y1="657.778" x2="88.612" y2="680" gradientUnits="userSpaceOnUse"><stop stop-color="#672A10"/><stop offset=".286" stop-color="#C1AFA7"/><stop offset=".656" stop-color="#724B3A"/><stop offset="1" stop-color="#986955"/></linearGradient><linearGradient id="paint92_linear_7_559" x1="110.487" y1="658.094" x2="110.487" y2="674.119" gradientUnits="userSpaceOnUse"><stop stop-color="#672A10"/><stop offset=".286" stop-color="#C1AFA7"/><stop offset=".656" stop-color="#724B3A"/><stop offset="1" stop-color="#986955"/></linearGradient><linearGradient id="paint93_linear_7_559" x1="132.706" y1="658.094" x2="132.706" y2="674.119" gradientUnits="userSpaceOnUse"><stop stop-color="#672A10"/><stop offset=".286" stop-color="#C1AFA7"/><stop offset=".656" stop-color="#724B3A"/><stop offset="1" stop-color="#986955"/></linearGradient><linearGradient id="paint94_linear_7_559" x1="158.202" y1="657.778" x2="158.202" y2="680" gradientUnits="userSpaceOnUse"><stop stop-color="#672A10"/><stop offset=".286" stop-color="#C1AFA7"/><stop offset=".656" stop-color="#724B3A"/><stop offset="1" stop-color="#986955"/></linearGradient><linearGradient id="paint95_linear_7_559" x1="280.867" y1="153.952" x2="280.867" y2="161.49" gradientUnits="userSpaceOnUse"><stop stop-color="#672A10"/><stop offset=".286" stop-color="#C1AFA7"/><stop offset=".656" stop-color="#724B3A"/><stop offset="1" stop-color="#986955"/></linearGradient><linearGradient id="paint96_linear_7_559" x1="133.739" y1="0" x2="133.739" y2="24.995" gradientUnits="userSpaceOnUse"><stop stop-color="#672A10"/><stop offset=".286" stop-color="#C1AFA7"/><stop offset=".656" stop-color="#724B3A"/><stop offset="1" stop-color="#986955"/></linearGradient><linearGradient id="paint97_linear_7_559" x1="132.38" y1="295.566" x2="132.38" y2="322.999" gradientUnits="userSpaceOnUse"><stop stop-color="#672A10"/><stop offset=".286" stop-color="#C1AFA7"/><stop offset=".656" stop-color="#724B3A"/><stop offset="1" stop-color="#986955"/></linearGradient><linearGradient id="paint98_linear_7_559" x1="20.066" y1="151.403" x2="20.066" y2="158.922" gradientUnits="userSpaceOnUse"><stop stop-color="#672A10"/><stop offset=".286" stop-color="#C1AFA7"/><stop offset=".656" stop-color="#724B3A"/><stop offset="1" stop-color="#986955"/></linearGradient></defs></svg>