<svg width="264" height="67" fill="none" xmlns="http://www.w3.org/2000/svg"><path d="M77.992 2.497c3.202 0 11.43 2.475 11.43 11.613v39.68c0 9.138-8.228 11.613-11.43 11.613v.54h41.161v-.54c-3.202 0-11.431-2.476-11.431-11.614V14.11c0-9.138 8.229-11.613 11.431-11.613v-.54H77.992v.54z" fill="url(#paint0_linear_7_631)"/><path d="M208.625 1.957h-36.582v.54c9.141 0 11.338 18.202 5.771 31.453l-3.816 9.026-15.303-28.866c-4.3-8.04 4.114-11.613 7.316-11.613v-.54h-43.172v.54c3.202 0 9.606 3.573 13.907 11.613l27.534 51.851h.54l13.534-31.993c5.585-13.25 21.13-31.453 30.271-31.453v-.558z" fill="url(#paint1_linear_7_631)"/><path d="M230.109.859c-18.114 0-32.933 14.815-32.933 32.923 0 18.109 14.819 32.924 32.933 32.924 18.114 0 32.932-14.722 32.932-32.924C263.041 15.58 248.316.86 230.109.86zm15.917 60.43c-6.218 3.574-18.375-5.936-27.162-21.03-8.694-15.094-10.891-30.448-4.673-34.021 6.218-3.574 18.375 5.936 27.162 21.03 8.694 15.094 10.891 30.448 4.673 34.022z" fill="url(#paint2_linear_7_631)"/><path d="M46.809 1.882H.807v.54c6.125 0 11.43 5.397 11.43 11.614v39.679c0 6.216-5.305 11.613-11.43 11.613v.54h46.002c18.207 0 32.933-14.35 32.933-31.993S64.922 1.882 46.809 1.882zm-2.383 64.06c0-20.49-9.644-32.048-32.337-32.048 22.693 0 32.337-11.558 32.337-32.049 0 20.491 11.226 32.049 33.92 32.049-22.694 0-33.92 11.557-33.92 32.048z" fill="url(#paint3_linear_7_631)"/><defs><linearGradient id="paint0_linear_7_631" x1="98.572" y1="1.957" x2="98.572" y2="65.943" gradientUnits="userSpaceOnUse"><stop stop-color="#672A10"/><stop offset=".286" stop-color="#C1AFA7"/><stop offset=".656" stop-color="#724B3A"/><stop offset="1" stop-color="#986955"/></linearGradient><linearGradient id="paint1_linear_7_631" x1="165.732" y1="1.957" x2="165.732" y2="65.961" gradientUnits="userSpaceOnUse"><stop stop-color="#672A10"/><stop offset=".286" stop-color="#C1AFA7"/><stop offset=".656" stop-color="#724B3A"/><stop offset="1" stop-color="#986955"/></linearGradient><linearGradient id="paint2_linear_7_631" x1="230.109" y1=".859" x2="230.109" y2="66.706" gradientUnits="userSpaceOnUse"><stop stop-color="#672A10"/><stop offset=".286" stop-color="#C1AFA7"/><stop offset=".656" stop-color="#724B3A"/><stop offset="1" stop-color="#986955"/></linearGradient><linearGradient id="paint3_linear_7_631" x1="40.274" y1="1.845" x2="40.274" y2="65.942" gradientUnits="userSpaceOnUse"><stop stop-color="#672A10"/><stop offset=".286" stop-color="#C1AFA7"/><stop offset=".656" stop-color="#724B3A"/><stop offset="1" stop-color="#986955"/></linearGradient></defs></svg>