<svg width="85" height="98" fill="none" xmlns="http://www.w3.org/2000/svg"><path d="M84 42.435c0 18.741-12.465 34.584-29.586 39.7-.28.061-.56.139-.839.232C47.273 84.32 42.678 90.102 42.492 97a15.777 15.777 0 00-11.005-14.618 7.619 7.619 0 00-.978-.263C13.434 76.972 1 61.16 1 42.435 1 19.555 19.58 1 42.492 1S84 19.555 84 42.435z" fill="#8A694F" stroke="#fff" stroke-width="2" stroke-linejoin="round"/><path d="M44.718 22.05H15v.35c3.957 0 7.392 3.447 7.392 7.427v25.38c0 3.98-3.435 7.427-7.392 7.427v.35h29.718C56.487 62.983 66 53.806 66 42.516c0-11.291-9.58-20.467-21.282-20.467zM43.185 63c0-13.106-6.23-20.5-20.895-20.5 14.666 0 20.895-7.394 20.895-20.5 0 13.106 7.257 20.5 21.923 20.5-14.666 0-21.923 7.394-21.923 20.5z" fill="#fff"/></svg>