<svg width="286" height="323" fill="none" xmlns="http://www.w3.org/2000/svg"><path d="M123.469 229.347c0-47.645-26.882-74.52-74.54-74.52 47.658 0 74.54-26.875 74.54-74.52 0 47.645 26.883 74.52 74.542 74.52-47.659 0-74.542 26.875-74.542 74.52z" fill="url(#paint0_linear_7_560)"/><path d="M38.577 190.691L.897 206.697v-4.169l35.52-13.214h.02c.744.465 1.433.912 2.14 1.377z" fill="url(#paint1_linear_7_560)"/><path d="M30.758 186.001l-29.86 10.05v-3.908l26.975-7.724h.018a86.277 86.277 0 012.867 1.582z" fill="url(#paint2_linear_7_560)"/><path d="M93.552 248.405l-21.763 74.5h-6.18l26.398-77.143a94.68 94.68 0 011.545 2.624v.019z" fill="url(#paint3_linear_7_560)"/><path d="M82.904 232.008L37.74 322.905h-7.335l51.307-92.498c.41.522.8 1.043 1.173 1.582l.019.019z" fill="url(#paint4_linear_7_560)"/><path d="M77.412 224.973L15.92 322.924H7.525l68.807-99.272c.39.428.763.874 1.08 1.321z" fill="url(#paint5_linear_7_560)"/><path d="M98.895 258.492c.67 1.377 1.341 2.754 1.955 4.15l-11.058 60.282h-5.79l14.893-64.432z" fill="url(#paint6_linear_7_560)"/><path d="M87.334 238.336l-34.143 84.569h-6.739l39.58-86.467c.446.614.874 1.265 1.302 1.898z" fill="url(#paint7_linear_7_560)"/><path d="M17.522 179.245L.897 183.061v-3.667l12.064-2.196a196.67 196.67 0 014.56 2.029v.018z" fill="url(#paint8_linear_7_560)"/><path d="M66.39 212.857L.898 281.384v-8.096l64.377-61.51c.372.335.744.67 1.098 1.06l.019.019z" fill="url(#paint9_linear_7_560)"/><path d="M60.359 207.162L.897 257.617v-6.458l58.289-45.021c.41.335.8.689 1.173 1.043v-.019z" fill="url(#paint10_linear_7_560)"/><path d="M54.122 201.876L.897 238.596v-5.434l51.885-32.402c.465.372.912.707 1.359 1.116h-.019z" fill="url(#paint11_linear_7_560)"/><path d="M46.88 196.33L.897 221.53v-4.69l44.345-21.719c.559.39 1.099.781 1.638 1.209z" fill="url(#paint12_linear_7_560)"/><path d="M71.845 218.534L.897 309.394v-10.478l69.887-81.536c.372.39.745.781 1.061 1.154z" fill="url(#paint13_linear_7_560)"/><path d="M109.693 285.497v.056l-3.053 37.353h-5.585l5.846-45.635a146.51 146.51 0 012.792 8.207v.019z" fill="url(#paint14_linear_7_560)"/><path d="M.897 101.934l43.973 20.119c-.596.428-1.229.856-1.825 1.247L.897 106.27v-4.336z" fill="url(#paint15_linear_7_560)"/><path d="M.897.614L74.34 95.606c-.335.391-.652.763-1.005 1.136L.897 11.371V.614z" fill="url(#paint16_linear_7_560)"/><path d="M111.853 24.288a186.083 186.083 0 01-2.905 9.454L104.797 0h5.175l1.881 24.27v.018z" fill="url(#paint17_linear_7_560)"/><path d="M.897 90.172l49.781 27.6c-.484.391-.968.763-1.47 1.117L.898 94.918v-4.746z" fill="url(#paint18_linear_7_560)"/><path d="M63.524 0L90.76 73.198c-.41.689-.857 1.396-1.322 2.085L57.455 0h6.069z" fill="url(#paint19_linear_7_560)"/><path d="M.897 129.404l22.824 5.267a146.241 146.241 0 01-3.816 1.898l-19.008-3.48v-3.685z" fill="url(#paint20_linear_7_560)"/><path d="M44.926 0l40.156 81.89c-.391.52-.763 1.06-1.154 1.582L38.168 0h6.758z" fill="url(#paint21_linear_7_560)"/><path d="M.897 53.507l62.44 53.508c-.372.372-.744.688-1.098 1.005L.897 60.133v-6.626z" fill="url(#paint22_linear_7_560)"/><path d="M93.534 0l9.122 50.25c-.614 1.47-1.285 2.922-1.955 4.374L88.191 0h5.343z" fill="url(#paint23_linear_7_560)"/><path d="M.897 115.948l35 11.967c-.82.503-1.62.987-2.458 1.452L.916 119.875v-3.927H.897z" fill="url(#paint24_linear_7_560)"/><path d="M.897 73.421l56.371 39.047c-.41.372-.819.688-1.228 1.042L.897 78.912v-5.49z" fill="url(#paint25_linear_7_560)"/><path d="M23.759 0L79.57 89.297c-.353.428-.689.875-1.042 1.303L15.995 0h7.764z" fill="url(#paint26_linear_7_560)"/><path d="M.897 30.56l67.914 71.058c-.317.353-.652.688-1.006 1.042L.897 38.767V30.56z" fill="url(#paint27_linear_7_560)"/><path d="M77.02 0l18.562 64.823c-.484.93-.987 1.861-1.527 2.773L71.305 0h5.716z" fill="url(#paint28_linear_7_560)"/><path d="M137.004.465c1.712.13 3.407.298 5.119.484l-5.194 40.424a156.558 156.558 0 01-2.643-7.556L137.004.465z" fill="url(#paint29_linear_7_560)"/><path d="M199.239 18.22L161.41 86.412a25.02 25.02 0 01-1.098-1.47l34.31-69.066c1.546.763 3.091 1.526 4.636 2.345h-.019z" fill="url(#paint30_linear_7_560)"/><path d="M267.488 85.984l-70.967 34.785c-.521-.373-1.042-.745-1.545-1.099l69.962-38.32a122.68 122.68 0 012.55 4.653v-.019z" fill="url(#paint31_linear_7_560)"/><path d="M278.602 112.412l-65.624 18.798a60.794 60.794 0 01-2.625-1.489l66.555-22.39c.596 1.675 1.154 3.388 1.713 5.1l-.019-.019z" fill="url(#paint32_linear_7_560)"/><path d="M212.904 26.242l-46.281 66.777c-.354-.41-.689-.819-1.005-1.247L208.51 23.45a96.81 96.81 0 014.394 2.792z" fill="url(#paint33_linear_7_560)"/><path d="M157.65 3.387l-12.92 55.909a104.692 104.692 0 01-1.881-3.853l9.737-53.042c1.713.298 3.388.614 5.045.986h.019z" fill="url(#paint34_linear_7_560)"/><path d="M274.32 100.613l-69.384 25.832h-.019c-.67-.409-1.34-.838-1.992-1.303l69.31-29.424a93.18 93.18 0 012.085 4.895z" fill="url(#paint35_linear_7_560)"/><path d="M249.411 58.886l-66.238 51.181a18.054 18.054 0 01-1.098-.986l63.911-54.197a138.583 138.583 0 013.425 4.002z" fill="url(#paint36_linear_7_560)"/><path d="M282.735 128.101l-55.85 10.125h-.019a140.764 140.764 0 01-4.132-1.917l58.791-13.456c.428 1.749.838 3.48 1.192 5.248h.018z" fill="url(#paint37_linear_7_560)"/><path d="M285.323 144.665l-34.273 2.624h-.019a198.606 198.606 0 01-8.564-2.81l42.223-5.192c.261 1.786.465 3.554.633 5.36v.018z" fill="url(#paint38_linear_7_560)"/><path d="M188.144 12.972l-30.941 67.596a25.268 25.268 0 01-1.192-1.805l27.348-67.764c1.601.614 3.221 1.284 4.785 1.973z" fill="url(#paint39_linear_7_560)"/><path d="M226.159 35.883l-54.175 63.203c-.372-.353-.67-.707-.986-1.06l51.065-65.382a111.522 111.522 0 014.115 3.239h-.019z" fill="url(#paint40_linear_7_560)"/><path d="M173.343 7.482L151.432 71.56a41.115 41.115 0 01-1.452-2.438l18.43-63.11c1.657.446 3.314.949 4.933 1.47z" fill="url(#paint41_linear_7_560)"/><path d="M238.055 46.491l-60.783 58.067c-.335-.335-.671-.651-1.006-.986l57.991-60.692a113.64 113.64 0 013.798 3.592v.019z" fill="url(#paint42_linear_7_560)"/><path d="M258.98 71.746l-69.663 43.513a20.647 20.647 0 01-1.266-1.005l67.913-46.844a112.32 112.32 0 013.016 4.336z" fill="url(#paint43_linear_7_560)"/><path d="M143.631 259.832l13.684 59.798c-1.806.372-3.593.689-5.418 1.005l-10.258-56.522c.633-1.452 1.322-2.867 1.992-4.281z" fill="url(#paint44_linear_7_560)"/><path d="M150.352 247.158l22.992 68.322c-1.75.558-3.5 1.079-5.288 1.563l-19.249-67.131a49.665 49.665 0 011.545-2.754z" fill="url(#paint45_linear_7_560)"/><path d="M135.31 280.025l5.194 42.117c-1.825.187-3.668.335-5.492.447l-2.588-33.686c.912-3.034 1.88-5.974 2.904-8.878h-.018z" fill="url(#paint46_linear_7_560)"/><path d="M177.123 212.503l63.836 60.99c-.689.707-1.396 1.433-2.085 2.121-.596.596-1.191 1.173-1.806 1.768l-61.006-63.836c.372-.373.707-.708 1.061-1.043z" fill="url(#paint47_linear_7_560)"/><path d="M212.792 185.796l67.337 19.654a169.48 169.48 0 01-1.583 5.248l-68.397-23.375a91.878 91.878 0 012.606-1.508h.037v-.019z" fill="url(#paint48_linear_7_560)"/><path d="M160.61 231.524l39.784 72.566a121.392 121.392 0 01-4.897 2.512l-36.042-73.477c.373-.54.764-1.08 1.136-1.601h.019z" fill="url(#paint49_linear_7_560)"/><path d="M171.463 218.403l56.8 66.945c-1.415 1.173-2.83 2.345-4.282 3.462l-53.56-69.271c.335-.391.67-.782 1.042-1.136z" fill="url(#paint50_linear_7_560)"/><path d="M155.006 239.602l30.401 71.504a153.187 153.187 0 01-5.157 1.991l-26.584-71.411c.428-.707.875-1.396 1.34-2.084z" fill="url(#paint51_linear_7_560)"/><path d="M227.164 178.557l56.67 10.403a128.097 128.097 0 01-1.006 5.36l-59.815-13.809c1.377-.67 2.736-1.34 4.151-1.954z" fill="url(#paint52_linear_7_560)"/><path d="M166.176 224.47l48.869 70.854a132.62 132.62 0 01-4.636 2.996l-45.331-72.528c.353-.447.689-.875 1.079-1.322h.019z" fill="url(#paint53_linear_7_560)"/><path d="M182.819 207.144l69.012 53.898a192.058 192.058 0 01-3.481 4.28l-66.666-57.118c.372-.372.763-.688 1.135-1.042v-.018z" fill="url(#paint54_linear_7_560)"/><path d="M196.316 196.293l73.332 36.404a153.01 153.01 0 01-2.495 4.876l-72.419-40.145a31.166 31.166 0 011.582-1.135z" fill="url(#paint55_linear_7_560)"/><path d="M285.807 172.694a126.464 126.464 0 01-.466 5.416l-43.321-5.565a177.774 177.774 0 018.397-2.773l35.371 2.903.019.019z" fill="url(#paint56_linear_7_560)"/><path d="M202.702 191.901l72.158 29.108c-.67 1.712-1.396 3.387-2.122 5.044l-71.916-32.886c.614-.466 1.247-.875 1.88-1.285h.019l-.019.019z" fill="url(#paint57_linear_7_560)"/><path d="M189.224 201.709l72.381 45.393a180.617 180.617 0 01-2.978 4.634L187.92 202.77c.429-.372.857-.707 1.304-1.061z" fill="url(#paint58_linear_7_560)"/><defs><linearGradient id="paint0_linear_7_560" x1="123.469" y1="80.308" x2="123.469" y2="229.347" gradientUnits="userSpaceOnUse"><stop stop-color="#672A10"/><stop offset=".286" stop-color="#C1AFA7"/><stop offset=".656" stop-color="#724B3A"/><stop offset="1" stop-color="#986955"/></linearGradient><linearGradient id="paint1_linear_7_560" x1="19.737" y1="189.314" x2="19.737" y2="206.697" gradientUnits="userSpaceOnUse"><stop stop-color="#672A10"/><stop offset=".286" stop-color="#C1AFA7"/><stop offset=".656" stop-color="#724B3A"/><stop offset="1" stop-color="#986955"/></linearGradient><linearGradient id="paint2_linear_7_560" x1="15.828" y1="184.419" x2="15.828" y2="196.051" gradientUnits="userSpaceOnUse"><stop stop-color="#672A10"/><stop offset=".286" stop-color="#C1AFA7"/><stop offset=".656" stop-color="#724B3A"/><stop offset="1" stop-color="#986955"/></linearGradient><linearGradient id="paint3_linear_7_560" x1="79.581" y1="245.762" x2="79.581" y2="322.905" gradientUnits="userSpaceOnUse"><stop stop-color="#672A10"/><stop offset=".286" stop-color="#C1AFA7"/><stop offset=".656" stop-color="#724B3A"/><stop offset="1" stop-color="#986955"/></linearGradient><linearGradient id="paint4_linear_7_560" x1="56.654" y1="230.407" x2="56.654" y2="322.905" gradientUnits="userSpaceOnUse"><stop stop-color="#672A10"/><stop offset=".286" stop-color="#C1AFA7"/><stop offset=".656" stop-color="#724B3A"/><stop offset="1" stop-color="#986955"/></linearGradient><linearGradient id="paint5_linear_7_560" x1="42.468" y1="223.652" x2="42.468" y2="322.924" gradientUnits="userSpaceOnUse"><stop stop-color="#672A10"/><stop offset=".286" stop-color="#C1AFA7"/><stop offset=".656" stop-color="#724B3A"/><stop offset="1" stop-color="#986955"/></linearGradient><linearGradient id="paint6_linear_7_560" x1="92.426" y1="258.492" x2="92.426" y2="322.924" gradientUnits="userSpaceOnUse"><stop stop-color="#672A10"/><stop offset=".286" stop-color="#C1AFA7"/><stop offset=".656" stop-color="#724B3A"/><stop offset="1" stop-color="#986955"/></linearGradient><linearGradient id="paint7_linear_7_560" x1="66.893" y1="236.438" x2="66.893" y2="322.905" gradientUnits="userSpaceOnUse"><stop stop-color="#672A10"/><stop offset=".286" stop-color="#C1AFA7"/><stop offset=".656" stop-color="#724B3A"/><stop offset="1" stop-color="#986955"/></linearGradient><linearGradient id="paint8_linear_7_560" x1="9.21" y1="177.198" x2="9.21" y2="183.061" gradientUnits="userSpaceOnUse"><stop stop-color="#672A10"/><stop offset=".286" stop-color="#C1AFA7"/><stop offset=".656" stop-color="#724B3A"/><stop offset="1" stop-color="#986955"/></linearGradient><linearGradient id="paint9_linear_7_560" x1="33.644" y1="211.778" x2="33.644" y2="281.384" gradientUnits="userSpaceOnUse"><stop stop-color="#672A10"/><stop offset=".286" stop-color="#C1AFA7"/><stop offset=".656" stop-color="#724B3A"/><stop offset="1" stop-color="#986955"/></linearGradient><linearGradient id="paint10_linear_7_560" x1="30.628" y1="206.138" x2="30.628" y2="257.617" gradientUnits="userSpaceOnUse"><stop stop-color="#672A10"/><stop offset=".286" stop-color="#C1AFA7"/><stop offset=".656" stop-color="#724B3A"/><stop offset="1" stop-color="#986955"/></linearGradient><linearGradient id="paint11_linear_7_560" x1="27.519" y1="200.76" x2="27.519" y2="238.596" gradientUnits="userSpaceOnUse"><stop stop-color="#672A10"/><stop offset=".286" stop-color="#C1AFA7"/><stop offset=".656" stop-color="#724B3A"/><stop offset="1" stop-color="#986955"/></linearGradient><linearGradient id="paint12_linear_7_560" x1="23.889" y1="195.121" x2="23.889" y2="221.53" gradientUnits="userSpaceOnUse"><stop stop-color="#672A10"/><stop offset=".286" stop-color="#C1AFA7"/><stop offset=".656" stop-color="#724B3A"/><stop offset="1" stop-color="#986955"/></linearGradient><linearGradient id="paint13_linear_7_560" x1="36.371" y1="217.38" x2="36.371" y2="309.394" gradientUnits="userSpaceOnUse"><stop stop-color="#672A10"/><stop offset=".286" stop-color="#C1AFA7"/><stop offset=".656" stop-color="#724B3A"/><stop offset="1" stop-color="#986955"/></linearGradient><linearGradient id="paint14_linear_7_560" x1="105.374" y1="277.271" x2="105.374" y2="322.906" gradientUnits="userSpaceOnUse"><stop stop-color="#672A10"/><stop offset=".286" stop-color="#C1AFA7"/><stop offset=".656" stop-color="#724B3A"/><stop offset="1" stop-color="#986955"/></linearGradient><linearGradient id="paint15_linear_7_560" x1="22.884" y1="101.934" x2="22.884" y2="123.3" gradientUnits="userSpaceOnUse"><stop stop-color="#672A10"/><stop offset=".286" stop-color="#C1AFA7"/><stop offset=".656" stop-color="#724B3A"/><stop offset="1" stop-color="#986955"/></linearGradient><linearGradient id="paint16_linear_7_560" x1="37.619" y1=".614" x2="37.619" y2="96.742" gradientUnits="userSpaceOnUse"><stop stop-color="#672A10"/><stop offset=".286" stop-color="#C1AFA7"/><stop offset=".656" stop-color="#724B3A"/><stop offset="1" stop-color="#986955"/></linearGradient><linearGradient id="paint17_linear_7_560" x1="108.325" y1="0" x2="108.325" y2="33.742" gradientUnits="userSpaceOnUse"><stop stop-color="#672A10"/><stop offset=".286" stop-color="#C1AFA7"/><stop offset=".656" stop-color="#724B3A"/><stop offset="1" stop-color="#986955"/></linearGradient><linearGradient id="paint18_linear_7_560" x1="25.788" y1="90.172" x2="25.788" y2="118.889" gradientUnits="userSpaceOnUse"><stop stop-color="#672A10"/><stop offset=".286" stop-color="#C1AFA7"/><stop offset=".656" stop-color="#724B3A"/><stop offset="1" stop-color="#986955"/></linearGradient><linearGradient id="paint19_linear_7_560" x1="74.107" y1="0" x2="74.107" y2="75.283" gradientUnits="userSpaceOnUse"><stop stop-color="#672A10"/><stop offset=".286" stop-color="#C1AFA7"/><stop offset=".656" stop-color="#724B3A"/><stop offset="1" stop-color="#986955"/></linearGradient><linearGradient id="paint20_linear_7_560" x1="12.309" y1="129.404" x2="12.309" y2="136.569" gradientUnits="userSpaceOnUse"><stop stop-color="#672A10"/><stop offset=".286" stop-color="#C1AFA7"/><stop offset=".656" stop-color="#724B3A"/><stop offset="1" stop-color="#986955"/></linearGradient><linearGradient id="paint21_linear_7_560" x1="61.625" y1="0" x2="61.625" y2="83.472" gradientUnits="userSpaceOnUse"><stop stop-color="#672A10"/><stop offset=".286" stop-color="#C1AFA7"/><stop offset=".656" stop-color="#724B3A"/><stop offset="1" stop-color="#986955"/></linearGradient><linearGradient id="paint22_linear_7_560" x1="32.117" y1="53.507" x2="32.117" y2="108.02" gradientUnits="userSpaceOnUse"><stop stop-color="#672A10"/><stop offset=".286" stop-color="#C1AFA7"/><stop offset=".656" stop-color="#724B3A"/><stop offset="1" stop-color="#986955"/></linearGradient><linearGradient id="paint23_linear_7_560" x1="95.423" y1="0" x2="95.423" y2="54.624" gradientUnits="userSpaceOnUse"><stop stop-color="#672A10"/><stop offset=".286" stop-color="#C1AFA7"/><stop offset=".656" stop-color="#724B3A"/><stop offset="1" stop-color="#986955"/></linearGradient><linearGradient id="paint24_linear_7_560" x1="18.397" y1="115.948" x2="18.397" y2="129.367" gradientUnits="userSpaceOnUse"><stop stop-color="#672A10"/><stop offset=".286" stop-color="#C1AFA7"/><stop offset=".656" stop-color="#724B3A"/><stop offset="1" stop-color="#986955"/></linearGradient><linearGradient id="paint25_linear_7_560" x1="29.083" y1="73.421" x2="29.083" y2="113.51" gradientUnits="userSpaceOnUse"><stop stop-color="#672A10"/><stop offset=".286" stop-color="#C1AFA7"/><stop offset=".656" stop-color="#724B3A"/><stop offset="1" stop-color="#986955"/></linearGradient><linearGradient id="paint26_linear_7_560" x1="47.783" y1="0" x2="47.783" y2="90.6" gradientUnits="userSpaceOnUse"><stop stop-color="#672A10"/><stop offset=".286" stop-color="#C1AFA7"/><stop offset=".656" stop-color="#724B3A"/><stop offset="1" stop-color="#986955"/></linearGradient><linearGradient id="paint27_linear_7_560" x1="34.854" y1="30.56" x2="34.854" y2="102.66" gradientUnits="userSpaceOnUse"><stop stop-color="#672A10"/><stop offset=".286" stop-color="#C1AFA7"/><stop offset=".656" stop-color="#724B3A"/><stop offset="1" stop-color="#986955"/></linearGradient><linearGradient id="paint28_linear_7_560" x1="83.444" y1="0" x2="83.444" y2="67.596" gradientUnits="userSpaceOnUse"><stop stop-color="#672A10"/><stop offset=".286" stop-color="#C1AFA7"/><stop offset=".656" stop-color="#724B3A"/><stop offset="1" stop-color="#986955"/></linearGradient><linearGradient id="paint29_linear_7_560" x1="138.205" y1=".465" x2="138.205" y2="41.373" gradientUnits="userSpaceOnUse"><stop stop-color="#672A10"/><stop offset=".286" stop-color="#C1AFA7"/><stop offset=".656" stop-color="#724B3A"/><stop offset="1" stop-color="#986955"/></linearGradient><linearGradient id="paint30_linear_7_560" x1="179.785" y1="15.876" x2="179.785" y2="86.412" gradientUnits="userSpaceOnUse"><stop stop-color="#672A10"/><stop offset=".286" stop-color="#C1AFA7"/><stop offset=".656" stop-color="#724B3A"/><stop offset="1" stop-color="#986955"/></linearGradient><linearGradient id="paint31_linear_7_560" x1="231.232" y1="81.35" x2="231.232" y2="120.769" gradientUnits="userSpaceOnUse"><stop stop-color="#672A10"/><stop offset=".286" stop-color="#C1AFA7"/><stop offset=".656" stop-color="#724B3A"/><stop offset="1" stop-color="#986955"/></linearGradient><linearGradient id="paint32_linear_7_560" x1="244.487" y1="107.331" x2="244.487" y2="131.21" gradientUnits="userSpaceOnUse"><stop stop-color="#672A10"/><stop offset=".286" stop-color="#C1AFA7"/><stop offset=".656" stop-color="#724B3A"/><stop offset="1" stop-color="#986955"/></linearGradient><linearGradient id="paint33_linear_7_560" x1="189.261" y1="23.45" x2="189.261" y2="93.019" gradientUnits="userSpaceOnUse"><stop stop-color="#672A10"/><stop offset=".286" stop-color="#C1AFA7"/><stop offset=".656" stop-color="#724B3A"/><stop offset="1" stop-color="#986955"/></linearGradient><linearGradient id="paint34_linear_7_560" x1="150.25" y1="2.401" x2="150.25" y2="59.295" gradientUnits="userSpaceOnUse"><stop stop-color="#672A10"/><stop offset=".286" stop-color="#C1AFA7"/><stop offset=".656" stop-color="#724B3A"/><stop offset="1" stop-color="#986955"/></linearGradient><linearGradient id="paint35_linear_7_560" x1="238.623" y1="95.718" x2="238.623" y2="126.445" gradientUnits="userSpaceOnUse"><stop stop-color="#672A10"/><stop offset=".286" stop-color="#C1AFA7"/><stop offset=".656" stop-color="#724B3A"/><stop offset="1" stop-color="#986955"/></linearGradient><linearGradient id="paint36_linear_7_560" x1="215.743" y1="54.885" x2="215.743" y2="110.067" gradientUnits="userSpaceOnUse"><stop stop-color="#672A10"/><stop offset=".286" stop-color="#C1AFA7"/><stop offset=".656" stop-color="#724B3A"/><stop offset="1" stop-color="#986955"/></linearGradient><linearGradient id="paint37_linear_7_560" x1="252.734" y1="122.853" x2="252.734" y2="138.226" gradientUnits="userSpaceOnUse"><stop stop-color="#672A10"/><stop offset=".286" stop-color="#C1AFA7"/><stop offset=".656" stop-color="#724B3A"/><stop offset="1" stop-color="#986955"/></linearGradient><linearGradient id="paint38_linear_7_560" x1="263.895" y1="139.287" x2="263.895" y2="147.289" gradientUnits="userSpaceOnUse"><stop stop-color="#672A10"/><stop offset=".286" stop-color="#C1AFA7"/><stop offset=".656" stop-color="#724B3A"/><stop offset="1" stop-color="#986955"/></linearGradient><linearGradient id="paint39_linear_7_560" x1="172.078" y1="10.999" x2="172.078" y2="80.568" gradientUnits="userSpaceOnUse"><stop stop-color="#672A10"/><stop offset=".286" stop-color="#C1AFA7"/><stop offset=".656" stop-color="#724B3A"/><stop offset="1" stop-color="#986955"/></linearGradient><linearGradient id="paint40_linear_7_560" x1="198.588" y1="32.644" x2="198.588" y2="99.087" gradientUnits="userSpaceOnUse"><stop stop-color="#672A10"/><stop offset=".286" stop-color="#C1AFA7"/><stop offset=".656" stop-color="#724B3A"/><stop offset="1" stop-color="#986955"/></linearGradient><linearGradient id="paint41_linear_7_560" x1="161.662" y1="6.011" x2="161.662" y2="71.56" gradientUnits="userSpaceOnUse"><stop stop-color="#672A10"/><stop offset=".286" stop-color="#C1AFA7"/><stop offset=".656" stop-color="#724B3A"/><stop offset="1" stop-color="#986955"/></linearGradient><linearGradient id="paint42_linear_7_560" x1="207.161" y1="42.88" x2="207.161" y2="104.558" gradientUnits="userSpaceOnUse"><stop stop-color="#672A10"/><stop offset=".286" stop-color="#C1AFA7"/><stop offset=".656" stop-color="#724B3A"/><stop offset="1" stop-color="#986955"/></linearGradient><linearGradient id="paint43_linear_7_560" x1="223.515" y1="67.41" x2="223.515" y2="115.259" gradientUnits="userSpaceOnUse"><stop stop-color="#672A10"/><stop offset=".286" stop-color="#C1AFA7"/><stop offset=".656" stop-color="#724B3A"/><stop offset="1" stop-color="#986955"/></linearGradient><linearGradient id="paint44_linear_7_560" x1="149.477" y1="259.832" x2="149.477" y2="320.635" gradientUnits="userSpaceOnUse"><stop stop-color="#672A10"/><stop offset=".286" stop-color="#C1AFA7"/><stop offset=".656" stop-color="#724B3A"/><stop offset="1" stop-color="#986955"/></linearGradient><linearGradient id="paint45_linear_7_560" x1="161.075" y1="247.158" x2="161.075" y2="317.043" gradientUnits="userSpaceOnUse"><stop stop-color="#672A10"/><stop offset=".286" stop-color="#C1AFA7"/><stop offset=".656" stop-color="#724B3A"/><stop offset="1" stop-color="#986955"/></linearGradient><linearGradient id="paint46_linear_7_560" x1="136.464" y1="280.025" x2="136.464" y2="322.589" gradientUnits="userSpaceOnUse"><stop stop-color="#672A10"/><stop offset=".286" stop-color="#C1AFA7"/><stop offset=".656" stop-color="#724B3A"/><stop offset="1" stop-color="#986955"/></linearGradient><linearGradient id="paint47_linear_7_560" x1="208.51" y1="212.503" x2="208.51" y2="277.382" gradientUnits="userSpaceOnUse"><stop stop-color="#672A10"/><stop offset=".286" stop-color="#C1AFA7"/><stop offset=".656" stop-color="#724B3A"/><stop offset="1" stop-color="#986955"/></linearGradient><linearGradient id="paint48_linear_7_560" x1="245.139" y1="185.796" x2="245.139" y2="210.698" gradientUnits="userSpaceOnUse"><stop stop-color="#672A10"/><stop offset=".286" stop-color="#C1AFA7"/><stop offset=".656" stop-color="#724B3A"/><stop offset="1" stop-color="#986955"/></linearGradient><linearGradient id="paint49_linear_7_560" x1="179.924" y1="231.524" x2="179.924" y2="306.602" gradientUnits="userSpaceOnUse"><stop stop-color="#672A10"/><stop offset=".286" stop-color="#C1AFA7"/><stop offset=".656" stop-color="#724B3A"/><stop offset="1" stop-color="#986955"/></linearGradient><linearGradient id="paint50_linear_7_560" x1="199.342" y1="218.403" x2="199.342" y2="288.81" gradientUnits="userSpaceOnUse"><stop stop-color="#672A10"/><stop offset=".286" stop-color="#C1AFA7"/><stop offset=".656" stop-color="#724B3A"/><stop offset="1" stop-color="#986955"/></linearGradient><linearGradient id="paint51_linear_7_560" x1="169.536" y1="239.602" x2="169.536" y2="313.097" gradientUnits="userSpaceOnUse"><stop stop-color="#672A10"/><stop offset=".286" stop-color="#C1AFA7"/><stop offset=".656" stop-color="#724B3A"/><stop offset="1" stop-color="#986955"/></linearGradient><linearGradient id="paint52_linear_7_560" x1="253.423" y1="178.557" x2="253.423" y2="194.32" gradientUnits="userSpaceOnUse"><stop stop-color="#672A10"/><stop offset=".286" stop-color="#C1AFA7"/><stop offset=".656" stop-color="#724B3A"/><stop offset="1" stop-color="#986955"/></linearGradient><linearGradient id="paint53_linear_7_560" x1="190.061" y1="224.47" x2="190.061" y2="298.32" gradientUnits="userSpaceOnUse"><stop stop-color="#672A10"/><stop offset=".286" stop-color="#C1AFA7"/><stop offset=".656" stop-color="#724B3A"/><stop offset="1" stop-color="#986955"/></linearGradient><linearGradient id="paint54_linear_7_560" x1="216.758" y1="207.144" x2="216.758" y2="265.322" gradientUnits="userSpaceOnUse"><stop stop-color="#672A10"/><stop offset=".286" stop-color="#C1AFA7"/><stop offset=".656" stop-color="#724B3A"/><stop offset="1" stop-color="#986955"/></linearGradient><linearGradient id="paint55_linear_7_560" x1="232.191" y1="196.293" x2="232.191" y2="237.573" gradientUnits="userSpaceOnUse"><stop stop-color="#672A10"/><stop offset=".286" stop-color="#C1AFA7"/><stop offset=".656" stop-color="#724B3A"/><stop offset="1" stop-color="#986955"/></linearGradient><linearGradient id="paint56_linear_7_560" x1="263.914" y1="169.772" x2="263.914" y2="178.11" gradientUnits="userSpaceOnUse"><stop stop-color="#672A10"/><stop offset=".286" stop-color="#C1AFA7"/><stop offset=".656" stop-color="#724B3A"/><stop offset="1" stop-color="#986955"/></linearGradient><linearGradient id="paint57_linear_7_560" x1="237.841" y1="191.882" x2="237.841" y2="226.053" gradientUnits="userSpaceOnUse"><stop stop-color="#672A10"/><stop offset=".286" stop-color="#C1AFA7"/><stop offset=".656" stop-color="#724B3A"/><stop offset="1" stop-color="#986955"/></linearGradient><linearGradient id="paint58_linear_7_560" x1="224.763" y1="201.709" x2="224.763" y2="251.736" gradientUnits="userSpaceOnUse"><stop stop-color="#672A10"/><stop offset=".286" stop-color="#C1AFA7"/><stop offset=".656" stop-color="#724B3A"/><stop offset="1" stop-color="#986955"/></linearGradient></defs></svg>