<svg width="950" height="1001" fill="none" xmlns="http://www.w3.org/2000/svg"><g clip-path="url(#clip0_403_1856)" fill="#8A694F" fill-opacity=".2"><path d="M.108 977.872l22.629 22.628h2.38L.106 975.493v2.379zm0-47.648l70.277 70.276h2.38L.108 927.844v2.38zM1000.61 70.277L930.332 0h-2.38l72.658 72.657v-2.38zm0 56.112v-3.503c-4.323-7.599-9.688-14.648-16.041-21.001L898.723 16.04A97.806 97.806 0 01885.759 0h-1.998a98.997 98.997 0 008.834 11.91h-.023v31.102c0 25.806-10.046 50.062-28.297 68.302l-85.845 85.845c-18.566 18.566-28.791 43.249-28.791 69.492v29.071l-22.146-22.146v-30.755c0-25.805 10.046-50.062 28.297-68.302l85.845-85.845c18.566-18.565 28.791-43.248 28.791-69.491V0h-1.683v19.194c0 25.805-10.046 50.061-28.298 68.301L754.6 173.341c-18.565 18.565-28.791 43.248-28.791 69.491v29.072l-22.146-22.135v-30.755c0-25.806 10.046-50.062 28.297-68.302l85.846-85.845a99.735 99.735 0 004.938-5.31h.023v-.022c14.412-16.668 22.696-37.434 23.706-59.524h-1.684c-.987 21.024-8.676 40.813-22.033 56.92V4.625c0-1.55.033-3.087.112-4.625h-1.684a106.074 106.074 0 00-.112 4.625v54.27a105.658 105.658 0 01-4.467 4.793l-17.668 17.668V0h-1.684v34.066A96.941 96.941 0 00783.919 0h-1.998c9.978 15.445 15.332 33.45 15.332 52.273v30.755l-22.134 22.146V76.102c0-26.254-10.226-50.937-28.791-69.49L739.761 0h-2.379l7.79 7.79c18.251 18.251 28.297 42.507 28.297 68.301v30.756l-22.146 22.134V99.91c0-26.254-10.226-50.926-28.791-69.491L692.113 0h-2.38l31.609 31.608c18.251 18.24 28.297 42.508 28.297 68.302v30.755l-18.857 18.857a105.64 105.64 0 00-3.289 3.446v-29.24c0-26.254-10.226-50.937-28.791-69.502L644.476 0h-2.38l55.427 55.427c18.24 18.251 28.297 42.507 28.297 68.313v31.103h.023c-11.427 13.211-19.003 29.004-22.169 45.976v-53.261c0-26.254-10.225-50.937-28.791-69.491L596.828 0h-2.38l79.245 79.245c18.252 18.251 28.298 42.508 28.298 68.302v100.538l-17.668-17.667a94.12 94.12 0 01-4.467-4.793v-54.26c0-26.254-10.226-50.937-28.791-69.502L565.231 16.04A97.76 97.76 0 01552.266 0h-1.998a99.104 99.104 0 008.834 11.91h-.022v31.102c0 25.806-10.046 50.062-28.298 68.302l-85.845 85.845c-18.565 18.566-28.791 43.249-28.791 69.492v29.071L394 273.576v-30.755c0-25.805 10.046-50.062 28.297-68.302l85.846-85.845c18.565-18.565 28.791-43.248 28.791-69.491V0h-1.684v19.194c0 25.805-10.046 50.061-28.297 68.301l-85.846 85.846c-18.565 18.565-28.791 43.248-28.791 69.491v29.072l-22.134-22.135v-30.755c0-25.806 10.046-50.062 28.297-68.302l85.845-85.845a100.172 100.172 0 004.939-5.31h.022v-.022C503.698 42.855 511.981 22.09 513.003 0h-1.684c-.988 21.024-8.676 40.813-22.034 56.92V4.625c0-1.55.034-3.087.113-4.625h-1.684a106.074 106.074 0 00-.112 4.625v54.27a105.681 105.681 0 01-4.468 4.793l-17.667 17.668V0h-1.684v34.066A96.924 96.924 0 00450.448 0h-1.998c9.979 15.445 15.333 33.45 15.333 52.273v30.755l-22.146 22.146V76.102c0-26.254-10.226-50.937-28.791-69.49L406.257 0h-2.379l7.789 7.79c18.252 18.251 28.298 42.507 28.298 68.301v30.756l-22.135 22.134V99.91c0-26.254-10.226-50.926-28.791-69.491L358.62 0h-2.379l31.608 31.608c18.251 18.24 28.297 42.508 28.297 68.302v30.755l-18.857 18.857a105.64 105.64 0 00-3.289 3.446v-29.24c0-26.254-10.226-50.937-28.791-69.502L310.972 0h-2.38l55.427 55.427c18.251 18.251 28.297 42.507 28.297 68.313v31.103h.023c-11.427 13.211-19.003 29.004-22.169 45.976v-53.261c0-26.254-10.225-50.937-28.791-69.491L263.335 0h-2.38l79.246 79.245c18.251 18.251 28.297 42.508 28.297 68.302v100.538l-17.668-17.667a94.576 94.576 0 01-4.467-4.793v-54.26c0-26.254-10.226-50.937-28.791-69.502L231.727 16.04A97.76 97.76 0 01218.762 0h-1.998a99.104 99.104 0 008.834 11.91h-.022v31.102c0 25.806-10.046 50.062-28.298 68.302l-85.845 85.845c-18.565 18.566-28.79 43.249-28.79 69.492v29.071l-22.136-22.146v-30.755c0-25.805 10.046-50.062 28.297-68.302l85.846-85.845c18.565-18.565 28.791-43.248 28.791-69.491V0h-1.684v19.194c0 25.805-10.046 50.061-28.297 68.301l-85.846 85.846c-18.565 18.565-28.79 43.248-28.79 69.491v29.072l-22.146-22.135v-30.755c0-25.806 10.046-50.062 28.297-68.302l85.845-85.845a100.172 100.172 0 004.939-5.31h.022v-.022C170.194 42.855 178.489 22.09 179.499 0h-1.684c-.988 21.024-8.665 40.813-22.034 56.92V4.625c0-1.55.034-3.087.113-4.625h-1.684a104.521 104.521 0 00-.112 4.625v54.27a105.681 105.681 0 01-4.468 4.793l-17.667 17.668V0h-1.684v34.066A97.131 97.131 0 00116.956 0h-1.998c9.978 15.445 15.332 33.45 15.332 52.273v30.755l-22.135 22.146V76.102c0-26.254-10.225-50.937-28.79-69.49L72.765 0h-2.38l7.79 7.79c18.25 18.251 28.297 42.507 28.297 68.301v30.756l-22.135 22.134V99.91c0-26.254-10.226-50.926-28.791-69.491L25.116 0h-2.38l31.609 31.608c18.24 18.24 28.297 42.508 28.297 68.302v30.755l-18.857 18.857a106.71 106.71 0 00-3.289 3.446v-29.24c0-26.254-10.226-50.937-28.791-69.502L.108 22.629v2.38l30.418 30.418c18.252 18.251 28.298 42.507 28.298 68.313v31.103h.022c-11.427 13.211-19.003 29.004-22.168 45.976v-53.261c0-26.254-10.226-50.937-28.791-69.491l-7.78-7.79v2.38l6.601 6.6c18.251 18.25 28.297 42.507 28.297 68.301v100.538l-17.667-17.667a99.982 99.982 0 01-4.479-4.793v-54.259c0-17.275-4.434-33.876-12.751-48.491v3.503c7.229 13.705 11.067 29.049 11.067 44.988v52.295A97.272 97.272 0 01.108 207.116v3.502a98.874 98.874 0 0011.067 15.658v.022h.023a99.805 99.805 0 004.939 5.31l85.845 85.845c18.251 18.251 28.297 42.507 28.297 68.301v30.756l-22.135 22.146v-29.072c0-26.254-10.225-50.937-28.79-69.491L.107 260.847v2.38l78.055 78.067c18.252 18.251 28.298 42.507 28.298 68.301v30.756l-22.135 22.146v-29.072c0-26.254-10.226-50.926-28.791-69.491L.108 308.496v2.379l54.237 54.237c18.24 18.252 28.297 42.508 28.297 68.302v30.755l-18.857 18.857a106.71 106.71 0 00-3.289 3.446v-29.24c0-26.254-10.226-50.937-28.791-69.491L.108 356.133v2.379l30.418 30.419c18.252 18.251 28.298 42.507 28.298 68.301v31.104h.022c-11.427 13.211-19.003 29.004-22.168 45.975v-53.26c0-26.254-10.226-50.937-28.791-69.491l-7.78-7.779v2.38l6.601 6.6c18.251 18.251 28.297 42.507 28.297 68.312v100.539l-17.667-17.668a105.769 105.769 0 01-4.479-4.781v-54.26c0-17.275-4.434-33.876-12.751-48.501v3.502c7.229 13.705 11.067 29.049 11.067 44.988v52.295A95.468 95.468 0 01.108 540.631v3.502a98.874 98.874 0 0011.067 15.658v.023h.023a100.174 100.174 0 004.939 5.309l85.845 85.845c18.251 18.251 28.297 42.508 28.297 68.313v30.755l-22.135 22.146v-29.071c0-26.255-10.225-50.937-28.79-69.492L.107 594.352v2.379l78.055 78.067c18.252 18.251 28.298 42.507 28.298 68.301v30.756L84.326 795.99v-29.072c0-26.254-10.226-50.937-28.791-69.503L.108 641.989v2.379l54.237 54.237c18.24 18.251 28.297 42.508 28.297 68.313v30.755L63.785 816.53a106.71 106.71 0 00-3.289 3.446v-29.24c0-26.254-10.226-50.937-28.791-69.491L.108 689.637v2.379l30.418 30.419c18.252 18.251 28.298 42.507 28.298 68.301v31.104h.022c-11.427 13.211-19.003 29.004-22.168 45.975v-53.26c0-26.254-10.226-50.937-28.791-69.491l-7.78-7.79v2.379l6.601 6.6c18.251 18.252 28.297 42.508 28.297 68.313v100.538l-17.667-17.667a99.982 99.982 0 01-4.479-4.793v-54.259c0-17.275-4.434-33.876-12.751-48.49v3.502c7.229 13.705 11.067 29.049 11.067 44.988v52.295A95.468 95.468 0 01.108 874.124v3.502a98.874 98.874 0 0011.067 15.658v.022h.023a99.805 99.805 0 004.939 5.31l85.845 85.845a97.777 97.777 0 0112.964 16.039h1.998a99.022 99.022 0 00-8.833-11.908h.022v-31.104c0-25.805 10.046-50.061 28.297-68.312l85.846-85.846c18.565-18.565 28.791-43.248 28.791-69.491v-29.071l22.134 22.146v30.755c0 25.805-10.046 50.061-28.297 68.313l-85.845 85.845c-18.566 18.565-28.791 43.248-28.791 69.491v19.192h1.684v-19.192c0-25.805 10.046-50.061 28.297-68.313l85.845-85.845c18.565-18.565 28.791-43.248 28.791-69.502v-29.072l22.146 22.135v30.755c0 25.805-10.046 50.062-28.297 68.313l-85.845 85.845a99.76 99.76 0 00-4.939 5.309h-.023v.023c-14.412 16.668-22.696 37.445-23.706 59.524h1.684c.988-21.024 8.676-40.813 22.034-56.92v52.295c0 1.549-.034 3.087-.113 4.625h1.684c.067-1.538.112-3.076.112-4.625v-54.259a105.42 105.42 0 014.468-4.793l17.667-17.668v81.345h1.684v-34.067a96.923 96.923 0 0013.335 34.067h1.997c-9.978-15.445-15.332-33.449-15.332-52.273v-30.755l22.135-22.135v29.071c0 26.255 10.225 50.937 28.791 69.492l6.6 6.6h2.379l-7.79-7.79c-18.251-18.251-28.297-42.508-28.297-68.302v-30.755l22.146-22.135v29.072c0 26.254 10.226 50.926 28.791 69.491l30.419 30.419h2.379l-31.608-31.609c-18.251-18.251-28.297-42.507-28.297-68.301v-30.755l18.857-18.858a103.641 103.641 0 003.289-3.446v29.24c0 26.255 10.226 50.926 28.791 69.492l54.237 54.237h2.38l-55.427-55.427c-18.251-18.251-28.297-42.508-28.297-68.302v-31.103h-.023c11.427-13.211 19.003-29.004 22.169-45.976v53.261c0 26.254 10.225 50.926 28.791 69.491l78.067 78.066h2.379l-79.245-79.244c-18.251-18.252-28.297-42.508-28.297-68.302V752.416l17.667 17.667a94.597 94.597 0 014.468 4.793v54.26c0 23.807 8.407 46.323 23.818 64.159v.023h.022a100.599 100.599 0 004.939 5.309l85.846 85.845a97.907 97.907 0 0112.964 16.038h1.998a99.1 99.1 0 00-8.834-11.907h.023V957.5c0-25.806 10.046-50.062 28.297-68.313l85.845-85.845c18.566-18.566 28.791-43.249 28.791-69.492v-29.071l22.146 22.146v30.755c0 25.805-10.046 50.062-28.297 68.313l-85.845 85.845c-18.566 18.566-28.791 43.248-28.791 69.491v19.191h1.683v-19.191c0-25.805 10.046-50.061 28.298-68.312l85.845-85.846c18.565-18.565 28.791-43.248 28.791-69.502v-29.072l22.135 22.135v30.755c0 25.806-10.046 50.062-28.297 68.313l-85.846 85.845a100.226 100.226 0 00-4.939 5.31h-.022v.022c-14.412 16.669-22.696 37.445-23.717 59.523h1.683c.988-21.023 8.666-40.812 22.034-56.919v52.295c0 1.549-.045 3.087-.112 4.624h1.683c.068-1.537.113-3.075.113-4.624v-54.259a104.833 104.833 0 014.467-4.793l17.668-17.667v81.343h1.683v-34.066a96.93 96.93 0 0013.335 34.066h1.998c-9.979-15.444-15.333-33.448-15.333-52.272v-30.755l22.146-22.135v29.072c0 26.254 10.226 50.937 28.791 69.491l6.6 6.599h2.38l-7.79-7.789c-18.251-18.251-28.297-42.507-28.297-68.301v-30.756l22.135-22.134v29.071c0 26.254 10.225 50.926 28.791 69.491l30.418 30.418h2.38l-31.608-31.607c-18.252-18.252-28.298-42.508-28.298-68.302v-30.755l18.858-18.857a106.684 106.684 0 003.288-3.446v29.24c0 26.254 10.226 50.925 28.791 69.491l54.238 54.236h2.379l-55.427-55.426c-18.251-18.251-28.297-42.507-28.297-68.301v-31.104h-.022c11.426-13.211 19.003-29.004 22.168-45.975v53.26c0 26.254 10.226 50.926 28.791 69.491l78.067 78.065h2.38l-79.246-79.243c-18.251-18.251-28.297-42.508-28.297-68.302V752.427l17.668 17.667a94.576 94.576 0 014.467 4.793v54.26c0 23.807 8.407 46.324 23.819 64.159v.023h.022a99.376 99.376 0 004.939 5.309l85.845 85.845a97.89 97.89 0 0112.964 16.037h1.998a99.24 99.24 0 00-8.833-11.906h.022v-31.103c0-25.805 10.046-50.062 28.297-68.313l85.846-85.845c18.565-18.566 28.791-43.248 28.791-69.491V704.79l22.146 22.146v30.755c0 25.806-10.046 50.062-28.297 68.313l-85.846 85.845c-18.565 18.566-28.791 43.249-28.791 69.492v19.189h1.684v-19.189c0-25.806 10.046-50.062 28.297-68.313l85.845-85.846c18.566-18.565 28.791-43.248 28.791-69.502v-29.072l22.146 22.135v30.756c0 25.805-10.046 50.061-28.297 68.312l-85.845 85.846a99.819 99.819 0 00-4.939 5.309h-.022v.022c-14.413 16.669-22.696 37.445-23.707 59.522h1.684c.988-21.021 8.665-40.81 22.034-56.918v52.296c0 1.549-.034 3.086-.112 4.622h1.683c.068-1.536.113-3.073.113-4.622v-54.26a99.25 99.25 0 014.478-4.793l17.668-17.667v81.342h1.683v-34.064a96.939 96.939 0 0013.335 34.064h1.998c-9.979-15.443-15.333-33.447-15.333-52.271v-30.755l22.135-22.135v29.072c0 26.254 10.226 50.937 28.791 69.491l6.6 6.598h2.38l-7.79-7.788c-18.251-18.251-28.297-42.507-28.297-68.301v-30.755l22.146-22.135v29.071c0 26.255 10.225 50.926 28.791 69.492l30.418 30.416h2.38l-31.608-31.606c-18.251-18.251-28.297-42.508-28.297-68.302v-30.755l18.857-18.857a107.817 107.817 0 003.289-3.446v29.24c0 26.254 10.225 50.926 28.791 69.491l31.607 31.608v-2.379l-30.418-30.419c-18.251-18.251-28.297-42.507-28.297-68.301v-31.103h-.022c11.426-13.212 19.003-29.005 22.168-45.976v53.26c0 26.255 10.226 50.926 28.791 69.492l7.788 7.789v-2.379l-6.598-6.6c-18.251-18.251-28.297-42.508-28.297-68.302V752.427l17.667 17.667a94.597 94.597 0 014.468 4.793v54.26c0 17.274 4.434 33.876 12.75 48.501v-3.502c-7.228-13.705-11.066-29.049-11.066-44.988v-52.295a95.474 95.474 0 0111.066 16.556v-3.502a98.298 98.298 0 00-16.039-21.001l-85.845-85.846c-18.251-18.251-28.297-42.507-28.297-68.301v-30.755l22.134-22.146v29.071c0 26.254 10.226 50.937 28.791 69.491l79.256 79.246v-2.38l-78.066-78.067c-18.251-18.239-28.297-42.507-28.297-68.301v-30.755l22.146-22.146v29.071c0 26.255 10.226 50.937 28.791 69.492l55.426 55.426v-2.379L946.484 635.4c-18.251-18.251-28.297-42.508-28.297-68.302v-30.755l18.857-18.857a106.717 106.717 0 003.289-3.446v29.24c0 26.254 10.225 50.937 28.791 69.491l31.606 31.608V642l-30.416-30.419c-18.252-18.251-28.297-42.507-28.297-68.301v-31.103h-.023c11.427-13.212 19.003-29.005 22.169-45.976v53.26c0 26.255 10.225 50.937 28.791 69.492l7.786 7.789v-2.379l-6.597-6.6c-18.251-18.251-28.297-42.508-28.297-68.302V418.923l17.668 17.667a94.12 94.12 0 014.467 4.793v54.26c0 17.274 4.434 33.875 12.749 48.501v-3.502c-7.226-13.705-11.065-29.049-11.065-44.988v-52.295a95.298 95.298 0 0111.065 16.556v-3.502a98.534 98.534 0 00-16.038-21.001l-85.845-85.846c-18.251-18.251-28.297-42.507-28.297-68.312v-30.756l22.135-22.134v29.071c0 26.254 10.225 50.937 28.791 69.491l79.254 79.246v-2.38l-78.065-78.055c-18.251-18.251-28.297-42.508-28.297-68.302V226.68l22.146-22.146v29.071c0 26.255 10.226 50.938 28.791 69.503l55.425 55.427v-2.38l-54.235-54.237c-18.251-18.251-28.297-42.507-28.297-68.313V202.85l18.857-18.857a105.64 105.64 0 003.289-3.446v29.24c0 26.254 10.226 50.937 28.791 69.491l31.605 31.609v-2.38l-30.415-30.419c-18.251-18.251-28.297-42.507-28.297-68.312v-31.104h-.023c11.427-13.211 19.003-29.004 22.169-45.975v53.26c0 26.254 10.225 50.937 28.791 69.503l7.785 7.79v-2.38l-6.595-6.6c-18.252-18.251-28.298-42.508-28.298-68.313V85.407l17.668 17.668a98.778 98.778 0 014.467 4.782v54.259c0 17.275 4.434 33.876 12.748 48.502v-3.502c-7.225-13.706-11.064-29.05-11.064-44.988v-52.296a95.281 95.281 0 0111.064 16.557h-.13zm-82.535-88.63l22.146 22.135V90.65c0 25.805-10.046 50.061-28.297 68.301l-85.846 85.845c-18.565 18.566-28.791 43.249-28.791 69.492v53.26c-3.165-16.971-10.742-32.764-22.168-45.976h.022v-31.103c0-25.805 10.046-50.061 28.297-68.301l85.846-85.846c18.565-18.565 28.791-43.248 28.791-69.491V37.759zm-71.467 291.109v-54.259a99.754 99.754 0 014.478-4.793l17.668-17.668v100.539c0 25.805-10.046 50.061-28.297 68.301l-85.846 85.846c-18.565 18.565-28.791 43.248-28.791 69.491v29.071l-22.146-22.146v-30.755c0-25.805 10.046-50.061 28.297-68.301l85.846-85.846a100.207 100.207 0 004.939-5.309h.022v-.022c15.411-17.836 23.819-40.353 23.819-64.16l.011.011zm-23.819 61.545v-52.296c0-22.729 7.801-44.269 22.135-61.544v52.295c0 22.73-7.801 44.27-22.135 61.545zm-76.428 283.173l-85.845-85.846c-18.251-18.251-28.297-42.507-28.297-68.301V418.9l17.667 17.668a94.597 94.597 0 014.468 4.793v54.259c0 23.808 8.407 46.324 23.818 64.16v.022h.023a99.789 99.789 0 004.938 5.31l85.846 85.845c18.251 18.251 28.297 42.507 28.297 68.313v30.755l-22.135 22.146v-29.072c0-26.254-10.225-50.937-28.791-69.491l.011-.022zm-23.818 23.818l-85.846-85.845c-18.251-18.251-28.297-42.508-28.297-68.302v-31.103h-.022c11.426-13.211 19.003-29.004 22.168-45.976v53.261c0 26.254 10.226 50.937 28.791 69.491l85.846 85.845c18.251 18.252 28.297 42.508 28.297 68.302v30.755l-22.146 22.135v-29.072c0-26.254-10.226-50.937-28.791-69.502v.011zm-23.819 23.819l-85.845-85.846c-18.251-18.251-28.297-42.507-28.297-68.301v-30.755l18.857-18.858a105.737 105.737 0 003.289-3.446v29.24c0 26.255 10.225 50.937 28.791 69.492l85.845 85.845c18.251 18.251 28.297 42.507 28.297 68.313v30.755l-18.857 18.857a107.817 107.817 0 00-3.289 3.446v-29.24c0-26.254-10.225-50.937-28.791-69.491v-.011zm-23.818 23.818l-85.846-85.845c-18.251-18.24-28.297-42.508-28.297-68.302v-30.755l22.135-22.146v29.072c0 26.254 10.226 50.937 28.791 69.491l85.845 85.845c18.24 18.251 28.298 42.508 28.298 68.302v31.103h.022c-11.427 13.211-19.003 29.004-22.168 45.976v-53.261c0-26.254-10.226-50.937-28.791-69.491l.011.011zM487.624 671.61v54.26a106.466 106.466 0 01-4.467 4.793l-17.668 17.667V647.792c0-25.806 10.046-50.062 28.297-68.302l85.846-85.845c18.565-18.566 28.791-43.248 28.791-69.491v-29.072l22.135 22.146v30.755c0 25.806-10.046 50.062-28.298 68.302l-85.845 85.845a100.599 100.599 0 00-4.939 5.309h-.022v.023c-15.412 17.836-23.819 40.352-23.819 64.148h-.011zm23.819-61.544v52.295c0 22.741-7.801 44.27-22.146 61.556v-52.296c0-22.729 7.801-44.269 22.146-61.544v-.011zm-98.574 63.52l-85.846-85.846c-18.251-18.251-28.297-42.507-28.297-68.301V418.9l17.667 17.668a94.597 94.597 0 014.468 4.793v54.259c0 23.808 8.407 46.324 23.818 64.16v.022h.023a99.395 99.395 0 004.939 5.31l85.845 85.845c18.251 18.251 28.297 42.507 28.297 68.313v30.755l-22.146 22.146v-29.072c0-26.254-10.226-50.937-28.791-69.491l.023-.022zm-23.819 23.818l-85.845-85.845c-18.252-18.251-28.297-42.508-28.297-68.302v-31.103h-.023c11.427-13.211 19.003-29.004 22.169-45.976v53.261c0 26.254 10.225 50.937 28.791 69.491l85.845 85.845c18.251 18.252 28.297 42.508 28.297 68.302v30.755l-22.135 22.135v-29.072c0-26.254-10.225-50.937-28.791-69.502l-.011.011zm-23.818 23.819l-85.846-85.846c-18.251-18.251-28.297-42.507-28.297-68.301v-30.755l18.857-18.858a103.641 103.641 0 003.289-3.446v29.24c0 26.255 10.226 50.937 28.791 69.492l85.845 85.845c18.252 18.251 28.298 42.507 28.298 68.313v30.755l-18.858 18.857a107.817 107.817 0 00-3.289 3.446v-29.24c0-26.254-10.225-50.937-28.79-69.491v-.011zM154.12 671.61v54.26a106.466 106.466 0 01-4.467 4.793l-17.668 17.667V647.792c0-25.806 10.046-50.062 28.297-68.302l85.846-85.845c18.565-18.566 28.791-43.248 28.791-69.491v-29.072l22.146 22.146v30.755c0 25.806-10.046 50.062-28.297 68.302l-85.846 85.845a100.599 100.599 0 00-4.939 5.309h-.022v.023c-15.411 17.836-23.819 40.352-23.819 64.148h-.022zm23.819-61.544v52.295c0 22.741-7.802 44.27-22.135 61.556v-52.296c0-22.729 7.801-44.269 22.135-61.544v-.011zm76.428-283.173l85.845 85.845c18.251 18.251 28.297 42.508 28.297 68.313v100.538l-17.667-17.667a99.303 99.303 0 01-4.468-4.782v-54.259c0-26.255-10.225-50.937-28.791-69.492l-85.845-85.845c-18.251-18.251-28.297-42.507-28.297-68.313v-30.755l22.135-22.135v29.072c0 26.254 10.225 50.937 28.791 69.491v-.011zm23.818-23.819l85.845 85.846c18.252 18.251 28.298 42.507 28.298 68.301v31.103h.022c-11.427 13.212-19.003 29.005-22.168 45.976v-53.26c0-26.255-10.226-50.937-28.791-69.492l-85.846-85.845c-18.251-18.251-28.297-42.507-28.297-68.301v-30.756l22.146-22.146v29.072c0 26.254 10.226 50.937 28.791 69.502zm23.819-23.818l85.845 85.845c18.251 18.251 28.297 42.508 28.297 68.302v30.755l-18.857 18.857a105.64 105.64 0 00-3.289 3.446v-29.24c0-26.254-10.226-50.937-28.791-69.491l-85.845-85.846c-18.252-18.251-28.297-42.507-28.297-68.312v-30.755l18.857-18.858a105.737 105.737 0 003.289-3.446v29.24c0 26.255 10.225 50.937 28.791 69.492v.011zm23.818-23.819l85.845 85.846c18.252 18.251 28.298 42.507 28.298 68.301v30.755l-22.135 22.146v-29.071c0-26.254-10.226-50.926-28.791-69.491l-85.846-85.846c-18.251-18.251-28.297-42.507-28.297-68.312v-31.104h-.022c11.426-13.211 19.003-29.004 22.168-45.976v53.261c0 26.254 10.226 50.937 28.791 69.502l-.011-.011zm187.293 73.431v-54.259a105.397 105.397 0 014.467-4.793l17.668-17.668v100.539c0 25.805-10.046 50.061-28.297 68.301l-85.846 85.846c-18.565 18.565-28.791 43.248-28.791 69.491v29.071l-22.134-22.146v-30.755c0-25.805 10.046-50.061 28.297-68.301l85.845-85.846a100.207 100.207 0 004.939-5.309h.022v-.022c15.412-17.836 23.819-40.353 23.819-64.16l.011.011zm-23.818 61.545v-52.296c0-22.729 7.801-44.269 22.146-61.544v52.295c0 22.73-7.801 44.27-22.146 61.545zm98.574-63.52l85.845 85.845c18.251 18.251 28.297 42.508 28.297 68.313v100.538l-17.667-17.667a99.303 99.303 0 01-4.468-4.782v-54.259c0-26.255-10.225-50.937-28.791-69.492l-85.845-85.845c-18.251-18.251-28.297-42.507-28.297-68.313v-30.755l22.146-22.135v29.072c0 26.254 10.225 50.937 28.791 69.491l-.011-.011zm23.818-23.819l85.845 85.846c18.24 18.251 28.298 42.507 28.298 68.301v31.103h.022c-11.427 13.212-19.003 29.005-22.168 45.976v-53.26c0-26.255-10.226-50.937-28.791-69.492l-85.846-85.845c-18.251-18.251-28.297-42.507-28.297-68.301v-30.756l22.135-22.146v29.072c0 26.254 10.225 50.937 28.791 69.502h.011zm23.819-23.818l85.845 85.845c18.251 18.251 28.297 42.508 28.297 68.302v30.755l-18.857 18.857a105.64 105.64 0 00-3.289 3.446v-29.24c0-26.254-10.225-50.937-28.791-69.491l-85.845-85.846c-18.251-18.251-28.297-42.507-28.297-68.312v-30.755l18.857-18.858a105.737 105.737 0 003.289-3.446v29.24c0 26.255 10.225 50.937 28.791 69.492v.011zm42.675 225.625v52.295c-14.333-17.275-22.134-38.815-22.134-61.544v-52.296c14.333 17.286 22.134 38.815 22.134 61.545zM582.898 369.58v30.755c0 25.805-10.046 50.062-28.297 68.313l-85.845 85.845c-18.566 18.566-28.791 43.248-28.791 69.491v29.24a107.458 107.458 0 00-3.278-3.446l-18.857-18.857v-30.755c0-25.805 10.046-50.062 28.297-68.302l85.845-85.845c18.566-18.565 28.791-43.248 28.791-69.491v-29.24a95.95 95.95 0 003.289 3.446l18.857 18.857-.011-.011zm-23.796-24.167h-.022v31.104c0 25.805-10.046 50.061-28.298 68.301l-85.845 85.845c-18.565 18.566-28.791 43.249-28.791 69.492v29.071L394 607.08v-30.755c0-25.805 10.046-50.062 28.297-68.302l85.846-85.845c18.565-18.565 28.791-43.248 28.791-69.491v-53.261c3.165 16.972 10.741 32.765 22.168 45.976v.011zM344.679 504.881v52.295c-14.333-17.275-22.134-38.815-22.134-61.544v-52.296c14.333 17.286 22.134 38.815 22.134 61.545zm96.947 150.207h.022v-31.104c0-25.805 10.046-50.061 28.297-68.301l85.846-85.846c18.565-18.565 28.791-43.248 28.791-69.491v-29.071l22.146 22.134v30.756c0 25.805-10.046 50.061-28.297 68.301l-85.846 85.846c-18.565 18.565-28.791 43.248-28.791 69.491v53.26c-3.165-16.971-10.742-32.764-22.168-45.975zm309.697-388.426c0-25.805 10.045-50.062 28.297-68.302l85.845-85.845c18.565-18.566 28.791-43.248 28.791-69.491V13.772a94.34 94.34 0 003.289 3.446l18.857 18.858V66.83c0 25.805-10.046 50.062-28.297 68.301l-85.845 85.846c-18.566 18.565-28.791 43.248-28.791 69.491v29.24a96.838 96.838 0 00-3.289-3.446l-18.857-18.857V266.65v.011zm-95.286-156.83c14.334 17.286 22.135 38.815 22.135 61.545v52.295c-14.334-17.286-22.135-38.815-22.135-61.544v-52.296zm-23.818-24.424l17.667 17.667a99.303 99.303 0 014.468 4.782v54.259c0 23.808 8.407 46.324 23.818 64.16v.022h.023a99.789 99.789 0 004.938 5.31l85.846 85.845c18.251 18.251 28.297 42.507 28.297 68.301v30.756l-22.135 22.146v-29.072c0-26.254-10.225-50.937-28.791-69.491l-85.845-85.846c-18.252-18.251-28.297-42.507-28.297-68.312V85.408h.011zm27.107 170.04l85.846 85.846c18.251 18.251 28.297 42.507 28.297 68.301v30.756l-22.146 22.146v-29.072c0-26.254-10.226-50.926-28.791-69.491l-85.846-85.846c-18.251-18.251-28.297-42.507-28.297-68.312v-31.104h-.022c11.426-13.211 19.003-29.004 22.168-45.975v53.26c0 26.254 10.226 50.937 28.791 69.503v-.012zM608.4 61.589l22.135 22.146v30.755c0 25.806-10.046 50.062-28.297 68.302l-85.845 85.845a99.395 99.395 0 00-4.939 5.31h-.023v.022c-15.411 17.836-23.818 40.352-23.818 64.16v54.259a105.42 105.42 0 01-4.468 4.793l-17.667 17.667V314.31c0-25.805 10.046-50.061 28.297-68.301l85.845-85.846c18.566-18.565 28.791-43.248 28.791-69.491V61.6l-.011-.01zm-23.818-23.818l22.146 22.135V90.66c0 25.805-10.046 50.061-28.297 68.301l-85.846 85.846c-18.565 18.565-28.791 43.248-28.791 69.491v53.26c-3.165-16.971-10.742-32.764-22.168-45.975h.022V290.48c0-25.805 10.046-50.061 28.297-68.301l85.846-85.846c18.565-18.565 28.791-43.248 28.791-69.49V37.77zM417.83 266.673c0-25.805 10.046-50.062 28.297-68.301l85.845-85.846c18.566-18.565 28.791-43.248 28.791-69.491V13.773a95.2 95.2 0 003.289 3.445l18.857 18.858V66.83c0 25.805-10.046 50.062-28.297 68.301l-85.845 85.846c-18.566 18.565-28.791 43.248-28.791 69.491v29.24a106.36 106.36 0 00-3.278-3.446l-18.857-18.857V266.65l-.011.022zm-95.285-156.829c14.333 17.285 22.134 38.814 22.134 61.544v52.295c-14.333-17.286-22.134-38.815-22.134-61.544v-52.295zm-23.819-24.425l17.667 17.667a99.303 99.303 0 014.468 4.782v54.26c0 23.807 8.407 46.323 23.818 64.159v.023h.023a99.76 99.76 0 004.939 5.309l85.845 85.845c18.251 18.251 28.297 42.508 28.297 68.302v30.755l-22.146 22.146v-29.072c0-26.254-10.226-50.937-28.791-69.491l-85.845-85.845c-18.251-18.251-28.297-42.508-28.297-68.313V85.408l.022.01zM274.908 61.6l22.146 22.146v30.756c0 25.805-10.046 50.061-28.298 68.301l-85.845 85.846a99.819 99.819 0 00-4.939 5.309h-.022v.022c-15.412 17.836-23.819 40.352-23.819 64.16v54.259a104.833 104.833 0 01-4.467 4.793l-17.668 17.668V314.321c0-25.805 10.046-50.061 28.298-68.301l85.845-85.846c18.565-18.565 28.791-43.248 28.791-69.49V61.611l-.022-.012zm-96.969 214.996v52.295c0 22.729-7.802 44.269-22.135 61.544V338.14c0-22.73 7.801-44.27 22.135-61.544zm-71.467 43.147a94.298 94.298 0 00-3.289-3.446L84.326 297.44v-30.756c0-25.805 10.046-50.061 28.297-68.301l85.845-85.846c18.566-18.565 28.791-43.248 28.791-69.49V13.772a95.2 95.2 0 003.289 3.445l18.857 18.858V66.83c0 25.805-10.046 50.062-28.297 68.301l-85.845 85.846c-18.566 18.565-28.791 43.248-28.791 69.491v29.275zm1.65 1.863h.022v-31.103c0-25.805 10.046-50.062 28.297-68.302l85.846-85.845c18.565-18.565 28.791-43.248 28.791-69.491V37.793l22.135 22.135v30.755c0 25.805-10.046 50.062-28.298 68.302L159.07 244.83c-18.565 18.565-28.791 43.248-28.791 69.491v53.261c-3.165-16.972-10.742-32.765-22.168-45.976h.011zM58.824 605.43l-22.146-22.146v-30.755c0-25.805 10.046-50.062 28.297-68.302l85.845-85.845a100.207 100.207 0 004.939-5.309h.022v-.023c15.412-17.835 23.819-40.352 23.819-64.159v-54.26a105.929 105.929 0 014.467-4.793l17.668-17.667v100.538c0 25.806-10.046 50.062-28.297 68.302l-85.846 85.845c-18.565 18.566-28.79 43.248-28.79 69.491v29.072l.022.011zm23.818 23.819l-22.135-22.146v-30.756c0-25.805 10.046-50.061 28.297-68.301l85.846-85.845c18.565-18.566 28.791-43.249 28.791-69.492v-53.26c3.165 16.971 10.742 32.764 22.168 45.975h-.022v31.104c0 25.805-10.046 50.061-28.297 68.301l-85.846 85.846c-18.565 18.565-28.79 43.248-28.79 69.491v29.071l-.012.012zm23.819 23.987a95.156 95.156 0 00-3.289-3.446l-18.858-18.858v-30.755c0-25.805 10.047-50.061 28.298-68.301l85.845-85.846c18.565-18.565 28.791-43.248 28.791-69.491v-29.24a94.26 94.26 0 003.289 3.446l18.857 18.857v30.755c0 25.806-10.046 50.062-28.297 68.313l-85.845 85.846c-18.566 18.565-28.791 43.248-28.791 69.491v29.24-.011zm1.65 1.863h.022v-31.103c0-25.806 10.046-50.062 28.297-68.302l85.846-85.845c18.565-18.566 28.791-43.248 28.791-69.492v-29.071l22.134 22.135v30.755c0 25.805-10.046 50.062-28.297 68.301l-85.845 85.846c-18.566 18.565-28.791 43.248-28.791 69.491v53.261c-3.165-16.972-10.742-32.765-22.169-45.976h.012zM58.812 938.923l-22.146-22.146v-30.755c0-25.806 10.046-50.062 28.297-68.313l85.846-85.845a100.226 100.226 0 004.939-5.31h.022v-.022c15.411-17.836 23.819-40.352 23.819-64.16v-54.259a104.833 104.833 0 014.467-4.793l17.667-17.667v100.538c0 25.805-10.046 50.061-28.297 68.313l-85.845 85.845c-18.566 18.565-28.791 43.248-28.791 69.502v29.072h.022zm23.819 23.819l-22.135-22.147V909.84c0-25.805 10.046-50.061 28.297-68.313l85.846-85.845c18.565-18.565 28.791-43.248 28.791-69.502v-53.261c3.165 16.983 10.741 32.765 22.168 45.976h-.022v31.103c0 25.805-10.046 50.062-28.298 68.313l-85.845 85.845c-18.565 18.566-28.79 43.248-28.79 69.503v29.071l-.012.012zm166.752-228.903c0 25.805-10.046 50.062-28.297 68.313l-85.846 85.845c-18.565 18.566-28.791 43.248-28.791 69.503v29.24a94.269 94.269 0 00-3.288-3.446l-18.858-18.858v-30.755c0-25.805 10.046-50.061 28.297-68.313l85.846-85.845c18.565-18.565 28.791-43.248 28.791-69.502v-29.24a95.077 95.077 0 003.289 3.446l18.857 18.857v30.755zm95.285 156.83c-14.334-17.286-22.135-38.815-22.135-61.545v-52.295c14.334 17.286 22.135 38.815 22.135 61.544v52.296zm23.819 24.424l-17.668-17.667a94.12 94.12 0 01-4.467-4.793v-54.26c0-26.254-10.226-50.937-28.791-69.491l-85.846-85.845c-18.251-18.251-28.297-42.508-28.297-68.302V583.98l22.135-22.146v29.072c0 26.254 10.226 50.937 28.791 69.491l85.846 85.845c18.251 18.251 28.297 42.508 28.297 68.313v100.538zm-27.108-170.029l-85.845-85.846c-18.251-18.24-28.297-42.507-28.297-68.301v-30.756l22.146-22.145v29.071c0 26.254 10.225 50.937 28.791 69.491l85.845 85.846c18.251 18.251 28.297 42.507 28.297 68.301v31.103h.023c-11.427 13.212-19.003 29.005-22.169 45.976v-53.26c0-26.255-10.225-50.937-28.791-69.492v.012zm50.926 193.859l-22.135-22.146v-30.755c0-25.806 10.046-50.062 28.297-68.313l85.846-85.845a100.226 100.226 0 004.939-5.31h.022v-.022c15.411-17.836 23.819-40.352 23.819-64.16v-54.259a104.833 104.833 0 014.467-4.793l17.667-17.667v100.538c0 25.805-10.046 50.061-28.297 68.313l-85.845 85.845c-18.566 18.565-28.791 43.248-28.791 69.502v29.072h.011zm23.819 23.819l-22.146-22.147V909.84c0-25.805 10.046-50.061 28.297-68.313l85.845-85.845c18.565-18.565 28.791-43.248 28.791-69.502v-53.261c3.165 16.983 10.742 32.765 22.169 45.976h-.023v31.103c0 25.805-10.046 50.062-28.297 68.313l-85.845 85.845c-18.566 18.566-28.791 43.248-28.791 69.503v29.083zm166.752-228.903c0 25.805-10.046 50.062-28.297 68.313l-85.846 85.845c-18.565 18.566-28.791 43.248-28.791 69.503v29.24a104.301 104.301 0 00-3.277-3.446l-18.858-18.858v-30.755c0-25.805 10.046-50.061 28.297-68.313l85.846-85.845c18.565-18.565 28.791-43.248 28.791-69.502v-29.24a95.077 95.077 0 003.289 3.446l18.857 18.857v30.755h-.011zm95.285 156.83c-14.334-17.286-22.135-38.815-22.135-61.545v-52.295c14.334 17.286 22.135 38.815 22.135 61.544v52.296zm23.818 24.424l-17.667-17.667a94.12 94.12 0 01-4.467-4.793v-54.26c0-26.254-10.226-50.937-28.791-69.491l-85.846-85.845c-18.251-18.251-28.297-42.508-28.297-68.302V583.98l22.146-22.146v29.072c0 26.254 10.226 50.937 28.791 69.491l85.845 85.845c18.252 18.251 28.298 42.508 28.298 68.313v100.538h-.012zm23.819 23.819l-22.146-22.146V886.01c0-25.805 10.046-50.061 28.297-68.312l85.845-85.846a98.994 98.994 0 004.939-5.309h.023v-.022c15.411-17.836 23.818-40.353 23.818-64.16v-54.259a99.272 99.272 0 014.479-4.793l17.667-17.668V686.18c0 25.805-10.046 50.061-28.297 68.312l-85.845 85.846c-18.566 18.565-28.791 43.248-28.791 69.502v29.072h.011zm96.969-214.995v-52.296c0-22.729 7.801-44.269 22.135-61.544v52.295c0 22.741-7.801 44.27-22.135 61.556v-.011zm71.467-43.148a94.269 94.269 0 003.288 3.446l18.858 18.858v30.755c0 25.805-10.046 50.061-28.297 68.313l-85.846 85.845c-18.565 18.565-28.791 43.248-28.791 69.502v29.24a95.077 95.077 0 00-3.289-3.446L751.3 964.425V933.67c0-25.805 10.046-50.062 28.297-68.313l85.846-85.845c18.565-18.566 28.791-43.248 28.791-69.503v-29.24zm-1.662-1.863h-.022v31.103c0 25.806-10.046 50.062-28.297 68.313l-85.846 85.845c-18.565 18.566-28.791 43.249-28.791 69.503v29.072l-22.146-22.147V909.84c0-25.805 10.046-50.061 28.297-68.313l85.846-85.845c18.565-18.565 28.791-43.248 28.791-69.502v-53.261c3.165 16.983 10.742 32.765 22.168 45.976v.011zm49.299-283.835l22.146 22.146v30.755c0 25.805-10.046 50.062-28.297 68.301l-85.846 85.846a100.207 100.207 0 00-4.939 5.309h-.022v.023c-15.411 17.835-23.819 40.352-23.819 64.148v54.259a104.833 104.833 0 01-4.467 4.793l-17.667 17.668V647.78c0-25.805 10.045-50.061 28.297-68.301l85.845-85.845c18.565-18.566 28.791-43.249 28.791-69.492v-29.071h-.022zm-23.819-23.819l22.146 22.135v30.755c0 25.806-10.046 50.062-28.297 68.302l-85.845 85.845c-18.566 18.566-28.791 43.248-28.791 69.491v53.261c-3.166-16.972-10.742-32.765-22.169-45.976h.023v-31.103c0-25.805 10.046-50.062 28.297-68.302l85.845-85.845c18.566-18.565 28.791-43.248 28.791-69.491v-29.072zm-23.818-23.987a94.269 94.269 0 003.288 3.446l18.858 18.858v30.755c0 25.805-10.046 50.061-28.297 68.313l-85.846 85.845c-18.565 18.565-28.791 43.248-28.791 69.491v29.24a95.077 95.077 0 00-3.289-3.446L751.3 630.91v-30.755c0-25.806 10.046-50.062 28.297-68.302l85.846-85.845c18.565-18.566 28.791-43.248 28.791-69.491v-29.252zm-1.662-1.863h-.022v31.103c0 25.806-10.046 50.062-28.297 68.302l-85.846 85.845c-18.565 18.566-28.791 43.248-28.791 69.491v29.072l-22.146-22.146v-30.755c0-25.806 10.046-50.062 28.297-68.302l85.846-85.845c18.565-18.566 28.791-43.248 28.791-69.491v-53.261c3.165 16.972 10.742 32.765 22.168 45.976v.011zm71.445-230.934c0 25.805-10.046 50.062-28.297 68.301l-85.846 85.846a100.207 100.207 0 00-4.939 5.309h-.022v.023c-15.411 17.835-23.819 40.352-23.819 64.159v54.26a105.337 105.337 0 01-4.467 4.792l-17.667 17.668V314.288c0-25.806 10.045-50.062 28.297-68.302l85.845-85.845c18.565-18.566 28.791-43.248 28.791-69.491V61.578l22.146 22.146v30.755l-.022-.011z"/></g><defs><clipPath id="clip0_403_1856"><path fill="#fff" transform="translate(.108)" d="M0 0h1000.5v1000.5H0z"/></clipPath></defs></svg>