<svg width="150" height="46" fill="none" xmlns="http://www.w3.org/2000/svg"><path d="M16.868 4.78l-4.94 12.735-4.89-12.734H.784v2.524h1.673v11.67H.8v2.54h6.252v-2.54H5.491V8.261l5.28 13.254h2.3l5.236-13.254v10.712h-1.563l.03 2.542h6.252v-2.542h-1.655V7.304h1.655V4.782h-6.158zm8.35 0h6.252v2.525h-1.562v9.708l7.94-12.232h4.689v2.524h-1.562v11.67h1.562v2.54h-6.252v-2.54h1.563v-9.71l-7.94 12.25h-4.69v-2.54h1.563V7.304h-1.563V4.78zm30.059 14.194h1.64v-4.971h-7.501v4.971h1.64v2.542h-6.33v-2.542h1.641V7.307h-1.642V4.78h6.331v2.526h-1.64v4.172h7.501V7.307h-1.64V4.78h6.346v2.526h-1.564v11.667h1.564v2.542h-6.346v-2.542zM78.299 4.78v5.38h-2.516a3.961 3.961 0 00-4.393-3.357c-3.72 0-4.829 3.043-4.829 6.51 0 3.921 2.14 6.163 5.141 6.163a3.756 3.756 0 004.049-3.67h3.033c-.236 2.524-1.564 6.273-7.222 6.273-1.281 0-8.27-.125-8.27-8.578 0-6.902 3.737-9.16 7.818-9.16a5.759 5.759 0 014.61 1.914V4.844l2.579-.064zm6.499 14.194h1.656V7.307h-3.829v3.591h-2.517V4.781h15.725v6.117h-2.518V7.307h-3.828v11.667h1.657v2.542h-6.346v-2.542zm17.491-6.164h3.378c1.406 0 3.547-.455 3.547-2.744 0-2.29-2.344-2.76-3.516-2.76h-3.409v5.505zm-4.688-8.03h8.127c2.627 0 6.66.706 6.66 5.24 0 2.806-1.908 5.332-6.675 5.332h-3.407v3.622h1.641v2.542h-6.346v-2.542h1.657V7.307H97.6V4.78zm24.67 14.697c4.126 0 4.909-3.749 4.909-6.273 0-2.526-.783-6.273-4.909-6.273-4.127 0-4.91 3.763-4.91 6.273 0 2.509.783 6.273 4.91 6.273zm0-15.197c1.453 0 8.176.189 8.176 8.86 0 8.673-6.723 8.877-8.176 8.877-1.454 0-8.175-.187-8.175-8.876 0-8.688 6.721-8.86 8.175-8.86zM138.195 0a2.659 2.659 0 003.304 1.8A2.663 2.663 0 00143.29 0h2.455a5.249 5.249 0 01-6.603 3.412A5.258 5.258 0 01135.741 0h2.454zm-6.081 4.783h6.254v2.526h-1.564v9.708l7.94-12.234h4.689v2.526h-1.64v11.667h1.64v2.542h-6.25v-2.542h1.561V9.268l-7.94 12.25h-4.69v-2.542h1.644V7.31h-1.644V4.783zM5.474 36.728H8.85c1.422 0 3.564-.453 3.564-2.743s-2.36-2.76-3.533-2.76H5.489l-.015 5.503zm-4.689-8.03h8.128c2.625 0 6.658.723 6.658 5.24 0 2.823-1.906 5.332-6.673 5.332H5.489v3.622h1.564v2.541H.785v-2.541h1.656V31.225H.785v-2.527zM25.45 43.397c4.127 0 4.909-3.75 4.909-6.275 0-2.525-.782-6.271-4.909-6.271s-4.909 3.764-4.909 6.27c0 2.511.782 6.276 4.91 6.276zm0-15.198c1.454 0 8.176.187 8.176 8.861 0 8.674-6.722 8.876-8.176 8.876-1.454 0-8.176-.187-8.176-8.876 0-8.687 6.722-8.86 8.176-8.86zm25.199.501v5.38h-2.516a3.958 3.958 0 00-4.392-3.356c-3.72 0-4.83 3.043-4.83 6.507 0 3.922 2.14 6.166 5.143 6.166a3.759 3.759 0 004.08-3.672h3.032C50.931 42.251 49.603 46 43.943 46c-1.28 0-8.268-.125-8.268-8.58 0-6.902 3.736-9.16 7.816-9.16a5.764 5.764 0 014.642 1.805v-1.411l2.516.046zM68 28.7v5.381h-2.515a3.973 3.973 0 00-4.394-3.357c-3.719 0-4.83 3.043-4.83 6.508 0 3.922 2.142 6.165 5.142 6.165a3.759 3.759 0 004.049-3.672h3C68.22 42.251 66.891 46 61.231 46c-1.295 0-8.268-.125-8.268-8.58 0-6.901 3.737-9.16 7.816-9.16a5.765 5.765 0 014.706 1.805v-1.411L68 28.7zm2.26 0h6.252v2.524h-1.561v9.709L82.874 28.7h4.69v2.524h-1.563v11.67h1.563v2.54h-6.252v-2.54h1.562v-9.692l-7.94 12.248h-4.689v-2.556h1.642v-11.67h-1.642l.015-2.524zm19.51 0h6.255v2.524h-1.566v9.709l7.942-12.233h4.689v2.524h-1.64v11.67h1.64v2.54h-6.252v-2.54h1.563v-9.692l-8.003 12.233H89.71v-2.541h1.64v-11.67h-1.64l.06-2.524z" fill-rule="evenodd" clip-rule="evenodd" fill="#F5F5F5"/></svg>