<svg width="197" height="24" fill="none" xmlns="http://www.w3.org/2000/svg"><path d="M.605 23.003V2.4H13.86c1.191 0 2.252.149 3.183.428.93.28 1.694.707 2.327 1.247a5.53 5.53 0 011.434 2.01c.316.8.484 1.694.484 2.699 0 1.302-.298 2.4-.875 3.35-.577.93-1.415 1.637-2.514 2.14-1.005.465-2.215.726-3.648.744l7.577 8.003h-4.003l-7.447-7.854h-6.59v7.854H.642l-.037-.018zM3.75 4.857v7.798h9.606c.763 0 1.452-.075 2.03-.242a4.24 4.24 0 001.507-.745c.41-.335.726-.744.931-1.228a4.238 4.238 0 00.317-1.656c0-.615-.094-1.21-.298-1.713a3.134 3.134 0 00-.894-1.228 4.398 4.398 0 00-1.508-.744c-.596-.168-1.284-.242-2.085-.242H3.751z" fill="url(#paint0_linear_7_621)"/><path d="M35.623 23.282c-1.304 0-2.495-.13-3.575-.391-1.098-.26-2.048-.614-2.848-1.098a7.559 7.559 0 01-2.085-1.731 7.344 7.344 0 01-1.303-2.327c-.298-.856-.447-1.805-.447-2.829 0-1.023.149-1.898.447-2.754a7.274 7.274 0 011.284-2.29 7.867 7.867 0 012.067-1.73 9.648 9.648 0 012.83-1.098c1.06-.26 2.233-.39 3.518-.39 1.545 0 2.941.185 4.17.576 1.229.39 2.271.93 3.146 1.638.857.707 1.527 1.545 1.974 2.512.446.968.67 2.048.67 3.257v.596c0 .205-.037.39-.075.558H28.343c.056.428.15.838.261 1.21.186.651.484 1.21.875 1.712.391.484.875.912 1.452 1.266.577.353 1.285.614 2.067.8.782.168 1.675.26 2.643.26 1.36 0 2.495-.111 3.426-.353.93-.242 1.675-.596 2.234-1.06a3.813 3.813 0 001.21-1.713l2.885.502c-.353 1.08-.93 1.992-1.731 2.718-.8.726-1.862 1.265-3.184 1.637-1.321.354-2.922.54-4.821.54l-.037-.018zm-7.224-9.716h14.112a5.109 5.109 0 00-.466-1.563 4.366 4.366 0 00-1.377-1.656c-.596-.466-1.322-.82-2.178-1.08-.857-.26-1.843-.39-2.96-.39-.987 0-1.862.092-2.644.26-.782.167-1.452.428-2.01.782a5.54 5.54 0 00-1.453 1.247c-.41.483-.67 1.042-.856 1.675-.075.242-.13.465-.186.707l.018.018z" fill="url(#paint1_linear_7_621)"/><path d="M57.702 8.895c-1.247 0-2.308.093-3.146.26-.838.168-1.49.429-1.918.782-.428.335-.651.763-.651 1.247 0 .484.13.894.41 1.191.278.298.744.54 1.395.726.652.168 1.546.317 2.644.41l3.835.204c1.676.13 2.997.391 4.003.745 1.005.353 1.731.837 2.196 1.451.466.615.69 1.396.69 2.345 0 1.061-.336 1.973-1.025 2.718-.689.763-1.712 1.321-3.053 1.73-1.34.391-3.016.596-5.026.596s-3.575-.186-4.896-.558c-1.322-.372-2.346-.95-3.09-1.731-.746-.782-1.248-1.768-1.509-2.96l2.849-.446c.204 1.173.837 2.047 1.936 2.624 1.098.577 2.643.856 4.617.856 1.08 0 2.01-.055 2.792-.167.782-.112 1.415-.28 1.936-.503.503-.223.894-.483 1.136-.781.242-.298.372-.652.372-1.043 0-.52-.13-.949-.41-1.265-.279-.317-.725-.577-1.34-.763-.614-.205-1.47-.335-2.55-.41l-3.891-.241c-1.638-.13-2.942-.391-3.966-.745-1.005-.354-1.75-.838-2.215-1.452-.465-.614-.707-1.377-.707-2.289 0-1.005.335-1.861 1.005-2.568.67-.707 1.638-1.247 2.923-1.638 1.284-.39 2.83-.577 4.654-.577 1.824 0 3.37.186 4.636.54 1.265.372 2.27.912 2.997 1.638.726.725 1.21 1.656 1.433 2.791l-2.792.41a3.064 3.064 0 00-.912-1.787c-.484-.465-1.173-.8-2.067-1.024-.875-.223-1.992-.335-3.295-.335v.019z" fill="url(#paint2_linear_7_621)"/><path d="M71.813 4.503V1.525h3.202v2.978h-3.202zm.112 18.5V6.978h2.979v16.025h-2.979z" fill="url(#paint3_linear_7_621)"/><path d="M97.17.91h2.978v22.093h-2.68l-.206-3.332a7.734 7.734 0 01-1.172 1.303c-.838.744-1.862 1.321-3.054 1.73-1.191.41-2.513.596-3.984.596-1.135 0-2.178-.13-3.146-.39-.95-.261-1.806-.615-2.55-1.099a7.043 7.043 0 01-1.88-1.75 7.79 7.79 0 01-1.155-2.288c-.26-.838-.39-1.768-.39-2.773 0-1.005.13-1.899.39-2.755.26-.856.652-1.62 1.173-2.308a7.654 7.654 0 011.88-1.75 8.83 8.83 0 012.55-1.116 12.03 12.03 0 013.128-.39c1.471 0 2.811.204 3.984.632 1.192.428 2.197 1.005 3.053 1.75.41.353.782.744 1.099 1.172V.93l-.019-.018zm-7.243 20.045c1.49 0 2.774-.242 3.854-.744 1.08-.503 1.918-1.191 2.495-2.085.577-.893.875-1.935.875-3.108 0-.875-.168-1.693-.503-2.438a5.184 5.184 0 00-1.452-1.898 6.746 6.746 0 00-2.29-1.229 10.07 10.07 0 00-3.016-.446c-.912 0-1.731.093-2.476.279-.745.186-1.396.447-1.936.8a5.012 5.012 0 00-1.396 1.247 5.186 5.186 0 00-.857 1.657 6.864 6.864 0 00-.279 1.991c0 .707.093 1.377.28 1.991a4.84 4.84 0 00.856 1.657c.39.484.856.912 1.396 1.247a6.81 6.81 0 001.936.8c.745.186 1.564.28 2.476.28h.037z" fill="url(#paint4_linear_7_621)"/><path d="M115.376 23.282c-1.303 0-2.494-.13-3.574-.391-1.098-.26-2.048-.614-2.848-1.098a7.35 7.35 0 01-3.389-4.057c-.297-.857-.446-1.806-.446-2.83 0-1.023.149-1.898.446-2.754a7.286 7.286 0 011.285-2.29 7.874 7.874 0 012.066-1.73 9.656 9.656 0 012.83-1.098c1.061-.26 2.234-.39 3.519-.39 1.545 0 2.941.185 4.17.576 1.229.39 2.271.93 3.146 1.638.856.707 1.527 1.545 1.973 2.512.447.968.671 2.048.671 3.257v.596c0 .205-.038.39-.075.558h-17.053c.056.428.149.838.261 1.21a4.97 4.97 0 00.875 1.712c.391.484.875.912 1.452 1.266.577.353 1.285.614 2.066.8.782.168 1.676.26 2.644.26 1.359 0 2.495-.111 3.426-.353.93-.242 1.675-.596 2.234-1.06a3.814 3.814 0 001.21-1.713l2.885.502c-.354 1.08-.931 1.992-1.731 2.718-.801.726-1.862 1.265-3.184 1.637-1.321.354-2.922.54-4.821.54l-.038-.018zm-7.223-9.716h14.112a5.106 5.106 0 00-.466-1.563 4.363 4.363 0 00-1.377-1.656c-.596-.466-1.322-.82-2.179-1.08-.856-.26-1.843-.39-2.96-.39-.986 0-1.861.092-2.643.26-.782.167-1.452.428-2.011.782-.577.335-1.042.763-1.452 1.247-.409.483-.67 1.042-.856 1.675a9.219 9.219 0 00-.186.707l.018.018z" fill="url(#paint5_linear_7_621)"/><path d="M130.065 23.003V6.978h2.644l.204 3.592a7.462 7.462 0 012.011-2.103c.8-.577 1.731-1.023 2.774-1.34a11.28 11.28 0 013.295-.465c1.582 0 2.941.279 4.058.856s1.974 1.377 2.57 2.42c.595 1.042.875 2.27.875 3.684v9.4h-2.979v-8.804c0-1.024-.205-1.917-.615-2.661-.409-.763-1.023-1.34-1.805-1.768-.801-.429-1.788-.633-2.96-.633a8.812 8.812 0 00-2.849.446c-.875.298-1.638.708-2.271 1.247a5.523 5.523 0 00-1.471 1.936 6.19 6.19 0 00-.521 2.512v7.724h-2.979l.019-.018z" fill="url(#paint6_linear_7_621)"/><path d="M172.865 12.394l-2.942.558c-.167-.874-.54-1.619-1.098-2.196-.559-.577-1.303-1.023-2.215-1.321-.931-.298-2.011-.466-3.24-.466-.949 0-1.787.094-2.55.261-.764.186-1.415.428-1.974.782a5.014 5.014 0 00-1.396 1.247 5.604 5.604 0 00-.856 1.656c-.205.614-.298 1.303-.298 2.085 0 .725.093 1.395.298 2.01a5.19 5.19 0 00.856 1.656c.372.484.838.912 1.415 1.228a6.834 6.834 0 001.992.763c.763.168 1.601.26 2.513.26 1.248 0 2.346-.148 3.277-.427.931-.28 1.675-.726 2.234-1.303.577-.596.949-1.321 1.154-2.215l2.941.559c-.297 1.228-.856 2.289-1.712 3.126-.838.857-1.936 1.49-3.277 1.936-1.34.428-2.885.651-4.617.651-1.303 0-2.476-.13-3.537-.372a9.735 9.735 0 01-2.811-1.098 7.88 7.88 0 01-2.067-1.73 7.285 7.285 0 01-1.284-2.29c-.298-.856-.447-1.787-.447-2.81a8.67 8.67 0 01.447-2.83 7.686 7.686 0 011.284-2.326 7.226 7.226 0 012.067-1.73c.819-.466 1.75-.838 2.811-1.099 1.061-.26 2.234-.39 3.537-.39 1.769 0 3.314.223 4.636.67 1.322.446 2.401 1.098 3.239 1.935.838.856 1.378 1.899 1.638 3.146l-.018.074z" fill="url(#paint7_linear_7_621)"/><path d="M186.362 23.282c-1.303 0-2.495-.13-3.575-.391-1.098-.26-2.047-.614-2.848-1.098a7.56 7.56 0 01-2.085-1.731 7.347 7.347 0 01-1.303-2.327c-.298-.856-.447-1.805-.447-2.829 0-1.023.149-1.898.447-2.754a7.284 7.284 0 011.284-2.29 7.88 7.88 0 012.067-1.73 9.645 9.645 0 012.83-1.098c1.061-.26 2.234-.39 3.518-.39 1.545 0 2.942.185 4.17.576 1.229.39 2.271.93 3.146 1.638.857.707 1.527 1.545 1.974 2.512.447.968.67 2.048.67 3.257v.596c0 .205-.037.39-.074.558h-17.053c.056.428.149.838.26 1.21a4.97 4.97 0 00.875 1.712c.391.484.875.912 1.452 1.266.578.353 1.285.614 2.067.8.782.168 1.675.26 2.643.26 1.359 0 2.495-.111 3.426-.353s1.675-.596 2.234-1.06a3.814 3.814 0 001.21-1.713l2.886.502c-.354 1.08-.931 1.992-1.732 2.718-.8.726-1.861 1.265-3.183 1.637-1.322.354-2.923.54-4.822.54l-.037-.018zm-7.223-9.716h14.111a5.106 5.106 0 00-.465-1.563 4.375 4.375 0 00-1.378-1.656c-.596-.466-1.322-.82-2.178-1.08-.857-.26-1.843-.39-2.96-.39-.987 0-1.862.092-2.644.26-.782.167-1.452.428-2.01.782-.578.335-1.043.763-1.453 1.247-.409.483-.67 1.042-.856 1.675-.074.242-.13.465-.186.707l.019.018z" fill="url(#paint8_linear_7_621)"/><defs><linearGradient id="paint0_linear_7_621" x1="11.216" y1="2.4" x2="11.216" y2="23.021" gradientUnits="userSpaceOnUse"><stop stop-color="#672A10"/><stop offset=".286" stop-color="#C1AFA7"/><stop offset=".656" stop-color="#724B3A"/><stop offset="1" stop-color="#986955"/></linearGradient><linearGradient id="paint1_linear_7_621" x1="35.418" y1="6.643" x2="35.418" y2="23.3" gradientUnits="userSpaceOnUse"><stop stop-color="#672A10"/><stop offset=".286" stop-color="#C1AFA7"/><stop offset=".656" stop-color="#724B3A"/><stop offset="1" stop-color="#986955"/></linearGradient><linearGradient id="paint2_linear_7_621" x1="57.86" y1="6.643" x2="57.86" y2="23.3" gradientUnits="userSpaceOnUse"><stop stop-color="#672A10"/><stop offset=".286" stop-color="#C1AFA7"/><stop offset=".656" stop-color="#724B3A"/><stop offset="1" stop-color="#986955"/></linearGradient><linearGradient id="paint3_linear_7_621" x1="73.414" y1="1.525" x2="73.414" y2="23.003" gradientUnits="userSpaceOnUse"><stop stop-color="#672A10"/><stop offset=".286" stop-color="#C1AFA7"/><stop offset=".656" stop-color="#724B3A"/><stop offset="1" stop-color="#986955"/></linearGradient><linearGradient id="paint4_linear_7_621" x1="90.039" y1=".911" x2="90.039" y2="23.3" gradientUnits="userSpaceOnUse"><stop stop-color="#672A10"/><stop offset=".286" stop-color="#C1AFA7"/><stop offset=".656" stop-color="#724B3A"/><stop offset="1" stop-color="#986955"/></linearGradient><linearGradient id="paint5_linear_7_621" x1="115.172" y1="6.643" x2="115.172" y2="23.3" gradientUnits="userSpaceOnUse"><stop stop-color="#672A10"/><stop offset=".286" stop-color="#C1AFA7"/><stop offset=".656" stop-color="#724B3A"/><stop offset="1" stop-color="#986955"/></linearGradient><linearGradient id="paint6_linear_7_621" x1="139.271" y1="6.662" x2="139.271" y2="23.021" gradientUnits="userSpaceOnUse"><stop stop-color="#672A10"/><stop offset=".286" stop-color="#C1AFA7"/><stop offset=".656" stop-color="#724B3A"/><stop offset="1" stop-color="#986955"/></linearGradient><linearGradient id="paint7_linear_7_621" x1="163.1" y1="6.569" x2="163.1" y2="23.244" gradientUnits="userSpaceOnUse"><stop stop-color="#672A10"/><stop offset=".286" stop-color="#C1AFA7"/><stop offset=".656" stop-color="#724B3A"/><stop offset="1" stop-color="#986955"/></linearGradient><linearGradient id="paint8_linear_7_621" x1="186.157" y1="6.643" x2="186.157" y2="23.3" gradientUnits="userSpaceOnUse"><stop stop-color="#672A10"/><stop offset=".286" stop-color="#C1AFA7"/><stop offset=".656" stop-color="#724B3A"/><stop offset="1" stop-color="#986955"/></linearGradient></defs></svg>