<svg width="159" height="120" fill="none" xmlns="http://www.w3.org/2000/svg"><path d="M43.796 120c0-32.416-11.31-43.642-43.796-43.642 32.486 0 43.796-11.285 43.796-43.702 0 32.417 11.31 43.702 43.735 43.702-32.486 0-43.735 11.286-43.735 43.642zm98.179-86.023c-9.385 0-17.025-7.624-17.025-16.988C124.95 7.623 132.59 0 141.975 0 151.36 0 159 7.624 159 16.988c0 9.365-7.64 16.989-17.025 16.989zm0-28.034c-6.076 0-11.009 4.922-11.009 10.986 0 6.063 4.933 10.985 11.009 10.985 6.076 0 11.009-4.923 11.009-10.986 0-6.063-4.933-10.985-11.009-10.985z" fill="#8A694F"/></svg>