<svg width="159" height="120" fill="none" xmlns="http://www.w3.org/2000/svg"><path d="M115.204 120c0-32.416 11.31-43.642 43.796-43.642-32.486 0-43.796-11.285-43.796-43.702 0 32.417-11.31 43.702-43.735 43.702 32.486 0 43.735 11.286 43.735 43.642zM17.025 33.977c9.385 0 17.025-7.624 17.025-16.988C34.05 7.623 26.41 0 17.025 0 7.64 0 0 7.624 0 16.988c0 9.365 7.64 16.989 17.025 16.989zm0-28.034c6.076 0 11.01 4.922 11.01 10.986 0 6.063-4.934 10.985-11.01 10.985s-11.01-4.923-11.01-10.986c0-6.063 4.934-10.985 11.01-10.985z" fill="#8A694F"/></svg>