<svg width="40" height="40" fill="none" xmlns="http://www.w3.org/2000/svg"><g fill="#8A694F"><path d="M20.77 25.501l1.31.887a437.934 437.934 0 004.538 3.087 1.243 1.243 0 001.982-.805l3.833-17.044a1.054 1.054 0 00-.527-1.212 1.047 1.047 0 00-.456-.118c-.269 0-.536.05-.786.147-4.914 1.643-9.665 3.482-14.497 5.222l-7.895 2.857c-.24.078-.452.227-.606.427-.295.46 0 .936.639 1.117l5.241 1.412a.72.72 0 01.557.542c.64 1.905 1.327 3.777 1.917 5.681a1.1 1.1 0 001.411.833c.197-.063.372-.181.505-.34.901-.92 1.868-1.773 2.834-2.693zM18.624 0h2.801c.64.082 1.294.148 1.917.263A19.65 19.65 0 0135.791 7.75a19.506 19.506 0 013.817 15.994A20.02 20.02 0 0131.39 36.42a19.929 19.929 0 01-14.716 3.301A19.195 19.195 0 016.47 34.795 19.718 19.718 0 01.311 23.563c-.13-.69-.213-1.412-.311-2.118v-2.857c0-.624.147-1.264.246-1.888A19.883 19.883 0 016.47 5.205 19.522 19.522 0 0116.675.295C17.347.182 18.018.1 18.706 0"/><path d="M16.675 26.667a2.415 2.415 0 01-.164-.361c-.508-1.511-.999-3.022-1.507-4.532-.18-.526-.13-.657.328-.92l12.105-6.962s.114-.082.18-.082h.442c0 .147 0 .328-.147.41-.983.838-1.982 1.642-2.981 2.463a1197.765 1197.765 0 00-7.372 6.06 1.15 1.15 0 00-.344.69c-.147.951-.229 1.937-.343 2.89.007.098.007.196 0 .295h-.197"/></g></svg>