<svg width="40" height="40" fill="none" xmlns="http://www.w3.org/2000/svg"><path fill-rule="evenodd" clip-rule="evenodd" d="M20 40c11.046 0 20-8.954 20-20S31.046 0 20 0 0 8.954 0 20s8.954 20 20 20zm-4.43-26.766c-.407.044-.72.312-.912.733v.002l.078.031c.042.018.076.033.112.04.728.16 1.191.577 1.251 1.359l.043.518c.058.698.117 1.396.11 2.094-.005.584-.115 1.182-.27 1.749-.187.683-.634.81-1.19.377a3.437 3.437 0 01-.707-.737c-1.046-1.502-1.813-3.16-2.535-4.837-.273-.636-.682-.912-1.354-.894-.686.018-1.373.021-2.06.024-.442.001-.884.003-1.326.009-.782.01-.98.311-.67 1.028 1.393 3.22 3.04 6.286 5.18 9.07 1.367 1.779 3.051 3.081 5.156 3.816.969.34 1.97.33 2.97.32.157-.001.314-.003.472-.003.972 0 1.176-.213 1.248-1.193l.004-.047c.048-.652.096-1.313.542-1.851.358-.432.668-.496 1.126-.184.255.171.488.384.7.609.263.277.519.561.775.845.265.294.53.588.802.875.518.545 1.148.922 1.895.994.348.034.7.012 1.054-.009.172-.01.344-.02.516-.025.268-.006.536-.007.804-.009a20.362 20.362 0 001.743-.058c.795-.073 1.023-.533.727-1.285a1.378 1.378 0 00-.175-.33 33.656 33.656 0 01-.318-.432c-.28-.384-.56-.769-.879-1.116-.43-.469-.881-.919-1.332-1.369-.32-.32-.64-.64-.953-.966-.553-.576-.601-1.001-.176-1.681.198-.316.418-.616.638-.916.13-.177.26-.355.386-.535l.56-.804c.632-.907 1.265-1.813 1.87-2.738.234-.357.366-.792.489-1.207.118-.4-.065-.67-.464-.77a2.07 2.07 0 00-.507-.045c-.457.001-.915.005-1.372.009-.934.008-1.868.015-2.801.001-.532-.007-.811.213-1.019.69-.417.955-.845 1.912-1.344 2.826-.552 1.01-1.143 1.997-1.992 2.807-.548.524-1.132.247-1.221-.445a12.4 12.4 0 01-.092-1.681c.004-.547.022-1.095.04-1.643a69.19 69.19 0 00.038-1.642c.008-.974-.303-1.337-1.24-1.481l-.022-.004c-.45-.07-.908-.14-1.359-.12a46.23 46.23 0 00-3.04.23z" fill="#8A694F"/></svg>